<?xml version="1.0" encoding="utf-8" standalone="no"?>
<!DOCTYPE svg PUBLIC "-//W3C//DTD SVG 1.1//EN"
  "http://www.w3.org/Graphics/SVG/1.1/DTD/svg11.dtd">
<svg xmlns:xlink="http://www.w3.org/1999/xlink" width="460.8pt" height="345.6pt" viewBox="0 0 460.8 345.6" xmlns="http://www.w3.org/2000/svg" version="1.1">
 <metadata>
  <rdf:RDF xmlns:dc="http://purl.org/dc/elements/1.1/" xmlns:cc="http://creativecommons.org/ns#" xmlns:rdf="http://www.w3.org/1999/02/22-rdf-syntax-ns#">
   <cc:Work>
    <dc:type rdf:resource="http://purl.org/dc/dcmitype/StillImage"/>
    <dc:date>2026-03-03T00:06:56.338511</dc:date>
    <dc:format>image/svg+xml</dc:format>
    <dc:creator>
     <cc:Agent>
      <dc:title>Matplotlib v3.9.1, https://matplotlib.org/</dc:title>
     </cc:Agent>
    </dc:creator>
   </cc:Work>
  </rdf:RDF>
 </metadata>
 <defs>
  <style type="text/css">*{stroke-linejoin: round; stroke-linecap: butt}</style>
 </defs>
 <g id="figure_1">
  <g id="patch_1">
   <path d="M 0 345.6 
L 460.8 345.6 
L 460.8 0 
L 0 0 
z
" style="fill: #ffffff"/>
  </g>
  <g id="axes_1">
   <g id="patch_2">
    <path d="M 57.6 307.584 
L 414.72 307.584 
L 414.72 41.472 
L 57.6 41.472 
z
" style="fill: #ffffff"/>
   </g>
   <g id="matplotlib.axis_1">
    <g id="xtick_1">
     <g id="line2d_1">
      <defs>
       <path id="mf77bd7811c" d="M 0 0 
L 0 3.5 
" style="stroke: #000000; stroke-width: 0.8"/>
      </defs>
      <g>
       <use xlink:href="#mf77bd7811c" x="73.182117" y="307.584" style="stroke: #000000; stroke-width: 0.8"/>
      </g>
     </g>
     <g id="text_1">
      <!-- 0 -->
      <g transform="translate(70.000867 322.182437) scale(0.1 -0.1)">
       <defs>
        <path id="DejaVuSans-30" d="M 2034 4250 
Q 1547 4250 1301 3770 
Q 1056 3291 1056 2328 
Q 1056 1369 1301 889 
Q 1547 409 2034 409 
Q 2525 409 2770 889 
Q 3016 1369 3016 2328 
Q 3016 3291 2770 3770 
Q 2525 4250 2034 4250 
z
M 2034 4750 
Q 2819 4750 3233 4129 
Q 3647 3509 3647 2328 
Q 3647 1150 3233 529 
Q 2819 -91 2034 -91 
Q 1250 -91 836 529 
Q 422 1150 422 2328 
Q 422 3509 836 4129 
Q 1250 4750 2034 4750 
z
" transform="scale(0.015625)"/>
       </defs>
       <use xlink:href="#DejaVuSans-30"/>
      </g>
     </g>
    </g>
    <g id="xtick_2">
     <g id="line2d_2">
      <g>
       <use xlink:href="#mf77bd7811c" x="138.243148" y="307.584" style="stroke: #000000; stroke-width: 0.8"/>
      </g>
     </g>
     <g id="text_2">
      <!-- 100 -->
      <g transform="translate(128.699398 322.182437) scale(0.1 -0.1)">
       <defs>
        <path id="DejaVuSans-31" d="M 794 531 
L 1825 531 
L 1825 4091 
L 703 3866 
L 703 4441 
L 1819 4666 
L 2450 4666 
L 2450 531 
L 3481 531 
L 3481 0 
L 794 0 
L 794 531 
z
" transform="scale(0.015625)"/>
       </defs>
       <use xlink:href="#DejaVuSans-31"/>
       <use xlink:href="#DejaVuSans-30" x="63.623047"/>
       <use xlink:href="#DejaVuSans-30" x="127.246094"/>
      </g>
     </g>
    </g>
    <g id="xtick_3">
     <g id="line2d_3">
      <g>
       <use xlink:href="#mf77bd7811c" x="203.304179" y="307.584" style="stroke: #000000; stroke-width: 0.8"/>
      </g>
     </g>
     <g id="text_3">
      <!-- 200 -->
      <g transform="translate(193.760429 322.182437) scale(0.1 -0.1)">
       <defs>
        <path id="DejaVuSans-32" d="M 1228 531 
L 3431 531 
L 3431 0 
L 469 0 
L 469 531 
Q 828 903 1448 1529 
Q 2069 2156 2228 2338 
Q 2531 2678 2651 2914 
Q 2772 3150 2772 3378 
Q 2772 3750 2511 3984 
Q 2250 4219 1831 4219 
Q 1534 4219 1204 4116 
Q 875 4013 500 3803 
L 500 4441 
Q 881 4594 1212 4672 
Q 1544 4750 1819 4750 
Q 2544 4750 2975 4387 
Q 3406 4025 3406 3419 
Q 3406 3131 3298 2873 
Q 3191 2616 2906 2266 
Q 2828 2175 2409 1742 
Q 1991 1309 1228 531 
z
" transform="scale(0.015625)"/>
       </defs>
       <use xlink:href="#DejaVuSans-32"/>
       <use xlink:href="#DejaVuSans-30" x="63.623047"/>
       <use xlink:href="#DejaVuSans-30" x="127.246094"/>
      </g>
     </g>
    </g>
    <g id="xtick_4">
     <g id="line2d_4">
      <g>
       <use xlink:href="#mf77bd7811c" x="268.36521" y="307.584" style="stroke: #000000; stroke-width: 0.8"/>
      </g>
     </g>
     <g id="text_4">
      <!-- 300 -->
      <g transform="translate(258.82146 322.182437) scale(0.1 -0.1)">
       <defs>
        <path id="DejaVuSans-33" d="M 2597 2516 
Q 3050 2419 3304 2112 
Q 3559 1806 3559 1356 
Q 3559 666 3084 287 
Q 2609 -91 1734 -91 
Q 1441 -91 1130 -33 
Q 819 25 488 141 
L 488 750 
Q 750 597 1062 519 
Q 1375 441 1716 441 
Q 2309 441 2620 675 
Q 2931 909 2931 1356 
Q 2931 1769 2642 2001 
Q 2353 2234 1838 2234 
L 1294 2234 
L 1294 2753 
L 1863 2753 
Q 2328 2753 2575 2939 
Q 2822 3125 2822 3475 
Q 2822 3834 2567 4026 
Q 2313 4219 1838 4219 
Q 1578 4219 1281 4162 
Q 984 4106 628 3988 
L 628 4550 
Q 988 4650 1302 4700 
Q 1616 4750 1894 4750 
Q 2613 4750 3031 4423 
Q 3450 4097 3450 3541 
Q 3450 3153 3228 2886 
Q 3006 2619 2597 2516 
z
" transform="scale(0.015625)"/>
       </defs>
       <use xlink:href="#DejaVuSans-33"/>
       <use xlink:href="#DejaVuSans-30" x="63.623047"/>
       <use xlink:href="#DejaVuSans-30" x="127.246094"/>
      </g>
     </g>
    </g>
    <g id="xtick_5">
     <g id="line2d_5">
      <g>
       <use xlink:href="#mf77bd7811c" x="333.426242" y="307.584" style="stroke: #000000; stroke-width: 0.8"/>
      </g>
     </g>
     <g id="text_5">
      <!-- 400 -->
      <g transform="translate(323.882492 322.182437) scale(0.1 -0.1)">
       <defs>
        <path id="DejaVuSans-34" d="M 2419 4116 
L 825 1625 
L 2419 1625 
L 2419 4116 
z
M 2253 4666 
L 3047 4666 
L 3047 1625 
L 3713 1625 
L 3713 1100 
L 3047 1100 
L 3047 0 
L 2419 0 
L 2419 1100 
L 313 1100 
L 313 1709 
L 2253 4666 
z
" transform="scale(0.015625)"/>
       </defs>
       <use xlink:href="#DejaVuSans-34"/>
       <use xlink:href="#DejaVuSans-30" x="63.623047"/>
       <use xlink:href="#DejaVuSans-30" x="127.246094"/>
      </g>
     </g>
    </g>
    <g id="xtick_6">
     <g id="line2d_6">
      <g>
       <use xlink:href="#mf77bd7811c" x="398.487273" y="307.584" style="stroke: #000000; stroke-width: 0.8"/>
      </g>
     </g>
     <g id="text_6">
      <!-- 500 -->
      <g transform="translate(388.943523 322.182437) scale(0.1 -0.1)">
       <defs>
        <path id="DejaVuSans-35" d="M 691 4666 
L 3169 4666 
L 3169 4134 
L 1269 4134 
L 1269 2991 
Q 1406 3038 1543 3061 
Q 1681 3084 1819 3084 
Q 2600 3084 3056 2656 
Q 3513 2228 3513 1497 
Q 3513 744 3044 326 
Q 2575 -91 1722 -91 
Q 1428 -91 1123 -41 
Q 819 9 494 109 
L 494 744 
Q 775 591 1075 516 
Q 1375 441 1709 441 
Q 2250 441 2565 725 
Q 2881 1009 2881 1497 
Q 2881 1984 2565 2268 
Q 2250 2553 1709 2553 
Q 1456 2553 1204 2497 
Q 953 2441 691 2322 
L 691 4666 
z
" transform="scale(0.015625)"/>
       </defs>
       <use xlink:href="#DejaVuSans-35"/>
       <use xlink:href="#DejaVuSans-30" x="63.623047"/>
       <use xlink:href="#DejaVuSans-30" x="127.246094"/>
      </g>
     </g>
    </g>
    <g id="text_7">
     <!-- Epochs -->
     <g transform="translate(218.244375 335.860562) scale(0.1 -0.1)">
      <defs>
       <path id="DejaVuSans-45" d="M 628 4666 
L 3578 4666 
L 3578 4134 
L 1259 4134 
L 1259 2753 
L 3481 2753 
L 3481 2222 
L 1259 2222 
L 1259 531 
L 3634 531 
L 3634 0 
L 628 0 
L 628 4666 
z
" transform="scale(0.015625)"/>
       <path id="DejaVuSans-70" d="M 1159 525 
L 1159 -1331 
L 581 -1331 
L 581 3500 
L 1159 3500 
L 1159 2969 
Q 1341 3281 1617 3432 
Q 1894 3584 2278 3584 
Q 2916 3584 3314 3078 
Q 3713 2572 3713 1747 
Q 3713 922 3314 415 
Q 2916 -91 2278 -91 
Q 1894 -91 1617 61 
Q 1341 213 1159 525 
z
M 3116 1747 
Q 3116 2381 2855 2742 
Q 2594 3103 2138 3103 
Q 1681 3103 1420 2742 
Q 1159 2381 1159 1747 
Q 1159 1113 1420 752 
Q 1681 391 2138 391 
Q 2594 391 2855 752 
Q 3116 1113 3116 1747 
z
" transform="scale(0.015625)"/>
       <path id="DejaVuSans-6f" d="M 1959 3097 
Q 1497 3097 1228 2736 
Q 959 2375 959 1747 
Q 959 1119 1226 758 
Q 1494 397 1959 397 
Q 2419 397 2687 759 
Q 2956 1122 2956 1747 
Q 2956 2369 2687 2733 
Q 2419 3097 1959 3097 
z
M 1959 3584 
Q 2709 3584 3137 3096 
Q 3566 2609 3566 1747 
Q 3566 888 3137 398 
Q 2709 -91 1959 -91 
Q 1206 -91 779 398 
Q 353 888 353 1747 
Q 353 2609 779 3096 
Q 1206 3584 1959 3584 
z
" transform="scale(0.015625)"/>
       <path id="DejaVuSans-63" d="M 3122 3366 
L 3122 2828 
Q 2878 2963 2633 3030 
Q 2388 3097 2138 3097 
Q 1578 3097 1268 2742 
Q 959 2388 959 1747 
Q 959 1106 1268 751 
Q 1578 397 2138 397 
Q 2388 397 2633 464 
Q 2878 531 3122 666 
L 3122 134 
Q 2881 22 2623 -34 
Q 2366 -91 2075 -91 
Q 1284 -91 818 406 
Q 353 903 353 1747 
Q 353 2603 823 3093 
Q 1294 3584 2113 3584 
Q 2378 3584 2631 3529 
Q 2884 3475 3122 3366 
z
" transform="scale(0.015625)"/>
       <path id="DejaVuSans-68" d="M 3513 2113 
L 3513 0 
L 2938 0 
L 2938 2094 
Q 2938 2591 2744 2837 
Q 2550 3084 2163 3084 
Q 1697 3084 1428 2787 
Q 1159 2491 1159 1978 
L 1159 0 
L 581 0 
L 581 4863 
L 1159 4863 
L 1159 2956 
Q 1366 3272 1645 3428 
Q 1925 3584 2291 3584 
Q 2894 3584 3203 3211 
Q 3513 2838 3513 2113 
z
" transform="scale(0.015625)"/>
       <path id="DejaVuSans-73" d="M 2834 3397 
L 2834 2853 
Q 2591 2978 2328 3040 
Q 2066 3103 1784 3103 
Q 1356 3103 1142 2972 
Q 928 2841 928 2578 
Q 928 2378 1081 2264 
Q 1234 2150 1697 2047 
L 1894 2003 
Q 2506 1872 2764 1633 
Q 3022 1394 3022 966 
Q 3022 478 2636 193 
Q 2250 -91 1575 -91 
Q 1294 -91 989 -36 
Q 684 19 347 128 
L 347 722 
Q 666 556 975 473 
Q 1284 391 1588 391 
Q 1994 391 2212 530 
Q 2431 669 2431 922 
Q 2431 1156 2273 1281 
Q 2116 1406 1581 1522 
L 1381 1569 
Q 847 1681 609 1914 
Q 372 2147 372 2553 
Q 372 3047 722 3315 
Q 1072 3584 1716 3584 
Q 2034 3584 2315 3537 
Q 2597 3491 2834 3397 
z
" transform="scale(0.015625)"/>
      </defs>
      <use xlink:href="#DejaVuSans-45"/>
      <use xlink:href="#DejaVuSans-70" x="63.183594"/>
      <use xlink:href="#DejaVuSans-6f" x="126.660156"/>
      <use xlink:href="#DejaVuSans-63" x="187.841797"/>
      <use xlink:href="#DejaVuSans-68" x="242.822266"/>
      <use xlink:href="#DejaVuSans-73" x="306.201172"/>
     </g>
    </g>
   </g>
   <g id="matplotlib.axis_2">
    <g id="ytick_1">
     <g id="line2d_7">
      <defs>
       <path id="m48813bc7c2" d="M 0 0 
L -3.5 0 
" style="stroke: #000000; stroke-width: 0.8"/>
      </defs>
      <g>
       <use xlink:href="#m48813bc7c2" x="57.6" y="300.905238" style="stroke: #000000; stroke-width: 0.8"/>
      </g>
     </g>
     <g id="text_8">
      <!-- 25 -->
      <g transform="translate(37.875 304.704457) scale(0.1 -0.1)">
       <use xlink:href="#DejaVuSans-32"/>
       <use xlink:href="#DejaVuSans-35" x="63.623047"/>
      </g>
     </g>
    </g>
    <g id="ytick_2">
     <g id="line2d_8">
      <g>
       <use xlink:href="#m48813bc7c2" x="57.6" y="269.485255" style="stroke: #000000; stroke-width: 0.8"/>
      </g>
     </g>
     <g id="text_9">
      <!-- 30 -->
      <g transform="translate(37.875 273.284474) scale(0.1 -0.1)">
       <use xlink:href="#DejaVuSans-33"/>
       <use xlink:href="#DejaVuSans-30" x="63.623047"/>
      </g>
     </g>
    </g>
    <g id="ytick_3">
     <g id="line2d_9">
      <g>
       <use xlink:href="#m48813bc7c2" x="57.6" y="238.065272" style="stroke: #000000; stroke-width: 0.8"/>
      </g>
     </g>
     <g id="text_10">
      <!-- 35 -->
      <g transform="translate(37.875 241.864491) scale(0.1 -0.1)">
       <use xlink:href="#DejaVuSans-33"/>
       <use xlink:href="#DejaVuSans-35" x="63.623047"/>
      </g>
     </g>
    </g>
    <g id="ytick_4">
     <g id="line2d_10">
      <g>
       <use xlink:href="#m48813bc7c2" x="57.6" y="206.645289" style="stroke: #000000; stroke-width: 0.8"/>
      </g>
     </g>
     <g id="text_11">
      <!-- 40 -->
      <g transform="translate(37.875 210.444507) scale(0.1 -0.1)">
       <use xlink:href="#DejaVuSans-34"/>
       <use xlink:href="#DejaVuSans-30" x="63.623047"/>
      </g>
     </g>
    </g>
    <g id="ytick_5">
     <g id="line2d_11">
      <g>
       <use xlink:href="#m48813bc7c2" x="57.6" y="175.225305" style="stroke: #000000; stroke-width: 0.8"/>
      </g>
     </g>
     <g id="text_12">
      <!-- 45 -->
      <g transform="translate(37.875 179.024524) scale(0.1 -0.1)">
       <use xlink:href="#DejaVuSans-34"/>
       <use xlink:href="#DejaVuSans-35" x="63.623047"/>
      </g>
     </g>
    </g>
    <g id="ytick_6">
     <g id="line2d_12">
      <g>
       <use xlink:href="#m48813bc7c2" x="57.6" y="143.805322" style="stroke: #000000; stroke-width: 0.8"/>
      </g>
     </g>
     <g id="text_13">
      <!-- 50 -->
      <g transform="translate(37.875 147.604541) scale(0.1 -0.1)">
       <use xlink:href="#DejaVuSans-35"/>
       <use xlink:href="#DejaVuSans-30" x="63.623047"/>
      </g>
     </g>
    </g>
    <g id="ytick_7">
     <g id="line2d_13">
      <g>
       <use xlink:href="#m48813bc7c2" x="57.6" y="112.385339" style="stroke: #000000; stroke-width: 0.8"/>
      </g>
     </g>
     <g id="text_14">
      <!-- 55 -->
      <g transform="translate(37.875 116.184558) scale(0.1 -0.1)">
       <use xlink:href="#DejaVuSans-35"/>
       <use xlink:href="#DejaVuSans-35" x="63.623047"/>
      </g>
     </g>
    </g>
    <g id="ytick_8">
     <g id="line2d_14">
      <g>
       <use xlink:href="#m48813bc7c2" x="57.6" y="80.965356" style="stroke: #000000; stroke-width: 0.8"/>
      </g>
     </g>
     <g id="text_15">
      <!-- 60 -->
      <g transform="translate(37.875 84.764574) scale(0.1 -0.1)">
       <defs>
        <path id="DejaVuSans-36" d="M 2113 2584 
Q 1688 2584 1439 2293 
Q 1191 2003 1191 1497 
Q 1191 994 1439 701 
Q 1688 409 2113 409 
Q 2538 409 2786 701 
Q 3034 994 3034 1497 
Q 3034 2003 2786 2293 
Q 2538 2584 2113 2584 
z
M 3366 4563 
L 3366 3988 
Q 3128 4100 2886 4159 
Q 2644 4219 2406 4219 
Q 1781 4219 1451 3797 
Q 1122 3375 1075 2522 
Q 1259 2794 1537 2939 
Q 1816 3084 2150 3084 
Q 2853 3084 3261 2657 
Q 3669 2231 3669 1497 
Q 3669 778 3244 343 
Q 2819 -91 2113 -91 
Q 1303 -91 875 529 
Q 447 1150 447 2328 
Q 447 3434 972 4092 
Q 1497 4750 2381 4750 
Q 2619 4750 2861 4703 
Q 3103 4656 3366 4563 
z
" transform="scale(0.015625)"/>
       </defs>
       <use xlink:href="#DejaVuSans-36"/>
       <use xlink:href="#DejaVuSans-30" x="63.623047"/>
      </g>
     </g>
    </g>
    <g id="ytick_9">
     <g id="line2d_15">
      <g>
       <use xlink:href="#m48813bc7c2" x="57.6" y="49.545372" style="stroke: #000000; stroke-width: 0.8"/>
      </g>
     </g>
     <g id="text_16">
      <!-- 65 -->
      <g transform="translate(37.875 53.344591) scale(0.1 -0.1)">
       <use xlink:href="#DejaVuSans-36"/>
       <use xlink:href="#DejaVuSans-35" x="63.623047"/>
      </g>
     </g>
    </g>
    <g id="text_17">
     <!-- Accuracy -->
     <g transform="translate(31.795312 197.356125) rotate(-90) scale(0.1 -0.1)">
      <defs>
       <path id="DejaVuSans-41" d="M 2188 4044 
L 1331 1722 
L 3047 1722 
L 2188 4044 
z
M 1831 4666 
L 2547 4666 
L 4325 0 
L 3669 0 
L 3244 1197 
L 1141 1197 
L 716 0 
L 50 0 
L 1831 4666 
z
" transform="scale(0.015625)"/>
       <path id="DejaVuSans-75" d="M 544 1381 
L 544 3500 
L 1119 3500 
L 1119 1403 
Q 1119 906 1312 657 
Q 1506 409 1894 409 
Q 2359 409 2629 706 
Q 2900 1003 2900 1516 
L 2900 3500 
L 3475 3500 
L 3475 0 
L 2900 0 
L 2900 538 
Q 2691 219 2414 64 
Q 2138 -91 1772 -91 
Q 1169 -91 856 284 
Q 544 659 544 1381 
z
M 1991 3584 
L 1991 3584 
z
" transform="scale(0.015625)"/>
       <path id="DejaVuSans-72" d="M 2631 2963 
Q 2534 3019 2420 3045 
Q 2306 3072 2169 3072 
Q 1681 3072 1420 2755 
Q 1159 2438 1159 1844 
L 1159 0 
L 581 0 
L 581 3500 
L 1159 3500 
L 1159 2956 
Q 1341 3275 1631 3429 
Q 1922 3584 2338 3584 
Q 2397 3584 2469 3576 
Q 2541 3569 2628 3553 
L 2631 2963 
z
" transform="scale(0.015625)"/>
       <path id="DejaVuSans-61" d="M 2194 1759 
Q 1497 1759 1228 1600 
Q 959 1441 959 1056 
Q 959 750 1161 570 
Q 1363 391 1709 391 
Q 2188 391 2477 730 
Q 2766 1069 2766 1631 
L 2766 1759 
L 2194 1759 
z
M 3341 1997 
L 3341 0 
L 2766 0 
L 2766 531 
Q 2569 213 2275 61 
Q 1981 -91 1556 -91 
Q 1019 -91 701 211 
Q 384 513 384 1019 
Q 384 1609 779 1909 
Q 1175 2209 1959 2209 
L 2766 2209 
L 2766 2266 
Q 2766 2663 2505 2880 
Q 2244 3097 1772 3097 
Q 1472 3097 1187 3025 
Q 903 2953 641 2809 
L 641 3341 
Q 956 3463 1253 3523 
Q 1550 3584 1831 3584 
Q 2591 3584 2966 3190 
Q 3341 2797 3341 1997 
z
" transform="scale(0.015625)"/>
       <path id="DejaVuSans-79" d="M 2059 -325 
Q 1816 -950 1584 -1140 
Q 1353 -1331 966 -1331 
L 506 -1331 
L 506 -850 
L 844 -850 
Q 1081 -850 1212 -737 
Q 1344 -625 1503 -206 
L 1606 56 
L 191 3500 
L 800 3500 
L 1894 763 
L 2988 3500 
L 3597 3500 
L 2059 -325 
z
" transform="scale(0.015625)"/>
      </defs>
      <use xlink:href="#DejaVuSans-41"/>
      <use xlink:href="#DejaVuSans-63" x="66.658203"/>
      <use xlink:href="#DejaVuSans-63" x="121.638672"/>
      <use xlink:href="#DejaVuSans-75" x="176.619141"/>
      <use xlink:href="#DejaVuSans-72" x="239.998047"/>
      <use xlink:href="#DejaVuSans-61" x="281.111328"/>
      <use xlink:href="#DejaVuSans-63" x="342.390625"/>
      <use xlink:href="#DejaVuSans-79" x="397.371094"/>
     </g>
    </g>
   </g>
   <g id="line2d_16">
    <path d="M 73.832727 238.391431 
L 74.483338 227.519464 
L 75.133948 236.217038 
L 75.784558 234.042644 
L 76.435169 251.437791 
L 77.085779 236.217038 
L 77.736389 273.181724 
L 78.386999 257.960971 
L 79.03761 281.879297 
L 79.68822 234.042644 
L 80.33883 227.519464 
L 81.640051 264.484151 
L 82.290661 238.391431 
L 82.941272 240.565824 
L 83.591882 231.868251 
L 84.242492 238.391431 
L 84.893103 238.391431 
L 85.543713 262.309757 
L 86.194323 268.832937 
L 86.844934 244.914611 
L 87.495544 264.484151 
L 88.146154 240.565824 
L 88.796764 242.740218 
L 89.447375 249.263397 
L 90.097985 249.263397 
L 90.748595 220.996285 
L 91.399206 253.612184 
L 92.049816 242.740218 
L 92.700426 238.391431 
L 93.351037 255.786577 
L 94.001647 260.135364 
L 94.652257 260.135364 
L 95.302868 257.960971 
L 95.953478 284.05369 
L 96.604088 229.693858 
L 97.254698 225.345071 
L 97.905309 238.391431 
L 98.555919 234.042644 
L 99.206529 240.565824 
L 99.85714 242.740218 
L 100.50775 279.704904 
L 101.15836 253.612184 
L 101.808971 244.914611 
L 102.459581 242.740218 
L 103.110191 264.484151 
L 103.760802 203.601138 
L 104.411412 255.786577 
L 105.062022 194.903565 
L 105.712633 210.124318 
L 106.363243 214.473105 
L 107.013853 249.263397 
L 107.664463 225.345071 
L 108.315074 220.996285 
L 109.616294 286.228084 
L 110.266905 199.252351 
L 110.917515 220.996285 
L 111.568125 229.693858 
L 112.218736 253.612184 
L 112.869346 234.042644 
L 113.519956 257.960971 
L 114.170567 227.519464 
L 114.821177 244.914611 
L 115.471787 249.263397 
L 116.122398 247.089004 
L 116.773008 225.345071 
L 117.423618 257.960971 
L 118.074228 234.042644 
L 118.724839 229.693858 
L 119.375449 234.042644 
L 120.026059 216.647498 
L 120.67667 251.437791 
L 121.32728 212.298711 
L 121.97789 247.089004 
L 122.628501 212.298711 
L 123.279111 236.217038 
L 123.929721 231.868251 
L 124.580332 231.868251 
L 125.881552 227.519464 
L 126.532163 216.647498 
L 127.182773 255.786577 
L 127.833383 244.914611 
L 128.483993 244.914611 
L 129.134604 205.775531 
L 129.785214 190.554778 
L 130.435824 218.821891 
L 131.086435 214.473105 
L 131.737045 201.426745 
L 132.387655 214.473105 
L 133.038266 240.565824 
L 133.688876 205.775531 
L 134.339486 205.775531 
L 134.990097 201.426745 
L 135.640707 231.868251 
L 136.291317 231.868251 
L 136.941927 197.077958 
L 137.592538 257.960971 
L 138.243148 227.519464 
L 138.893758 223.170678 
L 139.544369 253.612184 
L 140.194979 201.426745 
L 140.845589 218.821891 
L 141.4962 197.077958 
L 142.14681 216.647498 
L 142.79742 197.077958 
L 143.448031 207.949925 
L 144.098641 214.473105 
L 144.749251 257.960971 
L 145.399862 212.298711 
L 146.050472 242.740218 
L 146.701082 240.565824 
L 147.351692 194.903565 
L 148.002303 205.775531 
L 148.652913 184.031598 
L 149.303523 203.601138 
L 149.954134 194.903565 
L 150.604744 192.729172 
L 151.255354 175.334025 
L 151.905965 203.601138 
L 152.556575 157.938879 
L 153.207185 203.601138 
L 153.857796 181.857205 
L 154.508406 164.462059 
L 155.159016 212.298711 
L 155.809627 179.682812 
L 156.460237 223.170678 
L 157.110847 192.729172 
L 157.761457 188.380385 
L 158.412068 214.473105 
L 159.062678 197.077958 
L 159.713288 192.729172 
L 160.363899 203.601138 
L 161.014509 192.729172 
L 161.665119 194.903565 
L 162.31573 203.601138 
L 162.96634 214.473105 
L 163.61695 192.729172 
L 164.267561 229.693858 
L 164.918171 170.985238 
L 165.568781 214.473105 
L 166.219392 214.473105 
L 166.870002 216.647498 
L 167.520612 231.868251 
L 168.171222 223.170678 
L 168.821833 201.426745 
L 169.472443 216.647498 
L 170.123053 194.903565 
L 170.773664 203.601138 
L 171.424274 177.508418 
L 172.074884 173.159632 
L 172.725495 207.949925 
L 173.376105 175.334025 
L 174.026715 177.508418 
L 174.677326 184.031598 
L 175.327936 160.113272 
L 175.978546 192.729172 
L 176.629156 194.903565 
L 177.279767 184.031598 
L 177.930377 175.334025 
L 178.580987 162.287665 
L 179.231598 166.636452 
L 179.882208 197.077958 
L 180.532818 207.949925 
L 181.183429 164.462059 
L 181.834039 151.415699 
L 182.484649 186.205992 
L 183.13526 166.636452 
L 183.78587 181.857205 
L 184.43648 166.636452 
L 185.087091 138.369339 
L 185.737701 142.718126 
L 186.388311 144.892519 
L 187.689532 166.636452 
L 188.340142 162.287665 
L 188.990752 144.892519 
L 189.641363 153.590092 
L 190.291973 175.334025 
L 190.942583 160.113272 
L 191.593194 155.764485 
L 192.243804 177.508418 
L 192.894414 142.718126 
L 193.545025 166.636452 
L 194.195635 147.066912 
L 194.846245 168.810845 
L 195.496856 136.194946 
L 196.147466 147.066912 
L 196.798076 140.543732 
L 197.448686 149.241305 
L 198.099297 140.543732 
L 198.749907 168.810845 
L 199.400517 173.159632 
L 200.051128 181.857205 
L 200.701738 136.194946 
L 201.352348 140.543732 
L 202.002959 173.159632 
L 202.653569 142.718126 
L 203.304179 157.938879 
L 204.6054 157.938879 
L 205.25601 190.554778 
L 205.906621 142.718126 
L 206.557231 157.938879 
L 207.207841 138.369339 
L 207.858451 170.985238 
L 208.509062 170.985238 
L 209.159672 188.380385 
L 209.810282 147.066912 
L 210.460893 173.159632 
L 211.111503 138.369339 
L 211.762113 147.066912 
L 212.412724 164.462059 
L 213.063334 142.718126 
L 214.364555 160.113272 
L 215.015165 170.985238 
L 215.665775 140.543732 
L 216.316385 149.241305 
L 216.966996 131.846159 
L 217.617606 110.102226 
L 218.268216 177.508418 
L 218.918827 131.846159 
L 219.569437 110.102226 
L 220.220047 131.846159 
L 220.870658 147.066912 
L 221.521268 142.718126 
L 222.171878 157.938879 
L 222.822489 131.846159 
L 223.473099 151.415699 
L 224.123709 129.671766 
L 224.77432 212.298711 
L 225.42493 116.625406 
L 226.07554 173.159632 
L 226.72615 120.974192 
L 227.376761 155.764485 
L 228.027371 103.579046 
L 228.677981 142.718126 
L 229.328592 116.625406 
L 229.979202 142.718126 
L 230.629812 149.241305 
L 231.931033 103.579046 
L 232.581643 151.415699 
L 233.232254 129.671766 
L 233.882864 101.404653 
L 234.533474 114.451013 
L 235.184085 112.276619 
L 235.834695 149.241305 
L 236.485305 138.369339 
L 237.135915 110.102226 
L 237.786526 114.451013 
L 238.437136 162.287665 
L 239.087746 144.892519 
L 239.738357 118.799799 
L 240.388967 142.718126 
L 241.039577 153.590092 
L 241.690188 112.276619 
L 242.340798 129.671766 
L 242.991408 116.625406 
L 243.642019 140.543732 
L 244.292629 107.927833 
L 244.943239 129.671766 
L 245.59385 134.020552 
L 246.24446 103.579046 
L 246.89507 127.497372 
L 247.54568 138.369339 
L 248.196291 164.462059 
L 248.846901 125.322979 
L 249.497511 110.102226 
L 250.148122 107.927833 
L 250.798732 94.881473 
L 251.449342 120.974192 
L 252.099953 120.974192 
L 252.750563 118.799799 
L 253.401173 88.358293 
L 254.051784 131.846159 
L 254.702394 94.881473 
L 255.353004 151.415699 
L 256.003615 131.846159 
L 256.654225 118.799799 
L 257.304835 94.881473 
L 257.955445 134.020552 
L 258.606056 114.451013 
L 259.256666 103.579046 
L 259.907276 105.753439 
L 260.557887 127.497372 
L 261.208497 120.974192 
L 261.859107 118.799799 
L 262.509718 103.579046 
L 263.160328 129.671766 
L 263.810938 127.497372 
L 264.461549 107.927833 
L 265.112159 107.927833 
L 265.762769 110.102226 
L 266.413379 142.718126 
L 267.06399 86.1839 
L 267.7146 147.066912 
L 268.36521 103.579046 
L 269.015821 101.404653 
L 269.666431 92.707079 
L 270.317041 107.927833 
L 270.967652 94.881473 
L 271.618262 129.671766 
L 272.268872 114.451013 
L 272.919483 131.846159 
L 273.570093 110.102226 
L 274.220703 107.927833 
L 274.871314 112.276619 
L 275.521924 88.358293 
L 276.172534 140.543732 
L 276.823144 125.322979 
L 277.473755 99.230259 
L 278.124365 84.009506 
L 278.774975 107.927833 
L 279.425586 110.102226 
L 280.076196 138.369339 
L 280.726806 118.799799 
L 281.377417 110.102226 
L 282.028027 125.322979 
L 282.678637 97.055866 
L 283.329248 94.881473 
L 283.979858 94.881473 
L 284.630468 112.276619 
L 285.281079 114.451013 
L 285.931689 134.020552 
L 286.582299 81.835113 
L 287.232909 127.497372 
L 287.88352 103.579046 
L 288.53413 88.358293 
L 289.18474 88.358293 
L 289.835351 97.055866 
L 290.485961 90.532686 
L 291.136571 103.579046 
L 291.787182 110.102226 
L 292.437792 62.265573 
L 293.088402 68.788753 
L 294.389623 101.404653 
L 295.690844 110.102226 
L 296.341454 103.579046 
L 297.642674 68.788753 
L 298.293285 79.66072 
L 298.943895 120.974192 
L 299.594505 120.974192 
L 300.245116 84.009506 
L 300.895726 116.625406 
L 301.546336 138.369339 
L 302.196947 77.486326 
L 302.847557 120.974192 
L 303.498167 127.497372 
L 304.148778 77.486326 
L 304.799388 105.753439 
L 305.449998 110.102226 
L 306.751219 68.788753 
L 307.401829 77.486326 
L 308.052439 70.963146 
L 308.70305 97.055866 
L 309.35366 101.404653 
L 310.00427 94.881473 
L 310.654881 94.881473 
L 311.305491 112.276619 
L 311.956101 62.265573 
L 312.606712 66.61436 
L 313.257322 99.230259 
L 313.907932 107.927833 
L 314.558543 84.009506 
L 315.209153 99.230259 
L 315.859763 125.322979 
L 316.510373 90.532686 
L 317.160984 92.707079 
L 317.811594 125.322979 
L 318.462204 55.742393 
L 319.112815 99.230259 
L 319.763425 84.009506 
L 321.064646 112.276619 
L 321.715256 116.625406 
L 322.365866 84.009506 
L 323.016477 86.1839 
L 323.667087 118.799799 
L 324.317697 81.835113 
L 324.968308 118.799799 
L 325.618918 131.846159 
L 326.269528 70.963146 
L 326.920138 73.13754 
L 327.570749 97.055866 
L 328.221359 105.753439 
L 328.871969 125.322979 
L 329.52258 103.579046 
L 330.17319 77.486326 
L 330.8238 75.311933 
L 331.474411 99.230259 
L 332.125021 86.1839 
L 332.775631 68.788753 
L 333.426242 88.358293 
L 334.076852 101.404653 
L 335.378073 77.486326 
L 336.028683 120.974192 
L 336.679293 75.311933 
L 337.329903 73.13754 
L 337.980514 99.230259 
L 338.631124 84.009506 
L 339.281734 101.404653 
L 339.932345 60.09118 
L 340.582955 120.974192 
L 341.884176 88.358293 
L 342.534786 101.404653 
L 343.185396 84.009506 
L 343.836007 107.927833 
L 344.486617 107.927833 
L 345.137227 97.055866 
L 345.787837 79.66072 
L 346.438448 75.311933 
L 347.089058 90.532686 
L 347.739668 86.1839 
L 348.390279 125.322979 
L 349.040889 88.358293 
L 349.691499 123.148586 
L 350.34211 86.1839 
L 350.99272 99.230259 
L 351.64333 86.1839 
L 352.293941 110.102226 
L 352.944551 81.835113 
L 353.595161 84.009506 
L 354.245772 97.055866 
L 354.896382 99.230259 
L 355.546992 112.276619 
L 356.197602 75.311933 
L 356.848213 99.230259 
L 357.498823 77.486326 
L 358.149433 66.61436 
L 358.800044 84.009506 
L 359.450654 88.358293 
L 360.101264 94.881473 
L 360.751875 112.276619 
L 361.402485 103.579046 
L 362.053095 92.707079 
L 362.703706 90.532686 
L 363.354316 127.497372 
L 364.004926 94.881473 
L 364.655537 103.579046 
L 365.306147 90.532686 
L 365.956757 107.927833 
L 366.607367 105.753439 
L 367.257978 70.963146 
L 367.908588 92.707079 
L 368.559198 79.66072 
L 369.209809 73.13754 
L 369.860419 79.66072 
L 370.511029 94.881473 
L 371.16164 81.835113 
L 371.81225 110.102226 
L 372.46286 92.707079 
L 373.113471 79.66072 
L 373.764081 105.753439 
L 374.414691 97.055866 
L 375.065302 86.1839 
L 375.715912 99.230259 
L 376.366522 57.916787 
L 377.017132 103.579046 
L 377.667743 53.568 
L 378.318353 70.963146 
L 378.968963 120.974192 
L 379.619574 81.835113 
L 380.270184 86.1839 
L 380.920794 75.311933 
L 381.571405 94.881473 
L 382.222015 77.486326 
L 382.872625 77.486326 
L 383.523236 116.625406 
L 384.173846 118.799799 
L 384.824456 81.835113 
L 385.475066 84.009506 
L 386.125677 107.927833 
L 386.776287 68.788753 
L 387.426897 70.963146 
L 388.077508 77.486326 
L 388.728118 97.055866 
L 389.378728 99.230259 
L 390.029339 99.230259 
L 390.679949 112.276619 
L 391.330559 101.404653 
L 391.98117 79.66072 
L 392.63178 107.927833 
L 393.28239 90.532686 
L 393.933001 107.927833 
L 394.583611 94.881473 
L 395.234221 86.1839 
L 395.884831 116.625406 
L 396.535442 77.486326 
L 397.186052 92.707079 
L 397.836662 103.579046 
L 398.487273 77.486326 
L 398.487273 77.486326 
" clip-path="url(#pde1e16fc9a)" style="fill: none; stroke: #1f77b4; stroke-width: 1.5; stroke-linecap: square"/>
   </g>
   <g id="line2d_17">
    <path d="M 73.832727 241.315615 
L 74.483338 254.316987 
L 75.133948 254.316987 
L 75.784558 236.981824 
L 76.435169 252.150092 
L 77.085779 208.812184 
L 77.736389 254.316987 
L 78.386999 247.816301 
L 79.03761 282.486628 
L 79.68822 178.475649 
L 80.33883 249.983197 
L 80.989441 241.315615 
L 81.640051 217.479766 
L 82.290661 241.315615 
L 82.941272 249.983197 
L 83.591882 226.147347 
L 84.893103 254.316987 
L 85.543713 252.150092 
L 86.194323 236.981824 
L 86.844934 249.983197 
L 87.495544 254.316987 
L 88.146154 223.980452 
L 88.796764 254.316987 
L 89.447375 241.315615 
L 90.097985 215.31287 
L 90.748595 232.648033 
L 91.399206 195.810812 
L 92.049816 178.475649 
L 92.700426 189.310126 
L 93.351037 254.316987 
L 94.001647 249.983197 
L 94.652257 241.315615 
L 95.302868 254.316987 
L 95.953478 206.645289 
L 96.604088 226.147347 
L 97.254698 254.316987 
L 97.905309 243.48251 
L 98.555919 241.315615 
L 99.206529 148.139113 
L 99.85714 249.983197 
L 100.50775 267.31836 
L 101.15836 254.316987 
L 101.808971 223.980452 
L 102.459581 169.808067 
L 103.110191 169.808067 
L 103.760802 258.650778 
L 104.411412 249.983197 
L 105.062022 219.646661 
L 105.712633 254.316987 
L 106.363243 254.316987 
L 107.013853 193.643916 
L 107.664463 119.969473 
L 108.315074 241.315615 
L 108.965684 258.650778 
L 109.616294 254.316987 
L 110.266905 241.315615 
L 110.917515 262.984569 
L 111.568125 228.314243 
L 112.218736 167.641172 
L 112.869346 249.983197 
L 113.519956 241.315615 
L 114.170567 254.316987 
L 114.821177 247.816301 
L 115.471787 191.477021 
L 116.122398 254.316987 
L 116.773008 241.315615 
L 117.423618 249.983197 
L 118.074228 254.316987 
L 118.724839 247.816301 
L 119.375449 206.645289 
L 120.026059 249.983197 
L 120.67667 139.471531 
L 121.32728 252.150092 
L 121.97789 249.983197 
L 122.628501 241.315615 
L 123.279111 249.983197 
L 123.929721 241.315615 
L 124.580332 249.983197 
L 125.230942 254.316987 
L 125.881552 217.479766 
L 126.532163 241.315615 
L 127.182773 202.311498 
L 127.833383 137.304636 
L 128.483993 249.983197 
L 129.134604 206.645289 
L 129.785214 219.646661 
L 130.435824 254.316987 
L 131.086435 184.976335 
L 131.737045 254.316987 
L 132.387655 243.48251 
L 133.038266 254.316987 
L 133.688876 234.814929 
L 134.339486 135.137741 
L 134.990097 226.147347 
L 135.640707 245.649406 
L 136.291317 204.478393 
L 136.941927 206.645289 
L 137.592538 239.14872 
L 138.243148 249.983197 
L 138.893758 254.316987 
L 139.544369 210.979079 
L 140.194979 221.813556 
L 140.845589 171.974962 
L 141.4962 215.31287 
L 142.14681 204.478393 
L 142.79742 171.974962 
L 143.448031 267.31836 
L 144.098641 226.147347 
L 144.749251 247.816301 
L 145.399862 193.643916 
L 146.050472 208.812184 
L 146.701082 247.816301 
L 147.351692 241.315615 
L 148.002303 271.652151 
L 148.652913 247.816301 
L 149.303523 215.31287 
L 149.954134 265.151464 
L 150.604744 200.144603 
L 151.255354 232.648033 
L 151.905965 154.639799 
L 152.556575 208.812184 
L 153.207185 197.977707 
L 153.857796 217.479766 
L 154.508406 256.483883 
L 155.159016 156.806695 
L 155.809627 282.486628 
L 156.460237 171.974962 
L 157.110847 236.981824 
L 157.761457 256.483883 
L 158.412068 169.808067 
L 159.062678 167.641172 
L 159.713288 247.816301 
L 160.363899 208.812184 
L 161.014509 239.14872 
L 161.665119 200.144603 
L 162.31573 221.813556 
L 162.96634 163.307381 
L 163.61695 252.150092 
L 164.267561 156.806695 
L 164.918171 156.806695 
L 165.568781 152.472904 
L 166.219392 189.310126 
L 166.870002 262.984569 
L 167.520612 165.474276 
L 168.171222 286.820418 
L 168.821833 167.641172 
L 169.472443 184.976335 
L 170.123053 165.474276 
L 170.773664 295.488 
L 171.424274 189.310126 
L 172.074884 232.648033 
L 172.725495 262.984569 
L 173.376105 200.144603 
L 174.026715 174.141858 
L 174.677326 169.808067 
L 175.327936 180.642544 
L 175.978546 195.810812 
L 176.629156 187.14323 
L 177.279767 163.307381 
L 177.930377 163.307381 
L 179.231598 176.308753 
L 179.882208 206.645289 
L 180.532818 215.31287 
L 181.183429 152.472904 
L 181.834039 221.813556 
L 182.484649 180.642544 
L 183.13526 163.307381 
L 183.78587 161.140485 
L 184.43648 180.642544 
L 185.087091 154.639799 
L 185.737701 156.806695 
L 186.388311 178.475649 
L 187.038921 187.14323 
L 187.689532 156.806695 
L 188.340142 143.805322 
L 188.990752 167.641172 
L 189.641363 182.809439 
L 190.291973 226.147347 
L 190.942583 165.474276 
L 191.593194 200.144603 
L 192.243804 180.642544 
L 192.894414 141.638427 
L 193.545025 150.306008 
L 194.195635 180.642544 
L 194.846245 163.307381 
L 195.496856 249.983197 
L 196.147466 226.147347 
L 196.798076 213.145975 
L 197.448686 206.645289 
L 198.099297 191.477021 
L 198.749907 180.642544 
L 199.400517 171.974962 
L 200.051128 182.809439 
L 200.701738 208.812184 
L 201.352348 178.475649 
L 202.002959 182.809439 
L 202.653569 189.310126 
L 203.304179 180.642544 
L 203.95479 161.140485 
L 204.6054 174.141858 
L 205.25601 197.977707 
L 205.906621 197.977707 
L 206.557231 152.472904 
L 207.207841 145.972218 
L 207.858451 137.304636 
L 208.509062 195.810812 
L 209.159672 182.809439 
L 209.810282 189.310126 
L 210.460893 176.308753 
L 211.111503 130.80395 
L 211.762113 143.805322 
L 212.412724 128.637054 
L 213.063334 141.638427 
L 213.713944 187.14323 
L 214.364555 215.31287 
L 215.015165 163.307381 
L 215.665775 150.306008 
L 216.316385 143.805322 
L 216.966996 152.472904 
L 217.617606 158.97359 
L 218.268216 156.806695 
L 218.918827 187.14323 
L 219.569437 165.474276 
L 220.220047 184.976335 
L 220.870658 143.805322 
L 221.521268 158.97359 
L 222.171878 150.306008 
L 222.822489 150.306008 
L 223.473099 165.474276 
L 224.123709 174.141858 
L 224.77432 163.307381 
L 225.42493 171.974962 
L 226.07554 152.472904 
L 226.72615 148.139113 
L 227.376761 137.304636 
L 228.027371 182.809439 
L 228.677981 104.801205 
L 229.328592 139.471531 
L 230.629812 165.474276 
L 231.280423 152.472904 
L 231.931033 174.141858 
L 232.581643 165.474276 
L 233.232254 143.805322 
L 233.882864 156.806695 
L 234.533474 189.310126 
L 235.184085 178.475649 
L 235.834695 169.808067 
L 236.485305 156.806695 
L 237.135915 171.974962 
L 237.786526 167.641172 
L 238.437136 187.14323 
L 239.087746 169.808067 
L 239.738357 169.808067 
L 240.388967 174.141858 
L 241.039577 174.141858 
L 241.690188 165.474276 
L 242.340798 167.641172 
L 242.991408 154.639799 
L 243.642019 148.139113 
L 244.292629 158.97359 
L 244.943239 184.976335 
L 245.59385 167.641172 
L 246.24446 139.471531 
L 246.89507 176.308753 
L 247.54568 191.477021 
L 248.196291 178.475649 
L 248.846901 176.308753 
L 249.497511 163.307381 
L 250.148122 143.805322 
L 250.798732 171.974962 
L 251.449342 180.642544 
L 252.099953 156.806695 
L 252.750563 167.641172 
L 253.401173 156.806695 
L 254.051784 163.307381 
L 254.702394 152.472904 
L 255.353004 145.972218 
L 256.003615 156.806695 
L 257.304835 174.141858 
L 257.955445 152.472904 
L 258.606056 154.639799 
L 259.256666 150.306008 
L 259.907276 152.472904 
L 260.557887 171.974962 
L 261.208497 152.472904 
L 261.859107 141.638427 
L 262.509718 176.308753 
L 263.160328 139.471531 
L 263.810938 130.80395 
L 264.461549 119.969473 
L 265.112159 117.802577 
L 265.762769 113.468787 
L 266.413379 163.307381 
L 267.06399 174.141858 
L 267.7146 171.974962 
L 268.36521 158.97359 
L 269.015821 178.475649 
L 270.967652 130.80395 
L 271.618262 158.97359 
L 272.268872 156.806695 
L 272.919483 152.472904 
L 273.570093 161.140485 
L 274.220703 154.639799 
L 274.871314 158.97359 
L 275.521924 130.80395 
L 276.172534 135.137741 
L 276.823144 150.306008 
L 277.473755 143.805322 
L 278.124365 148.139113 
L 278.774975 148.139113 
L 279.425586 145.972218 
L 280.076196 148.139113 
L 280.726806 148.139113 
L 281.377417 150.306008 
L 282.028027 148.139113 
L 282.678637 143.805322 
L 283.329248 154.639799 
L 283.979858 139.471531 
L 284.630468 139.471531 
L 285.281079 145.972218 
L 285.931689 135.137741 
L 286.582299 169.808067 
L 287.232909 169.808067 
L 287.88352 152.472904 
L 288.53413 182.809439 
L 289.18474 171.974962 
L 289.835351 141.638427 
L 290.485961 141.638427 
L 291.136571 161.140485 
L 291.787182 150.306008 
L 292.437792 171.974962 
L 293.088402 119.969473 
L 293.739013 152.472904 
L 294.389623 165.474276 
L 295.040233 171.974962 
L 295.690844 163.307381 
L 296.341454 163.307381 
L 296.992064 154.639799 
L 297.642674 141.638427 
L 298.293285 152.472904 
L 298.943895 132.970845 
L 299.594505 126.470159 
L 300.245116 126.470159 
L 300.895726 135.137741 
L 301.546336 132.970845 
L 302.196947 132.970845 
L 302.847557 141.638427 
L 303.498167 137.304636 
L 304.148778 148.139113 
L 305.449998 139.471531 
L 306.751219 126.470159 
L 307.401829 150.306008 
L 308.052439 139.471531 
L 308.70305 135.137741 
L 309.35366 150.306008 
L 310.00427 161.140485 
L 310.654881 156.806695 
L 311.305491 156.806695 
L 311.956101 141.638427 
L 312.606712 141.638427 
L 313.257322 128.637054 
L 313.907932 128.637054 
L 315.209153 154.639799 
L 316.510373 141.638427 
L 317.160984 137.304636 
L 318.462204 145.972218 
L 319.763425 117.802577 
L 320.414035 128.637054 
L 321.064646 135.137741 
L 321.715256 135.137741 
L 322.365866 141.638427 
L 323.016477 135.137741 
L 323.667087 145.972218 
L 324.317697 148.139113 
L 324.968308 156.806695 
L 325.618918 156.806695 
L 326.269528 143.805322 
L 327.570749 148.139113 
L 328.221359 161.140485 
L 328.871969 150.306008 
L 329.52258 141.638427 
L 330.17319 158.97359 
L 330.8238 163.307381 
L 331.474411 152.472904 
L 332.125021 156.806695 
L 332.775631 165.474276 
L 333.426242 145.972218 
L 334.076852 165.474276 
L 334.727462 163.307381 
L 335.378073 150.306008 
L 336.028683 156.806695 
L 336.679293 143.805322 
L 337.329903 174.141858 
L 338.631124 135.137741 
L 339.932345 122.136368 
L 340.582955 122.136368 
L 341.233565 124.303264 
L 341.884176 128.637054 
L 342.534786 145.972218 
L 343.185396 139.471531 
L 343.836007 135.137741 
L 344.486617 132.970845 
L 345.137227 128.637054 
L 345.787837 128.637054 
L 346.438448 141.638427 
L 347.089058 158.97359 
L 347.739668 145.972218 
L 348.390279 115.635682 
L 349.040889 122.136368 
L 349.691499 117.802577 
L 350.34211 150.306008 
L 350.99272 141.638427 
L 351.64333 145.972218 
L 352.293941 135.137741 
L 352.944551 122.136368 
L 353.595161 126.470159 
L 354.245772 126.470159 
L 354.896382 132.970845 
L 355.546992 130.80395 
L 356.197602 130.80395 
L 356.848213 124.303264 
L 357.498823 135.137741 
L 358.149433 161.140485 
L 358.800044 135.137741 
L 359.450654 145.972218 
L 360.101264 148.139113 
L 360.751875 145.972218 
L 361.402485 137.304636 
L 362.053095 145.972218 
L 362.703706 126.470159 
L 363.354316 137.304636 
L 364.004926 135.137741 
L 364.655537 137.304636 
L 365.306147 122.136368 
L 365.956757 150.306008 
L 366.607367 158.97359 
L 367.257978 128.637054 
L 367.908588 158.97359 
L 369.209809 122.136368 
L 369.860419 150.306008 
L 370.511029 145.972218 
L 371.16164 137.304636 
L 371.81225 122.136368 
L 372.46286 115.635682 
L 373.113471 124.303264 
L 373.764081 163.307381 
L 374.414691 150.306008 
L 375.065302 126.470159 
L 375.715912 126.470159 
L 376.366522 124.303264 
L 377.017132 104.801205 
L 377.667743 115.635682 
L 378.968963 128.637054 
L 379.619574 126.470159 
L 380.270184 113.468787 
L 380.920794 128.637054 
L 381.571405 158.97359 
L 382.872625 141.638427 
L 383.523236 128.637054 
L 384.173846 128.637054 
L 384.824456 130.80395 
L 385.475066 130.80395 
L 386.125677 145.972218 
L 386.776287 128.637054 
L 387.426897 148.139113 
L 388.077508 156.806695 
L 388.728118 150.306008 
L 389.378728 126.470159 
L 390.029339 126.470159 
L 390.679949 122.136368 
L 391.330559 113.468787 
L 392.63178 158.97359 
L 393.28239 145.972218 
L 393.933001 124.303264 
L 394.583611 132.970845 
L 395.234221 158.97359 
L 395.884831 150.306008 
L 396.535442 137.304636 
L 397.186052 163.307381 
L 397.836662 152.472904 
L 398.487273 139.471531 
L 398.487273 139.471531 
" clip-path="url(#pde1e16fc9a)" style="fill: none; stroke: #ff7f0e; stroke-width: 1.5; stroke-linecap: square"/>
   </g>
   <g id="line2d_18">
    <path d="M 73.832727 231.051374 
L 74.483338 270.967868 
L 75.133948 275.529753 
L 75.784558 217.365719 
L 76.435169 272.108339 
L 77.085779 203.680063 
L 77.736389 273.24881 
L 78.386999 233.332316 
L 79.03761 274.389282 
L 79.68822 213.944305 
L 80.33883 241.315615 
L 80.989441 231.051374 
L 81.640051 215.084776 
L 82.290661 233.332316 
L 82.941272 240.175144 
L 83.591882 231.051374 
L 84.242492 272.108339 
L 84.893103 264.12504 
L 85.543713 258.422684 
L 86.194323 260.703627 
L 86.844934 239.034673 
L 87.495544 274.389282 
L 88.146154 232.191845 
L 88.796764 274.389282 
L 89.447375 231.051374 
L 90.097985 241.315615 
L 90.748595 232.191845 
L 91.399206 247.017971 
L 92.049816 228.770431 
L 92.700426 223.068075 
L 93.351037 274.389282 
L 94.001647 236.75373 
L 94.652257 229.910902 
L 95.302868 261.844098 
L 95.953478 229.910902 
L 96.604088 225.349017 
L 97.254698 274.389282 
L 97.905309 231.051374 
L 98.555919 231.051374 
L 99.206529 223.068075 
L 99.85714 259.563155 
L 100.50775 257.282213 
L 101.15836 213.944305 
L 101.808971 255.00127 
L 102.459581 203.680063 
L 103.110191 199.118178 
L 103.760802 280.091638 
L 104.411412 265.265512 
L 105.062022 220.787132 
L 105.712633 273.24881 
L 106.363243 232.191845 
L 107.664463 199.118178 
L 108.965684 281.232109 
L 109.616294 278.951167 
L 110.266905 231.051374 
L 110.917515 256.141741 
L 111.568125 250.439385 
L 112.218736 204.820535 
L 112.869346 240.175144 
L 113.519956 234.472787 
L 114.170567 274.389282 
L 114.821177 237.894201 
L 115.471787 241.315615 
L 116.122398 274.389282 
L 116.773008 231.051374 
L 117.423618 242.456086 
L 118.074228 273.24881 
L 118.724839 232.191845 
L 119.375449 221.927604 
L 120.026059 236.75373 
L 120.67667 203.680063 
L 121.32728 239.034673 
L 121.97789 239.034673 
L 122.628501 234.472787 
L 123.279111 245.8775 
L 123.929721 233.332316 
L 124.580332 244.737029 
L 125.230942 275.529753 
L 125.881552 217.365719 
L 126.532163 233.332316 
L 127.182773 219.646661 
L 127.833383 183.151581 
L 128.483993 243.596558 
L 129.134604 251.579856 
L 129.785214 217.365719 
L 130.435824 264.12504 
L 131.086435 212.803834 
L 131.737045 278.951167 
L 132.387655 233.332316 
L 133.038266 278.951167 
L 133.688876 229.910902 
L 134.339486 192.275351 
L 134.990097 217.365719 
L 135.640707 267.546454 
L 136.291317 203.680063 
L 136.941927 211.663362 
L 137.592538 233.332316 
L 138.243148 239.034673 
L 138.893758 274.389282 
L 139.544369 212.803834 
L 140.194979 256.141741 
L 140.845589 211.663362 
L 141.4962 210.522891 
L 142.14681 241.315615 
L 142.79742 201.399121 
L 143.448031 274.389282 
L 144.098641 220.787132 
L 144.749251 237.894201 
L 145.399862 219.646661 
L 146.050472 212.803834 
L 146.701082 232.191845 
L 147.351692 232.191845 
L 148.002303 266.405983 
L 148.652913 245.8775 
L 149.303523 234.472787 
L 149.954134 259.563155 
L 151.255354 242.456086 
L 151.905965 191.13488 
L 152.556575 236.75373 
L 153.207185 234.472787 
L 153.857796 237.894201 
L 154.508406 253.860799 
L 155.159016 187.713466 
L 155.809627 288.074937 
L 156.460237 188.853937 
L 157.110847 234.472787 
L 157.761457 262.984569 
L 158.412068 207.101477 
L 159.062678 224.208546 
L 159.713288 244.737029 
L 160.363899 216.225247 
L 161.014509 239.034673 
L 161.665119 236.75373 
L 162.31573 232.191845 
L 162.96634 197.977707 
L 163.61695 234.472787 
L 164.267561 202.539592 
L 164.918171 204.820535 
L 165.568781 212.803834 
L 166.219392 203.680063 
L 166.870002 266.405983 
L 167.520612 189.994408 
L 168.171222 285.793994 
L 168.821833 182.011109 
L 169.472443 189.994408 
L 170.123053 195.696765 
L 170.773664 269.827397 
L 171.424274 210.522891 
L 172.074884 228.770431 
L 172.725495 268.686925 
L 173.376105 220.787132 
L 174.026715 196.837236 
L 174.677326 228.770431 
L 175.327936 208.241948 
L 175.978546 194.556293 
L 176.629156 228.770431 
L 177.279767 202.539592 
L 177.930377 180.870638 
L 178.580987 192.275351 
L 179.231598 201.399121 
L 179.882208 213.944305 
L 180.532818 187.713466 
L 181.183429 195.696765 
L 181.834039 229.910902 
L 182.484649 189.994408 
L 183.13526 201.399121 
L 183.78587 218.50619 
L 184.43648 215.084776 
L 185.087091 175.168282 
L 185.737701 186.572994 
L 186.388311 208.241948 
L 187.038921 209.38242 
L 187.689532 168.325454 
L 188.990752 204.820535 
L 189.641363 207.101477 
L 190.291973 244.737029 
L 190.942583 164.904041 
L 191.593194 221.927604 
L 192.243804 209.38242 
L 192.894414 182.011109 
L 193.545025 179.730167 
L 194.195635 199.118178 
L 194.846245 203.680063 
L 195.496856 265.265512 
L 196.147466 220.787132 
L 196.798076 244.737029 
L 197.448686 212.803834 
L 198.099297 213.944305 
L 198.749907 205.961006 
L 199.400517 189.994408 
L 200.051128 205.961006 
L 200.701738 235.613259 
L 201.352348 201.399121 
L 202.002959 212.803834 
L 202.653569 197.977707 
L 203.304179 219.646661 
L 203.95479 197.977707 
L 204.6054 191.13488 
L 205.25601 237.894201 
L 206.557231 186.572994 
L 207.207841 183.151581 
L 207.858451 184.292052 
L 208.509062 220.787132 
L 209.159672 202.539592 
L 209.810282 204.820535 
L 210.460893 175.168282 
L 211.111503 163.763569 
L 211.762113 186.572994 
L 212.412724 174.027811 
L 213.063334 180.870638 
L 213.713944 196.837236 
L 214.364555 209.38242 
L 215.015165 187.713466 
L 216.316385 183.151581 
L 216.966996 166.044512 
L 217.617606 196.837236 
L 218.268216 183.151581 
L 218.918827 192.275351 
L 219.569437 166.044512 
L 220.220047 176.308753 
L 220.870658 163.763569 
L 221.521268 161.482627 
L 222.171878 164.904041 
L 222.822489 159.201684 
L 223.473099 186.572994 
L 224.123709 179.730167 
L 224.77432 184.292052 
L 225.42493 170.606397 
L 226.07554 176.308753 
L 226.72615 168.325454 
L 227.376761 154.639799 
L 228.027371 175.168282 
L 228.677981 131.830374 
L 229.328592 160.342155 
L 229.979202 174.027811 
L 230.629812 158.061213 
L 231.280423 152.358857 
L 231.931033 179.730167 
L 232.581643 156.920742 
L 233.232254 154.639799 
L 233.882864 153.499328 
L 234.533474 195.696765 
L 235.184085 194.556293 
L 235.834695 171.746868 
L 236.485305 163.763569 
L 237.135915 161.482627 
L 237.786526 184.292052 
L 238.437136 200.25865 
L 239.087746 177.449224 
L 239.738357 185.432523 
L 240.388967 168.325454 
L 241.039577 164.904041 
L 241.690188 174.027811 
L 242.340798 179.730167 
L 242.991408 152.358857 
L 243.642019 161.482627 
L 244.292629 156.920742 
L 244.943239 192.275351 
L 245.59385 166.044512 
L 246.24446 160.342155 
L 246.89507 180.870638 
L 247.54568 192.275351 
L 248.196291 183.151581 
L 248.846901 186.572994 
L 249.497511 175.168282 
L 250.148122 139.813673 
L 251.449342 189.994408 
L 252.099953 155.78027 
L 252.750563 171.746868 
L 253.401173 158.061213 
L 254.051784 168.325454 
L 254.702394 160.342155 
L 255.353004 154.639799 
L 256.003615 161.482627 
L 256.654225 178.589696 
L 257.304835 180.870638 
L 257.955445 150.077914 
L 258.606056 166.044512 
L 259.256666 132.970845 
L 259.907276 153.499328 
L 260.557887 187.713466 
L 261.208497 152.358857 
L 261.859107 152.358857 
L 262.509718 175.168282 
L 263.810938 143.235087 
L 264.461549 143.235087 
L 265.112159 137.53273 
L 265.762769 139.813673 
L 266.413379 175.168282 
L 267.06399 180.870638 
L 267.7146 178.589696 
L 268.36521 178.589696 
L 269.015821 188.853937 
L 270.317041 154.639799 
L 270.967652 162.623098 
L 271.618262 161.482627 
L 272.268872 177.449224 
L 272.919483 146.6565 
L 273.570093 151.218385 
L 274.220703 172.887339 
L 274.871314 172.887339 
L 275.521924 143.235087 
L 276.172534 163.763569 
L 276.823144 156.920742 
L 277.473755 152.358857 
L 278.124365 170.606397 
L 278.774975 176.308753 
L 279.425586 166.044512 
L 280.076196 164.904041 
L 280.726806 145.516029 
L 281.377417 159.201684 
L 282.028027 147.796972 
L 283.329248 156.920742 
L 283.979858 158.061213 
L 284.630468 142.094615 
L 285.281079 168.325454 
L 285.931689 138.673201 
L 286.582299 184.292052 
L 287.232909 166.044512 
L 287.88352 171.746868 
L 288.53413 191.13488 
L 289.18474 176.308753 
L 289.835351 144.375558 
L 290.485961 145.516029 
L 291.136571 151.218385 
L 291.787182 158.061213 
L 292.437792 175.168282 
L 293.088402 142.094615 
L 293.739013 180.870638 
L 294.389623 176.308753 
L 295.040233 186.572994 
L 296.341454 167.184983 
L 296.992064 144.375558 
L 297.642674 159.201684 
L 298.293285 150.077914 
L 298.943895 152.358857 
L 299.594505 152.358857 
L 300.245116 139.813673 
L 300.895726 152.358857 
L 301.546336 144.375558 
L 302.196947 145.516029 
L 302.847557 158.061213 
L 303.498167 146.6565 
L 304.148778 161.482627 
L 304.799388 152.358857 
L 305.449998 150.077914 
L 306.100608 150.077914 
L 306.751219 154.639799 
L 307.401829 169.465926 
L 308.052439 139.813673 
L 308.70305 158.061213 
L 309.35366 169.465926 
L 310.00427 178.589696 
L 310.654881 164.904041 
L 311.305491 176.308753 
L 311.956101 140.954144 
L 312.606712 150.077914 
L 313.257322 136.392259 
L 313.907932 139.813673 
L 314.558543 166.044512 
L 315.209153 185.432523 
L 315.859763 158.061213 
L 316.510373 177.449224 
L 317.160984 154.639799 
L 317.811594 152.358857 
L 318.462204 163.763569 
L 319.112815 146.6565 
L 319.763425 138.673201 
L 320.414035 146.6565 
L 321.064646 146.6565 
L 321.715256 152.358857 
L 322.365866 153.499328 
L 323.016477 138.673201 
L 323.667087 155.78027 
L 324.317697 148.937443 
L 324.968308 164.904041 
L 325.618918 172.887339 
L 326.269528 158.061213 
L 326.920138 151.218385 
L 327.570749 169.465926 
L 328.221359 170.606397 
L 328.871969 150.077914 
L 329.52258 144.375558 
L 330.17319 174.027811 
L 330.8238 166.044512 
L 331.474411 177.449224 
L 332.125021 174.027811 
L 332.775631 182.011109 
L 333.426242 175.168282 
L 334.076852 180.870638 
L 334.727462 184.292052 
L 335.378073 146.6565 
L 336.028683 172.887339 
L 336.679293 162.623098 
L 337.329903 169.465926 
L 337.980514 169.465926 
L 338.631124 146.6565 
L 339.281734 154.639799 
L 339.932345 137.53273 
L 340.582955 124.987546 
L 341.233565 138.673201 
L 341.884176 148.937443 
L 342.534786 146.6565 
L 343.185396 136.392259 
L 343.836007 129.549431 
L 344.486617 145.516029 
L 345.137227 148.937443 
L 345.787837 134.111316 
L 346.438448 130.689903 
L 347.089058 170.606397 
L 347.739668 158.061213 
L 348.390279 142.094615 
L 349.040889 137.53273 
L 349.691499 135.251788 
L 350.34211 159.201684 
L 350.99272 154.639799 
L 351.64333 154.639799 
L 352.293941 144.375558 
L 352.944551 145.516029 
L 353.595161 166.044512 
L 354.245772 128.40896 
L 354.896382 163.763569 
L 355.546992 155.78027 
L 356.197602 137.53273 
L 357.498823 159.201684 
L 358.149433 174.027811 
L 358.800044 170.606397 
L 359.450654 177.449224 
L 360.101264 168.325454 
L 360.751875 161.482627 
L 361.402485 156.920742 
L 362.053095 151.218385 
L 362.703706 152.358857 
L 363.354316 166.044512 
L 364.004926 152.358857 
L 364.655537 163.763569 
L 365.306147 150.077914 
L 365.956757 158.061213 
L 366.607367 178.589696 
L 367.257978 140.954144 
L 367.908588 176.308753 
L 368.559198 156.920742 
L 369.209809 144.375558 
L 369.860419 177.449224 
L 370.511029 166.044512 
L 371.16164 148.937443 
L 371.81225 167.184983 
L 372.46286 137.53273 
L 373.113471 160.342155 
L 373.764081 174.027811 
L 374.414691 175.168282 
L 375.065302 139.813673 
L 375.715912 154.639799 
L 376.366522 138.673201 
L 377.017132 150.077914 
L 377.667743 139.813673 
L 378.318353 152.358857 
L 379.619574 167.184983 
L 380.270184 135.251788 
L 380.920794 151.218385 
L 381.571405 175.168282 
L 382.222015 168.325454 
L 382.872625 174.027811 
L 383.523236 153.499328 
L 384.173846 144.375558 
L 385.475066 148.937443 
L 386.125677 155.78027 
L 386.776287 155.78027 
L 387.426897 170.606397 
L 388.077508 172.887339 
L 388.728118 171.746868 
L 389.378728 158.061213 
L 390.029339 163.763569 
L 390.679949 164.904041 
L 391.330559 132.970845 
L 391.98117 156.920742 
L 392.63178 176.308753 
L 393.28239 162.623098 
L 393.933001 143.235087 
L 394.583611 143.235087 
L 395.234221 168.325454 
L 395.884831 158.061213 
L 396.535442 158.061213 
L 397.186052 167.184983 
L 397.836662 170.606397 
L 398.487273 144.375558 
L 398.487273 144.375558 
" clip-path="url(#pde1e16fc9a)" style="fill: none; stroke: #2ca02c; stroke-width: 1.5; stroke-linecap: square"/>
   </g>
   <g id="line2d_19">
    <path d="M 73.832727 241.315615 
L 74.483338 254.316987 
L 75.133948 254.316987 
L 75.784558 236.981824 
L 76.435169 252.150092 
L 77.085779 208.812184 
L 77.736389 254.316987 
L 78.386999 247.816301 
L 79.03761 282.486628 
L 79.68822 178.475649 
L 80.33883 249.983197 
L 80.989441 241.315615 
L 81.640051 217.479766 
L 82.290661 241.315615 
L 82.941272 249.983197 
L 83.591882 226.147347 
L 84.893103 254.316987 
L 85.543713 252.150092 
L 86.194323 236.981824 
L 86.844934 249.983197 
L 87.495544 254.316987 
L 88.146154 223.980452 
L 88.796764 254.316987 
L 89.447375 241.315615 
L 90.097985 215.31287 
L 90.748595 232.648033 
L 91.399206 195.810812 
L 92.049816 178.475649 
L 92.700426 189.310126 
L 93.351037 254.316987 
L 94.001647 249.983197 
L 94.652257 241.315615 
L 95.302868 254.316987 
L 95.953478 206.645289 
L 96.604088 226.147347 
L 97.254698 254.316987 
L 97.905309 243.48251 
L 98.555919 241.315615 
L 99.206529 148.139113 
L 99.85714 249.983197 
L 100.50775 267.31836 
L 101.15836 254.316987 
L 101.808971 223.980452 
L 102.459581 169.808067 
L 103.110191 169.808067 
L 103.760802 258.650778 
L 104.411412 249.983197 
L 105.062022 219.646661 
L 105.712633 254.316987 
L 106.363243 254.316987 
L 107.013853 193.643916 
L 107.664463 119.969473 
L 108.315074 241.315615 
L 108.965684 258.650778 
L 109.616294 254.316987 
L 110.266905 241.315615 
L 110.917515 262.984569 
L 111.568125 228.314243 
L 112.218736 167.641172 
L 112.869346 249.983197 
L 113.519956 241.315615 
L 114.170567 254.316987 
L 114.821177 247.816301 
L 115.471787 191.477021 
L 116.122398 254.316987 
L 116.773008 241.315615 
L 117.423618 249.983197 
L 118.074228 254.316987 
L 118.724839 247.816301 
L 119.375449 206.645289 
L 120.026059 249.983197 
L 120.67667 139.471531 
L 121.32728 252.150092 
L 121.97789 249.983197 
L 122.628501 241.315615 
L 123.279111 249.983197 
L 123.929721 241.315615 
L 124.580332 249.983197 
L 125.230942 254.316987 
L 125.881552 217.479766 
L 126.532163 241.315615 
L 127.182773 202.311498 
L 127.833383 137.304636 
L 128.483993 249.983197 
L 129.134604 206.645289 
L 129.785214 219.646661 
L 130.435824 254.316987 
L 131.086435 184.976335 
L 131.737045 254.316987 
L 132.387655 243.48251 
L 133.038266 254.316987 
L 133.688876 234.814929 
L 134.339486 135.137741 
L 134.990097 226.147347 
L 135.640707 245.649406 
L 136.291317 204.478393 
L 136.941927 206.645289 
L 137.592538 239.14872 
L 138.243148 249.983197 
L 138.893758 254.316987 
L 139.544369 210.979079 
L 140.194979 221.813556 
L 140.845589 171.974962 
L 141.4962 215.31287 
L 142.14681 204.478393 
L 142.79742 171.974962 
L 143.448031 267.31836 
L 144.098641 226.147347 
L 144.749251 247.816301 
L 145.399862 193.643916 
L 146.050472 208.812184 
L 146.701082 247.816301 
L 147.351692 241.315615 
L 148.002303 271.652151 
L 148.652913 247.816301 
L 149.303523 215.31287 
L 149.954134 265.151464 
L 150.604744 200.144603 
L 151.255354 232.648033 
L 151.905965 154.639799 
L 152.556575 208.812184 
L 153.207185 197.977707 
L 153.857796 217.479766 
L 154.508406 256.483883 
L 155.159016 156.806695 
L 155.809627 282.486628 
L 156.460237 171.974962 
L 157.110847 236.981824 
L 157.761457 256.483883 
L 158.412068 169.808067 
L 159.062678 167.641172 
L 159.713288 247.816301 
L 160.363899 208.812184 
L 161.014509 239.14872 
L 161.665119 200.144603 
L 162.31573 221.813556 
L 162.96634 163.307381 
L 163.61695 252.150092 
L 164.267561 156.806695 
L 164.918171 156.806695 
L 165.568781 152.472904 
L 166.219392 189.310126 
L 166.870002 262.984569 
L 167.520612 165.474276 
L 168.171222 286.820418 
L 168.821833 167.641172 
L 169.472443 184.976335 
L 170.123053 165.474276 
L 170.773664 295.488 
L 171.424274 189.310126 
L 172.074884 232.648033 
L 172.725495 262.984569 
L 173.376105 200.144603 
L 174.026715 174.141858 
L 174.677326 169.808067 
L 175.327936 180.642544 
L 175.978546 195.810812 
L 176.629156 187.14323 
L 177.279767 163.307381 
L 177.930377 163.307381 
L 179.231598 176.308753 
L 179.882208 206.645289 
L 180.532818 215.31287 
L 181.183429 152.472904 
L 181.834039 221.813556 
L 182.484649 180.642544 
L 183.13526 163.307381 
L 183.78587 161.140485 
L 184.43648 180.642544 
L 185.087091 154.639799 
L 185.737701 156.806695 
L 186.388311 178.475649 
L 187.038921 187.14323 
L 187.689532 156.806695 
L 188.340142 143.805322 
L 188.990752 167.641172 
L 189.641363 182.809439 
L 190.291973 226.147347 
L 190.942583 165.474276 
L 191.593194 200.144603 
L 192.243804 180.642544 
L 192.894414 141.638427 
L 193.545025 150.306008 
L 194.195635 180.642544 
L 194.846245 163.307381 
L 195.496856 249.983197 
L 196.147466 226.147347 
L 196.798076 213.145975 
L 197.448686 206.645289 
L 198.099297 191.477021 
L 198.749907 180.642544 
L 199.400517 171.974962 
L 200.051128 182.809439 
L 200.701738 208.812184 
L 201.352348 178.475649 
L 202.002959 182.809439 
L 202.653569 189.310126 
L 203.304179 180.642544 
L 203.95479 161.140485 
L 204.6054 174.141858 
L 205.25601 197.977707 
L 205.906621 197.977707 
L 206.557231 152.472904 
L 207.207841 145.972218 
L 207.858451 137.304636 
L 208.509062 195.810812 
L 209.159672 182.809439 
L 209.810282 189.310126 
L 210.460893 176.308753 
L 211.111503 130.80395 
L 211.762113 143.805322 
L 212.412724 128.637054 
L 213.063334 141.638427 
L 213.713944 187.14323 
L 214.364555 215.31287 
L 215.015165 163.307381 
L 215.665775 150.306008 
L 216.316385 143.805322 
L 216.966996 152.472904 
L 217.617606 158.97359 
L 218.268216 156.806695 
L 218.918827 187.14323 
L 219.569437 165.474276 
L 220.220047 184.976335 
L 220.870658 143.805322 
L 221.521268 158.97359 
L 222.171878 150.306008 
L 222.822489 150.306008 
L 223.473099 165.474276 
L 224.123709 174.141858 
L 224.77432 163.307381 
L 225.42493 171.974962 
L 226.07554 152.472904 
L 226.72615 148.139113 
L 227.376761 137.304636 
L 228.027371 182.809439 
L 228.677981 104.801205 
L 229.328592 139.471531 
L 230.629812 165.474276 
L 231.280423 152.472904 
L 231.931033 174.141858 
L 232.581643 165.474276 
L 233.232254 143.805322 
L 233.882864 156.806695 
L 234.533474 189.310126 
L 235.184085 178.475649 
L 235.834695 169.808067 
L 236.485305 156.806695 
L 237.135915 171.974962 
L 237.786526 167.641172 
L 238.437136 187.14323 
L 239.087746 169.808067 
L 239.738357 169.808067 
L 240.388967 174.141858 
L 241.039577 174.141858 
L 241.690188 165.474276 
L 242.340798 167.641172 
L 242.991408 154.639799 
L 243.642019 148.139113 
L 244.292629 158.97359 
L 244.943239 184.976335 
L 245.59385 167.641172 
L 246.24446 139.471531 
L 246.89507 176.308753 
L 247.54568 191.477021 
L 248.196291 178.475649 
L 248.846901 176.308753 
L 249.497511 163.307381 
L 250.148122 143.805322 
L 250.798732 171.974962 
L 251.449342 180.642544 
L 252.099953 156.806695 
L 252.750563 167.641172 
L 253.401173 156.806695 
L 254.051784 163.307381 
L 254.702394 152.472904 
L 255.353004 145.972218 
L 256.003615 156.806695 
L 257.304835 174.141858 
L 257.955445 152.472904 
L 258.606056 154.639799 
L 259.256666 150.306008 
L 259.907276 152.472904 
L 260.557887 171.974962 
L 261.208497 152.472904 
L 261.859107 141.638427 
L 262.509718 176.308753 
L 263.160328 139.471531 
L 263.810938 130.80395 
L 264.461549 119.969473 
L 265.112159 117.802577 
L 265.762769 113.468787 
L 266.413379 163.307381 
L 267.06399 174.141858 
L 267.7146 171.974962 
L 268.36521 158.97359 
L 269.015821 178.475649 
L 270.967652 130.80395 
L 271.618262 158.97359 
L 272.268872 156.806695 
L 272.919483 152.472904 
L 273.570093 161.140485 
L 274.220703 154.639799 
L 274.871314 158.97359 
L 275.521924 130.80395 
L 276.172534 135.137741 
L 276.823144 150.306008 
L 277.473755 143.805322 
L 278.124365 148.139113 
L 278.774975 148.139113 
L 279.425586 145.972218 
L 280.076196 148.139113 
L 280.726806 148.139113 
L 281.377417 150.306008 
L 282.028027 148.139113 
L 282.678637 143.805322 
L 283.329248 154.639799 
L 283.979858 139.471531 
L 284.630468 139.471531 
L 285.281079 145.972218 
L 285.931689 135.137741 
L 286.582299 169.808067 
L 287.232909 169.808067 
L 287.88352 152.472904 
L 288.53413 182.809439 
L 289.18474 171.974962 
L 289.835351 141.638427 
L 290.485961 141.638427 
L 291.136571 161.140485 
L 291.787182 150.306008 
L 292.437792 171.974962 
L 293.088402 119.969473 
L 293.739013 152.472904 
L 294.389623 165.474276 
L 295.040233 171.974962 
L 295.690844 163.307381 
L 296.341454 163.307381 
L 296.992064 154.639799 
L 297.642674 141.638427 
L 298.293285 152.472904 
L 298.943895 132.970845 
L 299.594505 126.470159 
L 300.245116 126.470159 
L 300.895726 135.137741 
L 301.546336 132.970845 
L 302.196947 132.970845 
L 302.847557 141.638427 
L 303.498167 137.304636 
L 304.148778 148.139113 
L 305.449998 139.471531 
L 306.751219 126.470159 
L 307.401829 150.306008 
L 308.052439 139.471531 
L 308.70305 135.137741 
L 309.35366 150.306008 
L 310.00427 161.140485 
L 310.654881 156.806695 
L 311.305491 156.806695 
L 311.956101 141.638427 
L 312.606712 141.638427 
L 313.257322 128.637054 
L 313.907932 128.637054 
L 315.209153 154.639799 
L 316.510373 141.638427 
L 317.160984 137.304636 
L 318.462204 145.972218 
L 319.763425 117.802577 
L 320.414035 128.637054 
L 321.064646 135.137741 
L 321.715256 135.137741 
L 322.365866 141.638427 
L 323.016477 135.137741 
L 323.667087 145.972218 
L 324.317697 148.139113 
L 324.968308 156.806695 
L 325.618918 156.806695 
L 326.269528 143.805322 
L 327.570749 148.139113 
L 328.221359 161.140485 
L 328.871969 150.306008 
L 329.52258 141.638427 
L 330.17319 158.97359 
L 330.8238 163.307381 
L 331.474411 152.472904 
L 332.125021 156.806695 
L 332.775631 165.474276 
L 333.426242 145.972218 
L 334.076852 165.474276 
L 334.727462 163.307381 
L 335.378073 150.306008 
L 336.028683 161.140485 
L 336.679293 150.306008 
L 337.329903 145.972218 
L 337.980514 148.139113 
L 338.631124 141.638427 
L 339.281734 145.972218 
L 339.932345 139.471531 
L 340.582955 139.471531 
L 341.233565 141.638427 
L 341.884176 139.471531 
L 342.534786 145.972218 
L 343.185396 137.304636 
L 343.836007 143.805322 
L 344.486617 130.80395 
L 345.137227 135.137741 
L 345.787837 128.637054 
L 346.438448 161.140485 
L 347.089058 167.641172 
L 347.739668 145.972218 
L 348.390279 137.304636 
L 349.040889 135.137741 
L 349.691499 143.805322 
L 350.99272 148.139113 
L 351.64333 143.805322 
L 352.293941 152.472904 
L 352.944551 143.805322 
L 353.595161 156.806695 
L 354.896382 143.805322 
L 355.546992 163.307381 
L 356.197602 161.140485 
L 356.848213 145.972218 
L 357.498823 163.307381 
L 358.149433 137.304636 
L 358.800044 139.471531 
L 359.450654 119.969473 
L 360.101264 143.805322 
L 360.751875 139.471531 
L 361.402485 148.139113 
L 362.053095 130.80395 
L 362.703706 135.137741 
L 363.354316 124.303264 
L 364.004926 137.304636 
L 364.655537 141.638427 
L 365.306147 150.306008 
L 365.956757 137.304636 
L 367.257978 150.306008 
L 367.908588 139.471531 
L 368.559198 161.140485 
L 369.209809 152.472904 
L 369.860419 137.304636 
L 370.511029 139.471531 
L 371.16164 132.970845 
L 371.81225 143.805322 
L 372.46286 158.97359 
L 373.764081 171.974962 
L 374.414691 169.808067 
L 375.065302 161.140485 
L 375.715912 154.639799 
L 376.366522 163.307381 
L 377.017132 156.806695 
L 377.667743 156.806695 
L 378.318353 145.972218 
L 378.968963 132.970845 
L 379.619574 126.470159 
L 380.270184 132.970845 
L 380.920794 143.805322 
L 381.571405 145.972218 
L 382.222015 139.471531 
L 382.872625 137.304636 
L 383.523236 137.304636 
L 384.173846 148.139113 
L 384.824456 141.638427 
L 385.475066 137.304636 
L 386.125677 126.470159 
L 386.776287 145.972218 
L 387.426897 139.471531 
L 388.077508 158.97359 
L 388.728118 150.306008 
L 389.378728 156.806695 
L 390.029339 165.474276 
L 390.679949 156.806695 
L 391.330559 143.805322 
L 391.98117 158.97359 
L 392.63178 158.97359 
L 393.28239 165.474276 
L 393.933001 152.472904 
L 394.583611 150.306008 
L 395.234221 126.470159 
L 395.884831 122.136368 
L 396.535442 137.304636 
L 397.186052 141.638427 
L 397.836662 148.139113 
L 398.487273 158.97359 
L 398.487273 158.97359 
" clip-path="url(#pde1e16fc9a)" style="fill: none; stroke: #d62728; stroke-width: 1.5; stroke-linecap: square"/>
   </g>
   <g id="patch_3">
    <path d="M 57.6 307.584 
L 57.6 41.472 
" style="fill: none; stroke: #000000; stroke-width: 0.8; stroke-linejoin: miter; stroke-linecap: square"/>
   </g>
   <g id="patch_4">
    <path d="M 414.72 307.584 
L 414.72 41.472 
" style="fill: none; stroke: #000000; stroke-width: 0.8; stroke-linejoin: miter; stroke-linecap: square"/>
   </g>
   <g id="patch_5">
    <path d="M 57.6 307.584 
L 414.72 307.584 
" style="fill: none; stroke: #000000; stroke-width: 0.8; stroke-linejoin: miter; stroke-linecap: square"/>
   </g>
   <g id="patch_6">
    <path d="M 57.6 41.472 
L 414.72 41.472 
" style="fill: none; stroke: #000000; stroke-width: 0.8; stroke-linejoin: miter; stroke-linecap: square"/>
   </g>
   <g id="text_18">
    <!-- Learning Curves -->
    <g transform="translate(187.37625 35.472) scale(0.12 -0.12)">
     <defs>
      <path id="DejaVuSans-4c" d="M 628 4666 
L 1259 4666 
L 1259 531 
L 3531 531 
L 3531 0 
L 628 0 
L 628 4666 
z
" transform="scale(0.015625)"/>
      <path id="DejaVuSans-65" d="M 3597 1894 
L 3597 1613 
L 953 1613 
Q 991 1019 1311 708 
Q 1631 397 2203 397 
Q 2534 397 2845 478 
Q 3156 559 3463 722 
L 3463 178 
Q 3153 47 2828 -22 
Q 2503 -91 2169 -91 
Q 1331 -91 842 396 
Q 353 884 353 1716 
Q 353 2575 817 3079 
Q 1281 3584 2069 3584 
Q 2775 3584 3186 3129 
Q 3597 2675 3597 1894 
z
M 3022 2063 
Q 3016 2534 2758 2815 
Q 2500 3097 2075 3097 
Q 1594 3097 1305 2825 
Q 1016 2553 972 2059 
L 3022 2063 
z
" transform="scale(0.015625)"/>
      <path id="DejaVuSans-6e" d="M 3513 2113 
L 3513 0 
L 2938 0 
L 2938 2094 
Q 2938 2591 2744 2837 
Q 2550 3084 2163 3084 
Q 1697 3084 1428 2787 
Q 1159 2491 1159 1978 
L 1159 0 
L 581 0 
L 581 3500 
L 1159 3500 
L 1159 2956 
Q 1366 3272 1645 3428 
Q 1925 3584 2291 3584 
Q 2894 3584 3203 3211 
Q 3513 2838 3513 2113 
z
" transform="scale(0.015625)"/>
      <path id="DejaVuSans-69" d="M 603 3500 
L 1178 3500 
L 1178 0 
L 603 0 
L 603 3500 
z
M 603 4863 
L 1178 4863 
L 1178 4134 
L 603 4134 
L 603 4863 
z
" transform="scale(0.015625)"/>
      <path id="DejaVuSans-67" d="M 2906 1791 
Q 2906 2416 2648 2759 
Q 2391 3103 1925 3103 
Q 1463 3103 1205 2759 
Q 947 2416 947 1791 
Q 947 1169 1205 825 
Q 1463 481 1925 481 
Q 2391 481 2648 825 
Q 2906 1169 2906 1791 
z
M 3481 434 
Q 3481 -459 3084 -895 
Q 2688 -1331 1869 -1331 
Q 1566 -1331 1297 -1286 
Q 1028 -1241 775 -1147 
L 775 -588 
Q 1028 -725 1275 -790 
Q 1522 -856 1778 -856 
Q 2344 -856 2625 -561 
Q 2906 -266 2906 331 
L 2906 616 
Q 2728 306 2450 153 
Q 2172 0 1784 0 
Q 1141 0 747 490 
Q 353 981 353 1791 
Q 353 2603 747 3093 
Q 1141 3584 1784 3584 
Q 2172 3584 2450 3431 
Q 2728 3278 2906 2969 
L 2906 3500 
L 3481 3500 
L 3481 434 
z
" transform="scale(0.015625)"/>
      <path id="DejaVuSans-20" transform="scale(0.015625)"/>
      <path id="DejaVuSans-43" d="M 4122 4306 
L 4122 3641 
Q 3803 3938 3442 4084 
Q 3081 4231 2675 4231 
Q 1875 4231 1450 3742 
Q 1025 3253 1025 2328 
Q 1025 1406 1450 917 
Q 1875 428 2675 428 
Q 3081 428 3442 575 
Q 3803 722 4122 1019 
L 4122 359 
Q 3791 134 3420 21 
Q 3050 -91 2638 -91 
Q 1578 -91 968 557 
Q 359 1206 359 2328 
Q 359 3453 968 4101 
Q 1578 4750 2638 4750 
Q 3056 4750 3426 4639 
Q 3797 4528 4122 4306 
z
" transform="scale(0.015625)"/>
      <path id="DejaVuSans-76" d="M 191 3500 
L 800 3500 
L 1894 563 
L 2988 3500 
L 3597 3500 
L 2284 0 
L 1503 0 
L 191 3500 
z
" transform="scale(0.015625)"/>
     </defs>
     <use xlink:href="#DejaVuSans-4c"/>
     <use xlink:href="#DejaVuSans-65" x="53.962891"/>
     <use xlink:href="#DejaVuSans-61" x="115.486328"/>
     <use xlink:href="#DejaVuSans-72" x="176.765625"/>
     <use xlink:href="#DejaVuSans-6e" x="216.128906"/>
     <use xlink:href="#DejaVuSans-69" x="279.507812"/>
     <use xlink:href="#DejaVuSans-6e" x="307.291016"/>
     <use xlink:href="#DejaVuSans-67" x="370.669922"/>
     <use xlink:href="#DejaVuSans-20" x="434.146484"/>
     <use xlink:href="#DejaVuSans-43" x="465.933594"/>
     <use xlink:href="#DejaVuSans-75" x="535.757812"/>
     <use xlink:href="#DejaVuSans-72" x="599.136719"/>
     <use xlink:href="#DejaVuSans-76" x="640.25"/>
     <use xlink:href="#DejaVuSans-65" x="699.429688"/>
     <use xlink:href="#DejaVuSans-73" x="760.953125"/>
    </g>
   </g>
   <g id="legend_1">
    <g id="patch_7">
     <path d="M 239.893438 302.584 
L 407.72 302.584 
Q 409.72 302.584 409.72 300.584 
L 409.72 242.8715 
Q 409.72 240.8715 407.72 240.8715 
L 239.893438 240.8715 
Q 237.893438 240.8715 237.893438 242.8715 
L 237.893438 300.584 
Q 237.893438 302.584 239.893438 302.584 
z
" style="fill: #ffffff; opacity: 0.8; stroke: #cccccc; stroke-linejoin: miter"/>
    </g>
    <g id="line2d_20">
     <path d="M 241.893438 248.969937 
L 251.893438 248.969937 
L 261.893438 248.969937 
" style="fill: none; stroke: #1f77b4; stroke-width: 1.5; stroke-linecap: square"/>
    </g>
    <g id="text_19">
     <!-- Train Accuracy -->
     <g transform="translate(269.893438 252.469937) scale(0.1 -0.1)">
      <defs>
       <path id="DejaVuSans-54" d="M -19 4666 
L 3928 4666 
L 3928 4134 
L 2272 4134 
L 2272 0 
L 1638 0 
L 1638 4134 
L -19 4134 
L -19 4666 
z
" transform="scale(0.015625)"/>
      </defs>
      <use xlink:href="#DejaVuSans-54"/>
      <use xlink:href="#DejaVuSans-72" x="46.333984"/>
      <use xlink:href="#DejaVuSans-61" x="87.447266"/>
      <use xlink:href="#DejaVuSans-69" x="148.726562"/>
      <use xlink:href="#DejaVuSans-6e" x="176.509766"/>
      <use xlink:href="#DejaVuSans-20" x="239.888672"/>
      <use xlink:href="#DejaVuSans-41" x="271.675781"/>
      <use xlink:href="#DejaVuSans-63" x="338.333984"/>
      <use xlink:href="#DejaVuSans-63" x="393.314453"/>
      <use xlink:href="#DejaVuSans-75" x="448.294922"/>
      <use xlink:href="#DejaVuSans-72" x="511.673828"/>
      <use xlink:href="#DejaVuSans-61" x="552.787109"/>
      <use xlink:href="#DejaVuSans-63" x="614.066406"/>
      <use xlink:href="#DejaVuSans-79" x="669.046875"/>
     </g>
    </g>
    <g id="line2d_21">
     <path d="M 241.893438 263.648062 
L 251.893438 263.648062 
L 261.893438 263.648062 
" style="fill: none; stroke: #ff7f0e; stroke-width: 1.5; stroke-linecap: square"/>
    </g>
    <g id="text_20">
     <!-- Validation Accuracy -->
     <g transform="translate(269.893438 267.148062) scale(0.1 -0.1)">
      <defs>
       <path id="DejaVuSans-56" d="M 1831 0 
L 50 4666 
L 709 4666 
L 2188 738 
L 3669 4666 
L 4325 4666 
L 2547 0 
L 1831 0 
z
" transform="scale(0.015625)"/>
       <path id="DejaVuSans-6c" d="M 603 4863 
L 1178 4863 
L 1178 0 
L 603 0 
L 603 4863 
z
" transform="scale(0.015625)"/>
       <path id="DejaVuSans-64" d="M 2906 2969 
L 2906 4863 
L 3481 4863 
L 3481 0 
L 2906 0 
L 2906 525 
Q 2725 213 2448 61 
Q 2172 -91 1784 -91 
Q 1150 -91 751 415 
Q 353 922 353 1747 
Q 353 2572 751 3078 
Q 1150 3584 1784 3584 
Q 2172 3584 2448 3432 
Q 2725 3281 2906 2969 
z
M 947 1747 
Q 947 1113 1208 752 
Q 1469 391 1925 391 
Q 2381 391 2643 752 
Q 2906 1113 2906 1747 
Q 2906 2381 2643 2742 
Q 2381 3103 1925 3103 
Q 1469 3103 1208 2742 
Q 947 2381 947 1747 
z
" transform="scale(0.015625)"/>
       <path id="DejaVuSans-74" d="M 1172 4494 
L 1172 3500 
L 2356 3500 
L 2356 3053 
L 1172 3053 
L 1172 1153 
Q 1172 725 1289 603 
Q 1406 481 1766 481 
L 2356 481 
L 2356 0 
L 1766 0 
Q 1100 0 847 248 
Q 594 497 594 1153 
L 594 3053 
L 172 3053 
L 172 3500 
L 594 3500 
L 594 4494 
L 1172 4494 
z
" transform="scale(0.015625)"/>
      </defs>
      <use xlink:href="#DejaVuSans-56"/>
      <use xlink:href="#DejaVuSans-61" x="60.658203"/>
      <use xlink:href="#DejaVuSans-6c" x="121.9375"/>
      <use xlink:href="#DejaVuSans-69" x="149.720703"/>
      <use xlink:href="#DejaVuSans-64" x="177.503906"/>
      <use xlink:href="#DejaVuSans-61" x="240.980469"/>
      <use xlink:href="#DejaVuSans-74" x="302.259766"/>
      <use xlink:href="#DejaVuSans-69" x="341.46875"/>
      <use xlink:href="#DejaVuSans-6f" x="369.251953"/>
      <use xlink:href="#DejaVuSans-6e" x="430.433594"/>
      <use xlink:href="#DejaVuSans-20" x="493.8125"/>
      <use xlink:href="#DejaVuSans-41" x="525.599609"/>
      <use xlink:href="#DejaVuSans-63" x="592.257812"/>
      <use xlink:href="#DejaVuSans-63" x="647.238281"/>
      <use xlink:href="#DejaVuSans-75" x="702.21875"/>
      <use xlink:href="#DejaVuSans-72" x="765.597656"/>
      <use xlink:href="#DejaVuSans-61" x="806.710938"/>
      <use xlink:href="#DejaVuSans-63" x="867.990234"/>
      <use xlink:href="#DejaVuSans-79" x="922.970703"/>
     </g>
    </g>
    <g id="line2d_22">
     <path d="M 241.893438 278.326187 
L 251.893438 278.326187 
L 261.893438 278.326187 
" style="fill: none; stroke: #2ca02c; stroke-width: 1.5; stroke-linecap: square"/>
    </g>
    <g id="text_21">
     <!-- Robust Validation Accuracy -->
     <g transform="translate(269.893438 281.826187) scale(0.1 -0.1)">
      <defs>
       <path id="DejaVuSans-52" d="M 2841 2188 
Q 3044 2119 3236 1894 
Q 3428 1669 3622 1275 
L 4263 0 
L 3584 0 
L 2988 1197 
Q 2756 1666 2539 1819 
Q 2322 1972 1947 1972 
L 1259 1972 
L 1259 0 
L 628 0 
L 628 4666 
L 2053 4666 
Q 2853 4666 3247 4331 
Q 3641 3997 3641 3322 
Q 3641 2881 3436 2590 
Q 3231 2300 2841 2188 
z
M 1259 4147 
L 1259 2491 
L 2053 2491 
Q 2509 2491 2742 2702 
Q 2975 2913 2975 3322 
Q 2975 3731 2742 3939 
Q 2509 4147 2053 4147 
L 1259 4147 
z
" transform="scale(0.015625)"/>
       <path id="DejaVuSans-62" d="M 3116 1747 
Q 3116 2381 2855 2742 
Q 2594 3103 2138 3103 
Q 1681 3103 1420 2742 
Q 1159 2381 1159 1747 
Q 1159 1113 1420 752 
Q 1681 391 2138 391 
Q 2594 391 2855 752 
Q 3116 1113 3116 1747 
z
M 1159 2969 
Q 1341 3281 1617 3432 
Q 1894 3584 2278 3584 
Q 2916 3584 3314 3078 
Q 3713 2572 3713 1747 
Q 3713 922 3314 415 
Q 2916 -91 2278 -91 
Q 1894 -91 1617 61 
Q 1341 213 1159 525 
L 1159 0 
L 581 0 
L 581 4863 
L 1159 4863 
L 1159 2969 
z
" transform="scale(0.015625)"/>
      </defs>
      <use xlink:href="#DejaVuSans-52"/>
      <use xlink:href="#DejaVuSans-6f" x="64.982422"/>
      <use xlink:href="#DejaVuSans-62" x="126.164062"/>
      <use xlink:href="#DejaVuSans-75" x="189.640625"/>
      <use xlink:href="#DejaVuSans-73" x="253.019531"/>
      <use xlink:href="#DejaVuSans-74" x="305.119141"/>
      <use xlink:href="#DejaVuSans-20" x="344.328125"/>
      <use xlink:href="#DejaVuSans-56" x="376.115234"/>
      <use xlink:href="#DejaVuSans-61" x="436.773438"/>
      <use xlink:href="#DejaVuSans-6c" x="498.052734"/>
      <use xlink:href="#DejaVuSans-69" x="525.835938"/>
      <use xlink:href="#DejaVuSans-64" x="553.619141"/>
      <use xlink:href="#DejaVuSans-61" x="617.095703"/>
      <use xlink:href="#DejaVuSans-74" x="678.375"/>
      <use xlink:href="#DejaVuSans-69" x="717.583984"/>
      <use xlink:href="#DejaVuSans-6f" x="745.367188"/>
      <use xlink:href="#DejaVuSans-6e" x="806.548828"/>
      <use xlink:href="#DejaVuSans-20" x="869.927734"/>
      <use xlink:href="#DejaVuSans-41" x="901.714844"/>
      <use xlink:href="#DejaVuSans-63" x="968.373047"/>
      <use xlink:href="#DejaVuSans-63" x="1023.353516"/>
      <use xlink:href="#DejaVuSans-75" x="1078.333984"/>
      <use xlink:href="#DejaVuSans-72" x="1141.712891"/>
      <use xlink:href="#DejaVuSans-61" x="1182.826172"/>
      <use xlink:href="#DejaVuSans-63" x="1244.105469"/>
      <use xlink:href="#DejaVuSans-79" x="1299.085938"/>
     </g>
    </g>
    <g id="line2d_23">
     <path d="M 241.893438 293.004312 
L 251.893438 293.004312 
L 261.893438 293.004312 
" style="fill: none; stroke: #d62728; stroke-width: 1.5; stroke-linecap: square"/>
    </g>
    <g id="text_22">
     <!-- SWA Validation Accuracy -->
     <g transform="translate(269.893438 296.504312) scale(0.1 -0.1)">
      <defs>
       <path id="DejaVuSans-53" d="M 3425 4513 
L 3425 3897 
Q 3066 4069 2747 4153 
Q 2428 4238 2131 4238 
Q 1616 4238 1336 4038 
Q 1056 3838 1056 3469 
Q 1056 3159 1242 3001 
Q 1428 2844 1947 2747 
L 2328 2669 
Q 3034 2534 3370 2195 
Q 3706 1856 3706 1288 
Q 3706 609 3251 259 
Q 2797 -91 1919 -91 
Q 1588 -91 1214 -16 
Q 841 59 441 206 
L 441 856 
Q 825 641 1194 531 
Q 1563 422 1919 422 
Q 2459 422 2753 634 
Q 3047 847 3047 1241 
Q 3047 1584 2836 1778 
Q 2625 1972 2144 2069 
L 1759 2144 
Q 1053 2284 737 2584 
Q 422 2884 422 3419 
Q 422 4038 858 4394 
Q 1294 4750 2059 4750 
Q 2388 4750 2728 4690 
Q 3069 4631 3425 4513 
z
" transform="scale(0.015625)"/>
       <path id="DejaVuSans-57" d="M 213 4666 
L 850 4666 
L 1831 722 
L 2809 4666 
L 3519 4666 
L 4500 722 
L 5478 4666 
L 6119 4666 
L 4947 0 
L 4153 0 
L 3169 4050 
L 2175 0 
L 1381 0 
L 213 4666 
z
" transform="scale(0.015625)"/>
      </defs>
      <use xlink:href="#DejaVuSans-53"/>
      <use xlink:href="#DejaVuSans-57" x="63.476562"/>
      <use xlink:href="#DejaVuSans-41" x="156.853516"/>
      <use xlink:href="#DejaVuSans-20" x="225.261719"/>
      <use xlink:href="#DejaVuSans-56" x="257.048828"/>
      <use xlink:href="#DejaVuSans-61" x="317.707031"/>
      <use xlink:href="#DejaVuSans-6c" x="378.986328"/>
      <use xlink:href="#DejaVuSans-69" x="406.769531"/>
      <use xlink:href="#DejaVuSans-64" x="434.552734"/>
      <use xlink:href="#DejaVuSans-61" x="498.029297"/>
      <use xlink:href="#DejaVuSans-74" x="559.308594"/>
      <use xlink:href="#DejaVuSans-69" x="598.517578"/>
      <use xlink:href="#DejaVuSans-6f" x="626.300781"/>
      <use xlink:href="#DejaVuSans-6e" x="687.482422"/>
      <use xlink:href="#DejaVuSans-20" x="750.861328"/>
      <use xlink:href="#DejaVuSans-41" x="782.648438"/>
      <use xlink:href="#DejaVuSans-63" x="849.306641"/>
      <use xlink:href="#DejaVuSans-63" x="904.287109"/>
      <use xlink:href="#DejaVuSans-75" x="959.267578"/>
      <use xlink:href="#DejaVuSans-72" x="1022.646484"/>
      <use xlink:href="#DejaVuSans-61" x="1063.759766"/>
      <use xlink:href="#DejaVuSans-63" x="1125.039062"/>
      <use xlink:href="#DejaVuSans-79" x="1180.019531"/>
     </g>
    </g>
   </g>
  </g>
 </g>
 <defs>
  <clipPath id="pde1e16fc9a">
   <rect x="57.6" y="41.472" width="357.12" height="266.112"/>
  </clipPath>
 </defs>
</svg>
