<?xml version="1.0" encoding="utf-8" standalone="no"?>
<!DOCTYPE svg PUBLIC "-//W3C//DTD SVG 1.1//EN"
  "http://www.w3.org/Graphics/SVG/1.1/DTD/svg11.dtd">
<svg xmlns:xlink="http://www.w3.org/1999/xlink" width="460.8pt" height="345.6pt" viewBox="0 0 460.8 345.6" xmlns="http://www.w3.org/2000/svg" version="1.1">
 <metadata>
  <rdf:RDF xmlns:dc="http://purl.org/dc/elements/1.1/" xmlns:cc="http://creativecommons.org/ns#" xmlns:rdf="http://www.w3.org/1999/02/22-rdf-syntax-ns#">
   <cc:Work>
    <dc:type rdf:resource="http://purl.org/dc/dcmitype/StillImage"/>
    <dc:date>2026-01-06T22:14:48.589428</dc:date>
    <dc:format>image/svg+xml</dc:format>
    <dc:creator>
     <cc:Agent>
      <dc:title>Matplotlib v3.9.1, https://matplotlib.org/</dc:title>
     </cc:Agent>
    </dc:creator>
   </cc:Work>
  </rdf:RDF>
 </metadata>
 <defs>
  <style type="text/css">*{stroke-linejoin: round; stroke-linecap: butt}</style>
 </defs>
 <g id="figure_1">
  <g id="patch_1">
   <path d="M 0 345.6 
L 460.8 345.6 
L 460.8 0 
L 0 0 
z
" style="fill: #ffffff"/>
  </g>
  <g id="axes_1">
   <g id="patch_2">
    <path d="M 57.6 307.584 
L 414.72 307.584 
L 414.72 41.472 
L 57.6 41.472 
z
" style="fill: #ffffff"/>
   </g>
   <g id="matplotlib.axis_1">
    <g id="xtick_1">
     <g id="line2d_1">
      <defs>
       <path id="m5061a42b64" d="M 0 0 
L 0 3.5 
" style="stroke: #000000; stroke-width: 0.8"/>
      </defs>
      <g>
       <use xlink:href="#m5061a42b64" x="73.832727" y="307.584" style="stroke: #000000; stroke-width: 0.8"/>
      </g>
     </g>
     <g id="text_1">
      <!-- 1 -->
      <g transform="translate(70.651477 322.182437) scale(0.1 -0.1)">
       <defs>
        <path id="DejaVuSans-31" d="M 794 531 
L 1825 531 
L 1825 4091 
L 703 3866 
L 703 4441 
L 1819 4666 
L 2450 4666 
L 2450 531 
L 3481 531 
L 3481 0 
L 794 0 
L 794 531 
z
" transform="scale(0.015625)"/>
       </defs>
       <use xlink:href="#DejaVuSans-31"/>
      </g>
     </g>
    </g>
    <g id="xtick_2">
     <g id="line2d_2">
      <g>
       <use xlink:href="#m5061a42b64" x="109.616294" y="307.584" style="stroke: #000000; stroke-width: 0.8"/>
      </g>
     </g>
     <g id="text_2">
      <!-- 56 -->
      <g transform="translate(103.253794 322.182437) scale(0.1 -0.1)">
       <defs>
        <path id="DejaVuSans-35" d="M 691 4666 
L 3169 4666 
L 3169 4134 
L 1269 4134 
L 1269 2991 
Q 1406 3038 1543 3061 
Q 1681 3084 1819 3084 
Q 2600 3084 3056 2656 
Q 3513 2228 3513 1497 
Q 3513 744 3044 326 
Q 2575 -91 1722 -91 
Q 1428 -91 1123 -41 
Q 819 9 494 109 
L 494 744 
Q 775 591 1075 516 
Q 1375 441 1709 441 
Q 2250 441 2565 725 
Q 2881 1009 2881 1497 
Q 2881 1984 2565 2268 
Q 2250 2553 1709 2553 
Q 1456 2553 1204 2497 
Q 953 2441 691 2322 
L 691 4666 
z
" transform="scale(0.015625)"/>
        <path id="DejaVuSans-36" d="M 2113 2584 
Q 1688 2584 1439 2293 
Q 1191 2003 1191 1497 
Q 1191 994 1439 701 
Q 1688 409 2113 409 
Q 2538 409 2786 701 
Q 3034 994 3034 1497 
Q 3034 2003 2786 2293 
Q 2538 2584 2113 2584 
z
M 3366 4563 
L 3366 3988 
Q 3128 4100 2886 4159 
Q 2644 4219 2406 4219 
Q 1781 4219 1451 3797 
Q 1122 3375 1075 2522 
Q 1259 2794 1537 2939 
Q 1816 3084 2150 3084 
Q 2853 3084 3261 2657 
Q 3669 2231 3669 1497 
Q 3669 778 3244 343 
Q 2819 -91 2113 -91 
Q 1303 -91 875 529 
Q 447 1150 447 2328 
Q 447 3434 972 4092 
Q 1497 4750 2381 4750 
Q 2619 4750 2861 4703 
Q 3103 4656 3366 4563 
z
" transform="scale(0.015625)"/>
       </defs>
       <use xlink:href="#DejaVuSans-35"/>
       <use xlink:href="#DejaVuSans-36" x="63.623047"/>
      </g>
     </g>
    </g>
    <g id="xtick_3">
     <g id="line2d_3">
      <g>
       <use xlink:href="#m5061a42b64" x="145.399862" y="307.584" style="stroke: #000000; stroke-width: 0.8"/>
      </g>
     </g>
     <g id="text_3">
      <!-- 111 -->
      <g transform="translate(135.856112 322.182437) scale(0.1 -0.1)">
       <use xlink:href="#DejaVuSans-31"/>
       <use xlink:href="#DejaVuSans-31" x="63.623047"/>
       <use xlink:href="#DejaVuSans-31" x="127.246094"/>
      </g>
     </g>
    </g>
    <g id="xtick_4">
     <g id="line2d_4">
      <g>
       <use xlink:href="#m5061a42b64" x="181.834039" y="307.584" style="stroke: #000000; stroke-width: 0.8"/>
      </g>
     </g>
     <g id="text_4">
      <!-- 167 -->
      <g transform="translate(172.290289 322.182437) scale(0.1 -0.1)">
       <defs>
        <path id="DejaVuSans-37" d="M 525 4666 
L 3525 4666 
L 3525 4397 
L 1831 0 
L 1172 0 
L 2766 4134 
L 525 4134 
L 525 4666 
z
" transform="scale(0.015625)"/>
       </defs>
       <use xlink:href="#DejaVuSans-31"/>
       <use xlink:href="#DejaVuSans-36" x="63.623047"/>
       <use xlink:href="#DejaVuSans-37" x="127.246094"/>
      </g>
     </g>
    </g>
    <g id="xtick_5">
     <g id="line2d_5">
      <g>
       <use xlink:href="#m5061a42b64" x="217.617606" y="307.584" style="stroke: #000000; stroke-width: 0.8"/>
      </g>
     </g>
     <g id="text_5">
      <!-- 222 -->
      <g transform="translate(208.073856 322.182437) scale(0.1 -0.1)">
       <defs>
        <path id="DejaVuSans-32" d="M 1228 531 
L 3431 531 
L 3431 0 
L 469 0 
L 469 531 
Q 828 903 1448 1529 
Q 2069 2156 2228 2338 
Q 2531 2678 2651 2914 
Q 2772 3150 2772 3378 
Q 2772 3750 2511 3984 
Q 2250 4219 1831 4219 
Q 1534 4219 1204 4116 
Q 875 4013 500 3803 
L 500 4441 
Q 881 4594 1212 4672 
Q 1544 4750 1819 4750 
Q 2544 4750 2975 4387 
Q 3406 4025 3406 3419 
Q 3406 3131 3298 2873 
Q 3191 2616 2906 2266 
Q 2828 2175 2409 1742 
Q 1991 1309 1228 531 
z
" transform="scale(0.015625)"/>
       </defs>
       <use xlink:href="#DejaVuSans-32"/>
       <use xlink:href="#DejaVuSans-32" x="63.623047"/>
       <use xlink:href="#DejaVuSans-32" x="127.246094"/>
      </g>
     </g>
    </g>
    <g id="xtick_6">
     <g id="line2d_6">
      <g>
       <use xlink:href="#m5061a42b64" x="254.051784" y="307.584" style="stroke: #000000; stroke-width: 0.8"/>
      </g>
     </g>
     <g id="text_6">
      <!-- 278 -->
      <g transform="translate(244.508034 322.182437) scale(0.1 -0.1)">
       <defs>
        <path id="DejaVuSans-38" d="M 2034 2216 
Q 1584 2216 1326 1975 
Q 1069 1734 1069 1313 
Q 1069 891 1326 650 
Q 1584 409 2034 409 
Q 2484 409 2743 651 
Q 3003 894 3003 1313 
Q 3003 1734 2745 1975 
Q 2488 2216 2034 2216 
z
M 1403 2484 
Q 997 2584 770 2862 
Q 544 3141 544 3541 
Q 544 4100 942 4425 
Q 1341 4750 2034 4750 
Q 2731 4750 3128 4425 
Q 3525 4100 3525 3541 
Q 3525 3141 3298 2862 
Q 3072 2584 2669 2484 
Q 3125 2378 3379 2068 
Q 3634 1759 3634 1313 
Q 3634 634 3220 271 
Q 2806 -91 2034 -91 
Q 1263 -91 848 271 
Q 434 634 434 1313 
Q 434 1759 690 2068 
Q 947 2378 1403 2484 
z
M 1172 3481 
Q 1172 3119 1398 2916 
Q 1625 2713 2034 2713 
Q 2441 2713 2670 2916 
Q 2900 3119 2900 3481 
Q 2900 3844 2670 4047 
Q 2441 4250 2034 4250 
Q 1625 4250 1398 4047 
Q 1172 3844 1172 3481 
z
" transform="scale(0.015625)"/>
       </defs>
       <use xlink:href="#DejaVuSans-32"/>
       <use xlink:href="#DejaVuSans-37" x="63.623047"/>
       <use xlink:href="#DejaVuSans-38" x="127.246094"/>
      </g>
     </g>
    </g>
    <g id="xtick_7">
     <g id="line2d_7">
      <g>
       <use xlink:href="#m5061a42b64" x="289.835351" y="307.584" style="stroke: #000000; stroke-width: 0.8"/>
      </g>
     </g>
     <g id="text_7">
      <!-- 333 -->
      <g transform="translate(280.291601 322.182437) scale(0.1 -0.1)">
       <defs>
        <path id="DejaVuSans-33" d="M 2597 2516 
Q 3050 2419 3304 2112 
Q 3559 1806 3559 1356 
Q 3559 666 3084 287 
Q 2609 -91 1734 -91 
Q 1441 -91 1130 -33 
Q 819 25 488 141 
L 488 750 
Q 750 597 1062 519 
Q 1375 441 1716 441 
Q 2309 441 2620 675 
Q 2931 909 2931 1356 
Q 2931 1769 2642 2001 
Q 2353 2234 1838 2234 
L 1294 2234 
L 1294 2753 
L 1863 2753 
Q 2328 2753 2575 2939 
Q 2822 3125 2822 3475 
Q 2822 3834 2567 4026 
Q 2313 4219 1838 4219 
Q 1578 4219 1281 4162 
Q 984 4106 628 3988 
L 628 4550 
Q 988 4650 1302 4700 
Q 1616 4750 1894 4750 
Q 2613 4750 3031 4423 
Q 3450 4097 3450 3541 
Q 3450 3153 3228 2886 
Q 3006 2619 2597 2516 
z
" transform="scale(0.015625)"/>
       </defs>
       <use xlink:href="#DejaVuSans-33"/>
       <use xlink:href="#DejaVuSans-33" x="63.623047"/>
       <use xlink:href="#DejaVuSans-33" x="127.246094"/>
      </g>
     </g>
    </g>
    <g id="xtick_8">
     <g id="line2d_8">
      <g>
       <use xlink:href="#m5061a42b64" x="326.269528" y="307.584" style="stroke: #000000; stroke-width: 0.8"/>
      </g>
     </g>
     <g id="text_8">
      <!-- 389 -->
      <g transform="translate(316.725778 322.182437) scale(0.1 -0.1)">
       <defs>
        <path id="DejaVuSans-39" d="M 703 97 
L 703 672 
Q 941 559 1184 500 
Q 1428 441 1663 441 
Q 2288 441 2617 861 
Q 2947 1281 2994 2138 
Q 2813 1869 2534 1725 
Q 2256 1581 1919 1581 
Q 1219 1581 811 2004 
Q 403 2428 403 3163 
Q 403 3881 828 4315 
Q 1253 4750 1959 4750 
Q 2769 4750 3195 4129 
Q 3622 3509 3622 2328 
Q 3622 1225 3098 567 
Q 2575 -91 1691 -91 
Q 1453 -91 1209 -44 
Q 966 3 703 97 
z
M 1959 2075 
Q 2384 2075 2632 2365 
Q 2881 2656 2881 3163 
Q 2881 3666 2632 3958 
Q 2384 4250 1959 4250 
Q 1534 4250 1286 3958 
Q 1038 3666 1038 3163 
Q 1038 2656 1286 2365 
Q 1534 2075 1959 2075 
z
" transform="scale(0.015625)"/>
       </defs>
       <use xlink:href="#DejaVuSans-33"/>
       <use xlink:href="#DejaVuSans-38" x="63.623047"/>
       <use xlink:href="#DejaVuSans-39" x="127.246094"/>
      </g>
     </g>
    </g>
    <g id="xtick_9">
     <g id="line2d_9">
      <g>
       <use xlink:href="#m5061a42b64" x="362.053095" y="307.584" style="stroke: #000000; stroke-width: 0.8"/>
      </g>
     </g>
     <g id="text_9">
      <!-- 444 -->
      <g transform="translate(352.509345 322.182437) scale(0.1 -0.1)">
       <defs>
        <path id="DejaVuSans-34" d="M 2419 4116 
L 825 1625 
L 2419 1625 
L 2419 4116 
z
M 2253 4666 
L 3047 4666 
L 3047 1625 
L 3713 1625 
L 3713 1100 
L 3047 1100 
L 3047 0 
L 2419 0 
L 2419 1100 
L 313 1100 
L 313 1709 
L 2253 4666 
z
" transform="scale(0.015625)"/>
       </defs>
       <use xlink:href="#DejaVuSans-34"/>
       <use xlink:href="#DejaVuSans-34" x="63.623047"/>
       <use xlink:href="#DejaVuSans-34" x="127.246094"/>
      </g>
     </g>
    </g>
    <g id="xtick_10">
     <g id="line2d_10">
      <g>
       <use xlink:href="#m5061a42b64" x="398.487273" y="307.584" style="stroke: #000000; stroke-width: 0.8"/>
      </g>
     </g>
     <g id="text_10">
      <!-- 500 -->
      <g transform="translate(388.943523 322.182437) scale(0.1 -0.1)">
       <defs>
        <path id="DejaVuSans-30" d="M 2034 4250 
Q 1547 4250 1301 3770 
Q 1056 3291 1056 2328 
Q 1056 1369 1301 889 
Q 1547 409 2034 409 
Q 2525 409 2770 889 
Q 3016 1369 3016 2328 
Q 3016 3291 2770 3770 
Q 2525 4250 2034 4250 
z
M 2034 4750 
Q 2819 4750 3233 4129 
Q 3647 3509 3647 2328 
Q 3647 1150 3233 529 
Q 2819 -91 2034 -91 
Q 1250 -91 836 529 
Q 422 1150 422 2328 
Q 422 3509 836 4129 
Q 1250 4750 2034 4750 
z
" transform="scale(0.015625)"/>
       </defs>
       <use xlink:href="#DejaVuSans-35"/>
       <use xlink:href="#DejaVuSans-30" x="63.623047"/>
       <use xlink:href="#DejaVuSans-30" x="127.246094"/>
      </g>
     </g>
    </g>
    <g id="text_11">
     <!-- Epochs -->
     <g transform="translate(218.244375 335.860562) scale(0.1 -0.1)">
      <defs>
       <path id="DejaVuSans-45" d="M 628 4666 
L 3578 4666 
L 3578 4134 
L 1259 4134 
L 1259 2753 
L 3481 2753 
L 3481 2222 
L 1259 2222 
L 1259 531 
L 3634 531 
L 3634 0 
L 628 0 
L 628 4666 
z
" transform="scale(0.015625)"/>
       <path id="DejaVuSans-70" d="M 1159 525 
L 1159 -1331 
L 581 -1331 
L 581 3500 
L 1159 3500 
L 1159 2969 
Q 1341 3281 1617 3432 
Q 1894 3584 2278 3584 
Q 2916 3584 3314 3078 
Q 3713 2572 3713 1747 
Q 3713 922 3314 415 
Q 2916 -91 2278 -91 
Q 1894 -91 1617 61 
Q 1341 213 1159 525 
z
M 3116 1747 
Q 3116 2381 2855 2742 
Q 2594 3103 2138 3103 
Q 1681 3103 1420 2742 
Q 1159 2381 1159 1747 
Q 1159 1113 1420 752 
Q 1681 391 2138 391 
Q 2594 391 2855 752 
Q 3116 1113 3116 1747 
z
" transform="scale(0.015625)"/>
       <path id="DejaVuSans-6f" d="M 1959 3097 
Q 1497 3097 1228 2736 
Q 959 2375 959 1747 
Q 959 1119 1226 758 
Q 1494 397 1959 397 
Q 2419 397 2687 759 
Q 2956 1122 2956 1747 
Q 2956 2369 2687 2733 
Q 2419 3097 1959 3097 
z
M 1959 3584 
Q 2709 3584 3137 3096 
Q 3566 2609 3566 1747 
Q 3566 888 3137 398 
Q 2709 -91 1959 -91 
Q 1206 -91 779 398 
Q 353 888 353 1747 
Q 353 2609 779 3096 
Q 1206 3584 1959 3584 
z
" transform="scale(0.015625)"/>
       <path id="DejaVuSans-63" d="M 3122 3366 
L 3122 2828 
Q 2878 2963 2633 3030 
Q 2388 3097 2138 3097 
Q 1578 3097 1268 2742 
Q 959 2388 959 1747 
Q 959 1106 1268 751 
Q 1578 397 2138 397 
Q 2388 397 2633 464 
Q 2878 531 3122 666 
L 3122 134 
Q 2881 22 2623 -34 
Q 2366 -91 2075 -91 
Q 1284 -91 818 406 
Q 353 903 353 1747 
Q 353 2603 823 3093 
Q 1294 3584 2113 3584 
Q 2378 3584 2631 3529 
Q 2884 3475 3122 3366 
z
" transform="scale(0.015625)"/>
       <path id="DejaVuSans-68" d="M 3513 2113 
L 3513 0 
L 2938 0 
L 2938 2094 
Q 2938 2591 2744 2837 
Q 2550 3084 2163 3084 
Q 1697 3084 1428 2787 
Q 1159 2491 1159 1978 
L 1159 0 
L 581 0 
L 581 4863 
L 1159 4863 
L 1159 2956 
Q 1366 3272 1645 3428 
Q 1925 3584 2291 3584 
Q 2894 3584 3203 3211 
Q 3513 2838 3513 2113 
z
" transform="scale(0.015625)"/>
       <path id="DejaVuSans-73" d="M 2834 3397 
L 2834 2853 
Q 2591 2978 2328 3040 
Q 2066 3103 1784 3103 
Q 1356 3103 1142 2972 
Q 928 2841 928 2578 
Q 928 2378 1081 2264 
Q 1234 2150 1697 2047 
L 1894 2003 
Q 2506 1872 2764 1633 
Q 3022 1394 3022 966 
Q 3022 478 2636 193 
Q 2250 -91 1575 -91 
Q 1294 -91 989 -36 
Q 684 19 347 128 
L 347 722 
Q 666 556 975 473 
Q 1284 391 1588 391 
Q 1994 391 2212 530 
Q 2431 669 2431 922 
Q 2431 1156 2273 1281 
Q 2116 1406 1581 1522 
L 1381 1569 
Q 847 1681 609 1914 
Q 372 2147 372 2553 
Q 372 3047 722 3315 
Q 1072 3584 1716 3584 
Q 2034 3584 2315 3537 
Q 2597 3491 2834 3397 
z
" transform="scale(0.015625)"/>
      </defs>
      <use xlink:href="#DejaVuSans-45"/>
      <use xlink:href="#DejaVuSans-70" x="63.183594"/>
      <use xlink:href="#DejaVuSans-6f" x="126.660156"/>
      <use xlink:href="#DejaVuSans-63" x="187.841797"/>
      <use xlink:href="#DejaVuSans-68" x="242.822266"/>
      <use xlink:href="#DejaVuSans-73" x="306.201172"/>
     </g>
    </g>
   </g>
   <g id="matplotlib.axis_2">
    <g id="ytick_1">
     <g id="line2d_11">
      <defs>
       <path id="m381eaaad63" d="M 0 0 
L -3.5 0 
" style="stroke: #000000; stroke-width: 0.8"/>
      </defs>
      <g>
       <use xlink:href="#m381eaaad63" x="57.6" y="283.006037" style="stroke: #000000; stroke-width: 0.8"/>
      </g>
     </g>
     <g id="text_12">
      <!-- 25 -->
      <g transform="translate(37.875 286.805256) scale(0.1 -0.1)">
       <use xlink:href="#DejaVuSans-32"/>
       <use xlink:href="#DejaVuSans-35" x="63.623047"/>
      </g>
     </g>
    </g>
    <g id="ytick_2">
     <g id="line2d_12">
      <g>
       <use xlink:href="#m381eaaad63" x="57.6" y="250.099043" style="stroke: #000000; stroke-width: 0.8"/>
      </g>
     </g>
     <g id="text_13">
      <!-- 30 -->
      <g transform="translate(37.875 253.898262) scale(0.1 -0.1)">
       <use xlink:href="#DejaVuSans-33"/>
       <use xlink:href="#DejaVuSans-30" x="63.623047"/>
      </g>
     </g>
    </g>
    <g id="ytick_3">
     <g id="line2d_13">
      <g>
       <use xlink:href="#m381eaaad63" x="57.6" y="217.192049" style="stroke: #000000; stroke-width: 0.8"/>
      </g>
     </g>
     <g id="text_14">
      <!-- 35 -->
      <g transform="translate(37.875 220.991268) scale(0.1 -0.1)">
       <use xlink:href="#DejaVuSans-33"/>
       <use xlink:href="#DejaVuSans-35" x="63.623047"/>
      </g>
     </g>
    </g>
    <g id="ytick_4">
     <g id="line2d_14">
      <g>
       <use xlink:href="#m381eaaad63" x="57.6" y="184.285055" style="stroke: #000000; stroke-width: 0.8"/>
      </g>
     </g>
     <g id="text_15">
      <!-- 40 -->
      <g transform="translate(37.875 188.084274) scale(0.1 -0.1)">
       <use xlink:href="#DejaVuSans-34"/>
       <use xlink:href="#DejaVuSans-30" x="63.623047"/>
      </g>
     </g>
    </g>
    <g id="ytick_5">
     <g id="line2d_15">
      <g>
       <use xlink:href="#m381eaaad63" x="57.6" y="151.378061" style="stroke: #000000; stroke-width: 0.8"/>
      </g>
     </g>
     <g id="text_16">
      <!-- 45 -->
      <g transform="translate(37.875 155.17728) scale(0.1 -0.1)">
       <use xlink:href="#DejaVuSans-34"/>
       <use xlink:href="#DejaVuSans-35" x="63.623047"/>
      </g>
     </g>
    </g>
    <g id="ytick_6">
     <g id="line2d_16">
      <g>
       <use xlink:href="#m381eaaad63" x="57.6" y="118.471067" style="stroke: #000000; stroke-width: 0.8"/>
      </g>
     </g>
     <g id="text_17">
      <!-- 50 -->
      <g transform="translate(37.875 122.270286) scale(0.1 -0.1)">
       <use xlink:href="#DejaVuSans-35"/>
       <use xlink:href="#DejaVuSans-30" x="63.623047"/>
      </g>
     </g>
    </g>
    <g id="ytick_7">
     <g id="line2d_17">
      <g>
       <use xlink:href="#m381eaaad63" x="57.6" y="85.564074" style="stroke: #000000; stroke-width: 0.8"/>
      </g>
     </g>
     <g id="text_18">
      <!-- 55 -->
      <g transform="translate(37.875 89.363292) scale(0.1 -0.1)">
       <use xlink:href="#DejaVuSans-35"/>
       <use xlink:href="#DejaVuSans-35" x="63.623047"/>
      </g>
     </g>
    </g>
    <g id="ytick_8">
     <g id="line2d_18">
      <g>
       <use xlink:href="#m381eaaad63" x="57.6" y="52.65708" style="stroke: #000000; stroke-width: 0.8"/>
      </g>
     </g>
     <g id="text_19">
      <!-- 60 -->
      <g transform="translate(37.875 56.456299) scale(0.1 -0.1)">
       <use xlink:href="#DejaVuSans-36"/>
       <use xlink:href="#DejaVuSans-30" x="63.623047"/>
      </g>
     </g>
    </g>
    <g id="text_20">
     <!-- Accuracy -->
     <g transform="translate(31.795312 197.356125) rotate(-90) scale(0.1 -0.1)">
      <defs>
       <path id="DejaVuSans-41" d="M 2188 4044 
L 1331 1722 
L 3047 1722 
L 2188 4044 
z
M 1831 4666 
L 2547 4666 
L 4325 0 
L 3669 0 
L 3244 1197 
L 1141 1197 
L 716 0 
L 50 0 
L 1831 4666 
z
" transform="scale(0.015625)"/>
       <path id="DejaVuSans-75" d="M 544 1381 
L 544 3500 
L 1119 3500 
L 1119 1403 
Q 1119 906 1312 657 
Q 1506 409 1894 409 
Q 2359 409 2629 706 
Q 2900 1003 2900 1516 
L 2900 3500 
L 3475 3500 
L 3475 0 
L 2900 0 
L 2900 538 
Q 2691 219 2414 64 
Q 2138 -91 1772 -91 
Q 1169 -91 856 284 
Q 544 659 544 1381 
z
M 1991 3584 
L 1991 3584 
z
" transform="scale(0.015625)"/>
       <path id="DejaVuSans-72" d="M 2631 2963 
Q 2534 3019 2420 3045 
Q 2306 3072 2169 3072 
Q 1681 3072 1420 2755 
Q 1159 2438 1159 1844 
L 1159 0 
L 581 0 
L 581 3500 
L 1159 3500 
L 1159 2956 
Q 1341 3275 1631 3429 
Q 1922 3584 2338 3584 
Q 2397 3584 2469 3576 
Q 2541 3569 2628 3553 
L 2631 2963 
z
" transform="scale(0.015625)"/>
       <path id="DejaVuSans-61" d="M 2194 1759 
Q 1497 1759 1228 1600 
Q 959 1441 959 1056 
Q 959 750 1161 570 
Q 1363 391 1709 391 
Q 2188 391 2477 730 
Q 2766 1069 2766 1631 
L 2766 1759 
L 2194 1759 
z
M 3341 1997 
L 3341 0 
L 2766 0 
L 2766 531 
Q 2569 213 2275 61 
Q 1981 -91 1556 -91 
Q 1019 -91 701 211 
Q 384 513 384 1019 
Q 384 1609 779 1909 
Q 1175 2209 1959 2209 
L 2766 2209 
L 2766 2266 
Q 2766 2663 2505 2880 
Q 2244 3097 1772 3097 
Q 1472 3097 1187 3025 
Q 903 2953 641 2809 
L 641 3341 
Q 956 3463 1253 3523 
Q 1550 3584 1831 3584 
Q 2591 3584 2966 3190 
Q 3341 2797 3341 1997 
z
" transform="scale(0.015625)"/>
       <path id="DejaVuSans-79" d="M 2059 -325 
Q 1816 -950 1584 -1140 
Q 1353 -1331 966 -1331 
L 506 -1331 
L 506 -850 
L 844 -850 
Q 1081 -850 1212 -737 
Q 1344 -625 1503 -206 
L 1606 56 
L 191 3500 
L 800 3500 
L 1894 763 
L 2988 3500 
L 3597 3500 
L 2059 -325 
z
" transform="scale(0.015625)"/>
      </defs>
      <use xlink:href="#DejaVuSans-41"/>
      <use xlink:href="#DejaVuSans-63" x="66.658203"/>
      <use xlink:href="#DejaVuSans-63" x="121.638672"/>
      <use xlink:href="#DejaVuSans-75" x="176.619141"/>
      <use xlink:href="#DejaVuSans-72" x="239.998047"/>
      <use xlink:href="#DejaVuSans-61" x="281.111328"/>
      <use xlink:href="#DejaVuSans-63" x="342.390625"/>
      <use xlink:href="#DejaVuSans-79" x="397.371094"/>
     </g>
    </g>
   </g>
   <g id="line2d_19">
    <path d="M 73.832727 197.037939 
L 74.483338 228.920147 
L 75.133948 224.365546 
L 75.784558 244.861252 
L 76.435169 222.088245 
L 77.085779 233.474748 
L 77.736389 233.474748 
L 78.386999 249.415853 
L 79.03761 253.970454 
L 79.68822 235.752049 
L 80.33883 240.30665 
L 80.989441 226.642847 
L 81.640051 253.970454 
L 82.290661 219.810945 
L 82.941272 215.256344 
L 83.591882 201.59254 
L 84.242492 238.02935 
L 84.893103 217.533644 
L 85.543713 217.533644 
L 86.194323 258.525055 
L 86.844934 215.256344 
L 87.495544 224.365546 
L 88.146154 222.088245 
L 88.796764 238.02935 
L 89.447375 208.424442 
L 90.097985 215.256344 
L 90.748595 253.970454 
L 91.399206 226.642847 
L 92.049816 208.424442 
L 92.700426 226.642847 
L 93.351037 224.365546 
L 94.001647 219.810945 
L 94.652257 190.206037 
L 95.302868 199.315239 
L 95.953478 267.634258 
L 97.254698 185.651436 
L 98.555919 203.86984 
L 99.206529 217.533644 
L 99.85714 212.979043 
L 100.50775 242.583951 
L 101.15836 242.583951 
L 101.808971 228.920147 
L 102.459581 197.037939 
L 103.110191 242.583951 
L 103.760802 224.365546 
L 104.411412 228.920147 
L 105.062022 208.424442 
L 105.712633 231.197448 
L 106.363243 162.878429 
L 107.013853 219.810945 
L 107.664463 224.365546 
L 108.315074 231.197448 
L 108.965684 219.810945 
L 109.616294 256.247755 
L 110.266905 212.979043 
L 110.917515 215.256344 
L 111.568125 240.30665 
L 112.218736 222.088245 
L 112.869346 235.752049 
L 113.519956 222.088245 
L 114.170567 226.642847 
L 114.821177 197.037939 
L 115.471787 231.197448 
L 116.122398 228.920147 
L 116.773008 197.037939 
L 117.423618 224.365546 
L 118.074228 224.365546 
L 118.724839 233.474748 
L 119.375449 219.810945 
L 120.026059 212.979043 
L 120.67667 212.979043 
L 121.97789 242.583951 
L 122.628501 226.642847 
L 123.279111 215.256344 
L 123.929721 217.533644 
L 124.580332 224.365546 
L 125.230942 212.979043 
L 125.881552 219.810945 
L 126.532163 210.701742 
L 127.182773 231.197448 
L 127.833383 201.59254 
L 128.483993 222.088245 
L 129.134604 197.037939 
L 129.785214 201.59254 
L 130.435824 226.642847 
L 131.086435 190.206037 
L 131.737045 183.374135 
L 132.387655 203.86984 
L 133.038266 233.474748 
L 133.688876 253.970454 
L 134.339486 217.533644 
L 134.990097 210.701742 
L 135.640707 190.206037 
L 136.291317 203.86984 
L 136.941927 240.30665 
L 137.592538 224.365546 
L 138.243148 222.088245 
L 138.893758 201.59254 
L 140.194979 242.583951 
L 140.845589 206.147141 
L 141.4962 215.256344 
L 142.14681 228.920147 
L 142.79742 194.760638 
L 143.448031 187.928736 
L 144.098641 194.760638 
L 144.749251 217.533644 
L 145.399862 210.701742 
L 146.050472 208.424442 
L 147.351692 231.197448 
L 148.002303 215.256344 
L 148.652913 212.979043 
L 149.303523 199.315239 
L 149.954134 197.037939 
L 150.604744 197.037939 
L 151.255354 208.424442 
L 151.905965 226.642847 
L 152.556575 185.651436 
L 153.207185 185.651436 
L 153.857796 235.752049 
L 154.508406 174.264933 
L 155.159016 210.701742 
L 156.460237 210.701742 
L 157.110847 212.979043 
L 157.761457 208.424442 
L 158.412068 231.197448 
L 159.062678 201.59254 
L 159.713288 187.928736 
L 160.363899 194.760638 
L 161.014509 183.374135 
L 161.665119 212.979043 
L 162.31573 167.433031 
L 162.96634 206.147141 
L 163.61695 206.147141 
L 164.267561 203.86984 
L 164.918171 226.642847 
L 165.568781 181.096834 
L 166.219392 206.147141 
L 166.870002 210.701742 
L 167.520612 210.701742 
L 168.171222 194.760638 
L 168.821833 203.86984 
L 170.123053 162.878429 
L 170.773664 224.365546 
L 171.424274 194.760638 
L 172.074884 206.147141 
L 172.725495 176.542233 
L 173.376105 181.096834 
L 174.026715 197.037939 
L 174.677326 178.819534 
L 175.327936 197.037939 
L 175.978546 201.59254 
L 176.629156 185.651436 
L 177.279767 181.096834 
L 177.930377 187.928736 
L 178.580987 137.828123 
L 179.231598 183.374135 
L 179.882208 144.660025 
L 180.532818 226.642847 
L 181.183429 178.819534 
L 181.834039 181.096834 
L 182.484649 190.206037 
L 183.13526 183.374135 
L 183.78587 124.164319 
L 184.43648 187.928736 
L 185.087091 201.59254 
L 185.737701 194.760638 
L 186.388311 192.483337 
L 187.038921 219.810945 
L 187.689532 169.710331 
L 188.340142 158.323828 
L 188.990752 167.433031 
L 189.641363 156.046528 
L 190.291973 158.323828 
L 190.942583 194.760638 
L 191.593194 183.374135 
L 192.243804 144.660025 
L 192.894414 167.433031 
L 193.545025 158.323828 
L 194.846245 190.206037 
L 195.496856 156.046528 
L 196.147466 171.987632 
L 196.798076 149.214626 
L 197.448686 142.382724 
L 198.099297 149.214626 
L 198.749907 160.601129 
L 199.400517 181.096834 
L 200.051128 206.147141 
L 200.701738 144.660025 
L 201.352348 142.382724 
L 202.002959 178.819534 
L 202.653569 169.710331 
L 203.304179 187.928736 
L 204.6054 149.214626 
L 205.25601 187.928736 
L 205.906621 192.483337 
L 207.207841 153.769227 
L 208.509062 176.542233 
L 209.159672 185.651436 
L 209.810282 151.491926 
L 210.460893 187.928736 
L 211.111503 183.374135 
L 211.762113 171.987632 
L 212.412724 140.105423 
L 213.063334 212.979043 
L 213.713944 176.542233 
L 214.364555 176.542233 
L 215.015165 162.878429 
L 215.665775 165.15573 
L 216.316385 169.710331 
L 216.966996 162.878429 
L 217.617606 144.660025 
L 218.268216 208.424442 
L 218.918827 187.928736 
L 219.569437 151.491926 
L 220.220047 146.937325 
L 220.870658 181.096834 
L 221.521268 185.651436 
L 222.171878 162.878429 
L 222.822489 187.928736 
L 224.123709 140.105423 
L 224.77432 187.928736 
L 225.42493 160.601129 
L 226.07554 178.819534 
L 226.72615 162.878429 
L 227.376761 137.828123 
L 228.027371 151.491926 
L 228.677981 149.214626 
L 229.328592 137.828123 
L 229.979202 174.264933 
L 230.629812 178.819534 
L 231.280423 176.542233 
L 231.931033 192.483337 
L 232.581643 176.542233 
L 233.232254 153.769227 
L 233.882864 162.878429 
L 234.533474 156.046528 
L 235.184085 169.710331 
L 235.834695 156.046528 
L 236.485305 130.996221 
L 237.135915 140.105423 
L 237.786526 153.769227 
L 238.437136 87.727509 
L 239.087746 135.550822 
L 239.738357 156.046528 
L 240.388967 140.105423 
L 241.039577 133.273521 
L 241.690188 181.096834 
L 242.340798 219.810945 
L 242.991408 144.660025 
L 243.642019 158.323828 
L 244.292629 183.374135 
L 244.943239 153.769227 
L 245.59385 133.273521 
L 246.24446 156.046528 
L 246.89507 146.937325 
L 247.54568 130.996221 
L 248.196291 137.828123 
L 248.846901 158.323828 
L 249.497511 153.769227 
L 250.148122 167.433031 
L 250.798732 110.500515 
L 251.449342 140.105423 
L 252.099953 144.660025 
L 252.750563 158.323828 
L 253.401173 144.660025 
L 254.051784 126.44162 
L 254.702394 126.44162 
L 255.353004 167.433031 
L 256.003615 160.601129 
L 256.654225 137.828123 
L 257.304835 137.828123 
L 257.955445 124.164319 
L 258.606056 176.542233 
L 259.256666 162.878429 
L 259.907276 153.769227 
L 260.557887 146.937325 
L 261.208497 135.550822 
L 261.859107 151.491926 
L 263.160328 121.887018 
L 263.810938 112.777816 
L 264.461549 140.105423 
L 265.112159 146.937325 
L 265.762769 133.273521 
L 266.413379 158.323828 
L 267.06399 133.273521 
L 267.7146 96.836712 
L 268.36521 105.945914 
L 269.015821 119.609718 
L 269.666431 92.28211 
L 270.317041 142.382724 
L 270.967652 178.819534 
L 271.618262 137.828123 
L 272.268872 190.206037 
L 272.919483 144.660025 
L 273.570093 137.828123 
L 274.220703 146.937325 
L 274.871314 92.28211 
L 275.521924 92.28211 
L 276.172534 144.660025 
L 276.823144 176.542233 
L 277.473755 142.382724 
L 278.124365 128.71892 
L 279.425586 151.491926 
L 280.076196 142.382724 
L 280.726806 142.382724 
L 281.377417 144.660025 
L 282.028027 137.828123 
L 282.678637 121.887018 
L 283.329248 137.828123 
L 283.979858 126.44162 
L 284.630468 128.71892 
L 285.281079 153.769227 
L 285.931689 99.114012 
L 286.582299 124.164319 
L 287.232909 137.828123 
L 287.88352 108.223215 
L 288.53413 126.44162 
L 289.835351 151.491926 
L 290.485961 101.391313 
L 291.136571 105.945914 
L 291.787182 121.887018 
L 292.437792 117.332417 
L 293.088402 101.391313 
L 293.739013 158.323828 
L 294.389623 117.332417 
L 295.040233 94.559411 
L 295.690844 146.937325 
L 296.341454 140.105423 
L 297.642674 103.668613 
L 298.293285 130.996221 
L 298.943895 99.114012 
L 299.594505 119.609718 
L 300.245116 121.887018 
L 300.895726 130.996221 
L 301.546336 115.055117 
L 302.196947 140.105423 
L 302.847557 117.332417 
L 303.498167 115.055117 
L 304.148778 117.332417 
L 304.799388 112.777816 
L 305.449998 101.391313 
L 306.100608 149.214626 
L 306.751219 105.945914 
L 307.401829 137.828123 
L 308.052439 99.114012 
L 308.70305 110.500515 
L 309.35366 133.273521 
L 310.00427 92.28211 
L 311.305491 105.945914 
L 311.956101 76.341006 
L 312.606712 108.223215 
L 313.257322 108.223215 
L 313.907932 105.945914 
L 314.558543 90.00481 
L 315.209153 101.391313 
L 315.859763 117.332417 
L 316.510373 103.668613 
L 317.160984 74.063706 
L 317.811594 156.046528 
L 318.462204 99.114012 
L 319.112815 96.836712 
L 319.763425 112.777816 
L 320.414035 117.332417 
L 321.064646 128.71892 
L 321.715256 121.887018 
L 322.365866 121.887018 
L 323.016477 94.559411 
L 323.667087 103.668613 
L 324.317697 117.332417 
L 324.968308 115.055117 
L 325.618918 128.71892 
L 326.269528 85.450209 
L 326.920138 105.945914 
L 327.570749 101.391313 
L 328.221359 67.231804 
L 328.871969 121.887018 
L 329.52258 108.223215 
L 330.17319 99.114012 
L 330.8238 78.618307 
L 331.474411 112.777816 
L 332.125021 112.777816 
L 332.775631 96.836712 
L 333.426242 105.945914 
L 334.076852 108.223215 
L 334.727462 140.105423 
L 335.378073 121.887018 
L 336.028683 99.114012 
L 336.679293 103.668613 
L 337.329903 105.945914 
L 337.980514 115.055117 
L 338.631124 94.559411 
L 339.281734 78.618307 
L 339.932345 133.273521 
L 340.582955 108.223215 
L 341.233565 119.609718 
L 341.884176 78.618307 
L 342.534786 110.500515 
L 343.185396 85.450209 
L 343.836007 119.609718 
L 344.486617 67.231804 
L 345.137227 121.887018 
L 345.787837 110.500515 
L 346.438448 74.063706 
L 347.089058 115.055117 
L 347.739668 103.668613 
L 348.390279 140.105423 
L 349.040889 99.114012 
L 349.691499 126.44162 
L 350.34211 115.055117 
L 350.99272 110.500515 
L 351.64333 101.391313 
L 352.293941 108.223215 
L 352.944551 110.500515 
L 353.595161 96.836712 
L 354.245772 126.44162 
L 354.896382 71.786405 
L 355.546992 119.609718 
L 356.197602 103.668613 
L 356.848213 110.500515 
L 357.498823 137.828123 
L 358.149433 96.836712 
L 358.800044 74.063706 
L 359.450654 137.828123 
L 360.101264 101.391313 
L 360.751875 80.895607 
L 361.402485 92.28211 
L 362.053095 94.559411 
L 362.703706 115.055117 
L 363.354316 115.055117 
L 364.004926 83.172908 
L 364.655537 87.727509 
L 365.306147 119.609718 
L 366.607367 115.055117 
L 367.257978 115.055117 
L 367.908588 94.559411 
L 369.209809 76.341006 
L 369.860419 112.777816 
L 370.511029 119.609718 
L 371.16164 110.500515 
L 371.81225 153.769227 
L 372.46286 103.668613 
L 373.113471 105.945914 
L 373.764081 112.777816 
L 374.414691 78.618307 
L 375.065302 128.71892 
L 375.715912 90.00481 
L 376.366522 76.341006 
L 377.017132 119.609718 
L 377.667743 80.895607 
L 378.318353 85.450209 
L 378.968963 124.164319 
L 379.619574 117.332417 
L 380.920794 76.341006 
L 381.571405 99.114012 
L 382.222015 87.727509 
L 382.872625 69.509104 
L 383.523236 76.341006 
L 384.173846 87.727509 
L 384.824456 96.836712 
L 385.475066 124.164319 
L 386.125677 110.500515 
L 386.776287 69.509104 
L 387.426897 53.568 
L 388.077508 117.332417 
L 388.728118 101.391313 
L 389.378728 112.777816 
L 390.029339 146.937325 
L 390.679949 94.559411 
L 391.330559 94.559411 
L 391.98117 55.845301 
L 392.63178 133.273521 
L 393.28239 140.105423 
L 393.933001 85.450209 
L 394.583611 105.945914 
L 395.234221 85.450209 
L 395.884831 124.164319 
L 396.535442 135.550822 
L 397.186052 94.559411 
L 397.836662 119.609718 
L 398.487273 92.28211 
L 398.487273 92.28211 
" clip-path="url(#p8c82c22f50)" style="fill: none; stroke: #1f77b4; stroke-width: 1.5; stroke-linecap: square"/>
   </g>
   <g id="line2d_20">
    <path d="M 73.832727 220.596221 
L 74.483338 234.212908 
L 75.133948 234.212908 
L 75.784558 218.326773 
L 76.435169 231.94346 
L 77.736389 143.434994 
L 78.386999 229.674012 
L 79.03761 220.596221 
L 79.68822 222.865669 
L 80.33883 263.71573 
L 80.989441 220.596221 
L 81.640051 229.674012 
L 82.290661 220.596221 
L 82.941272 213.787877 
L 83.591882 234.212908 
L 84.242492 218.326773 
L 84.893103 234.212908 
L 85.543713 234.212908 
L 86.194323 220.596221 
L 86.844934 229.674012 
L 87.495544 234.212908 
L 88.146154 220.596221 
L 88.796764 225.135117 
L 89.447375 234.212908 
L 90.097985 209.248982 
L 90.748595 220.596221 
L 91.399206 234.212908 
L 92.049816 211.518429 
L 92.700426 220.596221 
L 93.351037 222.865669 
L 94.001647 129.818307 
L 94.652257 202.440638 
L 95.302868 193.362847 
L 95.953478 193.362847 
L 96.604088 229.674012 
L 97.254698 234.212908 
L 97.905309 229.674012 
L 98.555919 147.97389 
L 99.206529 220.596221 
L 99.85714 186.554503 
L 100.50775 234.212908 
L 101.15836 179.74616 
L 101.808971 170.668368 
L 102.459581 184.285055 
L 103.110191 206.979534 
L 103.760802 234.212908 
L 104.411412 234.212908 
L 105.062022 225.135117 
L 105.712633 225.135117 
L 106.363243 200.17119 
L 107.013853 220.596221 
L 107.664463 218.326773 
L 108.315074 195.632294 
L 108.965684 182.015607 
L 109.616294 231.94346 
L 110.917515 204.710086 
L 111.568125 241.021252 
L 112.218736 234.212908 
L 112.869346 234.212908 
L 113.519956 211.518429 
L 114.170567 234.212908 
L 114.821177 229.674012 
L 115.471787 220.596221 
L 116.122398 231.94346 
L 116.773008 220.596221 
L 117.423618 213.787877 
L 118.074228 234.212908 
L 118.724839 241.021252 
L 120.026059 200.17119 
L 120.67667 220.596221 
L 121.32728 286.410209 
L 121.97789 229.674012 
L 122.628501 220.596221 
L 123.279111 213.787877 
L 123.929721 225.135117 
L 124.580332 225.135117 
L 125.230942 222.865669 
L 125.881552 191.093399 
L 126.532163 234.212908 
L 127.182773 241.021252 
L 127.833383 236.482356 
L 128.483993 229.674012 
L 129.134604 213.787877 
L 130.435824 227.404564 
L 131.086435 227.404564 
L 131.737045 234.212908 
L 132.387655 231.94346 
L 133.038266 188.823951 
L 133.688876 275.062969 
L 134.339486 204.710086 
L 134.990097 206.979534 
L 135.640707 254.637939 
L 136.291317 225.135117 
L 136.941927 206.979534 
L 137.592538 197.901742 
L 138.243148 222.865669 
L 138.893758 241.021252 
L 139.544369 213.787877 
L 140.194979 177.476712 
L 140.845589 227.404564 
L 141.4962 225.135117 
L 142.14681 238.751804 
L 142.79742 143.434994 
L 143.448031 147.97389 
L 144.098641 209.248982 
L 144.749251 231.94346 
L 145.399862 231.94346 
L 146.050472 220.596221 
L 146.701082 247.829595 
L 147.351692 216.057325 
L 148.002303 193.362847 
L 148.652913 227.404564 
L 149.303523 245.560147 
L 149.954134 227.404564 
L 150.604744 220.596221 
L 151.255354 238.751804 
L 151.905965 261.446282 
L 152.556575 184.285055 
L 153.207185 182.015607 
L 153.857796 247.829595 
L 154.508406 172.937816 
L 155.159016 209.248982 
L 155.809627 275.062969 
L 156.460237 157.051681 
L 157.110847 231.94346 
L 157.761457 259.176834 
L 158.412068 161.590577 
L 159.062678 191.093399 
L 159.713288 238.751804 
L 160.363899 197.901742 
L 161.014509 222.865669 
L 161.665119 227.404564 
L 162.31573 138.896098 
L 162.96634 172.937816 
L 163.61695 229.674012 
L 164.267561 241.021252 
L 164.918171 113.932172 
L 165.568781 256.907387 
L 166.219392 170.668368 
L 166.870002 229.674012 
L 167.520612 204.710086 
L 168.171222 225.135117 
L 168.821833 157.051681 
L 169.472443 107.123828 
L 170.123053 186.554503 
L 170.773664 252.368491 
L 171.424274 159.321129 
L 172.074884 163.860025 
L 173.376105 272.793521 
L 174.026715 191.093399 
L 174.677326 138.896098 
L 175.327936 152.512785 
L 175.978546 150.243337 
L 176.629156 250.099043 
L 177.279767 225.135117 
L 177.930377 172.937816 
L 178.580987 241.021252 
L 179.231598 231.94346 
L 179.882208 238.751804 
L 180.532818 123.009963 
L 181.183429 234.212908 
L 181.834039 145.704442 
L 182.484649 109.393276 
L 183.13526 227.404564 
L 183.78587 238.751804 
L 184.43648 252.368491 
L 185.087091 127.548859 
L 185.737701 145.704442 
L 186.388311 238.751804 
L 187.038921 157.051681 
L 187.689532 168.39892 
L 188.340142 204.710086 
L 188.990752 209.248982 
L 189.641363 127.548859 
L 190.291973 120.740515 
L 190.942583 195.632294 
L 191.593194 295.488 
L 192.243804 222.865669 
L 192.894414 216.057325 
L 193.545025 136.62665 
L 194.195635 186.554503 
L 194.846245 188.823951 
L 195.496856 275.062969 
L 196.147466 222.865669 
L 196.798076 159.321129 
L 197.448686 209.248982 
L 198.099297 138.896098 
L 198.749907 225.135117 
L 199.400517 136.62665 
L 200.051128 220.596221 
L 200.701738 134.357202 
L 201.352348 138.896098 
L 202.002959 157.051681 
L 202.653569 227.404564 
L 203.304179 213.787877 
L 203.95479 175.207264 
L 204.6054 129.818307 
L 205.25601 132.087755 
L 205.906621 188.823951 
L 206.557231 118.471067 
L 207.207841 216.057325 
L 207.858451 177.476712 
L 208.509062 161.590577 
L 209.159672 209.248982 
L 209.810282 204.710086 
L 210.460893 104.85438 
L 211.111503 98.046037 
L 211.762113 231.94346 
L 212.412724 231.94346 
L 213.063334 202.440638 
L 213.713944 227.404564 
L 214.364555 123.009963 
L 215.015165 231.94346 
L 215.665775 213.787877 
L 216.966996 152.512785 
L 217.617606 263.71573 
L 218.268216 195.632294 
L 218.918827 213.787877 
L 219.569437 163.860025 
L 220.220047 159.321129 
L 220.870658 170.668368 
L 221.521268 143.434994 
L 222.171878 191.093399 
L 222.822489 216.057325 
L 223.473099 229.674012 
L 224.123709 218.326773 
L 224.77432 195.632294 
L 225.42493 218.326773 
L 226.07554 200.17119 
L 226.72615 261.446282 
L 227.376761 159.321129 
L 228.027371 241.021252 
L 228.677981 152.512785 
L 229.328592 227.404564 
L 229.979202 127.548859 
L 230.629812 147.97389 
L 231.280423 152.512785 
L 231.931033 175.207264 
L 232.581643 152.512785 
L 233.232254 216.057325 
L 233.882864 184.285055 
L 234.533474 145.704442 
L 235.184085 270.524074 
L 235.834695 132.087755 
L 236.485305 225.135117 
L 237.135915 206.979534 
L 237.786526 157.051681 
L 238.437136 220.596221 
L 239.087746 220.596221 
L 239.738357 213.787877 
L 240.388967 268.254626 
L 241.039577 209.248982 
L 241.690188 182.015607 
L 242.340798 163.860025 
L 242.991408 222.865669 
L 243.642019 265.985178 
L 244.943239 118.471067 
L 245.59385 204.710086 
L 246.24446 202.440638 
L 246.89507 229.674012 
L 247.54568 200.17119 
L 248.196291 193.362847 
L 248.846901 197.901742 
L 249.497511 252.368491 
L 250.148122 184.285055 
L 250.798732 220.596221 
L 251.449342 206.979534 
L 252.099953 225.135117 
L 252.750563 129.818307 
L 253.401173 152.512785 
L 254.051784 170.668368 
L 254.702394 141.165546 
L 255.353004 211.518429 
L 256.003615 184.285055 
L 256.654225 168.39892 
L 257.304835 125.279411 
L 257.955445 129.818307 
L 258.606056 166.129472 
L 259.256666 154.782233 
L 259.907276 118.471067 
L 260.557887 170.668368 
L 261.208497 109.393276 
L 261.859107 206.979534 
L 262.509718 166.129472 
L 263.160328 197.901742 
L 263.810938 129.818307 
L 264.461549 186.554503 
L 265.112159 107.123828 
L 265.762769 179.74616 
L 266.413379 172.937816 
L 267.06399 186.554503 
L 267.7146 170.668368 
L 268.36521 209.248982 
L 269.015821 177.476712 
L 270.317041 143.434994 
L 271.618262 177.476712 
L 272.268872 125.279411 
L 272.919483 168.39892 
L 273.570093 193.362847 
L 274.220703 116.20162 
L 274.871314 172.937816 
L 275.521924 175.207264 
L 276.172534 141.165546 
L 276.823144 179.74616 
L 277.473755 166.129472 
L 278.124365 195.632294 
L 278.774975 147.97389 
L 279.425586 113.932172 
L 280.076196 118.471067 
L 280.726806 113.932172 
L 281.377417 184.285055 
L 282.028027 123.009963 
L 282.678637 157.051681 
L 283.329248 161.590577 
L 283.979858 202.440638 
L 284.630468 204.710086 
L 285.281079 134.357202 
L 285.931689 125.279411 
L 286.582299 177.476712 
L 287.232909 127.548859 
L 287.88352 163.860025 
L 288.53413 138.896098 
L 289.18474 132.087755 
L 289.835351 132.087755 
L 290.485961 159.321129 
L 291.136571 154.782233 
L 291.787182 125.279411 
L 292.437792 175.207264 
L 293.088402 154.782233 
L 293.739013 179.74616 
L 294.389623 136.62665 
L 295.040233 204.710086 
L 295.690844 220.596221 
L 296.341454 179.74616 
L 296.992064 184.285055 
L 297.642674 136.62665 
L 298.293285 157.051681 
L 298.943895 123.009963 
L 299.594505 188.823951 
L 300.245116 188.823951 
L 300.895726 182.015607 
L 302.196947 129.818307 
L 302.847557 161.590577 
L 303.498167 134.357202 
L 304.148778 138.896098 
L 304.799388 134.357202 
L 305.449998 218.326773 
L 306.100608 161.590577 
L 306.751219 125.279411 
L 307.401829 127.548859 
L 308.052439 138.896098 
L 308.70305 129.818307 
L 309.35366 145.704442 
L 310.00427 132.087755 
L 310.654881 134.357202 
L 311.305491 129.818307 
L 311.956101 138.896098 
L 312.606712 186.554503 
L 313.257322 147.97389 
L 313.907932 147.97389 
L 314.558543 163.860025 
L 315.209153 172.937816 
L 315.859763 138.896098 
L 316.510373 136.62665 
L 317.160984 120.740515 
L 317.811594 141.165546 
L 318.462204 109.393276 
L 319.112815 132.087755 
L 319.763425 125.279411 
L 320.414035 129.818307 
L 321.064646 147.97389 
L 321.715256 184.285055 
L 322.365866 143.434994 
L 323.016477 116.20162 
L 323.667087 111.662724 
L 324.317697 157.051681 
L 324.968308 125.279411 
L 325.618918 143.434994 
L 326.269528 111.662724 
L 326.920138 100.315485 
L 327.570749 129.818307 
L 328.871969 143.434994 
L 329.52258 127.548859 
L 330.17319 118.471067 
L 330.8238 141.165546 
L 331.474411 118.471067 
L 332.125021 123.009963 
L 332.775631 159.321129 
L 333.426242 141.165546 
L 334.076852 143.434994 
L 334.727462 125.279411 
L 335.378073 127.548859 
L 336.028683 147.97389 
L 336.679293 111.662724 
L 337.329903 166.129472 
L 337.980514 157.051681 
L 338.631124 159.321129 
L 339.281734 186.554503 
L 339.932345 157.051681 
L 341.884176 118.471067 
L 342.534786 116.20162 
L 343.185396 116.20162 
L 343.836007 141.165546 
L 344.486617 129.818307 
L 345.137227 138.896098 
L 345.787837 152.512785 
L 346.438448 116.20162 
L 347.089058 120.740515 
L 347.739668 111.662724 
L 348.390279 91.237693 
L 349.691499 134.357202 
L 350.34211 161.590577 
L 350.99272 170.668368 
L 351.64333 129.818307 
L 352.293941 132.087755 
L 352.944551 125.279411 
L 353.595161 138.896098 
L 354.896382 107.123828 
L 355.546992 123.009963 
L 356.197602 132.087755 
L 356.848213 134.357202 
L 357.498823 132.087755 
L 358.149433 154.782233 
L 358.800044 141.165546 
L 359.450654 132.087755 
L 360.101264 152.512785 
L 360.751875 120.740515 
L 361.402485 120.740515 
L 362.053095 136.62665 
L 362.703706 118.471067 
L 363.354316 118.471067 
L 364.004926 134.357202 
L 364.655537 159.321129 
L 365.306147 159.321129 
L 365.956757 116.20162 
L 366.607367 154.782233 
L 367.257978 104.85438 
L 367.908588 116.20162 
L 368.559198 113.932172 
L 369.209809 145.704442 
L 369.860419 104.85438 
L 370.511029 116.20162 
L 371.16164 168.39892 
L 371.81225 123.009963 
L 372.46286 100.315485 
L 373.113471 152.512785 
L 374.414691 100.315485 
L 375.065302 123.009963 
L 375.715912 152.512785 
L 376.366522 136.62665 
L 377.017132 154.782233 
L 377.667743 134.357202 
L 378.318353 104.85438 
L 379.619574 123.009963 
L 380.270184 109.393276 
L 380.920794 123.009963 
L 381.571405 129.818307 
L 382.222015 129.818307 
L 382.872625 116.20162 
L 384.173846 98.046037 
L 384.824456 152.512785 
L 385.475066 150.243337 
L 386.125677 116.20162 
L 386.776287 113.932172 
L 387.426897 161.590577 
L 388.077508 136.62665 
L 388.728118 143.434994 
L 390.029339 116.20162 
L 390.679949 109.393276 
L 391.330559 93.507141 
L 391.98117 138.896098 
L 392.63178 111.662724 
L 393.28239 125.279411 
L 393.933001 118.471067 
L 394.583611 125.279411 
L 395.234221 118.471067 
L 395.884831 109.393276 
L 396.535442 123.009963 
L 397.186052 127.548859 
L 397.836662 116.20162 
L 398.487273 111.662724 
L 398.487273 111.662724 
" clip-path="url(#p8c82c22f50)" style="fill: none; stroke: #ff7f0e; stroke-width: 1.5; stroke-linecap: square"/>
   </g>
   <g id="line2d_21">
    <path d="M 73.832727 209.846205 
L 74.483338 262.401839 
L 75.133948 255.235162 
L 75.784558 212.235097 
L 76.435169 242.096253 
L 77.085779 193.123957 
L 77.736389 199.096189 
L 78.386999 218.207328 
L 79.03761 206.262866 
L 79.68822 209.846205 
L 80.33883 264.790732 
L 80.989441 209.846205 
L 81.640051 218.207328 
L 82.290661 209.846205 
L 82.941272 203.873974 
L 83.591882 263.596285 
L 84.242492 230.151791 
L 84.893103 228.957345 
L 85.543713 254.040716 
L 86.194323 209.846205 
L 86.844934 221.790667 
L 87.495544 256.429608 
L 88.146154 212.235097 
L 88.796764 214.62399 
L 89.447375 254.040716 
L 90.097985 207.457312 
L 90.748595 206.262866 
L 91.399206 236.124022 
L 92.049816 227.762898 
L 92.700426 209.846205 
L 93.351037 236.124022 
L 94.001647 185.95728 
L 94.652257 197.901742 
L 95.302868 231.346237 
L 95.953478 231.346237 
L 96.604088 215.818436 
L 97.254698 248.068484 
L 98.555919 185.95728 
L 99.206529 209.846205 
L 99.85714 213.429543 
L 100.50775 255.235162 
L 101.15836 185.95728 
L 101.808971 188.346172 
L 102.459581 200.290635 
L 103.110191 202.679527 
L 103.760802 250.457377 
L 104.411412 258.8185 
L 105.062022 221.790667 
L 105.712633 202.679527 
L 106.363243 227.762898 
L 107.013853 207.457312 
L 107.664463 206.262866 
L 108.315074 194.318404 
L 108.965684 189.540619 
L 109.616294 249.262931 
L 110.266905 206.262866 
L 110.917515 208.651758 
L 111.568125 221.790667 
L 112.218736 257.624054 
L 112.869346 260.012947 
L 113.519956 214.62399 
L 114.170567 218.207328 
L 114.821177 220.596221 
L 115.471787 209.846205 
L 116.122398 260.012947 
L 116.773008 209.846205 
L 117.423618 203.873974 
L 118.074228 256.429608 
L 118.724839 257.624054 
L 119.375449 211.040651 
L 120.026059 200.290635 
L 120.67667 207.457312 
L 121.32728 264.790732 
L 121.97789 222.985113 
L 122.628501 209.846205 
L 123.279111 201.485081 
L 123.929721 214.62399 
L 124.580332 214.62399 
L 125.230942 191.929511 
L 125.881552 179.985049 
L 126.532163 224.17956 
L 127.182773 258.8185 
L 127.833383 258.8185 
L 128.483993 221.790667 
L 129.134604 234.929576 
L 129.785214 211.040651 
L 130.435824 243.290699 
L 131.086435 212.235097 
L 131.737045 261.207393 
L 132.387655 217.012882 
L 133.038266 187.151726 
L 133.688876 265.985178 
L 134.339486 196.707296 
L 134.990097 197.901742 
L 135.640707 232.540683 
L 136.291317 215.818436 
L 136.941927 208.651758 
L 137.592538 195.51285 
L 138.243148 215.818436 
L 138.893758 260.012947 
L 139.544369 205.06842 
L 140.194979 184.762834 
L 140.845589 242.096253 
L 141.4962 219.401775 
L 142.14681 252.846269 
L 142.79742 162.068355 
L 143.448031 179.985049 
L 144.098641 219.401775 
L 144.749251 230.151791 
L 146.050472 211.040651 
L 146.701082 265.985178 
L 147.351692 211.040651 
L 148.002303 191.929511 
L 149.303523 248.068484 
L 149.954134 237.318468 
L 150.604744 212.235097 
L 151.255354 225.374006 
L 151.905965 250.457377 
L 152.556575 182.373941 
L 153.207185 215.818436 
L 153.857796 261.207393 
L 154.508406 196.707296 
L 155.159016 201.485081 
L 155.809627 271.957409 
L 156.460237 170.429479 
L 157.110847 208.651758 
L 157.761457 275.540748 
L 158.412068 194.318404 
L 159.062678 187.151726 
L 159.713288 226.568452 
L 160.363899 199.096189 
L 161.014509 209.846205 
L 161.665119 214.62399 
L 162.31573 151.318339 
L 164.267561 240.901807 
L 164.918171 157.29057 
L 165.568781 255.235162 
L 166.219392 176.40171 
L 166.870002 221.790667 
L 167.520612 207.457312 
L 168.171222 213.429543 
L 168.821833 185.95728 
L 169.472443 152.512785 
L 170.123053 183.568387 
L 170.773664 252.846269 
L 171.424274 169.235033 
L 172.074884 177.596156 
L 172.725495 224.17956 
L 173.376105 254.040716 
L 174.026715 160.873909 
L 174.677326 171.623925 
L 175.327936 175.207264 
L 175.978546 177.596156 
L 176.629156 257.624054 
L 177.930377 179.985049 
L 178.580987 249.262931 
L 179.231598 214.62399 
L 179.882208 211.040651 
L 180.532818 175.207264 
L 181.183429 206.262866 
L 182.484649 147.735 
L 183.78587 250.457377 
L 184.43648 257.624054 
L 185.087091 148.929447 
L 185.737701 152.512785 
L 186.388311 248.068484 
L 187.038921 177.596156 
L 187.689532 183.568387 
L 188.340142 206.262866 
L 188.990752 184.762834 
L 189.641363 140.568323 
L 190.291973 162.068355 
L 190.942583 202.679527 
L 191.593194 254.040716 
L 192.243804 205.06842 
L 192.894414 187.151726 
L 193.545025 162.068355 
L 194.195635 191.929511 
L 194.846245 174.012818 
L 195.496856 240.901807 
L 196.798076 178.790603 
L 197.448686 215.818436 
L 198.099297 179.985049 
L 198.749907 212.235097 
L 199.400517 162.068355 
L 200.051128 200.290635 
L 200.701738 151.318339 
L 201.352348 145.346108 
L 202.002959 166.84614 
L 202.653569 205.06842 
L 203.304179 199.096189 
L 203.95479 177.596156 
L 204.6054 142.957215 
L 205.25601 176.40171 
L 205.906621 200.290635 
L 206.557231 153.707232 
L 207.207841 214.62399 
L 207.858451 189.540619 
L 208.509062 191.929511 
L 209.159672 202.679527 
L 209.810282 163.262801 
L 210.460893 150.123893 
L 211.111503 140.568323 
L 211.762113 199.096189 
L 212.412724 212.235097 
L 213.063334 209.846205 
L 213.713944 215.818436 
L 214.364555 163.262801 
L 215.015165 217.012882 
L 215.665775 236.124022 
L 216.316385 195.51285 
L 216.966996 162.068355 
L 217.617606 244.485146 
L 218.268216 195.51285 
L 218.918827 212.235097 
L 219.569437 163.262801 
L 220.220047 166.84614 
L 220.870658 160.873909 
L 221.521268 148.929447 
L 222.171878 172.818371 
L 222.822489 207.457312 
L 223.473099 191.929511 
L 224.123709 193.123957 
L 224.77432 165.651694 
L 225.42493 205.06842 
L 226.07554 201.485081 
L 226.72615 236.124022 
L 227.376761 159.679463 
L 228.027371 207.457312 
L 228.677981 175.207264 
L 229.328592 231.346237 
L 229.979202 153.707232 
L 230.629812 174.012818 
L 231.280423 157.29057 
L 231.931033 195.51285 
L 232.581643 150.123893 
L 233.232254 194.318404 
L 233.882864 182.373941 
L 234.533474 148.929447 
L 235.184085 227.762898 
L 235.834695 146.540554 
L 236.485305 212.235097 
L 237.135915 189.540619 
L 237.786526 150.123893 
L 238.437136 208.651758 
L 239.087746 176.40171 
L 239.738357 189.540619 
L 240.388967 239.707361 
L 241.039577 194.318404 
L 241.690188 188.346172 
L 242.340798 157.29057 
L 242.991408 182.373941 
L 243.642019 215.818436 
L 244.292629 176.40171 
L 244.943239 123.846076 
L 245.59385 187.151726 
L 246.24446 177.596156 
L 246.89507 215.818436 
L 247.54568 189.540619 
L 248.196291 168.040586 
L 248.846901 163.262801 
L 249.497511 205.06842 
L 250.148122 162.068355 
L 250.798732 191.929511 
L 251.449342 178.790603 
L 252.099953 207.457312 
L 252.750563 146.540554 
L 253.401173 148.929447 
L 254.051784 164.457248 
L 254.702394 142.957215 
L 255.353004 208.651758 
L 256.003615 146.540554 
L 256.654225 179.985049 
L 257.304835 144.151662 
L 257.955445 134.596092 
L 258.606056 158.485016 
L 259.256666 133.401645 
L 259.907276 138.17943 
L 260.557887 178.790603 
L 261.208497 126.234968 
L 261.859107 195.51285 
L 262.509718 156.096124 
L 263.160328 178.790603 
L 263.810938 132.207199 
L 264.461549 138.17943 
L 265.112159 126.234968 
L 265.762769 166.84614 
L 266.413379 141.762769 
L 267.06399 166.84614 
L 267.7146 152.512785 
L 268.36521 168.040586 
L 269.015821 158.485016 
L 270.317041 163.262801 
L 270.967652 164.457248 
L 271.618262 162.068355 
L 272.268872 144.151662 
L 272.919483 162.068355 
L 273.570093 168.040586 
L 274.220703 146.540554 
L 274.871314 140.568323 
L 275.521924 169.235033 
L 276.172534 147.735 
L 276.823144 174.012818 
L 277.473755 147.735 
L 278.124365 175.207264 
L 278.774975 147.735 
L 279.425586 133.401645 
L 280.076196 146.540554 
L 280.726806 128.623861 
L 281.377417 169.235033 
L 282.028027 142.957215 
L 282.678637 153.707232 
L 283.329248 136.984984 
L 283.979858 183.568387 
L 284.630468 178.790603 
L 285.281079 151.318339 
L 285.931689 142.957215 
L 286.582299 157.29057 
L 287.232909 144.151662 
L 287.88352 152.512785 
L 288.53413 158.485016 
L 289.18474 134.596092 
L 289.835351 134.596092 
L 290.485961 158.485016 
L 291.136571 166.84614 
L 291.787182 127.429414 
L 292.437792 182.373941 
L 293.088402 150.123893 
L 293.739013 162.068355 
L 294.389623 131.012753 
L 295.040233 190.735065 
L 295.690844 197.901742 
L 296.341454 166.84614 
L 296.992064 187.151726 
L 297.642674 146.540554 
L 298.293285 158.485016 
L 298.943895 135.790538 
L 299.594505 178.790603 
L 301.546336 153.707232 
L 302.196947 127.429414 
L 302.847557 146.540554 
L 303.498167 138.17943 
L 304.148778 142.957215 
L 304.799388 144.151662 
L 305.449998 200.290635 
L 306.100608 139.373877 
L 306.751219 133.401645 
L 307.401829 125.040522 
L 308.052439 129.818307 
L 308.70305 125.040522 
L 309.35366 132.207199 
L 310.00427 121.457183 
L 310.654881 129.818307 
L 311.305491 125.040522 
L 311.956101 126.234968 
L 312.606712 159.679463 
L 313.257322 145.346108 
L 313.907932 153.707232 
L 314.558543 146.540554 
L 315.209153 163.262801 
L 315.859763 134.596092 
L 316.510373 128.623861 
L 317.160984 125.040522 
L 317.811594 119.068291 
L 318.462204 117.873844 
L 319.112815 120.262737 
L 319.763425 131.012753 
L 320.414035 125.040522 
L 321.064646 157.29057 
L 321.715256 162.068355 
L 322.365866 136.984984 
L 323.016477 136.984984 
L 323.667087 115.484952 
L 324.317697 156.096124 
L 324.968308 125.040522 
L 325.618918 121.457183 
L 326.269528 122.651629 
L 326.920138 115.484952 
L 327.570749 133.401645 
L 328.221359 128.623861 
L 328.871969 140.568323 
L 329.52258 133.401645 
L 330.17319 121.457183 
L 330.8238 151.318339 
L 331.474411 135.790538 
L 332.125021 133.401645 
L 332.775631 140.568323 
L 333.426242 121.457183 
L 334.076852 144.151662 
L 334.727462 125.040522 
L 335.378073 116.679398 
L 336.028683 159.679463 
L 336.679293 123.846076 
L 337.329903 153.707232 
L 337.980514 150.123893 
L 338.631124 157.29057 
L 339.281734 168.040586 
L 339.932345 153.707232 
L 340.582955 135.790538 
L 341.233565 141.762769 
L 341.884176 117.873844 
L 342.534786 114.290506 
L 343.185396 119.068291 
L 343.836007 121.457183 
L 344.486617 136.984984 
L 345.137227 131.012753 
L 345.787837 147.735 
L 346.438448 120.262737 
L 347.089058 122.651629 
L 347.739668 121.457183 
L 348.390279 114.290506 
L 349.040889 120.262737 
L 349.691499 134.596092 
L 350.34211 157.29057 
L 350.99272 157.29057 
L 351.64333 131.012753 
L 352.944551 123.846076 
L 353.595161 140.568323 
L 354.245772 121.457183 
L 354.896382 119.068291 
L 355.546992 120.262737 
L 356.197602 148.929447 
L 357.498823 126.234968 
L 358.149433 147.735 
L 358.800044 127.429414 
L 359.450654 132.207199 
L 360.101264 138.17943 
L 360.751875 121.457183 
L 361.402485 116.679398 
L 362.053095 129.818307 
L 362.703706 121.457183 
L 363.354316 122.651629 
L 364.004926 119.068291 
L 364.655537 152.512785 
L 365.306147 159.679463 
L 365.956757 122.651629 
L 366.607367 134.596092 
L 367.257978 122.651629 
L 368.559198 107.123828 
L 369.209809 129.818307 
L 369.860419 113.096059 
L 370.511029 126.234968 
L 371.16164 156.096124 
L 371.81225 125.040522 
L 372.46286 117.873844 
L 373.113471 139.373877 
L 373.764081 113.096059 
L 374.414691 122.651629 
L 375.065302 126.234968 
L 375.715912 150.123893 
L 376.366522 133.401645 
L 377.017132 153.707232 
L 377.667743 127.429414 
L 378.318353 135.790538 
L 378.968963 111.901613 
L 379.619574 135.790538 
L 380.270184 117.873844 
L 380.920794 125.040522 
L 381.571405 125.040522 
L 382.872625 115.484952 
L 383.523236 131.012753 
L 384.173846 128.623861 
L 384.824456 145.346108 
L 385.475066 142.957215 
L 386.125677 127.429414 
L 386.776287 126.234968 
L 387.426897 144.151662 
L 388.077508 119.068291 
L 388.728118 135.790538 
L 389.378728 131.012753 
L 390.029339 116.679398 
L 390.679949 116.679398 
L 391.330559 115.484952 
L 391.98117 127.429414 
L 392.63178 131.012753 
L 393.28239 120.262737 
L 393.933001 123.846076 
L 394.583611 135.790538 
L 395.234221 134.596092 
L 395.884831 123.846076 
L 396.535442 121.457183 
L 397.186052 144.151662 
L 398.487273 117.873844 
L 398.487273 117.873844 
" clip-path="url(#p8c82c22f50)" style="fill: none; stroke: #2ca02c; stroke-width: 1.5; stroke-linecap: square"/>
   </g>
   <g id="line2d_22">
    <path d="M 332.125021 116.20162 
L 332.775631 127.548859 
L 333.426242 125.279411 
L 334.076852 129.818307 
L 334.727462 152.512785 
L 335.378073 141.165546 
L 336.028683 152.512785 
L 336.679293 138.896098 
L 337.329903 118.471067 
L 337.980514 143.434994 
L 338.631124 127.548859 
L 339.281734 145.704442 
L 339.932345 100.315485 
L 340.582955 120.740515 
L 341.233565 157.051681 
L 341.884176 154.782233 
L 342.534786 147.97389 
L 343.185396 163.860025 
L 343.836007 172.937816 
L 344.486617 157.051681 
L 345.137227 170.668368 
M 346.438448 161.590577 
L 347.089058 175.207264 
L 347.739668 177.476712 
L 348.390279 157.051681 
L 349.040889 166.129472 
L 349.691499 163.860025 
L 350.34211 154.782233 
L 350.99272 161.590577 
L 352.944551 109.393276 
L 353.595161 134.357202 
L 354.245772 132.087755 
L 354.896382 127.548859 
L 355.546992 118.471067 
L 356.197602 118.471067 
L 356.848213 116.20162 
L 357.498823 118.471067 
L 358.800044 109.393276 
L 359.450654 109.393276 
L 360.101264 116.20162 
L 360.751875 109.393276 
L 361.402485 113.932172 
L 362.703706 113.932172 
L 363.354316 109.393276 
L 364.655537 118.471067 
L 365.306147 134.357202 
L 365.956757 179.74616 
M 367.257978 175.207264 
L 367.908588 152.512785 
L 368.559198 172.937816 
L 369.209809 209.248982 
L 369.860419 218.326773 
L 370.511029 218.326773 
L 371.16164 209.248982 
L 371.81225 216.057325 
L 372.46286 209.248982 
L 373.113471 213.787877 
L 373.764081 209.248982 
L 374.414691 211.518429 
L 375.065302 132.087755 
L 375.715912 111.662724 
L 376.366522 113.932172 
L 377.017132 111.662724 
L 377.667743 113.932172 
L 378.318353 118.471067 
L 378.968963 116.20162 
L 379.619574 109.393276 
L 380.270184 118.471067 
L 380.920794 104.85438 
L 381.571405 120.740515 
L 382.222015 109.393276 
L 382.872625 129.818307 
L 383.523236 129.818307 
L 384.173846 88.968245 
L 384.824456 123.009963 
L 385.475066 118.471067 
L 386.125677 109.393276 
L 386.776287 104.85438 
L 387.426897 116.20162 
L 388.077508 118.471067 
L 388.728118 111.662724 
L 389.378728 113.932172 
L 390.029339 109.393276 
L 390.679949 82.159902 
M 393.28239 100.315485 
L 393.933001 102.584933 
L 394.583611 109.393276 
L 395.234221 91.237693 
L 395.884831 100.315485 
L 396.535442 125.279411 
L 397.186052 111.662724 
L 397.836662 125.279411 
L 397.836662 125.279411 
" clip-path="url(#p8c82c22f50)" style="fill: none; stroke: #d62728; stroke-width: 1.5; stroke-linecap: square"/>
   </g>
   <g id="line2d_23">
    <path d="M 332.775631 138.17943 
L 333.426242 133.401645 
L 334.727462 140.568323 
L 335.378073 141.762769 
L 336.028683 148.929447 
L 336.679293 135.790538 
L 337.329903 127.429414 
L 337.980514 144.151662 
L 338.631124 125.040522 
L 339.281734 152.512785 
L 339.932345 122.651629 
L 340.582955 129.818307 
L 341.233565 147.735 
L 341.884176 151.318339 
L 342.534786 140.568323 
L 343.185396 163.262801 
L 343.836007 148.929447 
L 344.486617 153.707232 
L 345.137227 151.318339 
L 345.787837 153.707232 
L 346.438448 158.485016 
L 347.089058 146.540554 
L 347.739668 159.679463 
L 348.390279 148.929447 
L 349.040889 160.873909 
L 349.691499 150.123893 
L 350.99272 142.957215 
L 351.64333 129.818307 
L 352.293941 121.457183 
L 352.944551 115.484952 
L 353.595161 122.651629 
L 354.245772 135.790538 
L 354.896382 140.568323 
L 355.546992 132.207199 
L 356.197602 134.596092 
L 356.848213 123.846076 
L 357.498823 127.429414 
L 358.149433 113.096059 
L 358.800044 113.096059 
L 359.450654 111.901613 
L 360.101264 113.096059 
L 361.402485 127.429414 
L 362.053095 125.040522 
L 362.703706 127.429414 
L 363.354316 120.262737 
L 364.004926 127.429414 
L 364.655537 129.818307 
L 365.306147 139.373877 
L 365.956757 179.985049 
L 366.607367 162.068355 
L 367.257978 183.568387 
L 367.908588 160.873909 
L 369.209809 194.318404 
L 369.860419 206.262866 
L 370.511029 197.901742 
L 371.16164 201.485081 
L 371.81225 207.457312 
L 372.46286 194.318404 
L 373.113471 202.679527 
L 373.764081 197.901742 
L 374.414691 197.901742 
L 375.065302 140.568323 
L 375.715912 131.012753 
L 376.366522 125.040522 
L 377.017132 111.901613 
L 377.667743 132.207199 
L 378.318353 120.262737 
L 378.968963 128.623861 
L 379.619574 116.679398 
L 380.270184 128.623861 
L 380.920794 121.457183 
L 381.571405 128.623861 
L 382.222015 121.457183 
L 382.872625 119.068291 
L 383.523236 134.596092 
L 384.173846 121.457183 
L 384.824456 134.596092 
L 385.475066 119.068291 
L 386.125677 133.401645 
L 386.776287 119.068291 
L 387.426897 123.846076 
L 388.077508 113.096059 
L 388.728118 115.484952 
L 389.378728 127.429414 
L 390.029339 120.262737 
L 390.679949 115.484952 
L 391.330559 120.262737 
L 391.98117 110.707167 
L 392.63178 139.373877 
L 393.28239 119.068291 
M 394.583611 125.040522 
L 395.234221 117.873844 
L 395.884831 138.17943 
L 396.535442 122.651629 
L 397.186052 131.012753 
L 397.836662 132.207199 
L 398.487273 125.040522 
L 398.487273 125.040522 
" clip-path="url(#p8c82c22f50)" style="fill: none; stroke: #9467bd; stroke-width: 1.5; stroke-linecap: square"/>
   </g>
   <g id="patch_3">
    <path d="M 57.6 307.584 
L 57.6 41.472 
" style="fill: none; stroke: #000000; stroke-width: 0.8; stroke-linejoin: miter; stroke-linecap: square"/>
   </g>
   <g id="patch_4">
    <path d="M 414.72 307.584 
L 414.72 41.472 
" style="fill: none; stroke: #000000; stroke-width: 0.8; stroke-linejoin: miter; stroke-linecap: square"/>
   </g>
   <g id="patch_5">
    <path d="M 57.6 307.584 
L 414.72 307.584 
" style="fill: none; stroke: #000000; stroke-width: 0.8; stroke-linejoin: miter; stroke-linecap: square"/>
   </g>
   <g id="patch_6">
    <path d="M 57.6 41.472 
L 414.72 41.472 
" style="fill: none; stroke: #000000; stroke-width: 0.8; stroke-linejoin: miter; stroke-linecap: square"/>
   </g>
   <g id="text_21">
    <!-- Learning Curves -->
    <g transform="translate(187.37625 35.472) scale(0.12 -0.12)">
     <defs>
      <path id="DejaVuSans-4c" d="M 628 4666 
L 1259 4666 
L 1259 531 
L 3531 531 
L 3531 0 
L 628 0 
L 628 4666 
z
" transform="scale(0.015625)"/>
      <path id="DejaVuSans-65" d="M 3597 1894 
L 3597 1613 
L 953 1613 
Q 991 1019 1311 708 
Q 1631 397 2203 397 
Q 2534 397 2845 478 
Q 3156 559 3463 722 
L 3463 178 
Q 3153 47 2828 -22 
Q 2503 -91 2169 -91 
Q 1331 -91 842 396 
Q 353 884 353 1716 
Q 353 2575 817 3079 
Q 1281 3584 2069 3584 
Q 2775 3584 3186 3129 
Q 3597 2675 3597 1894 
z
M 3022 2063 
Q 3016 2534 2758 2815 
Q 2500 3097 2075 3097 
Q 1594 3097 1305 2825 
Q 1016 2553 972 2059 
L 3022 2063 
z
" transform="scale(0.015625)"/>
      <path id="DejaVuSans-6e" d="M 3513 2113 
L 3513 0 
L 2938 0 
L 2938 2094 
Q 2938 2591 2744 2837 
Q 2550 3084 2163 3084 
Q 1697 3084 1428 2787 
Q 1159 2491 1159 1978 
L 1159 0 
L 581 0 
L 581 3500 
L 1159 3500 
L 1159 2956 
Q 1366 3272 1645 3428 
Q 1925 3584 2291 3584 
Q 2894 3584 3203 3211 
Q 3513 2838 3513 2113 
z
" transform="scale(0.015625)"/>
      <path id="DejaVuSans-69" d="M 603 3500 
L 1178 3500 
L 1178 0 
L 603 0 
L 603 3500 
z
M 603 4863 
L 1178 4863 
L 1178 4134 
L 603 4134 
L 603 4863 
z
" transform="scale(0.015625)"/>
      <path id="DejaVuSans-67" d="M 2906 1791 
Q 2906 2416 2648 2759 
Q 2391 3103 1925 3103 
Q 1463 3103 1205 2759 
Q 947 2416 947 1791 
Q 947 1169 1205 825 
Q 1463 481 1925 481 
Q 2391 481 2648 825 
Q 2906 1169 2906 1791 
z
M 3481 434 
Q 3481 -459 3084 -895 
Q 2688 -1331 1869 -1331 
Q 1566 -1331 1297 -1286 
Q 1028 -1241 775 -1147 
L 775 -588 
Q 1028 -725 1275 -790 
Q 1522 -856 1778 -856 
Q 2344 -856 2625 -561 
Q 2906 -266 2906 331 
L 2906 616 
Q 2728 306 2450 153 
Q 2172 0 1784 0 
Q 1141 0 747 490 
Q 353 981 353 1791 
Q 353 2603 747 3093 
Q 1141 3584 1784 3584 
Q 2172 3584 2450 3431 
Q 2728 3278 2906 2969 
L 2906 3500 
L 3481 3500 
L 3481 434 
z
" transform="scale(0.015625)"/>
      <path id="DejaVuSans-20" transform="scale(0.015625)"/>
      <path id="DejaVuSans-43" d="M 4122 4306 
L 4122 3641 
Q 3803 3938 3442 4084 
Q 3081 4231 2675 4231 
Q 1875 4231 1450 3742 
Q 1025 3253 1025 2328 
Q 1025 1406 1450 917 
Q 1875 428 2675 428 
Q 3081 428 3442 575 
Q 3803 722 4122 1019 
L 4122 359 
Q 3791 134 3420 21 
Q 3050 -91 2638 -91 
Q 1578 -91 968 557 
Q 359 1206 359 2328 
Q 359 3453 968 4101 
Q 1578 4750 2638 4750 
Q 3056 4750 3426 4639 
Q 3797 4528 4122 4306 
z
" transform="scale(0.015625)"/>
      <path id="DejaVuSans-76" d="M 191 3500 
L 800 3500 
L 1894 563 
L 2988 3500 
L 3597 3500 
L 2284 0 
L 1503 0 
L 191 3500 
z
" transform="scale(0.015625)"/>
     </defs>
     <use xlink:href="#DejaVuSans-4c"/>
     <use xlink:href="#DejaVuSans-65" x="53.962891"/>
     <use xlink:href="#DejaVuSans-61" x="115.486328"/>
     <use xlink:href="#DejaVuSans-72" x="176.765625"/>
     <use xlink:href="#DejaVuSans-6e" x="216.128906"/>
     <use xlink:href="#DejaVuSans-69" x="279.507812"/>
     <use xlink:href="#DejaVuSans-6e" x="307.291016"/>
     <use xlink:href="#DejaVuSans-67" x="370.669922"/>
     <use xlink:href="#DejaVuSans-20" x="434.146484"/>
     <use xlink:href="#DejaVuSans-43" x="465.933594"/>
     <use xlink:href="#DejaVuSans-75" x="535.757812"/>
     <use xlink:href="#DejaVuSans-72" x="599.136719"/>
     <use xlink:href="#DejaVuSans-76" x="640.25"/>
     <use xlink:href="#DejaVuSans-65" x="699.429688"/>
     <use xlink:href="#DejaVuSans-73" x="760.953125"/>
    </g>
   </g>
   <g id="legend_1">
    <g id="patch_7">
     <path d="M 64.6 122.862625 
L 258.13125 122.862625 
Q 260.13125 122.862625 260.13125 120.862625 
L 260.13125 48.472 
Q 260.13125 46.472 258.13125 46.472 
L 64.6 46.472 
Q 62.6 46.472 62.6 48.472 
L 62.6 120.862625 
Q 62.6 122.862625 64.6 122.862625 
z
" style="fill: #ffffff; opacity: 0.8; stroke: #cccccc; stroke-linejoin: miter"/>
    </g>
    <g id="line2d_24">
     <path d="M 66.6 54.570438 
L 76.6 54.570438 
L 86.6 54.570438 
" style="fill: none; stroke: #1f77b4; stroke-width: 1.5; stroke-linecap: square"/>
    </g>
    <g id="text_22">
     <!-- Train Accuracy -->
     <g transform="translate(94.6 58.070438) scale(0.1 -0.1)">
      <defs>
       <path id="DejaVuSans-54" d="M -19 4666 
L 3928 4666 
L 3928 4134 
L 2272 4134 
L 2272 0 
L 1638 0 
L 1638 4134 
L -19 4134 
L -19 4666 
z
" transform="scale(0.015625)"/>
      </defs>
      <use xlink:href="#DejaVuSans-54"/>
      <use xlink:href="#DejaVuSans-72" x="46.333984"/>
      <use xlink:href="#DejaVuSans-61" x="87.447266"/>
      <use xlink:href="#DejaVuSans-69" x="148.726562"/>
      <use xlink:href="#DejaVuSans-6e" x="176.509766"/>
      <use xlink:href="#DejaVuSans-20" x="239.888672"/>
      <use xlink:href="#DejaVuSans-41" x="271.675781"/>
      <use xlink:href="#DejaVuSans-63" x="338.333984"/>
      <use xlink:href="#DejaVuSans-63" x="393.314453"/>
      <use xlink:href="#DejaVuSans-75" x="448.294922"/>
      <use xlink:href="#DejaVuSans-72" x="511.673828"/>
      <use xlink:href="#DejaVuSans-61" x="552.787109"/>
      <use xlink:href="#DejaVuSans-63" x="614.066406"/>
      <use xlink:href="#DejaVuSans-79" x="669.046875"/>
     </g>
    </g>
    <g id="line2d_25">
     <path d="M 66.6 69.248563 
L 76.6 69.248563 
L 86.6 69.248563 
" style="fill: none; stroke: #ff7f0e; stroke-width: 1.5; stroke-linecap: square"/>
    </g>
    <g id="text_23">
     <!-- Validation Accuracy -->
     <g transform="translate(94.6 72.748563) scale(0.1 -0.1)">
      <defs>
       <path id="DejaVuSans-56" d="M 1831 0 
L 50 4666 
L 709 4666 
L 2188 738 
L 3669 4666 
L 4325 4666 
L 2547 0 
L 1831 0 
z
" transform="scale(0.015625)"/>
       <path id="DejaVuSans-6c" d="M 603 4863 
L 1178 4863 
L 1178 0 
L 603 0 
L 603 4863 
z
" transform="scale(0.015625)"/>
       <path id="DejaVuSans-64" d="M 2906 2969 
L 2906 4863 
L 3481 4863 
L 3481 0 
L 2906 0 
L 2906 525 
Q 2725 213 2448 61 
Q 2172 -91 1784 -91 
Q 1150 -91 751 415 
Q 353 922 353 1747 
Q 353 2572 751 3078 
Q 1150 3584 1784 3584 
Q 2172 3584 2448 3432 
Q 2725 3281 2906 2969 
z
M 947 1747 
Q 947 1113 1208 752 
Q 1469 391 1925 391 
Q 2381 391 2643 752 
Q 2906 1113 2906 1747 
Q 2906 2381 2643 2742 
Q 2381 3103 1925 3103 
Q 1469 3103 1208 2742 
Q 947 2381 947 1747 
z
" transform="scale(0.015625)"/>
       <path id="DejaVuSans-74" d="M 1172 4494 
L 1172 3500 
L 2356 3500 
L 2356 3053 
L 1172 3053 
L 1172 1153 
Q 1172 725 1289 603 
Q 1406 481 1766 481 
L 2356 481 
L 2356 0 
L 1766 0 
Q 1100 0 847 248 
Q 594 497 594 1153 
L 594 3053 
L 172 3053 
L 172 3500 
L 594 3500 
L 594 4494 
L 1172 4494 
z
" transform="scale(0.015625)"/>
      </defs>
      <use xlink:href="#DejaVuSans-56"/>
      <use xlink:href="#DejaVuSans-61" x="60.658203"/>
      <use xlink:href="#DejaVuSans-6c" x="121.9375"/>
      <use xlink:href="#DejaVuSans-69" x="149.720703"/>
      <use xlink:href="#DejaVuSans-64" x="177.503906"/>
      <use xlink:href="#DejaVuSans-61" x="240.980469"/>
      <use xlink:href="#DejaVuSans-74" x="302.259766"/>
      <use xlink:href="#DejaVuSans-69" x="341.46875"/>
      <use xlink:href="#DejaVuSans-6f" x="369.251953"/>
      <use xlink:href="#DejaVuSans-6e" x="430.433594"/>
      <use xlink:href="#DejaVuSans-20" x="493.8125"/>
      <use xlink:href="#DejaVuSans-41" x="525.599609"/>
      <use xlink:href="#DejaVuSans-63" x="592.257812"/>
      <use xlink:href="#DejaVuSans-63" x="647.238281"/>
      <use xlink:href="#DejaVuSans-75" x="702.21875"/>
      <use xlink:href="#DejaVuSans-72" x="765.597656"/>
      <use xlink:href="#DejaVuSans-61" x="806.710938"/>
      <use xlink:href="#DejaVuSans-63" x="867.990234"/>
      <use xlink:href="#DejaVuSans-79" x="922.970703"/>
     </g>
    </g>
    <g id="line2d_26">
     <path d="M 66.6 83.926688 
L 76.6 83.926688 
L 86.6 83.926688 
" style="fill: none; stroke: #2ca02c; stroke-width: 1.5; stroke-linecap: square"/>
    </g>
    <g id="text_24">
     <!-- Robust Validation Accuracy -->
     <g transform="translate(94.6 87.426688) scale(0.1 -0.1)">
      <defs>
       <path id="DejaVuSans-52" d="M 2841 2188 
Q 3044 2119 3236 1894 
Q 3428 1669 3622 1275 
L 4263 0 
L 3584 0 
L 2988 1197 
Q 2756 1666 2539 1819 
Q 2322 1972 1947 1972 
L 1259 1972 
L 1259 0 
L 628 0 
L 628 4666 
L 2053 4666 
Q 2853 4666 3247 4331 
Q 3641 3997 3641 3322 
Q 3641 2881 3436 2590 
Q 3231 2300 2841 2188 
z
M 1259 4147 
L 1259 2491 
L 2053 2491 
Q 2509 2491 2742 2702 
Q 2975 2913 2975 3322 
Q 2975 3731 2742 3939 
Q 2509 4147 2053 4147 
L 1259 4147 
z
" transform="scale(0.015625)"/>
       <path id="DejaVuSans-62" d="M 3116 1747 
Q 3116 2381 2855 2742 
Q 2594 3103 2138 3103 
Q 1681 3103 1420 2742 
Q 1159 2381 1159 1747 
Q 1159 1113 1420 752 
Q 1681 391 2138 391 
Q 2594 391 2855 752 
Q 3116 1113 3116 1747 
z
M 1159 2969 
Q 1341 3281 1617 3432 
Q 1894 3584 2278 3584 
Q 2916 3584 3314 3078 
Q 3713 2572 3713 1747 
Q 3713 922 3314 415 
Q 2916 -91 2278 -91 
Q 1894 -91 1617 61 
Q 1341 213 1159 525 
L 1159 0 
L 581 0 
L 581 4863 
L 1159 4863 
L 1159 2969 
z
" transform="scale(0.015625)"/>
      </defs>
      <use xlink:href="#DejaVuSans-52"/>
      <use xlink:href="#DejaVuSans-6f" x="64.982422"/>
      <use xlink:href="#DejaVuSans-62" x="126.164062"/>
      <use xlink:href="#DejaVuSans-75" x="189.640625"/>
      <use xlink:href="#DejaVuSans-73" x="253.019531"/>
      <use xlink:href="#DejaVuSans-74" x="305.119141"/>
      <use xlink:href="#DejaVuSans-20" x="344.328125"/>
      <use xlink:href="#DejaVuSans-56" x="376.115234"/>
      <use xlink:href="#DejaVuSans-61" x="436.773438"/>
      <use xlink:href="#DejaVuSans-6c" x="498.052734"/>
      <use xlink:href="#DejaVuSans-69" x="525.835938"/>
      <use xlink:href="#DejaVuSans-64" x="553.619141"/>
      <use xlink:href="#DejaVuSans-61" x="617.095703"/>
      <use xlink:href="#DejaVuSans-74" x="678.375"/>
      <use xlink:href="#DejaVuSans-69" x="717.583984"/>
      <use xlink:href="#DejaVuSans-6f" x="745.367188"/>
      <use xlink:href="#DejaVuSans-6e" x="806.548828"/>
      <use xlink:href="#DejaVuSans-20" x="869.927734"/>
      <use xlink:href="#DejaVuSans-41" x="901.714844"/>
      <use xlink:href="#DejaVuSans-63" x="968.373047"/>
      <use xlink:href="#DejaVuSans-63" x="1023.353516"/>
      <use xlink:href="#DejaVuSans-75" x="1078.333984"/>
      <use xlink:href="#DejaVuSans-72" x="1141.712891"/>
      <use xlink:href="#DejaVuSans-61" x="1182.826172"/>
      <use xlink:href="#DejaVuSans-63" x="1244.105469"/>
      <use xlink:href="#DejaVuSans-79" x="1299.085938"/>
     </g>
    </g>
    <g id="line2d_27">
     <path d="M 66.6 98.604813 
L 76.6 98.604813 
L 86.6 98.604813 
" style="fill: none; stroke: #d62728; stroke-width: 1.5; stroke-linecap: square"/>
    </g>
    <g id="text_25">
     <!-- SWA Validation Accuracy -->
     <g transform="translate(94.6 102.104813) scale(0.1 -0.1)">
      <defs>
       <path id="DejaVuSans-53" d="M 3425 4513 
L 3425 3897 
Q 3066 4069 2747 4153 
Q 2428 4238 2131 4238 
Q 1616 4238 1336 4038 
Q 1056 3838 1056 3469 
Q 1056 3159 1242 3001 
Q 1428 2844 1947 2747 
L 2328 2669 
Q 3034 2534 3370 2195 
Q 3706 1856 3706 1288 
Q 3706 609 3251 259 
Q 2797 -91 1919 -91 
Q 1588 -91 1214 -16 
Q 841 59 441 206 
L 441 856 
Q 825 641 1194 531 
Q 1563 422 1919 422 
Q 2459 422 2753 634 
Q 3047 847 3047 1241 
Q 3047 1584 2836 1778 
Q 2625 1972 2144 2069 
L 1759 2144 
Q 1053 2284 737 2584 
Q 422 2884 422 3419 
Q 422 4038 858 4394 
Q 1294 4750 2059 4750 
Q 2388 4750 2728 4690 
Q 3069 4631 3425 4513 
z
" transform="scale(0.015625)"/>
       <path id="DejaVuSans-57" d="M 213 4666 
L 850 4666 
L 1831 722 
L 2809 4666 
L 3519 4666 
L 4500 722 
L 5478 4666 
L 6119 4666 
L 4947 0 
L 4153 0 
L 3169 4050 
L 2175 0 
L 1381 0 
L 213 4666 
z
" transform="scale(0.015625)"/>
      </defs>
      <use xlink:href="#DejaVuSans-53"/>
      <use xlink:href="#DejaVuSans-57" x="63.476562"/>
      <use xlink:href="#DejaVuSans-41" x="156.853516"/>
      <use xlink:href="#DejaVuSans-20" x="225.261719"/>
      <use xlink:href="#DejaVuSans-56" x="257.048828"/>
      <use xlink:href="#DejaVuSans-61" x="317.707031"/>
      <use xlink:href="#DejaVuSans-6c" x="378.986328"/>
      <use xlink:href="#DejaVuSans-69" x="406.769531"/>
      <use xlink:href="#DejaVuSans-64" x="434.552734"/>
      <use xlink:href="#DejaVuSans-61" x="498.029297"/>
      <use xlink:href="#DejaVuSans-74" x="559.308594"/>
      <use xlink:href="#DejaVuSans-69" x="598.517578"/>
      <use xlink:href="#DejaVuSans-6f" x="626.300781"/>
      <use xlink:href="#DejaVuSans-6e" x="687.482422"/>
      <use xlink:href="#DejaVuSans-20" x="750.861328"/>
      <use xlink:href="#DejaVuSans-41" x="782.648438"/>
      <use xlink:href="#DejaVuSans-63" x="849.306641"/>
      <use xlink:href="#DejaVuSans-63" x="904.287109"/>
      <use xlink:href="#DejaVuSans-75" x="959.267578"/>
      <use xlink:href="#DejaVuSans-72" x="1022.646484"/>
      <use xlink:href="#DejaVuSans-61" x="1063.759766"/>
      <use xlink:href="#DejaVuSans-63" x="1125.039062"/>
      <use xlink:href="#DejaVuSans-79" x="1180.019531"/>
     </g>
    </g>
    <g id="line2d_28">
     <path d="M 66.6 113.282938 
L 76.6 113.282938 
L 86.6 113.282938 
" style="fill: none; stroke: #9467bd; stroke-width: 1.5; stroke-linecap: square"/>
    </g>
    <g id="text_26">
     <!-- SWA Robust Validation Accuracy -->
     <g transform="translate(94.6 116.782938) scale(0.1 -0.1)">
      <use xlink:href="#DejaVuSans-53"/>
      <use xlink:href="#DejaVuSans-57" x="63.476562"/>
      <use xlink:href="#DejaVuSans-41" x="156.853516"/>
      <use xlink:href="#DejaVuSans-20" x="225.261719"/>
      <use xlink:href="#DejaVuSans-52" x="257.048828"/>
      <use xlink:href="#DejaVuSans-6f" x="322.03125"/>
      <use xlink:href="#DejaVuSans-62" x="383.212891"/>
      <use xlink:href="#DejaVuSans-75" x="446.689453"/>
      <use xlink:href="#DejaVuSans-73" x="510.068359"/>
      <use xlink:href="#DejaVuSans-74" x="562.167969"/>
      <use xlink:href="#DejaVuSans-20" x="601.376953"/>
      <use xlink:href="#DejaVuSans-56" x="633.164062"/>
      <use xlink:href="#DejaVuSans-61" x="693.822266"/>
      <use xlink:href="#DejaVuSans-6c" x="755.101562"/>
      <use xlink:href="#DejaVuSans-69" x="782.884766"/>
      <use xlink:href="#DejaVuSans-64" x="810.667969"/>
      <use xlink:href="#DejaVuSans-61" x="874.144531"/>
      <use xlink:href="#DejaVuSans-74" x="935.423828"/>
      <use xlink:href="#DejaVuSans-69" x="974.632812"/>
      <use xlink:href="#DejaVuSans-6f" x="1002.416016"/>
      <use xlink:href="#DejaVuSans-6e" x="1063.597656"/>
      <use xlink:href="#DejaVuSans-20" x="1126.976562"/>
      <use xlink:href="#DejaVuSans-41" x="1158.763672"/>
      <use xlink:href="#DejaVuSans-63" x="1225.421875"/>
      <use xlink:href="#DejaVuSans-63" x="1280.402344"/>
      <use xlink:href="#DejaVuSans-75" x="1335.382812"/>
      <use xlink:href="#DejaVuSans-72" x="1398.761719"/>
      <use xlink:href="#DejaVuSans-61" x="1439.875"/>
      <use xlink:href="#DejaVuSans-63" x="1501.154297"/>
      <use xlink:href="#DejaVuSans-79" x="1556.134766"/>
     </g>
    </g>
   </g>
  </g>
 </g>
 <defs>
  <clipPath id="p8c82c22f50">
   <rect x="57.6" y="41.472" width="357.12" height="266.112"/>
  </clipPath>
 </defs>
</svg>
