<?xml version="1.0" encoding="utf-8" standalone="no"?>
<!DOCTYPE svg PUBLIC "-//W3C//DTD SVG 1.1//EN"
  "http://www.w3.org/Graphics/SVG/1.1/DTD/svg11.dtd">
<svg xmlns:xlink="http://www.w3.org/1999/xlink" width="460.8pt" height="345.6pt" viewBox="0 0 460.8 345.6" xmlns="http://www.w3.org/2000/svg" version="1.1">
 <metadata>
  <rdf:RDF xmlns:dc="http://purl.org/dc/elements/1.1/" xmlns:cc="http://creativecommons.org/ns#" xmlns:rdf="http://www.w3.org/1999/02/22-rdf-syntax-ns#">
   <cc:Work>
    <dc:type rdf:resource="http://purl.org/dc/dcmitype/StillImage"/>
    <dc:date>2025-11-26T16:43:56.740760</dc:date>
    <dc:format>image/svg+xml</dc:format>
    <dc:creator>
     <cc:Agent>
      <dc:title>Matplotlib v3.9.1, https://matplotlib.org/</dc:title>
     </cc:Agent>
    </dc:creator>
   </cc:Work>
  </rdf:RDF>
 </metadata>
 <defs>
  <style type="text/css">*{stroke-linejoin: round; stroke-linecap: butt}</style>
 </defs>
 <g id="figure_1">
  <g id="patch_1">
   <path d="M 0 345.6 
L 460.8 345.6 
L 460.8 0 
L 0 0 
z
" style="fill: #ffffff"/>
  </g>
  <g id="axes_1">
   <g id="patch_2">
    <path d="M 57.6 307.584 
L 414.72 307.584 
L 414.72 41.472 
L 57.6 41.472 
z
" style="fill: #ffffff"/>
   </g>
   <g id="matplotlib.axis_1">
    <g id="xtick_1">
     <g id="line2d_1">
      <defs>
       <path id="m9424122005" d="M 0 0 
L 0 3.5 
" style="stroke: #000000; stroke-width: 0.8"/>
      </defs>
      <g>
       <use xlink:href="#m9424122005" x="73.832727" y="307.584" style="stroke: #000000; stroke-width: 0.8"/>
      </g>
     </g>
     <g id="text_1">
      <!-- 1 -->
      <g transform="translate(70.651477 322.182437) scale(0.1 -0.1)">
       <defs>
        <path id="DejaVuSans-31" d="M 794 531 
L 1825 531 
L 1825 4091 
L 703 3866 
L 703 4441 
L 1819 4666 
L 2450 4666 
L 2450 531 
L 3481 531 
L 3481 0 
L 794 0 
L 794 531 
z
" transform="scale(0.015625)"/>
       </defs>
       <use xlink:href="#DejaVuSans-31"/>
      </g>
     </g>
    </g>
    <g id="xtick_2">
     <g id="line2d_2">
      <g>
       <use xlink:href="#m9424122005" x="109.664165" y="307.584" style="stroke: #000000; stroke-width: 0.8"/>
      </g>
     </g>
     <g id="text_2">
      <!-- 34 -->
      <g transform="translate(103.301665 322.182437) scale(0.1 -0.1)">
       <defs>
        <path id="DejaVuSans-33" d="M 2597 2516 
Q 3050 2419 3304 2112 
Q 3559 1806 3559 1356 
Q 3559 666 3084 287 
Q 2609 -91 1734 -91 
Q 1441 -91 1130 -33 
Q 819 25 488 141 
L 488 750 
Q 750 597 1062 519 
Q 1375 441 1716 441 
Q 2309 441 2620 675 
Q 2931 909 2931 1356 
Q 2931 1769 2642 2001 
Q 2353 2234 1838 2234 
L 1294 2234 
L 1294 2753 
L 1863 2753 
Q 2328 2753 2575 2939 
Q 2822 3125 2822 3475 
Q 2822 3834 2567 4026 
Q 2313 4219 1838 4219 
Q 1578 4219 1281 4162 
Q 984 4106 628 3988 
L 628 4550 
Q 988 4650 1302 4700 
Q 1616 4750 1894 4750 
Q 2613 4750 3031 4423 
Q 3450 4097 3450 3541 
Q 3450 3153 3228 2886 
Q 3006 2619 2597 2516 
z
" transform="scale(0.015625)"/>
        <path id="DejaVuSans-34" d="M 2419 4116 
L 825 1625 
L 2419 1625 
L 2419 4116 
z
M 2253 4666 
L 3047 4666 
L 3047 1625 
L 3713 1625 
L 3713 1100 
L 3047 1100 
L 3047 0 
L 2419 0 
L 2419 1100 
L 313 1100 
L 313 1709 
L 2253 4666 
z
" transform="scale(0.015625)"/>
       </defs>
       <use xlink:href="#DejaVuSans-33"/>
       <use xlink:href="#DejaVuSans-34" x="63.623047"/>
      </g>
     </g>
    </g>
    <g id="xtick_3">
     <g id="line2d_3">
      <g>
       <use xlink:href="#m9424122005" x="145.495604" y="307.584" style="stroke: #000000; stroke-width: 0.8"/>
      </g>
     </g>
     <g id="text_3">
      <!-- 67 -->
      <g transform="translate(139.133104 322.182437) scale(0.1 -0.1)">
       <defs>
        <path id="DejaVuSans-36" d="M 2113 2584 
Q 1688 2584 1439 2293 
Q 1191 2003 1191 1497 
Q 1191 994 1439 701 
Q 1688 409 2113 409 
Q 2538 409 2786 701 
Q 3034 994 3034 1497 
Q 3034 2003 2786 2293 
Q 2538 2584 2113 2584 
z
M 3366 4563 
L 3366 3988 
Q 3128 4100 2886 4159 
Q 2644 4219 2406 4219 
Q 1781 4219 1451 3797 
Q 1122 3375 1075 2522 
Q 1259 2794 1537 2939 
Q 1816 3084 2150 3084 
Q 2853 3084 3261 2657 
Q 3669 2231 3669 1497 
Q 3669 778 3244 343 
Q 2819 -91 2113 -91 
Q 1303 -91 875 529 
Q 447 1150 447 2328 
Q 447 3434 972 4092 
Q 1497 4750 2381 4750 
Q 2619 4750 2861 4703 
Q 3103 4656 3366 4563 
z
" transform="scale(0.015625)"/>
        <path id="DejaVuSans-37" d="M 525 4666 
L 3525 4666 
L 3525 4397 
L 1831 0 
L 1172 0 
L 2766 4134 
L 525 4134 
L 525 4666 
z
" transform="scale(0.015625)"/>
       </defs>
       <use xlink:href="#DejaVuSans-36"/>
       <use xlink:href="#DejaVuSans-37" x="63.623047"/>
      </g>
     </g>
    </g>
    <g id="xtick_4">
     <g id="line2d_4">
      <g>
       <use xlink:href="#m9424122005" x="181.327042" y="307.584" style="stroke: #000000; stroke-width: 0.8"/>
      </g>
     </g>
     <g id="text_4">
      <!-- 100 -->
      <g transform="translate(171.783292 322.182437) scale(0.1 -0.1)">
       <defs>
        <path id="DejaVuSans-30" d="M 2034 4250 
Q 1547 4250 1301 3770 
Q 1056 3291 1056 2328 
Q 1056 1369 1301 889 
Q 1547 409 2034 409 
Q 2525 409 2770 889 
Q 3016 1369 3016 2328 
Q 3016 3291 2770 3770 
Q 2525 4250 2034 4250 
z
M 2034 4750 
Q 2819 4750 3233 4129 
Q 3647 3509 3647 2328 
Q 3647 1150 3233 529 
Q 2819 -91 2034 -91 
Q 1250 -91 836 529 
Q 422 1150 422 2328 
Q 422 3509 836 4129 
Q 1250 4750 2034 4750 
z
" transform="scale(0.015625)"/>
       </defs>
       <use xlink:href="#DejaVuSans-31"/>
       <use xlink:href="#DejaVuSans-30" x="63.623047"/>
       <use xlink:href="#DejaVuSans-30" x="127.246094"/>
      </g>
     </g>
    </g>
    <g id="xtick_5">
     <g id="line2d_5">
      <g>
       <use xlink:href="#m9424122005" x="217.15848" y="307.584" style="stroke: #000000; stroke-width: 0.8"/>
      </g>
     </g>
     <g id="text_5">
      <!-- 133 -->
      <g transform="translate(207.61473 322.182437) scale(0.1 -0.1)">
       <use xlink:href="#DejaVuSans-31"/>
       <use xlink:href="#DejaVuSans-33" x="63.623047"/>
       <use xlink:href="#DejaVuSans-33" x="127.246094"/>
      </g>
     </g>
    </g>
    <g id="xtick_6">
     <g id="line2d_6">
      <g>
       <use xlink:href="#m9424122005" x="254.075719" y="307.584" style="stroke: #000000; stroke-width: 0.8"/>
      </g>
     </g>
     <g id="text_6">
      <!-- 167 -->
      <g transform="translate(244.531969 322.182437) scale(0.1 -0.1)">
       <use xlink:href="#DejaVuSans-31"/>
       <use xlink:href="#DejaVuSans-36" x="63.623047"/>
       <use xlink:href="#DejaVuSans-37" x="127.246094"/>
      </g>
     </g>
    </g>
    <g id="xtick_7">
     <g id="line2d_7">
      <g>
       <use xlink:href="#m9424122005" x="289.907157" y="307.584" style="stroke: #000000; stroke-width: 0.8"/>
      </g>
     </g>
     <g id="text_7">
      <!-- 200 -->
      <g transform="translate(280.363407 322.182437) scale(0.1 -0.1)">
       <defs>
        <path id="DejaVuSans-32" d="M 1228 531 
L 3431 531 
L 3431 0 
L 469 0 
L 469 531 
Q 828 903 1448 1529 
Q 2069 2156 2228 2338 
Q 2531 2678 2651 2914 
Q 2772 3150 2772 3378 
Q 2772 3750 2511 3984 
Q 2250 4219 1831 4219 
Q 1534 4219 1204 4116 
Q 875 4013 500 3803 
L 500 4441 
Q 881 4594 1212 4672 
Q 1544 4750 1819 4750 
Q 2544 4750 2975 4387 
Q 3406 4025 3406 3419 
Q 3406 3131 3298 2873 
Q 3191 2616 2906 2266 
Q 2828 2175 2409 1742 
Q 1991 1309 1228 531 
z
" transform="scale(0.015625)"/>
       </defs>
       <use xlink:href="#DejaVuSans-32"/>
       <use xlink:href="#DejaVuSans-30" x="63.623047"/>
       <use xlink:href="#DejaVuSans-30" x="127.246094"/>
      </g>
     </g>
    </g>
    <g id="xtick_8">
     <g id="line2d_8">
      <g>
       <use xlink:href="#m9424122005" x="325.738595" y="307.584" style="stroke: #000000; stroke-width: 0.8"/>
      </g>
     </g>
     <g id="text_8">
      <!-- 233 -->
      <g transform="translate(316.194845 322.182437) scale(0.1 -0.1)">
       <use xlink:href="#DejaVuSans-32"/>
       <use xlink:href="#DejaVuSans-33" x="63.623047"/>
       <use xlink:href="#DejaVuSans-33" x="127.246094"/>
      </g>
     </g>
    </g>
    <g id="xtick_9">
     <g id="line2d_9">
      <g>
       <use xlink:href="#m9424122005" x="361.570033" y="307.584" style="stroke: #000000; stroke-width: 0.8"/>
      </g>
     </g>
     <g id="text_9">
      <!-- 266 -->
      <g transform="translate(352.026283 322.182437) scale(0.1 -0.1)">
       <use xlink:href="#DejaVuSans-32"/>
       <use xlink:href="#DejaVuSans-36" x="63.623047"/>
       <use xlink:href="#DejaVuSans-36" x="127.246094"/>
      </g>
     </g>
    </g>
    <g id="xtick_10">
     <g id="line2d_10">
      <g>
       <use xlink:href="#m9424122005" x="398.487273" y="307.584" style="stroke: #000000; stroke-width: 0.8"/>
      </g>
     </g>
     <g id="text_10">
      <!-- 300 -->
      <g transform="translate(388.943523 322.182437) scale(0.1 -0.1)">
       <use xlink:href="#DejaVuSans-33"/>
       <use xlink:href="#DejaVuSans-30" x="63.623047"/>
       <use xlink:href="#DejaVuSans-30" x="127.246094"/>
      </g>
     </g>
    </g>
    <g id="text_11">
     <!-- Epochs -->
     <g transform="translate(218.244375 335.860562) scale(0.1 -0.1)">
      <defs>
       <path id="DejaVuSans-45" d="M 628 4666 
L 3578 4666 
L 3578 4134 
L 1259 4134 
L 1259 2753 
L 3481 2753 
L 3481 2222 
L 1259 2222 
L 1259 531 
L 3634 531 
L 3634 0 
L 628 0 
L 628 4666 
z
" transform="scale(0.015625)"/>
       <path id="DejaVuSans-70" d="M 1159 525 
L 1159 -1331 
L 581 -1331 
L 581 3500 
L 1159 3500 
L 1159 2969 
Q 1341 3281 1617 3432 
Q 1894 3584 2278 3584 
Q 2916 3584 3314 3078 
Q 3713 2572 3713 1747 
Q 3713 922 3314 415 
Q 2916 -91 2278 -91 
Q 1894 -91 1617 61 
Q 1341 213 1159 525 
z
M 3116 1747 
Q 3116 2381 2855 2742 
Q 2594 3103 2138 3103 
Q 1681 3103 1420 2742 
Q 1159 2381 1159 1747 
Q 1159 1113 1420 752 
Q 1681 391 2138 391 
Q 2594 391 2855 752 
Q 3116 1113 3116 1747 
z
" transform="scale(0.015625)"/>
       <path id="DejaVuSans-6f" d="M 1959 3097 
Q 1497 3097 1228 2736 
Q 959 2375 959 1747 
Q 959 1119 1226 758 
Q 1494 397 1959 397 
Q 2419 397 2687 759 
Q 2956 1122 2956 1747 
Q 2956 2369 2687 2733 
Q 2419 3097 1959 3097 
z
M 1959 3584 
Q 2709 3584 3137 3096 
Q 3566 2609 3566 1747 
Q 3566 888 3137 398 
Q 2709 -91 1959 -91 
Q 1206 -91 779 398 
Q 353 888 353 1747 
Q 353 2609 779 3096 
Q 1206 3584 1959 3584 
z
" transform="scale(0.015625)"/>
       <path id="DejaVuSans-63" d="M 3122 3366 
L 3122 2828 
Q 2878 2963 2633 3030 
Q 2388 3097 2138 3097 
Q 1578 3097 1268 2742 
Q 959 2388 959 1747 
Q 959 1106 1268 751 
Q 1578 397 2138 397 
Q 2388 397 2633 464 
Q 2878 531 3122 666 
L 3122 134 
Q 2881 22 2623 -34 
Q 2366 -91 2075 -91 
Q 1284 -91 818 406 
Q 353 903 353 1747 
Q 353 2603 823 3093 
Q 1294 3584 2113 3584 
Q 2378 3584 2631 3529 
Q 2884 3475 3122 3366 
z
" transform="scale(0.015625)"/>
       <path id="DejaVuSans-68" d="M 3513 2113 
L 3513 0 
L 2938 0 
L 2938 2094 
Q 2938 2591 2744 2837 
Q 2550 3084 2163 3084 
Q 1697 3084 1428 2787 
Q 1159 2491 1159 1978 
L 1159 0 
L 581 0 
L 581 4863 
L 1159 4863 
L 1159 2956 
Q 1366 3272 1645 3428 
Q 1925 3584 2291 3584 
Q 2894 3584 3203 3211 
Q 3513 2838 3513 2113 
z
" transform="scale(0.015625)"/>
       <path id="DejaVuSans-73" d="M 2834 3397 
L 2834 2853 
Q 2591 2978 2328 3040 
Q 2066 3103 1784 3103 
Q 1356 3103 1142 2972 
Q 928 2841 928 2578 
Q 928 2378 1081 2264 
Q 1234 2150 1697 2047 
L 1894 2003 
Q 2506 1872 2764 1633 
Q 3022 1394 3022 966 
Q 3022 478 2636 193 
Q 2250 -91 1575 -91 
Q 1294 -91 989 -36 
Q 684 19 347 128 
L 347 722 
Q 666 556 975 473 
Q 1284 391 1588 391 
Q 1994 391 2212 530 
Q 2431 669 2431 922 
Q 2431 1156 2273 1281 
Q 2116 1406 1581 1522 
L 1381 1569 
Q 847 1681 609 1914 
Q 372 2147 372 2553 
Q 372 3047 722 3315 
Q 1072 3584 1716 3584 
Q 2034 3584 2315 3537 
Q 2597 3491 2834 3397 
z
" transform="scale(0.015625)"/>
      </defs>
      <use xlink:href="#DejaVuSans-45"/>
      <use xlink:href="#DejaVuSans-70" x="63.183594"/>
      <use xlink:href="#DejaVuSans-6f" x="126.660156"/>
      <use xlink:href="#DejaVuSans-63" x="187.841797"/>
      <use xlink:href="#DejaVuSans-68" x="242.822266"/>
      <use xlink:href="#DejaVuSans-73" x="306.201172"/>
     </g>
    </g>
   </g>
   <g id="matplotlib.axis_2">
    <g id="ytick_1">
     <g id="line2d_11">
      <defs>
       <path id="m620123ba51" d="M 0 0 
L -3.5 0 
" style="stroke: #000000; stroke-width: 0.8"/>
      </defs>
      <g>
       <use xlink:href="#m620123ba51" x="57.6" y="283.840528" style="stroke: #000000; stroke-width: 0.8"/>
      </g>
     </g>
     <g id="text_12">
      <!-- 20 -->
      <g transform="translate(37.875 287.639746) scale(0.1 -0.1)">
       <use xlink:href="#DejaVuSans-32"/>
       <use xlink:href="#DejaVuSans-30" x="63.623047"/>
      </g>
     </g>
    </g>
    <g id="ytick_2">
     <g id="line2d_12">
      <g>
       <use xlink:href="#m620123ba51" x="57.6" y="226.272396" style="stroke: #000000; stroke-width: 0.8"/>
      </g>
     </g>
     <g id="text_13">
      <!-- 40 -->
      <g transform="translate(37.875 230.071615) scale(0.1 -0.1)">
       <use xlink:href="#DejaVuSans-34"/>
       <use xlink:href="#DejaVuSans-30" x="63.623047"/>
      </g>
     </g>
    </g>
    <g id="ytick_3">
     <g id="line2d_13">
      <g>
       <use xlink:href="#m620123ba51" x="57.6" y="168.704264" style="stroke: #000000; stroke-width: 0.8"/>
      </g>
     </g>
     <g id="text_14">
      <!-- 60 -->
      <g transform="translate(37.875 172.503483) scale(0.1 -0.1)">
       <use xlink:href="#DejaVuSans-36"/>
       <use xlink:href="#DejaVuSans-30" x="63.623047"/>
      </g>
     </g>
    </g>
    <g id="ytick_4">
     <g id="line2d_14">
      <g>
       <use xlink:href="#m620123ba51" x="57.6" y="111.136132" style="stroke: #000000; stroke-width: 0.8"/>
      </g>
     </g>
     <g id="text_15">
      <!-- 80 -->
      <g transform="translate(37.875 114.935351) scale(0.1 -0.1)">
       <defs>
        <path id="DejaVuSans-38" d="M 2034 2216 
Q 1584 2216 1326 1975 
Q 1069 1734 1069 1313 
Q 1069 891 1326 650 
Q 1584 409 2034 409 
Q 2484 409 2743 651 
Q 3003 894 3003 1313 
Q 3003 1734 2745 1975 
Q 2488 2216 2034 2216 
z
M 1403 2484 
Q 997 2584 770 2862 
Q 544 3141 544 3541 
Q 544 4100 942 4425 
Q 1341 4750 2034 4750 
Q 2731 4750 3128 4425 
Q 3525 4100 3525 3541 
Q 3525 3141 3298 2862 
Q 3072 2584 2669 2484 
Q 3125 2378 3379 2068 
Q 3634 1759 3634 1313 
Q 3634 634 3220 271 
Q 2806 -91 2034 -91 
Q 1263 -91 848 271 
Q 434 634 434 1313 
Q 434 1759 690 2068 
Q 947 2378 1403 2484 
z
M 1172 3481 
Q 1172 3119 1398 2916 
Q 1625 2713 2034 2713 
Q 2441 2713 2670 2916 
Q 2900 3119 2900 3481 
Q 2900 3844 2670 4047 
Q 2441 4250 2034 4250 
Q 1625 4250 1398 4047 
Q 1172 3844 1172 3481 
z
" transform="scale(0.015625)"/>
       </defs>
       <use xlink:href="#DejaVuSans-38"/>
       <use xlink:href="#DejaVuSans-30" x="63.623047"/>
      </g>
     </g>
    </g>
    <g id="ytick_5">
     <g id="line2d_15">
      <g>
       <use xlink:href="#m620123ba51" x="57.6" y="53.568" style="stroke: #000000; stroke-width: 0.8"/>
      </g>
     </g>
     <g id="text_16">
      <!-- 100 -->
      <g transform="translate(31.5125 57.367219) scale(0.1 -0.1)">
       <use xlink:href="#DejaVuSans-31"/>
       <use xlink:href="#DejaVuSans-30" x="63.623047"/>
       <use xlink:href="#DejaVuSans-30" x="127.246094"/>
      </g>
     </g>
    </g>
    <g id="text_17">
     <!-- Accuracy -->
     <g transform="translate(25.432812 197.356125) rotate(-90) scale(0.1 -0.1)">
      <defs>
       <path id="DejaVuSans-41" d="M 2188 4044 
L 1331 1722 
L 3047 1722 
L 2188 4044 
z
M 1831 4666 
L 2547 4666 
L 4325 0 
L 3669 0 
L 3244 1197 
L 1141 1197 
L 716 0 
L 50 0 
L 1831 4666 
z
" transform="scale(0.015625)"/>
       <path id="DejaVuSans-75" d="M 544 1381 
L 544 3500 
L 1119 3500 
L 1119 1403 
Q 1119 906 1312 657 
Q 1506 409 1894 409 
Q 2359 409 2629 706 
Q 2900 1003 2900 1516 
L 2900 3500 
L 3475 3500 
L 3475 0 
L 2900 0 
L 2900 538 
Q 2691 219 2414 64 
Q 2138 -91 1772 -91 
Q 1169 -91 856 284 
Q 544 659 544 1381 
z
M 1991 3584 
L 1991 3584 
z
" transform="scale(0.015625)"/>
       <path id="DejaVuSans-72" d="M 2631 2963 
Q 2534 3019 2420 3045 
Q 2306 3072 2169 3072 
Q 1681 3072 1420 2755 
Q 1159 2438 1159 1844 
L 1159 0 
L 581 0 
L 581 3500 
L 1159 3500 
L 1159 2956 
Q 1341 3275 1631 3429 
Q 1922 3584 2338 3584 
Q 2397 3584 2469 3576 
Q 2541 3569 2628 3553 
L 2631 2963 
z
" transform="scale(0.015625)"/>
       <path id="DejaVuSans-61" d="M 2194 1759 
Q 1497 1759 1228 1600 
Q 959 1441 959 1056 
Q 959 750 1161 570 
Q 1363 391 1709 391 
Q 2188 391 2477 730 
Q 2766 1069 2766 1631 
L 2766 1759 
L 2194 1759 
z
M 3341 1997 
L 3341 0 
L 2766 0 
L 2766 531 
Q 2569 213 2275 61 
Q 1981 -91 1556 -91 
Q 1019 -91 701 211 
Q 384 513 384 1019 
Q 384 1609 779 1909 
Q 1175 2209 1959 2209 
L 2766 2209 
L 2766 2266 
Q 2766 2663 2505 2880 
Q 2244 3097 1772 3097 
Q 1472 3097 1187 3025 
Q 903 2953 641 2809 
L 641 3341 
Q 956 3463 1253 3523 
Q 1550 3584 1831 3584 
Q 2591 3584 2966 3190 
Q 3341 2797 3341 1997 
z
" transform="scale(0.015625)"/>
       <path id="DejaVuSans-79" d="M 2059 -325 
Q 1816 -950 1584 -1140 
Q 1353 -1331 966 -1331 
L 506 -1331 
L 506 -850 
L 844 -850 
Q 1081 -850 1212 -737 
Q 1344 -625 1503 -206 
L 1606 56 
L 191 3500 
L 800 3500 
L 1894 763 
L 2988 3500 
L 3597 3500 
L 2059 -325 
z
" transform="scale(0.015625)"/>
      </defs>
      <use xlink:href="#DejaVuSans-41"/>
      <use xlink:href="#DejaVuSans-63" x="66.658203"/>
      <use xlink:href="#DejaVuSans-63" x="121.638672"/>
      <use xlink:href="#DejaVuSans-75" x="176.619141"/>
      <use xlink:href="#DejaVuSans-72" x="239.998047"/>
      <use xlink:href="#DejaVuSans-61" x="281.111328"/>
      <use xlink:href="#DejaVuSans-63" x="342.390625"/>
      <use xlink:href="#DejaVuSans-79" x="397.371094"/>
     </g>
    </g>
   </g>
   <g id="line2d_16">
    <path d="M 73.832727 295.488 
L 74.918528 212.485404 
L 76.00433 109.904462 
L 77.090131 74.302602 
L 78.175932 63.962214 
L 79.261733 60.342618 
L 80.347534 57.176946 
L 81.433335 55.71817 
L 82.519137 55.188831 
L 83.604938 54.49715 
L 84.690739 54.734906 
L 90.119745 53.85987 
L 93.377148 53.697528 
L 94.462949 53.848932 
L 95.54875 56.701433 
L 96.634552 56.280035 
L 97.720353 55.448175 
L 98.806154 55.782934 
L 99.891955 54.832196 
L 100.977756 54.540326 
L 102.063557 54.907898 
L 103.149358 54.432386 
L 105.320961 54.551264 
L 106.406762 54.075751 
L 111.835768 54.097339 
L 112.921569 53.967811 
L 114.00737 54.000337 
L 116.178972 53.77323 
L 117.264773 53.892109 
L 118.350575 53.697528 
L 137.894995 53.611176 
L 138.980797 54.832196 
L 141.152399 55.080603 
L 144.409802 54.734906 
L 145.495604 54.367621 
L 147.667206 54.648554 
L 148.753007 54.410797 
L 149.838808 54.508088 
L 150.924609 54.065101 
L 152.01041 54.205567 
L 153.096212 54.032575 
L 154.182013 54.237805 
L 155.267814 54.118927 
L 156.353615 54.291919 
L 157.439416 53.85987 
L 160.69682 53.77323 
L 161.782621 54.183979 
L 162.868422 53.913697 
L 163.954223 54.021925 
L 165.040024 54.410797 
L 166.125825 53.978461 
L 167.211627 54.000337 
L 168.297428 54.183979 
L 169.383229 53.870521 
L 170.46903 54.129865 
L 175.898036 53.643634 
L 178.069638 53.794901 
L 179.155439 53.622024 
L 185.670246 53.643634 
L 224.759088 53.622024 
L 225.844889 54.410777 
L 226.93069 55.750576 
L 228.016491 55.426431 
L 229.102292 55.296773 
L 230.188094 54.486411 
L 231.273895 54.486411 
L 232.359696 54.345948 
L 233.445497 54.734922 
L 234.531298 54.032608 
L 235.617099 54.799751 
L 236.702901 54.432386 
L 237.788702 54.183875 
L 238.874503 54.324338 
L 242.131906 54.054217 
L 243.217708 54.648483 
L 244.303509 54.767336 
L 245.38931 54.097437 
L 246.475111 54.086632 
L 247.560912 54.248704 
L 249.732514 53.967779 
L 250.818316 54.594459 
L 251.904117 54.17307 
L 252.989918 54.227095 
L 254.075719 54.119046 
L 256.247321 54.302728 
L 257.333123 53.827316 
L 258.418924 53.838121 
L 259.504725 54.162266 
L 260.590526 53.946169 
L 261.676327 54.345948 
L 263.847929 53.88134 
L 264.933731 54.151461 
L 266.019532 54.205485 
L 267.105333 53.90295 
L 268.191134 54.010998 
L 269.276935 53.816511 
L 270.362736 54.17307 
L 271.448538 54.335143 
L 272.534339 54.151461 
L 273.62014 54.097437 
L 274.705941 54.17307 
L 275.791742 53.913755 
L 276.877543 54.021803 
L 277.963344 53.85973 
L 279.049146 53.935364 
L 281.220748 53.686853 
L 282.306549 54.19468 
L 284.478151 53.892145 
L 289.907157 53.784097 
L 290.992958 54.075827 
L 292.07876 53.935364 
L 293.164561 54.21629 
L 295.336163 53.773292 
L 296.421964 53.676048 
L 297.507765 53.946169 
L 298.593566 53.805706 
L 299.679368 53.816511 
L 300.765169 53.600414 
L 304.022572 53.946169 
L 305.108373 53.751682 
L 307.279976 53.946169 
L 310.537379 53.740877 
L 311.62318 53.870535 
L 315.966385 53.643634 
L 317.052186 53.730072 
L 319.223788 53.622024 
L 321.395391 53.686853 
L 322.481192 53.632829 
L 324.652794 53.676048 
L 331.167601 53.611219 
L 333.339203 53.654439 
L 335.510806 53.622024 
L 337.682408 53.622024 
L 340.939811 53.611219 
L 344.197215 53.58961 
L 349.626221 53.578805 
L 351.797823 53.643634 
L 358.31263 53.58961 
L 362.655835 53.578805 
L 372.428045 53.578805 
L 377.857051 53.58961 
L 383.286057 53.58961 
L 393.058267 53.578805 
L 398.487273 53.600414 
L 398.487273 53.600414 
" clip-path="url(#pe8ab496b6d)" style="fill: none; stroke: #1f77b4; stroke-width: 1.5; stroke-linecap: square"/>
   </g>
   <g id="line2d_17">
    <path d="M 73.832727 291.611938 
L 74.918528 254.532304 
L 76.00433 134.404883 
L 77.090131 136.934715 
L 78.175932 97.256743 
L 79.261733 95.66153 
L 80.347534 73.623298 
L 81.433335 72.711707 
L 82.519137 67.059955 
L 83.604938 68.108271 
L 84.690739 78.158803 
L 85.77654 70.546857 
L 86.862341 67.492868 
L 87.948142 67.811795 
L 90.119745 66.079858 
L 91.205546 66.307828 
L 92.291347 66.079858 
L 93.377148 66.239322 
L 94.462949 66.51277 
L 95.54875 79.731277 
L 96.634552 74.51215 
L 97.720353 76.745793 
L 98.806154 77.269951 
L 99.891955 71.047988 
L 100.977756 70.478351 
L 102.063557 81.212505 
L 103.149358 72.050824 
L 104.23516 73.12188 
L 105.320961 68.176489 
L 106.406762 68.632429 
L 107.492563 68.723386 
L 108.578364 66.94597 
L 109.664165 69.042602 
L 110.749967 67.219419 
L 111.835768 69.31605 
L 112.921569 68.15375 
L 114.00737 66.763479 
L 115.093171 65.737903 
L 116.178972 65.510221 
L 117.264773 66.831985 
L 118.350575 65.236485 
L 119.436376 65.646945 
L 120.522177 65.418976 
L 121.607978 64.940297 
L 122.693779 66.216582 
L 123.77958 65.259512 
L 124.865382 66.057118 
L 125.951183 64.894818 
L 128.122785 65.236485 
L 129.208586 64.347921 
L 130.294387 64.256675 
L 131.380189 64.552863 
L 132.46599 64.256675 
L 134.637592 64.780833 
L 136.809194 65.054282 
L 137.894995 64.279414 
L 138.980797 71.572145 
L 140.066598 74.648874 
L 141.152399 69.748963 
L 142.2382 72.278794 
L 143.324001 71.458448 
L 144.409802 71.116494 
L 145.495604 71.367203 
L 146.581405 70.637815 
L 147.667206 69.703484 
L 148.753007 69.019862 
L 149.838808 64.575603 
L 150.924609 67.69781 
L 152.01041 68.632429 
L 153.096212 65.646945 
L 154.182013 66.444552 
L 155.267814 67.811795 
L 156.353615 67.356143 
L 157.439416 64.575603 
L 158.525217 66.922943 
L 159.611019 66.763479 
L 160.69682 69.361529 
L 161.782621 69.33879 
L 162.868422 63.550026 
L 163.954223 71.640651 
L 165.040024 71.481188 
L 166.125825 68.449938 
L 167.211627 72.939676 
L 168.297428 66.490031 
L 169.383229 65.418976 
L 170.46903 68.244995 
L 171.554831 67.356143 
L 172.640632 66.079858 
L 173.726434 63.481808 
L 174.812235 63.094374 
L 175.898036 63.960347 
L 176.983837 63.960347 
L 178.069638 63.436171 
L 179.155439 64.370571 
L 180.24124 63.458962 
L 181.327042 63.27664 
L 182.412843 62.456191 
L 183.498644 63.390591 
L 184.584445 64.644054 
L 185.670246 63.390591 
L 186.756047 64.142669 
L 188.92765 63.778025 
L 190.013451 64.484522 
L 191.099252 63.481752 
L 192.185053 63.32222 
L 193.270854 64.142669 
L 195.442457 62.957577 
L 196.528258 62.638513 
L 197.614059 63.413381 
L 198.69986 63.937557 
L 200.871462 63.664074 
L 201.957264 63.664074 
L 203.043065 63.778025 
L 204.128866 64.461732 
L 205.214667 64.188249 
L 206.300468 63.572913 
L 207.386269 63.504542 
L 208.472071 63.25385 
L 209.557872 63.595703 
L 211.729474 63.29943 
L 212.815275 63.527332 
L 213.901076 63.094318 
L 214.986877 63.572913 
L 217.15848 63.413381 
L 218.244281 63.436171 
L 219.330082 63.185479 
L 220.415883 63.231059 
L 221.501684 63.550123 
L 222.587486 63.32222 
L 224.759088 63.390591 
L 225.844889 75.834059 
L 226.93069 80.893491 
L 228.016491 77.748439 
L 229.102292 79.526077 
L 230.188094 68.814667 
L 231.273895 70.045339 
L 232.359696 70.341612 
L 233.445497 75.150352 
L 234.531298 77.429375 
L 235.617099 64.438942 
L 236.702901 70.478354 
L 237.788702 66.968658 
L 238.874503 69.680696 
L 239.960304 66.991448 
L 241.046105 70.182081 
L 242.131906 69.521164 
L 243.217708 70.387193 
L 244.303509 67.082609 
L 245.38931 68.450023 
L 246.475111 68.814667 
L 247.560912 66.968658 
L 248.646713 64.438942 
L 249.732514 70.11371 
L 250.818316 65.988678 
L 251.904117 67.242141 
L 252.989918 67.082609 
L 254.075719 65.555663 
L 255.16152 70.1365 
L 256.247321 65.669614 
L 257.333123 63.367801 
L 258.418924 63.891976 
L 260.590526 68.814667 
L 261.676327 64.735215 
L 262.762128 64.985907 
L 263.847929 68.450023 
L 264.933731 65.692405 
L 266.019532 69.338842 
L 267.105333 65.25939 
L 268.191134 65.555663 
L 269.276935 67.356092 
L 270.362736 66.604014 
L 271.448538 67.538414 
L 272.534339 76.335444 
L 273.62014 65.510083 
L 274.705941 65.510083 
L 275.791742 69.521164 
L 276.877543 64.871956 
L 277.963344 66.307741 
L 279.049146 64.621264 
L 280.134947 63.732445 
L 281.220748 63.550123 
L 282.306549 64.005927 
L 283.39235 67.789106 
L 284.478151 65.988678 
L 285.563953 67.629575 
L 286.649754 67.264931 
L 287.735555 66.626804 
L 288.821356 65.532873 
L 289.907157 68.267701 
L 290.992958 68.19933 
L 292.07876 65.532873 
L 293.164561 68.381652 
L 294.250362 66.763546 
L 295.336163 64.370571 
L 296.421964 63.641284 
L 297.507765 66.284951 
L 298.593566 63.823605 
L 299.679368 66.604014 
L 300.765169 63.823605 
L 301.85097 63.003157 
L 302.936771 66.740755 
L 304.022572 64.871956 
L 305.108373 66.284951 
L 306.194175 64.438942 
L 307.279976 67.128189 
L 308.365777 66.490063 
L 309.451578 63.367801 
L 310.537379 64.25662 
L 312.708981 66.330531 
L 313.794783 65.624034 
L 314.880584 63.458962 
L 315.966385 65.487293 
L 317.052186 63.367801 
L 318.137987 64.780795 
L 319.223788 65.510083 
L 320.30959 63.778025 
L 322.481192 63.185479 
L 323.566993 64.940327 
L 324.652794 63.846396 
L 326.824396 62.570143 
L 327.910198 62.228289 
L 328.995999 63.390591 
L 330.0818 63.481752 
L 331.167601 65.168229 
L 332.253402 64.347781 
L 333.339203 65.441712 
L 334.425005 65.21381 
L 335.510806 63.048737 
L 336.596607 63.664074 
L 337.682408 62.866416 
L 339.85401 63.345011 
L 340.939811 63.595703 
L 342.025613 62.957577 
L 343.111414 65.988678 
L 344.197215 62.752464 
L 345.283016 63.048737 
L 346.368817 63.800815 
L 347.454618 62.843625 
L 349.626221 62.524562 
L 350.712022 63.208269 
L 351.797823 61.932016 
L 352.883624 62.31945 
L 353.969425 62.36503 
L 356.141028 62.866416 
L 357.226829 62.31945 
L 358.31263 62.866416 
L 359.398431 63.025947 
L 360.484232 62.775255 
L 361.570033 63.162689 
L 362.655835 63.094318 
L 364.827437 62.661303 
L 365.913238 62.798045 
L 366.999039 63.550123 
L 368.08484 62.638513 
L 369.170642 62.159918 
L 370.256443 62.980367 
L 371.342244 63.367801 
L 372.428045 64.461732 
L 373.513846 63.458962 
L 374.599647 63.413381 
L 375.685448 64.074298 
L 376.77125 62.911996 
L 377.857051 62.456191 
L 378.942852 62.615723 
L 380.028653 62.524562 
L 381.114454 63.208269 
L 382.200255 63.25385 
L 383.286057 63.550123 
L 384.371858 62.934786 
L 385.457659 62.570143 
L 386.54346 62.911996 
L 387.629261 63.755235 
L 388.715062 62.820835 
L 389.800863 62.843625 
L 390.886665 63.413381 
L 391.972466 62.911996 
L 393.058267 62.775255 
L 394.144068 62.934786 
L 395.229869 62.752464 
L 396.31567 63.094318 
L 397.401472 62.524562 
L 398.487273 63.32222 
L 398.487273 63.32222 
" clip-path="url(#pe8ab496b6d)" style="fill: none; stroke: #ff7f0e; stroke-width: 1.5; stroke-linecap: square"/>
   </g>
   <g id="line2d_18">
    <path d="M 73.832727 294.758612 
L 74.918528 268.207901 
L 76.00433 190.044195 
L 77.090131 181.210365 
L 78.175932 154.163417 
L 79.261733 147.066706 
L 80.347534 119.969962 
L 81.433335 117.141064 
L 82.519137 109.994556 
L 83.604938 108.605149 
L 84.690739 124.237775 
L 85.77654 114.758894 
L 86.862341 109.64742 
L 87.948142 110.788708 
L 89.033943 107.364556 
L 90.119745 106.173471 
L 91.205546 106.272488 
L 92.291347 106.619912 
L 93.377148 106.272488 
L 94.462949 106.371793 
L 95.54875 125.081436 
L 96.634552 125.62747 
L 97.720353 122.897877 
L 98.806154 131.68191 
L 99.891955 119.126301 
L 100.977756 114.064047 
L 102.063557 126.471131 
L 103.149358 113.865725 
L 104.23516 120.416403 
L 105.320961 111.781183 
L 106.406762 108.853268 
L 107.492563 105.428827 
L 108.578364 104.535658 
L 109.664165 108.803759 
L 110.749967 103.394082 
L 111.835768 109.796234 
L 112.921569 107.215454 
L 114.00737 104.93259 
L 115.093171 104.436353 
L 116.178972 107.017132 
L 117.264773 107.761488 
L 118.350575 100.118743 
L 119.436376 103.195759 
L 121.607978 101.111217 
L 122.693779 102.897844 
L 123.77958 105.478624 
L 124.865382 105.676946 
L 125.951183 101.806065 
L 127.036984 103.046946 
L 128.122785 102.798539 
L 129.208586 101.260319 
L 131.380189 101.260319 
L 132.46599 100.416658 
L 133.551791 101.557946 
L 134.637592 101.111217 
L 135.723393 103.543183 
L 136.809194 102.153488 
L 137.894995 101.111217 
L 138.980797 123.692029 
L 140.066598 129.200724 
L 142.2382 116.049284 
L 143.324001 121.855606 
L 144.409802 113.518301 
L 145.495604 117.984725 
L 146.581405 114.858199 
L 148.753007 121.011945 
L 149.838808 110.937522 
L 150.924609 113.617606 
L 152.01041 110.838505 
L 153.096212 109.44881 
L 154.182013 106.322285 
L 155.267814 109.746437 
L 156.353615 108.456335 
L 157.439416 103.195759 
L 158.525217 115.255132 
L 159.611019 106.22298 
L 160.69682 108.902776 
L 161.782621 112.128607 
L 162.868422 101.0122 
L 163.954223 113.418996 
L 165.040024 120.912928 
L 166.125825 112.724149 
L 167.211627 110.937522 
L 168.297428 107.860793 
L 169.383229 107.463573 
L 170.46903 110.590098 
L 171.554831 106.02437 
L 172.640632 104.287539 
L 173.726434 98.630031 
L 174.812235 95.106286 
L 175.898036 99.52325 
L 176.983837 97.835908 
L 178.069638 98.87809 
L 179.155439 98.431441 
L 180.24124 97.339631 
L 181.327042 96.595216 
L 182.412843 96.992237 
L 183.498644 99.275112 
L 184.584445 102.401657 
L 185.670246 96.843354 
L 186.756047 98.778835 
L 187.841849 99.771389 
L 188.92765 99.473622 
L 190.013451 99.423995 
L 191.099252 97.687025 
L 192.185053 97.984791 
L 193.270854 98.431441 
L 194.356656 98.332185 
L 195.442457 97.190748 
L 196.528258 98.828462 
L 197.614059 98.629952 
L 198.69986 98.729207 
L 199.785661 98.580324 
L 200.871462 96.595216 
L 201.957264 98.481068 
L 203.043065 98.481068 
L 204.128866 98.679579 
L 205.214667 99.771389 
L 206.300468 99.175856 
L 207.386269 97.835908 
L 208.472071 95.950056 
L 209.557872 96.793727 
L 210.643673 98.431441 
L 211.729474 96.595216 
L 212.815275 97.538142 
L 213.901076 95.553034 
L 214.986877 97.091493 
L 216.072679 97.687025 
L 217.15848 98.034419 
L 218.244281 97.488514 
L 219.330082 96.396705 
L 220.415883 95.056757 
L 221.501684 96.793727 
L 222.587486 97.141121 
L 223.673287 96.247822 
L 224.759088 97.835908 
L 225.844889 128.456199 
L 226.93069 131.03684 
L 228.016491 119.771352 
L 229.102292 131.334606 
L 230.188094 111.632409 
L 231.273895 116.198157 
L 232.359696 115.304859 
L 233.445497 121.905343 
L 234.531298 125.726676 
L 235.617099 107.711821 
L 236.702901 117.091456 
L 237.788702 107.215544 
L 238.874503 116.644807 
L 239.960304 110.639855 
L 241.046105 117.041828 
L 242.131906 114.213049 
L 243.217708 116.892945 
L 244.303509 111.582781 
L 245.38931 108.555492 
L 246.475111 108.952513 
L 247.560912 108.555492 
L 248.646713 100.714315 
L 249.732514 114.907837 
L 250.818316 106.917777 
L 251.904117 113.667145 
L 252.989918 108.15847 
L 254.075719 106.074107 
L 255.16152 112.029431 
L 256.247321 103.592722 
L 257.333123 96.49596 
L 258.418924 96.793727 
L 259.504725 104.138626 
L 260.590526 112.922729 
L 261.676327 102.848306 
L 262.762128 104.138626 
L 263.847929 110.937621 
L 264.933731 105.528202 
L 266.019532 113.7664 
L 267.105333 102.451284 
L 268.191134 102.500912 
L 269.276935 109.845812 
L 270.362736 105.57783 
L 271.448538 104.287509 
L 272.534339 123.543057 
L 273.62014 107.711821 
L 274.705941 103.046817 
L 275.791742 105.081553 
L 276.877543 104.386765 
L 277.963344 106.22299 
L 279.049146 98.133675 
L 280.134947 104.684531 
L 281.220748 98.133675 
L 282.306549 105.230436 
L 283.39235 109.696929 
L 284.478151 105.974851 
L 285.563953 109.796184 
L 286.649754 106.272617 
L 287.735555 105.280063 
L 288.821356 99.622506 
L 289.907157 106.570384 
L 290.992958 108.505864 
L 292.07876 101.409103 
L 293.164561 112.128686 
L 294.250362 105.031925 
L 295.336163 101.111337 
L 296.421964 102.947561 
L 297.507765 100.267666 
L 298.593566 99.076601 
L 299.679368 106.371873 
L 300.765169 99.374367 
L 301.85097 97.58777 
L 302.936771 103.940115 
L 304.022572 99.821016 
L 305.108373 108.307353 
L 306.194175 101.607614 
L 307.279976 107.066661 
L 308.365777 105.57783 
L 309.451578 99.423995 
L 310.537379 101.061709 
L 311.62318 105.77634 
L 312.708981 107.265171 
L 313.794783 102.153518 
L 314.880584 100.763943 
L 315.966385 104.833414 
L 317.052186 100.61506 
L 318.137987 103.1957 
L 319.223788 104.932669 
L 320.30959 101.657241 
L 321.395391 100.81357 
L 322.481192 100.515804 
L 323.566993 100.366921 
L 324.652794 101.160964 
L 325.738595 101.061709 
L 326.824396 99.423995 
L 327.910198 100.118783 
L 328.995999 103.691977 
L 330.0818 104.883042 
L 331.167601 99.572878 
L 332.253402 101.90538 
L 333.339203 99.969899 
L 334.425005 100.714315 
L 335.510806 99.026973 
L 336.596607 100.912826 
L 337.682408 100.267666 
L 338.768209 99.126229 
L 339.85401 100.763943 
L 340.939811 100.863198 
L 342.025613 100.81357 
L 343.111414 111.036877 
L 344.197215 98.927718 
L 345.283016 99.622506 
L 346.368817 100.515804 
L 347.454618 100.416549 
L 348.54042 98.828462 
L 349.626221 99.622506 
L 352.883624 99.52325 
L 353.969425 95.453779 
L 355.055227 96.892982 
L 356.141028 97.290004 
L 357.226829 96.744099 
L 358.31263 97.190748 
L 359.398431 97.438887 
L 360.484232 97.339631 
L 361.570033 97.488514 
L 363.741636 97.240376 
L 364.827437 97.637398 
L 366.999039 98.084047 
L 368.08484 97.240376 
L 369.170642 96.247822 
L 370.256443 97.538142 
L 371.342244 99.771389 
L 372.428045 100.218038 
L 373.513846 99.324739 
L 374.599647 99.324739 
L 375.685448 101.210592 
L 376.77125 100.81357 
L 378.942852 98.183302 
L 380.028653 98.580324 
L 381.114454 100.267666 
L 382.200255 98.87809 
L 383.286057 99.52325 
L 384.371858 98.927718 
L 385.457659 97.438887 
L 386.54346 99.126229 
L 387.629261 101.409103 
L 388.715062 99.275112 
L 389.800863 98.084047 
L 390.886665 97.885536 
L 391.972466 99.572878 
L 393.058267 99.374367 
L 394.144068 100.466176 
L 395.229869 98.580324 
L 396.31567 99.324739 
L 397.401472 98.629952 
L 398.487273 99.423995 
L 398.487273 99.423995 
" clip-path="url(#pe8ab496b6d)" style="fill: none; stroke: #2ca02c; stroke-width: 1.5; stroke-linecap: square"/>
   </g>
   <g id="line2d_19">
    <path d="M 368.08484 62.820835 
L 369.170642 62.251079 
L 370.256443 62.957577 
L 371.342244 62.752464 
L 372.428045 63.664074 
L 373.513846 62.934786 
L 374.599647 62.524562 
L 375.685448 63.413381 
L 376.77125 63.29943 
L 378.942852 62.27387 
L 380.028653 62.934786 
L 381.114454 62.045967 
L 382.200255 62.251079 
L 383.286057 62.706884 
L 384.371858 63.29943 
L 385.457659 62.706884 
L 386.54346 62.592933 
L 387.629261 61.020407 
L 389.800863 63.071528 
L 390.886665 62.911996 
L 391.972466 62.228289 
L 393.058267 62.547352 
L 394.144068 62.023177 
L 395.229869 62.501772 
L 396.31567 62.684094 
L 397.401472 62.433401 
L 398.487273 63.162689 
L 398.487273 63.162689 
" clip-path="url(#pe8ab496b6d)" style="fill: none; stroke: #d62728; stroke-width: 1.5; stroke-linecap: square"/>
   </g>
   <g id="line2d_20">
    <path d="M 368.08484 97.389259 
L 369.170642 96.843354 
L 370.256443 97.141121 
L 371.342244 95.999683 
L 372.428045 98.481068 
L 373.513846 97.041865 
L 374.599647 95.354523 
L 376.77125 97.488514 
L 377.857051 96.595216 
L 378.942852 95.20564 
L 380.028653 96.49596 
L 381.114454 96.49596 
L 382.200255 96.198194 
L 383.286057 97.339631 
L 385.457659 95.602662 
L 386.54346 97.488514 
L 387.629261 95.65229 
L 388.715062 96.049311 
L 389.800863 96.049311 
L 390.886665 96.843354 
L 391.972466 98.580324 
L 393.058267 97.885536 
L 394.144068 96.347077 
L 395.229869 96.148567 
L 396.31567 97.488514 
L 397.401472 96.595216 
L 398.487273 97.091493 
L 398.487273 97.091493 
" clip-path="url(#pe8ab496b6d)" style="fill: none; stroke: #9467bd; stroke-width: 1.5; stroke-linecap: square"/>
   </g>
   <g id="patch_3">
    <path d="M 57.6 307.584 
L 57.6 41.472 
" style="fill: none; stroke: #000000; stroke-width: 0.8; stroke-linejoin: miter; stroke-linecap: square"/>
   </g>
   <g id="patch_4">
    <path d="M 414.72 307.584 
L 414.72 41.472 
" style="fill: none; stroke: #000000; stroke-width: 0.8; stroke-linejoin: miter; stroke-linecap: square"/>
   </g>
   <g id="patch_5">
    <path d="M 57.6 307.584 
L 414.72 307.584 
" style="fill: none; stroke: #000000; stroke-width: 0.8; stroke-linejoin: miter; stroke-linecap: square"/>
   </g>
   <g id="patch_6">
    <path d="M 57.6 41.472 
L 414.72 41.472 
" style="fill: none; stroke: #000000; stroke-width: 0.8; stroke-linejoin: miter; stroke-linecap: square"/>
   </g>
   <g id="text_18">
    <!-- Learning Curves -->
    <g transform="translate(187.37625 35.472) scale(0.12 -0.12)">
     <defs>
      <path id="DejaVuSans-4c" d="M 628 4666 
L 1259 4666 
L 1259 531 
L 3531 531 
L 3531 0 
L 628 0 
L 628 4666 
z
" transform="scale(0.015625)"/>
      <path id="DejaVuSans-65" d="M 3597 1894 
L 3597 1613 
L 953 1613 
Q 991 1019 1311 708 
Q 1631 397 2203 397 
Q 2534 397 2845 478 
Q 3156 559 3463 722 
L 3463 178 
Q 3153 47 2828 -22 
Q 2503 -91 2169 -91 
Q 1331 -91 842 396 
Q 353 884 353 1716 
Q 353 2575 817 3079 
Q 1281 3584 2069 3584 
Q 2775 3584 3186 3129 
Q 3597 2675 3597 1894 
z
M 3022 2063 
Q 3016 2534 2758 2815 
Q 2500 3097 2075 3097 
Q 1594 3097 1305 2825 
Q 1016 2553 972 2059 
L 3022 2063 
z
" transform="scale(0.015625)"/>
      <path id="DejaVuSans-6e" d="M 3513 2113 
L 3513 0 
L 2938 0 
L 2938 2094 
Q 2938 2591 2744 2837 
Q 2550 3084 2163 3084 
Q 1697 3084 1428 2787 
Q 1159 2491 1159 1978 
L 1159 0 
L 581 0 
L 581 3500 
L 1159 3500 
L 1159 2956 
Q 1366 3272 1645 3428 
Q 1925 3584 2291 3584 
Q 2894 3584 3203 3211 
Q 3513 2838 3513 2113 
z
" transform="scale(0.015625)"/>
      <path id="DejaVuSans-69" d="M 603 3500 
L 1178 3500 
L 1178 0 
L 603 0 
L 603 3500 
z
M 603 4863 
L 1178 4863 
L 1178 4134 
L 603 4134 
L 603 4863 
z
" transform="scale(0.015625)"/>
      <path id="DejaVuSans-67" d="M 2906 1791 
Q 2906 2416 2648 2759 
Q 2391 3103 1925 3103 
Q 1463 3103 1205 2759 
Q 947 2416 947 1791 
Q 947 1169 1205 825 
Q 1463 481 1925 481 
Q 2391 481 2648 825 
Q 2906 1169 2906 1791 
z
M 3481 434 
Q 3481 -459 3084 -895 
Q 2688 -1331 1869 -1331 
Q 1566 -1331 1297 -1286 
Q 1028 -1241 775 -1147 
L 775 -588 
Q 1028 -725 1275 -790 
Q 1522 -856 1778 -856 
Q 2344 -856 2625 -561 
Q 2906 -266 2906 331 
L 2906 616 
Q 2728 306 2450 153 
Q 2172 0 1784 0 
Q 1141 0 747 490 
Q 353 981 353 1791 
Q 353 2603 747 3093 
Q 1141 3584 1784 3584 
Q 2172 3584 2450 3431 
Q 2728 3278 2906 2969 
L 2906 3500 
L 3481 3500 
L 3481 434 
z
" transform="scale(0.015625)"/>
      <path id="DejaVuSans-20" transform="scale(0.015625)"/>
      <path id="DejaVuSans-43" d="M 4122 4306 
L 4122 3641 
Q 3803 3938 3442 4084 
Q 3081 4231 2675 4231 
Q 1875 4231 1450 3742 
Q 1025 3253 1025 2328 
Q 1025 1406 1450 917 
Q 1875 428 2675 428 
Q 3081 428 3442 575 
Q 3803 722 4122 1019 
L 4122 359 
Q 3791 134 3420 21 
Q 3050 -91 2638 -91 
Q 1578 -91 968 557 
Q 359 1206 359 2328 
Q 359 3453 968 4101 
Q 1578 4750 2638 4750 
Q 3056 4750 3426 4639 
Q 3797 4528 4122 4306 
z
" transform="scale(0.015625)"/>
      <path id="DejaVuSans-76" d="M 191 3500 
L 800 3500 
L 1894 563 
L 2988 3500 
L 3597 3500 
L 2284 0 
L 1503 0 
L 191 3500 
z
" transform="scale(0.015625)"/>
     </defs>
     <use xlink:href="#DejaVuSans-4c"/>
     <use xlink:href="#DejaVuSans-65" x="53.962891"/>
     <use xlink:href="#DejaVuSans-61" x="115.486328"/>
     <use xlink:href="#DejaVuSans-72" x="176.765625"/>
     <use xlink:href="#DejaVuSans-6e" x="216.128906"/>
     <use xlink:href="#DejaVuSans-69" x="279.507812"/>
     <use xlink:href="#DejaVuSans-6e" x="307.291016"/>
     <use xlink:href="#DejaVuSans-67" x="370.669922"/>
     <use xlink:href="#DejaVuSans-20" x="434.146484"/>
     <use xlink:href="#DejaVuSans-43" x="465.933594"/>
     <use xlink:href="#DejaVuSans-75" x="535.757812"/>
     <use xlink:href="#DejaVuSans-72" x="599.136719"/>
     <use xlink:href="#DejaVuSans-76" x="640.25"/>
     <use xlink:href="#DejaVuSans-65" x="699.429688"/>
     <use xlink:href="#DejaVuSans-73" x="760.953125"/>
    </g>
   </g>
   <g id="legend_1">
    <g id="patch_7">
     <path d="M 214.18875 302.584 
L 407.72 302.584 
Q 409.72 302.584 409.72 300.584 
L 409.72 228.193375 
Q 409.72 226.193375 407.72 226.193375 
L 214.18875 226.193375 
Q 212.18875 226.193375 212.18875 228.193375 
L 212.18875 300.584 
Q 212.18875 302.584 214.18875 302.584 
z
" style="fill: #ffffff; opacity: 0.8; stroke: #cccccc; stroke-linejoin: miter"/>
    </g>
    <g id="line2d_21">
     <path d="M 216.18875 234.291812 
L 226.18875 234.291812 
L 236.18875 234.291812 
" style="fill: none; stroke: #1f77b4; stroke-width: 1.5; stroke-linecap: square"/>
    </g>
    <g id="text_19">
     <!-- Train Accuracy -->
     <g transform="translate(244.18875 237.791812) scale(0.1 -0.1)">
      <defs>
       <path id="DejaVuSans-54" d="M -19 4666 
L 3928 4666 
L 3928 4134 
L 2272 4134 
L 2272 0 
L 1638 0 
L 1638 4134 
L -19 4134 
L -19 4666 
z
" transform="scale(0.015625)"/>
      </defs>
      <use xlink:href="#DejaVuSans-54"/>
      <use xlink:href="#DejaVuSans-72" x="46.333984"/>
      <use xlink:href="#DejaVuSans-61" x="87.447266"/>
      <use xlink:href="#DejaVuSans-69" x="148.726562"/>
      <use xlink:href="#DejaVuSans-6e" x="176.509766"/>
      <use xlink:href="#DejaVuSans-20" x="239.888672"/>
      <use xlink:href="#DejaVuSans-41" x="271.675781"/>
      <use xlink:href="#DejaVuSans-63" x="338.333984"/>
      <use xlink:href="#DejaVuSans-63" x="393.314453"/>
      <use xlink:href="#DejaVuSans-75" x="448.294922"/>
      <use xlink:href="#DejaVuSans-72" x="511.673828"/>
      <use xlink:href="#DejaVuSans-61" x="552.787109"/>
      <use xlink:href="#DejaVuSans-63" x="614.066406"/>
      <use xlink:href="#DejaVuSans-79" x="669.046875"/>
     </g>
    </g>
    <g id="line2d_22">
     <path d="M 216.18875 248.969937 
L 226.18875 248.969937 
L 236.18875 248.969937 
" style="fill: none; stroke: #ff7f0e; stroke-width: 1.5; stroke-linecap: square"/>
    </g>
    <g id="text_20">
     <!-- Validation Accuracy -->
     <g transform="translate(244.18875 252.469937) scale(0.1 -0.1)">
      <defs>
       <path id="DejaVuSans-56" d="M 1831 0 
L 50 4666 
L 709 4666 
L 2188 738 
L 3669 4666 
L 4325 4666 
L 2547 0 
L 1831 0 
z
" transform="scale(0.015625)"/>
       <path id="DejaVuSans-6c" d="M 603 4863 
L 1178 4863 
L 1178 0 
L 603 0 
L 603 4863 
z
" transform="scale(0.015625)"/>
       <path id="DejaVuSans-64" d="M 2906 2969 
L 2906 4863 
L 3481 4863 
L 3481 0 
L 2906 0 
L 2906 525 
Q 2725 213 2448 61 
Q 2172 -91 1784 -91 
Q 1150 -91 751 415 
Q 353 922 353 1747 
Q 353 2572 751 3078 
Q 1150 3584 1784 3584 
Q 2172 3584 2448 3432 
Q 2725 3281 2906 2969 
z
M 947 1747 
Q 947 1113 1208 752 
Q 1469 391 1925 391 
Q 2381 391 2643 752 
Q 2906 1113 2906 1747 
Q 2906 2381 2643 2742 
Q 2381 3103 1925 3103 
Q 1469 3103 1208 2742 
Q 947 2381 947 1747 
z
" transform="scale(0.015625)"/>
       <path id="DejaVuSans-74" d="M 1172 4494 
L 1172 3500 
L 2356 3500 
L 2356 3053 
L 1172 3053 
L 1172 1153 
Q 1172 725 1289 603 
Q 1406 481 1766 481 
L 2356 481 
L 2356 0 
L 1766 0 
Q 1100 0 847 248 
Q 594 497 594 1153 
L 594 3053 
L 172 3053 
L 172 3500 
L 594 3500 
L 594 4494 
L 1172 4494 
z
" transform="scale(0.015625)"/>
      </defs>
      <use xlink:href="#DejaVuSans-56"/>
      <use xlink:href="#DejaVuSans-61" x="60.658203"/>
      <use xlink:href="#DejaVuSans-6c" x="121.9375"/>
      <use xlink:href="#DejaVuSans-69" x="149.720703"/>
      <use xlink:href="#DejaVuSans-64" x="177.503906"/>
      <use xlink:href="#DejaVuSans-61" x="240.980469"/>
      <use xlink:href="#DejaVuSans-74" x="302.259766"/>
      <use xlink:href="#DejaVuSans-69" x="341.46875"/>
      <use xlink:href="#DejaVuSans-6f" x="369.251953"/>
      <use xlink:href="#DejaVuSans-6e" x="430.433594"/>
      <use xlink:href="#DejaVuSans-20" x="493.8125"/>
      <use xlink:href="#DejaVuSans-41" x="525.599609"/>
      <use xlink:href="#DejaVuSans-63" x="592.257812"/>
      <use xlink:href="#DejaVuSans-63" x="647.238281"/>
      <use xlink:href="#DejaVuSans-75" x="702.21875"/>
      <use xlink:href="#DejaVuSans-72" x="765.597656"/>
      <use xlink:href="#DejaVuSans-61" x="806.710938"/>
      <use xlink:href="#DejaVuSans-63" x="867.990234"/>
      <use xlink:href="#DejaVuSans-79" x="922.970703"/>
     </g>
    </g>
    <g id="line2d_23">
     <path d="M 216.18875 263.648062 
L 226.18875 263.648062 
L 236.18875 263.648062 
" style="fill: none; stroke: #2ca02c; stroke-width: 1.5; stroke-linecap: square"/>
    </g>
    <g id="text_21">
     <!-- Robust Validation Accuracy -->
     <g transform="translate(244.18875 267.148062) scale(0.1 -0.1)">
      <defs>
       <path id="DejaVuSans-52" d="M 2841 2188 
Q 3044 2119 3236 1894 
Q 3428 1669 3622 1275 
L 4263 0 
L 3584 0 
L 2988 1197 
Q 2756 1666 2539 1819 
Q 2322 1972 1947 1972 
L 1259 1972 
L 1259 0 
L 628 0 
L 628 4666 
L 2053 4666 
Q 2853 4666 3247 4331 
Q 3641 3997 3641 3322 
Q 3641 2881 3436 2590 
Q 3231 2300 2841 2188 
z
M 1259 4147 
L 1259 2491 
L 2053 2491 
Q 2509 2491 2742 2702 
Q 2975 2913 2975 3322 
Q 2975 3731 2742 3939 
Q 2509 4147 2053 4147 
L 1259 4147 
z
" transform="scale(0.015625)"/>
       <path id="DejaVuSans-62" d="M 3116 1747 
Q 3116 2381 2855 2742 
Q 2594 3103 2138 3103 
Q 1681 3103 1420 2742 
Q 1159 2381 1159 1747 
Q 1159 1113 1420 752 
Q 1681 391 2138 391 
Q 2594 391 2855 752 
Q 3116 1113 3116 1747 
z
M 1159 2969 
Q 1341 3281 1617 3432 
Q 1894 3584 2278 3584 
Q 2916 3584 3314 3078 
Q 3713 2572 3713 1747 
Q 3713 922 3314 415 
Q 2916 -91 2278 -91 
Q 1894 -91 1617 61 
Q 1341 213 1159 525 
L 1159 0 
L 581 0 
L 581 4863 
L 1159 4863 
L 1159 2969 
z
" transform="scale(0.015625)"/>
      </defs>
      <use xlink:href="#DejaVuSans-52"/>
      <use xlink:href="#DejaVuSans-6f" x="64.982422"/>
      <use xlink:href="#DejaVuSans-62" x="126.164062"/>
      <use xlink:href="#DejaVuSans-75" x="189.640625"/>
      <use xlink:href="#DejaVuSans-73" x="253.019531"/>
      <use xlink:href="#DejaVuSans-74" x="305.119141"/>
      <use xlink:href="#DejaVuSans-20" x="344.328125"/>
      <use xlink:href="#DejaVuSans-56" x="376.115234"/>
      <use xlink:href="#DejaVuSans-61" x="436.773438"/>
      <use xlink:href="#DejaVuSans-6c" x="498.052734"/>
      <use xlink:href="#DejaVuSans-69" x="525.835938"/>
      <use xlink:href="#DejaVuSans-64" x="553.619141"/>
      <use xlink:href="#DejaVuSans-61" x="617.095703"/>
      <use xlink:href="#DejaVuSans-74" x="678.375"/>
      <use xlink:href="#DejaVuSans-69" x="717.583984"/>
      <use xlink:href="#DejaVuSans-6f" x="745.367188"/>
      <use xlink:href="#DejaVuSans-6e" x="806.548828"/>
      <use xlink:href="#DejaVuSans-20" x="869.927734"/>
      <use xlink:href="#DejaVuSans-41" x="901.714844"/>
      <use xlink:href="#DejaVuSans-63" x="968.373047"/>
      <use xlink:href="#DejaVuSans-63" x="1023.353516"/>
      <use xlink:href="#DejaVuSans-75" x="1078.333984"/>
      <use xlink:href="#DejaVuSans-72" x="1141.712891"/>
      <use xlink:href="#DejaVuSans-61" x="1182.826172"/>
      <use xlink:href="#DejaVuSans-63" x="1244.105469"/>
      <use xlink:href="#DejaVuSans-79" x="1299.085938"/>
     </g>
    </g>
    <g id="line2d_24">
     <path d="M 216.18875 278.326188 
L 226.18875 278.326188 
L 236.18875 278.326188 
" style="fill: none; stroke: #d62728; stroke-width: 1.5; stroke-linecap: square"/>
    </g>
    <g id="text_22">
     <!-- SWA Validation Accuracy -->
     <g transform="translate(244.18875 281.826188) scale(0.1 -0.1)">
      <defs>
       <path id="DejaVuSans-53" d="M 3425 4513 
L 3425 3897 
Q 3066 4069 2747 4153 
Q 2428 4238 2131 4238 
Q 1616 4238 1336 4038 
Q 1056 3838 1056 3469 
Q 1056 3159 1242 3001 
Q 1428 2844 1947 2747 
L 2328 2669 
Q 3034 2534 3370 2195 
Q 3706 1856 3706 1288 
Q 3706 609 3251 259 
Q 2797 -91 1919 -91 
Q 1588 -91 1214 -16 
Q 841 59 441 206 
L 441 856 
Q 825 641 1194 531 
Q 1563 422 1919 422 
Q 2459 422 2753 634 
Q 3047 847 3047 1241 
Q 3047 1584 2836 1778 
Q 2625 1972 2144 2069 
L 1759 2144 
Q 1053 2284 737 2584 
Q 422 2884 422 3419 
Q 422 4038 858 4394 
Q 1294 4750 2059 4750 
Q 2388 4750 2728 4690 
Q 3069 4631 3425 4513 
z
" transform="scale(0.015625)"/>
       <path id="DejaVuSans-57" d="M 213 4666 
L 850 4666 
L 1831 722 
L 2809 4666 
L 3519 4666 
L 4500 722 
L 5478 4666 
L 6119 4666 
L 4947 0 
L 4153 0 
L 3169 4050 
L 2175 0 
L 1381 0 
L 213 4666 
z
" transform="scale(0.015625)"/>
      </defs>
      <use xlink:href="#DejaVuSans-53"/>
      <use xlink:href="#DejaVuSans-57" x="63.476562"/>
      <use xlink:href="#DejaVuSans-41" x="156.853516"/>
      <use xlink:href="#DejaVuSans-20" x="225.261719"/>
      <use xlink:href="#DejaVuSans-56" x="257.048828"/>
      <use xlink:href="#DejaVuSans-61" x="317.707031"/>
      <use xlink:href="#DejaVuSans-6c" x="378.986328"/>
      <use xlink:href="#DejaVuSans-69" x="406.769531"/>
      <use xlink:href="#DejaVuSans-64" x="434.552734"/>
      <use xlink:href="#DejaVuSans-61" x="498.029297"/>
      <use xlink:href="#DejaVuSans-74" x="559.308594"/>
      <use xlink:href="#DejaVuSans-69" x="598.517578"/>
      <use xlink:href="#DejaVuSans-6f" x="626.300781"/>
      <use xlink:href="#DejaVuSans-6e" x="687.482422"/>
      <use xlink:href="#DejaVuSans-20" x="750.861328"/>
      <use xlink:href="#DejaVuSans-41" x="782.648438"/>
      <use xlink:href="#DejaVuSans-63" x="849.306641"/>
      <use xlink:href="#DejaVuSans-63" x="904.287109"/>
      <use xlink:href="#DejaVuSans-75" x="959.267578"/>
      <use xlink:href="#DejaVuSans-72" x="1022.646484"/>
      <use xlink:href="#DejaVuSans-61" x="1063.759766"/>
      <use xlink:href="#DejaVuSans-63" x="1125.039062"/>
      <use xlink:href="#DejaVuSans-79" x="1180.019531"/>
     </g>
    </g>
    <g id="line2d_25">
     <path d="M 216.18875 293.004312 
L 226.18875 293.004312 
L 236.18875 293.004312 
" style="fill: none; stroke: #9467bd; stroke-width: 1.5; stroke-linecap: square"/>
    </g>
    <g id="text_23">
     <!-- SWA Robust Validation Accuracy -->
     <g transform="translate(244.18875 296.504312) scale(0.1 -0.1)">
      <use xlink:href="#DejaVuSans-53"/>
      <use xlink:href="#DejaVuSans-57" x="63.476562"/>
      <use xlink:href="#DejaVuSans-41" x="156.853516"/>
      <use xlink:href="#DejaVuSans-20" x="225.261719"/>
      <use xlink:href="#DejaVuSans-52" x="257.048828"/>
      <use xlink:href="#DejaVuSans-6f" x="322.03125"/>
      <use xlink:href="#DejaVuSans-62" x="383.212891"/>
      <use xlink:href="#DejaVuSans-75" x="446.689453"/>
      <use xlink:href="#DejaVuSans-73" x="510.068359"/>
      <use xlink:href="#DejaVuSans-74" x="562.167969"/>
      <use xlink:href="#DejaVuSans-20" x="601.376953"/>
      <use xlink:href="#DejaVuSans-56" x="633.164062"/>
      <use xlink:href="#DejaVuSans-61" x="693.822266"/>
      <use xlink:href="#DejaVuSans-6c" x="755.101562"/>
      <use xlink:href="#DejaVuSans-69" x="782.884766"/>
      <use xlink:href="#DejaVuSans-64" x="810.667969"/>
      <use xlink:href="#DejaVuSans-61" x="874.144531"/>
      <use xlink:href="#DejaVuSans-74" x="935.423828"/>
      <use xlink:href="#DejaVuSans-69" x="974.632812"/>
      <use xlink:href="#DejaVuSans-6f" x="1002.416016"/>
      <use xlink:href="#DejaVuSans-6e" x="1063.597656"/>
      <use xlink:href="#DejaVuSans-20" x="1126.976562"/>
      <use xlink:href="#DejaVuSans-41" x="1158.763672"/>
      <use xlink:href="#DejaVuSans-63" x="1225.421875"/>
      <use xlink:href="#DejaVuSans-63" x="1280.402344"/>
      <use xlink:href="#DejaVuSans-75" x="1335.382812"/>
      <use xlink:href="#DejaVuSans-72" x="1398.761719"/>
      <use xlink:href="#DejaVuSans-61" x="1439.875"/>
      <use xlink:href="#DejaVuSans-63" x="1501.154297"/>
      <use xlink:href="#DejaVuSans-79" x="1556.134766"/>
     </g>
    </g>
   </g>
  </g>
 </g>
 <defs>
  <clipPath id="pe8ab496b6d">
   <rect x="57.6" y="41.472" width="357.12" height="266.112"/>
  </clipPath>
 </defs>
</svg>
