<?xml version="1.0" encoding="utf-8" standalone="no"?>
<!DOCTYPE svg PUBLIC "-//W3C//DTD SVG 1.1//EN"
  "http://www.w3.org/Graphics/SVG/1.1/DTD/svg11.dtd">
<svg xmlns:xlink="http://www.w3.org/1999/xlink" width="460.8pt" height="345.6pt" viewBox="0 0 460.8 345.6" xmlns="http://www.w3.org/2000/svg" version="1.1">
 <metadata>
  <rdf:RDF xmlns:dc="http://purl.org/dc/elements/1.1/" xmlns:cc="http://creativecommons.org/ns#" xmlns:rdf="http://www.w3.org/1999/02/22-rdf-syntax-ns#">
   <cc:Work>
    <dc:type rdf:resource="http://purl.org/dc/dcmitype/StillImage"/>
    <dc:date>2026-03-05T07:19:40.373558</dc:date>
    <dc:format>image/svg+xml</dc:format>
    <dc:creator>
     <cc:Agent>
      <dc:title>Matplotlib v3.9.1, https://matplotlib.org/</dc:title>
     </cc:Agent>
    </dc:creator>
   </cc:Work>
  </rdf:RDF>
 </metadata>
 <defs>
  <style type="text/css">*{stroke-linejoin: round; stroke-linecap: butt}</style>
 </defs>
 <g id="figure_1">
  <g id="patch_1">
   <path d="M 0 345.6 
L 460.8 345.6 
L 460.8 0 
L 0 0 
z
" style="fill: #ffffff"/>
  </g>
  <g id="axes_1">
   <g id="patch_2">
    <path d="M 57.6 307.584 
L 414.72 307.584 
L 414.72 41.472 
L 57.6 41.472 
z
" style="fill: #ffffff"/>
   </g>
   <g id="matplotlib.axis_1">
    <g id="xtick_1">
     <g id="line2d_1">
      <defs>
       <path id="m1bbd42fb96" d="M 0 0 
L 0 3.5 
" style="stroke: #000000; stroke-width: 0.8"/>
      </defs>
      <g>
       <use xlink:href="#m1bbd42fb96" x="72.201297" y="307.584" style="stroke: #000000; stroke-width: 0.8"/>
      </g>
     </g>
     <g id="text_1">
      <!-- 0 -->
      <g transform="translate(69.020047 322.182437) scale(0.1 -0.1)">
       <defs>
        <path id="DejaVuSans-30" d="M 2034 4250 
Q 1547 4250 1301 3770 
Q 1056 3291 1056 2328 
Q 1056 1369 1301 889 
Q 1547 409 2034 409 
Q 2525 409 2770 889 
Q 3016 1369 3016 2328 
Q 3016 3291 2770 3770 
Q 2525 4250 2034 4250 
z
M 2034 4750 
Q 2819 4750 3233 4129 
Q 3647 3509 3647 2328 
Q 3647 1150 3233 529 
Q 2819 -91 2034 -91 
Q 1250 -91 836 529 
Q 422 1150 422 2328 
Q 422 3509 836 4129 
Q 1250 4750 2034 4750 
z
" transform="scale(0.015625)"/>
       </defs>
       <use xlink:href="#DejaVuSans-30"/>
      </g>
     </g>
    </g>
    <g id="xtick_2">
     <g id="line2d_2">
      <g>
       <use xlink:href="#m1bbd42fb96" x="112.987044" y="307.584" style="stroke: #000000; stroke-width: 0.8"/>
      </g>
     </g>
     <g id="text_2">
      <!-- 25 -->
      <g transform="translate(106.624544 322.182437) scale(0.1 -0.1)">
       <defs>
        <path id="DejaVuSans-32" d="M 1228 531 
L 3431 531 
L 3431 0 
L 469 0 
L 469 531 
Q 828 903 1448 1529 
Q 2069 2156 2228 2338 
Q 2531 2678 2651 2914 
Q 2772 3150 2772 3378 
Q 2772 3750 2511 3984 
Q 2250 4219 1831 4219 
Q 1534 4219 1204 4116 
Q 875 4013 500 3803 
L 500 4441 
Q 881 4594 1212 4672 
Q 1544 4750 1819 4750 
Q 2544 4750 2975 4387 
Q 3406 4025 3406 3419 
Q 3406 3131 3298 2873 
Q 3191 2616 2906 2266 
Q 2828 2175 2409 1742 
Q 1991 1309 1228 531 
z
" transform="scale(0.015625)"/>
        <path id="DejaVuSans-35" d="M 691 4666 
L 3169 4666 
L 3169 4134 
L 1269 4134 
L 1269 2991 
Q 1406 3038 1543 3061 
Q 1681 3084 1819 3084 
Q 2600 3084 3056 2656 
Q 3513 2228 3513 1497 
Q 3513 744 3044 326 
Q 2575 -91 1722 -91 
Q 1428 -91 1123 -41 
Q 819 9 494 109 
L 494 744 
Q 775 591 1075 516 
Q 1375 441 1709 441 
Q 2250 441 2565 725 
Q 2881 1009 2881 1497 
Q 2881 1984 2565 2268 
Q 2250 2553 1709 2553 
Q 1456 2553 1204 2497 
Q 953 2441 691 2322 
L 691 4666 
z
" transform="scale(0.015625)"/>
       </defs>
       <use xlink:href="#DejaVuSans-32"/>
       <use xlink:href="#DejaVuSans-35" x="63.623047"/>
      </g>
     </g>
    </g>
    <g id="xtick_3">
     <g id="line2d_3">
      <g>
       <use xlink:href="#m1bbd42fb96" x="153.772791" y="307.584" style="stroke: #000000; stroke-width: 0.8"/>
      </g>
     </g>
     <g id="text_3">
      <!-- 50 -->
      <g transform="translate(147.410291 322.182437) scale(0.1 -0.1)">
       <use xlink:href="#DejaVuSans-35"/>
       <use xlink:href="#DejaVuSans-30" x="63.623047"/>
      </g>
     </g>
    </g>
    <g id="xtick_4">
     <g id="line2d_4">
      <g>
       <use xlink:href="#m1bbd42fb96" x="194.558538" y="307.584" style="stroke: #000000; stroke-width: 0.8"/>
      </g>
     </g>
     <g id="text_4">
      <!-- 75 -->
      <g transform="translate(188.196038 322.182437) scale(0.1 -0.1)">
       <defs>
        <path id="DejaVuSans-37" d="M 525 4666 
L 3525 4666 
L 3525 4397 
L 1831 0 
L 1172 0 
L 2766 4134 
L 525 4134 
L 525 4666 
z
" transform="scale(0.015625)"/>
       </defs>
       <use xlink:href="#DejaVuSans-37"/>
       <use xlink:href="#DejaVuSans-35" x="63.623047"/>
      </g>
     </g>
    </g>
    <g id="xtick_5">
     <g id="line2d_5">
      <g>
       <use xlink:href="#m1bbd42fb96" x="235.344285" y="307.584" style="stroke: #000000; stroke-width: 0.8"/>
      </g>
     </g>
     <g id="text_5">
      <!-- 100 -->
      <g transform="translate(225.800535 322.182437) scale(0.1 -0.1)">
       <defs>
        <path id="DejaVuSans-31" d="M 794 531 
L 1825 531 
L 1825 4091 
L 703 3866 
L 703 4441 
L 1819 4666 
L 2450 4666 
L 2450 531 
L 3481 531 
L 3481 0 
L 794 0 
L 794 531 
z
" transform="scale(0.015625)"/>
       </defs>
       <use xlink:href="#DejaVuSans-31"/>
       <use xlink:href="#DejaVuSans-30" x="63.623047"/>
       <use xlink:href="#DejaVuSans-30" x="127.246094"/>
      </g>
     </g>
    </g>
    <g id="xtick_6">
     <g id="line2d_6">
      <g>
       <use xlink:href="#m1bbd42fb96" x="276.130032" y="307.584" style="stroke: #000000; stroke-width: 0.8"/>
      </g>
     </g>
     <g id="text_6">
      <!-- 125 -->
      <g transform="translate(266.586282 322.182437) scale(0.1 -0.1)">
       <use xlink:href="#DejaVuSans-31"/>
       <use xlink:href="#DejaVuSans-32" x="63.623047"/>
       <use xlink:href="#DejaVuSans-35" x="127.246094"/>
      </g>
     </g>
    </g>
    <g id="xtick_7">
     <g id="line2d_7">
      <g>
       <use xlink:href="#m1bbd42fb96" x="316.915779" y="307.584" style="stroke: #000000; stroke-width: 0.8"/>
      </g>
     </g>
     <g id="text_7">
      <!-- 150 -->
      <g transform="translate(307.372029 322.182437) scale(0.1 -0.1)">
       <use xlink:href="#DejaVuSans-31"/>
       <use xlink:href="#DejaVuSans-35" x="63.623047"/>
       <use xlink:href="#DejaVuSans-30" x="127.246094"/>
      </g>
     </g>
    </g>
    <g id="xtick_8">
     <g id="line2d_8">
      <g>
       <use xlink:href="#m1bbd42fb96" x="357.701526" y="307.584" style="stroke: #000000; stroke-width: 0.8"/>
      </g>
     </g>
     <g id="text_8">
      <!-- 175 -->
      <g transform="translate(348.157776 322.182437) scale(0.1 -0.1)">
       <use xlink:href="#DejaVuSans-31"/>
       <use xlink:href="#DejaVuSans-37" x="63.623047"/>
       <use xlink:href="#DejaVuSans-35" x="127.246094"/>
      </g>
     </g>
    </g>
    <g id="xtick_9">
     <g id="line2d_9">
      <g>
       <use xlink:href="#m1bbd42fb96" x="398.487273" y="307.584" style="stroke: #000000; stroke-width: 0.8"/>
      </g>
     </g>
     <g id="text_9">
      <!-- 200 -->
      <g transform="translate(388.943523 322.182437) scale(0.1 -0.1)">
       <use xlink:href="#DejaVuSans-32"/>
       <use xlink:href="#DejaVuSans-30" x="63.623047"/>
       <use xlink:href="#DejaVuSans-30" x="127.246094"/>
      </g>
     </g>
    </g>
    <g id="text_10">
     <!-- Epochs -->
     <g transform="translate(218.244375 335.860562) scale(0.1 -0.1)">
      <defs>
       <path id="DejaVuSans-45" d="M 628 4666 
L 3578 4666 
L 3578 4134 
L 1259 4134 
L 1259 2753 
L 3481 2753 
L 3481 2222 
L 1259 2222 
L 1259 531 
L 3634 531 
L 3634 0 
L 628 0 
L 628 4666 
z
" transform="scale(0.015625)"/>
       <path id="DejaVuSans-70" d="M 1159 525 
L 1159 -1331 
L 581 -1331 
L 581 3500 
L 1159 3500 
L 1159 2969 
Q 1341 3281 1617 3432 
Q 1894 3584 2278 3584 
Q 2916 3584 3314 3078 
Q 3713 2572 3713 1747 
Q 3713 922 3314 415 
Q 2916 -91 2278 -91 
Q 1894 -91 1617 61 
Q 1341 213 1159 525 
z
M 3116 1747 
Q 3116 2381 2855 2742 
Q 2594 3103 2138 3103 
Q 1681 3103 1420 2742 
Q 1159 2381 1159 1747 
Q 1159 1113 1420 752 
Q 1681 391 2138 391 
Q 2594 391 2855 752 
Q 3116 1113 3116 1747 
z
" transform="scale(0.015625)"/>
       <path id="DejaVuSans-6f" d="M 1959 3097 
Q 1497 3097 1228 2736 
Q 959 2375 959 1747 
Q 959 1119 1226 758 
Q 1494 397 1959 397 
Q 2419 397 2687 759 
Q 2956 1122 2956 1747 
Q 2956 2369 2687 2733 
Q 2419 3097 1959 3097 
z
M 1959 3584 
Q 2709 3584 3137 3096 
Q 3566 2609 3566 1747 
Q 3566 888 3137 398 
Q 2709 -91 1959 -91 
Q 1206 -91 779 398 
Q 353 888 353 1747 
Q 353 2609 779 3096 
Q 1206 3584 1959 3584 
z
" transform="scale(0.015625)"/>
       <path id="DejaVuSans-63" d="M 3122 3366 
L 3122 2828 
Q 2878 2963 2633 3030 
Q 2388 3097 2138 3097 
Q 1578 3097 1268 2742 
Q 959 2388 959 1747 
Q 959 1106 1268 751 
Q 1578 397 2138 397 
Q 2388 397 2633 464 
Q 2878 531 3122 666 
L 3122 134 
Q 2881 22 2623 -34 
Q 2366 -91 2075 -91 
Q 1284 -91 818 406 
Q 353 903 353 1747 
Q 353 2603 823 3093 
Q 1294 3584 2113 3584 
Q 2378 3584 2631 3529 
Q 2884 3475 3122 3366 
z
" transform="scale(0.015625)"/>
       <path id="DejaVuSans-68" d="M 3513 2113 
L 3513 0 
L 2938 0 
L 2938 2094 
Q 2938 2591 2744 2837 
Q 2550 3084 2163 3084 
Q 1697 3084 1428 2787 
Q 1159 2491 1159 1978 
L 1159 0 
L 581 0 
L 581 4863 
L 1159 4863 
L 1159 2956 
Q 1366 3272 1645 3428 
Q 1925 3584 2291 3584 
Q 2894 3584 3203 3211 
Q 3513 2838 3513 2113 
z
" transform="scale(0.015625)"/>
       <path id="DejaVuSans-73" d="M 2834 3397 
L 2834 2853 
Q 2591 2978 2328 3040 
Q 2066 3103 1784 3103 
Q 1356 3103 1142 2972 
Q 928 2841 928 2578 
Q 928 2378 1081 2264 
Q 1234 2150 1697 2047 
L 1894 2003 
Q 2506 1872 2764 1633 
Q 3022 1394 3022 966 
Q 3022 478 2636 193 
Q 2250 -91 1575 -91 
Q 1294 -91 989 -36 
Q 684 19 347 128 
L 347 722 
Q 666 556 975 473 
Q 1284 391 1588 391 
Q 1994 391 2212 530 
Q 2431 669 2431 922 
Q 2431 1156 2273 1281 
Q 2116 1406 1581 1522 
L 1381 1569 
Q 847 1681 609 1914 
Q 372 2147 372 2553 
Q 372 3047 722 3315 
Q 1072 3584 1716 3584 
Q 2034 3584 2315 3537 
Q 2597 3491 2834 3397 
z
" transform="scale(0.015625)"/>
      </defs>
      <use xlink:href="#DejaVuSans-45"/>
      <use xlink:href="#DejaVuSans-70" x="63.183594"/>
      <use xlink:href="#DejaVuSans-6f" x="126.660156"/>
      <use xlink:href="#DejaVuSans-63" x="187.841797"/>
      <use xlink:href="#DejaVuSans-68" x="242.822266"/>
      <use xlink:href="#DejaVuSans-73" x="306.201172"/>
     </g>
    </g>
   </g>
   <g id="matplotlib.axis_2">
    <g id="ytick_1">
     <g id="line2d_10">
      <defs>
       <path id="m82f7886b62" d="M 0 0 
L -3.5 0 
" style="stroke: #000000; stroke-width: 0.8"/>
      </defs>
      <g>
       <use xlink:href="#m82f7886b62" x="57.6" y="279.381376" style="stroke: #000000; stroke-width: 0.8"/>
      </g>
     </g>
     <g id="text_11">
      <!-- 20 -->
      <g transform="translate(37.875 283.180595) scale(0.1 -0.1)">
       <use xlink:href="#DejaVuSans-32"/>
       <use xlink:href="#DejaVuSans-30" x="63.623047"/>
      </g>
     </g>
    </g>
    <g id="ytick_2">
     <g id="line2d_11">
      <g>
       <use xlink:href="#m82f7886b62" x="57.6" y="243.068702" style="stroke: #000000; stroke-width: 0.8"/>
      </g>
     </g>
     <g id="text_12">
      <!-- 30 -->
      <g transform="translate(37.875 246.86792) scale(0.1 -0.1)">
       <defs>
        <path id="DejaVuSans-33" d="M 2597 2516 
Q 3050 2419 3304 2112 
Q 3559 1806 3559 1356 
Q 3559 666 3084 287 
Q 2609 -91 1734 -91 
Q 1441 -91 1130 -33 
Q 819 25 488 141 
L 488 750 
Q 750 597 1062 519 
Q 1375 441 1716 441 
Q 2309 441 2620 675 
Q 2931 909 2931 1356 
Q 2931 1769 2642 2001 
Q 2353 2234 1838 2234 
L 1294 2234 
L 1294 2753 
L 1863 2753 
Q 2328 2753 2575 2939 
Q 2822 3125 2822 3475 
Q 2822 3834 2567 4026 
Q 2313 4219 1838 4219 
Q 1578 4219 1281 4162 
Q 984 4106 628 3988 
L 628 4550 
Q 988 4650 1302 4700 
Q 1616 4750 1894 4750 
Q 2613 4750 3031 4423 
Q 3450 4097 3450 3541 
Q 3450 3153 3228 2886 
Q 3006 2619 2597 2516 
z
" transform="scale(0.015625)"/>
       </defs>
       <use xlink:href="#DejaVuSans-33"/>
       <use xlink:href="#DejaVuSans-30" x="63.623047"/>
      </g>
     </g>
    </g>
    <g id="ytick_3">
     <g id="line2d_12">
      <g>
       <use xlink:href="#m82f7886b62" x="57.6" y="206.756027" style="stroke: #000000; stroke-width: 0.8"/>
      </g>
     </g>
     <g id="text_13">
      <!-- 40 -->
      <g transform="translate(37.875 210.555246) scale(0.1 -0.1)">
       <defs>
        <path id="DejaVuSans-34" d="M 2419 4116 
L 825 1625 
L 2419 1625 
L 2419 4116 
z
M 2253 4666 
L 3047 4666 
L 3047 1625 
L 3713 1625 
L 3713 1100 
L 3047 1100 
L 3047 0 
L 2419 0 
L 2419 1100 
L 313 1100 
L 313 1709 
L 2253 4666 
z
" transform="scale(0.015625)"/>
       </defs>
       <use xlink:href="#DejaVuSans-34"/>
       <use xlink:href="#DejaVuSans-30" x="63.623047"/>
      </g>
     </g>
    </g>
    <g id="ytick_4">
     <g id="line2d_13">
      <g>
       <use xlink:href="#m82f7886b62" x="57.6" y="170.443353" style="stroke: #000000; stroke-width: 0.8"/>
      </g>
     </g>
     <g id="text_14">
      <!-- 50 -->
      <g transform="translate(37.875 174.242571) scale(0.1 -0.1)">
       <use xlink:href="#DejaVuSans-35"/>
       <use xlink:href="#DejaVuSans-30" x="63.623047"/>
      </g>
     </g>
    </g>
    <g id="ytick_5">
     <g id="line2d_14">
      <g>
       <use xlink:href="#m82f7886b62" x="57.6" y="134.130678" style="stroke: #000000; stroke-width: 0.8"/>
      </g>
     </g>
     <g id="text_15">
      <!-- 60 -->
      <g transform="translate(37.875 137.929897) scale(0.1 -0.1)">
       <defs>
        <path id="DejaVuSans-36" d="M 2113 2584 
Q 1688 2584 1439 2293 
Q 1191 2003 1191 1497 
Q 1191 994 1439 701 
Q 1688 409 2113 409 
Q 2538 409 2786 701 
Q 3034 994 3034 1497 
Q 3034 2003 2786 2293 
Q 2538 2584 2113 2584 
z
M 3366 4563 
L 3366 3988 
Q 3128 4100 2886 4159 
Q 2644 4219 2406 4219 
Q 1781 4219 1451 3797 
Q 1122 3375 1075 2522 
Q 1259 2794 1537 2939 
Q 1816 3084 2150 3084 
Q 2853 3084 3261 2657 
Q 3669 2231 3669 1497 
Q 3669 778 3244 343 
Q 2819 -91 2113 -91 
Q 1303 -91 875 529 
Q 447 1150 447 2328 
Q 447 3434 972 4092 
Q 1497 4750 2381 4750 
Q 2619 4750 2861 4703 
Q 3103 4656 3366 4563 
z
" transform="scale(0.015625)"/>
       </defs>
       <use xlink:href="#DejaVuSans-36"/>
       <use xlink:href="#DejaVuSans-30" x="63.623047"/>
      </g>
     </g>
    </g>
    <g id="ytick_6">
     <g id="line2d_15">
      <g>
       <use xlink:href="#m82f7886b62" x="57.6" y="97.818004" style="stroke: #000000; stroke-width: 0.8"/>
      </g>
     </g>
     <g id="text_16">
      <!-- 70 -->
      <g transform="translate(37.875 101.617222) scale(0.1 -0.1)">
       <use xlink:href="#DejaVuSans-37"/>
       <use xlink:href="#DejaVuSans-30" x="63.623047"/>
      </g>
     </g>
    </g>
    <g id="ytick_7">
     <g id="line2d_16">
      <g>
       <use xlink:href="#m82f7886b62" x="57.6" y="61.505329" style="stroke: #000000; stroke-width: 0.8"/>
      </g>
     </g>
     <g id="text_17">
      <!-- 80 -->
      <g transform="translate(37.875 65.304548) scale(0.1 -0.1)">
       <defs>
        <path id="DejaVuSans-38" d="M 2034 2216 
Q 1584 2216 1326 1975 
Q 1069 1734 1069 1313 
Q 1069 891 1326 650 
Q 1584 409 2034 409 
Q 2484 409 2743 651 
Q 3003 894 3003 1313 
Q 3003 1734 2745 1975 
Q 2488 2216 2034 2216 
z
M 1403 2484 
Q 997 2584 770 2862 
Q 544 3141 544 3541 
Q 544 4100 942 4425 
Q 1341 4750 2034 4750 
Q 2731 4750 3128 4425 
Q 3525 4100 3525 3541 
Q 3525 3141 3298 2862 
Q 3072 2584 2669 2484 
Q 3125 2378 3379 2068 
Q 3634 1759 3634 1313 
Q 3634 634 3220 271 
Q 2806 -91 2034 -91 
Q 1263 -91 848 271 
Q 434 634 434 1313 
Q 434 1759 690 2068 
Q 947 2378 1403 2484 
z
M 1172 3481 
Q 1172 3119 1398 2916 
Q 1625 2713 2034 2713 
Q 2441 2713 2670 2916 
Q 2900 3119 2900 3481 
Q 2900 3844 2670 4047 
Q 2441 4250 2034 4250 
Q 1625 4250 1398 4047 
Q 1172 3844 1172 3481 
z
" transform="scale(0.015625)"/>
       </defs>
       <use xlink:href="#DejaVuSans-38"/>
       <use xlink:href="#DejaVuSans-30" x="63.623047"/>
      </g>
     </g>
    </g>
    <g id="text_18">
     <!-- Accuracy -->
     <g transform="translate(31.795312 197.356125) rotate(-90) scale(0.1 -0.1)">
      <defs>
       <path id="DejaVuSans-41" d="M 2188 4044 
L 1331 1722 
L 3047 1722 
L 2188 4044 
z
M 1831 4666 
L 2547 4666 
L 4325 0 
L 3669 0 
L 3244 1197 
L 1141 1197 
L 716 0 
L 50 0 
L 1831 4666 
z
" transform="scale(0.015625)"/>
       <path id="DejaVuSans-75" d="M 544 1381 
L 544 3500 
L 1119 3500 
L 1119 1403 
Q 1119 906 1312 657 
Q 1506 409 1894 409 
Q 2359 409 2629 706 
Q 2900 1003 2900 1516 
L 2900 3500 
L 3475 3500 
L 3475 0 
L 2900 0 
L 2900 538 
Q 2691 219 2414 64 
Q 2138 -91 1772 -91 
Q 1169 -91 856 284 
Q 544 659 544 1381 
z
M 1991 3584 
L 1991 3584 
z
" transform="scale(0.015625)"/>
       <path id="DejaVuSans-72" d="M 2631 2963 
Q 2534 3019 2420 3045 
Q 2306 3072 2169 3072 
Q 1681 3072 1420 2755 
Q 1159 2438 1159 1844 
L 1159 0 
L 581 0 
L 581 3500 
L 1159 3500 
L 1159 2956 
Q 1341 3275 1631 3429 
Q 1922 3584 2338 3584 
Q 2397 3584 2469 3576 
Q 2541 3569 2628 3553 
L 2631 2963 
z
" transform="scale(0.015625)"/>
       <path id="DejaVuSans-61" d="M 2194 1759 
Q 1497 1759 1228 1600 
Q 959 1441 959 1056 
Q 959 750 1161 570 
Q 1363 391 1709 391 
Q 2188 391 2477 730 
Q 2766 1069 2766 1631 
L 2766 1759 
L 2194 1759 
z
M 3341 1997 
L 3341 0 
L 2766 0 
L 2766 531 
Q 2569 213 2275 61 
Q 1981 -91 1556 -91 
Q 1019 -91 701 211 
Q 384 513 384 1019 
Q 384 1609 779 1909 
Q 1175 2209 1959 2209 
L 2766 2209 
L 2766 2266 
Q 2766 2663 2505 2880 
Q 2244 3097 1772 3097 
Q 1472 3097 1187 3025 
Q 903 2953 641 2809 
L 641 3341 
Q 956 3463 1253 3523 
Q 1550 3584 1831 3584 
Q 2591 3584 2966 3190 
Q 3341 2797 3341 1997 
z
" transform="scale(0.015625)"/>
       <path id="DejaVuSans-79" d="M 2059 -325 
Q 1816 -950 1584 -1140 
Q 1353 -1331 966 -1331 
L 506 -1331 
L 506 -850 
L 844 -850 
Q 1081 -850 1212 -737 
Q 1344 -625 1503 -206 
L 1606 56 
L 191 3500 
L 800 3500 
L 1894 763 
L 2988 3500 
L 3597 3500 
L 2059 -325 
z
" transform="scale(0.015625)"/>
      </defs>
      <use xlink:href="#DejaVuSans-41"/>
      <use xlink:href="#DejaVuSans-63" x="66.658203"/>
      <use xlink:href="#DejaVuSans-63" x="121.638672"/>
      <use xlink:href="#DejaVuSans-75" x="176.619141"/>
      <use xlink:href="#DejaVuSans-72" x="239.998047"/>
      <use xlink:href="#DejaVuSans-61" x="281.111328"/>
      <use xlink:href="#DejaVuSans-63" x="342.390625"/>
      <use xlink:href="#DejaVuSans-79" x="397.371094"/>
     </g>
    </g>
   </g>
   <g id="line2d_17">
    <path d="M 73.832727 251.879972 
L 75.464157 233.068191 
L 77.095587 237.558616 
L 78.727017 234.949324 
L 80.358447 236.041617 
L 81.989877 240.107374 
L 83.621307 228.638297 
L 85.252736 225.422101 
L 86.884166 221.659759 
L 88.515596 214.68122 
L 90.147026 208.91634 
L 91.778456 205.760827 
L 93.409886 203.394192 
L 95.041316 197.99341 
L 96.672746 196.719068 
L 98.304175 192.592628 
L 99.935605 192.22853 
L 101.567035 190.832822 
L 103.198465 192.774677 
L 104.829895 190.225993 
L 106.461325 182.033795 
L 108.092755 183.247454 
L 109.724185 183.065405 
L 111.355614 184.097015 
L 112.987044 177.17916 
L 114.618474 177.057794 
L 116.249904 174.751842 
L 117.881334 176.754379 
L 119.512764 174.266378 
L 121.144194 170.200621 
L 122.775624 171.353597 
L 124.407053 166.438278 
L 127.669913 167.955352 
L 129.301343 169.290377 
L 130.932773 165.163936 
L 132.564203 161.340911 
L 134.195633 161.94774 
L 135.827063 161.098179 
L 137.458492 159.823837 
L 139.089922 155.15125 
L 140.721352 156.78969 
L 142.352782 156.546958 
L 143.984212 155.940129 
L 145.615642 153.937592 
L 147.247072 152.117103 
L 148.878502 148.718858 
L 150.509931 150.296615 
L 152.141361 148.779541 
L 155.404221 147.747931 
L 157.035651 147.869297 
L 158.667081 141.194173 
L 160.298511 138.888221 
L 161.929941 144.106954 
L 163.56137 139.009587 
L 165.1928 138.584806 
L 166.82423 136.460903 
L 168.45566 132.819927 
L 170.08709 133.062658 
L 171.71852 130.756706 
L 173.34995 134.276317 
L 174.98138 130.817389 
L 176.61281 125.720022 
L 178.244239 121.654265 
L 179.875669 126.812315 
L 181.507099 121.472216 
L 183.138529 120.137191 
L 184.769959 121.593582 
L 186.401389 127.661876 
L 188.032819 119.28763 
L 189.664249 118.6808 
L 191.295678 117.891922 
L 192.927108 115.525287 
L 194.558538 114.675726 
L 196.189968 109.639041 
L 197.821398 109.456993 
L 199.452828 109.153578 
L 201.084258 109.881773 
L 202.715688 108.850163 
L 204.347117 110.549286 
L 205.978547 106.483528 
L 207.609977 106.847626 
L 209.241407 102.963918 
L 210.872837 101.628893 
L 212.504267 100.96138 
L 214.135697 95.681964 
L 215.767127 97.987916 
L 217.398556 93.861476 
L 219.029986 96.531525 
L 220.661416 95.499915 
L 222.292846 90.948694 
L 223.924276 96.228111 
L 225.555706 93.13328 
L 227.187136 87.368401 
L 228.818566 93.315329 
L 230.449995 92.587134 
L 232.081425 89.249572 
L 233.712855 88.703425 
L 235.344285 93.13328 
L 236.975715 86.518839 
L 238.607145 87.004303 
L 240.238575 87.368401 
L 241.870005 89.977767 
L 243.501434 85.30518 
L 245.132864 89.674352 
L 246.764294 79.418935 
L 248.395724 79.297569 
L 250.027154 84.27357 
L 251.658584 83.606058 
L 253.290014 80.450545 
L 254.921444 80.450545 
L 256.552873 74.928397 
L 258.184303 78.751422 
L 259.815733 77.659129 
L 261.447163 75.838641 
L 263.078593 76.142056 
L 264.710023 72.986543 
L 266.341453 73.047225 
L 267.972883 69.952395 
L 269.604312 74.98908 
L 271.235742 73.047225 
L 272.867172 70.498542 
L 276.130032 68.253273 
L 277.761462 67.889175 
L 279.392892 68.556687 
L 281.024322 71.954932 
L 282.655751 67.343029 
L 284.287181 72.561762 
L 285.918611 67.889175 
L 287.550041 69.2242 
L 289.181471 68.799419 
L 290.812901 69.102834 
L 292.444331 64.551613 
L 294.075761 61.699515 
L 295.70719 68.678053 
L 297.33862 63.944784 
L 298.97005 63.580686 
L 300.60148 63.45932 
L 302.23291 64.794345 
L 303.86434 60.78927 
L 305.49577 60.546539 
L 307.1272 60.607222 
L 308.75863 65.765272 
L 310.390059 59.272197 
L 312.021489 64.672979 
L 313.652919 59.75766 
L 315.284349 64.248198 
L 316.915779 57.451709 
L 318.547209 62.002929 
L 320.178639 58.786733 
L 321.810069 57.69444 
L 323.441498 58.544002 
L 325.072928 60.607222 
L 326.704358 54.478244 
L 328.335788 57.26966 
L 329.967218 55.63122 
L 331.598648 60.121758 
L 333.230078 60.36449 
L 334.861508 54.417561 
L 336.492937 55.570537 
L 338.124367 55.388488 
L 339.755797 56.420098 
L 341.387227 60.243124 
L 343.018657 63.398637 
L 344.650087 56.541464 
L 346.281517 59.272197 
L 347.912947 62.549076 
L 349.544376 62.670442 
L 351.175806 59.454246 
L 352.807236 59.939709 
L 354.438666 57.330343 
L 356.070096 56.66283 
L 357.701526 58.179904 
L 359.332956 56.541464 
L 360.964386 61.3961 
L 362.595815 62.124295 
L 365.858675 55.63122 
L 367.490105 59.090148 
L 369.121535 60.36449 
L 370.752965 55.934635 
L 372.384395 60.000392 
L 374.015825 55.570537 
L 375.647254 61.517466 
L 377.278684 58.058538 
L 378.910114 58.968782 
L 380.541544 56.056001 
L 382.172974 57.148294 
L 385.435834 57.451709 
L 387.067264 58.30127 
L 388.698693 55.570537 
L 390.330123 57.391026 
L 391.961553 57.148294 
L 393.592983 53.568 
L 395.224413 55.449171 
L 396.855843 59.272197 
L 398.487273 54.963708 
L 398.487273 54.963708 
" clip-path="url(#p10dea2a71e)" style="fill: none; stroke: #1f77b4; stroke-width: 1.5; stroke-linecap: square"/>
   </g>
   <g id="line2d_18">
    <path d="M 73.832727 233.875422 
L 77.095587 233.875422 
L 78.727017 213.256893 
L 80.358447 210.831197 
L 81.989877 211.316336 
L 83.621307 184.876246 
L 85.252736 213.014324 
L 86.884166 185.361385 
L 88.515596 257.889706 
L 90.147026 174.445752 
L 91.778456 178.812005 
L 93.409886 161.346991 
L 95.041316 208.89064 
L 96.672746 181.96541 
L 98.304175 190.212778 
L 99.935605 184.391107 
L 101.567035 160.376713 
L 103.198465 182.45055 
L 104.829895 175.90117 
L 106.461325 149.703649 
L 108.092755 203.068969 
L 109.724185 148.005661 
L 111.355614 165.955814 
L 112.987044 138.788015 
L 114.618474 148.73337 
L 116.249904 197.004728 
L 117.881334 148.005661 
L 119.512764 167.168663 
L 121.144194 161.589561 
L 122.775624 147.520522 
L 124.407053 172.505195 
L 126.038483 154.555042 
L 127.669913 131.753496 
L 129.301343 167.411232 
L 130.932773 154.069902 
L 132.564203 142.669129 
L 134.195633 174.203182 
L 135.827063 154.555042 
L 137.458492 295.488 
L 139.089922 162.802409 
L 140.721352 144.124547 
L 142.352782 160.134143 
L 143.984212 131.510926 
L 145.615642 188.514791 
L 148.878502 117.927027 
L 150.509931 133.451483 
L 152.141361 161.346991 
L 153.772791 143.639408 
L 155.404221 143.154269 
L 157.035651 142.18399 
L 158.667081 108.224241 
L 160.298511 133.936623 
L 161.929941 112.833064 
L 163.56137 120.837862 
L 165.1928 110.407368 
L 166.82423 121.323001 
L 168.45566 176.871448 
L 170.08709 148.490801 
L 171.71852 138.545446 
L 173.34995 100.947152 
L 174.98138 214.954881 
L 176.61281 107.739102 
L 178.244239 143.639408 
L 179.875669 136.362319 
L 181.507099 140.971142 
L 183.138529 123.748698 
L 184.769959 109.679659 
L 186.401389 143.396838 
L 188.032819 116.714178 
L 189.664249 124.718976 
L 191.295678 111.377646 
L 192.927108 118.654735 
L 194.558538 148.248231 
L 196.189968 108.70938 
L 197.821398 121.323001 
L 199.452828 140.000863 
L 201.084258 122.29328 
L 202.715688 128.84266 
L 204.347117 113.803343 
L 205.978547 103.857988 
L 207.609977 98.764025 
L 209.241407 138.302876 
L 210.872837 90.759227 
L 212.504267 106.526254 
L 214.135697 129.08523 
L 215.767127 94.397772 
L 217.398556 97.308608 
L 219.029986 95.85319 
L 220.661416 98.036316 
L 222.292846 86.392974 
L 223.924276 133.208914 
L 225.555706 102.40257 
L 227.187136 102.887709 
L 228.818566 91.729506 
L 230.449995 98.764025 
L 232.081425 120.837862 
L 233.712855 104.100557 
L 235.344285 93.427493 
L 236.975715 103.130279 
L 238.607145 78.630746 
L 240.238575 152.614484 
L 241.870005 125.689255 
L 243.501434 77.903037 
L 245.132864 94.155202 
L 246.764294 120.837862 
L 248.395724 89.788949 
L 250.027154 84.452417 
L 251.658584 88.81867 
L 253.290014 125.931825 
L 254.921444 98.521456 
L 256.552873 98.521456 
L 258.184303 102.887709 
L 259.815733 95.36805 
L 261.447163 101.189722 
L 263.078593 82.02672 
L 264.710023 82.754429 
L 266.341453 69.898239 
L 267.972883 102.16 
L 269.604312 72.566505 
L 271.235742 76.932758 
L 272.867172 87.120683 
L 274.498602 86.635544 
L 276.130032 73.536783 
L 277.761462 81.784151 
L 279.392892 73.051644 
L 281.024322 86.878113 
L 282.655751 91.972076 
L 284.287181 73.779353 
L 285.918611 85.422695 
L 287.550041 112.105355 
L 289.181471 80.571303 
L 290.812901 81.541581 
L 292.444331 89.30381 
L 294.075761 87.605822 
L 295.70719 78.388176 
L 297.33862 80.813872 
L 298.97005 88.333531 
L 300.60148 90.274088 
L 302.23291 74.749631 
L 303.86434 94.882911 
L 305.49577 73.051644 
L 307.1272 69.17053 
L 308.75863 75.96248 
L 310.390059 79.358454 
L 312.021489 67.715112 
L 313.652919 76.690188 
L 315.284349 77.660467 
L 316.915779 68.200251 
L 318.547209 87.848392 
L 320.178639 86.150404 
L 321.810069 77.417897 
L 323.441498 65.531985 
L 325.072928 66.017124 
L 326.704358 71.111087 
L 328.335788 72.566505 
L 329.967218 66.987403 
L 331.598648 67.957682 
L 333.230078 73.779353 
L 334.861508 67.715112 
L 336.492937 65.046846 
L 338.124367 67.229973 
L 339.755797 71.596226 
L 341.387227 74.749631 
L 343.018657 70.868517 
L 344.650087 71.596226 
L 346.281517 82.996999 
L 347.912947 76.932758 
L 349.544376 74.992201 
L 351.175806 78.388176 
L 352.807236 77.175328 
L 354.438666 72.081365 
L 356.070096 70.868517 
L 357.701526 83.482138 
L 359.332956 72.323935 
L 360.964386 66.017124 
L 362.595815 74.992201 
L 364.227245 65.774555 
L 365.858675 67.715112 
L 367.490105 81.541581 
L 369.121535 80.328733 
L 370.752965 69.413099 
L 372.384395 69.898239 
L 374.015825 85.665265 
L 375.647254 74.992201 
L 377.278684 70.383378 
L 378.910114 85.180126 
L 380.541544 79.601024 
L 382.172974 76.932758 
L 383.804404 81.784151 
L 385.435834 68.68539 
L 387.067264 89.06124 
L 388.698693 78.873315 
L 390.330123 79.601024 
L 391.961553 90.274088 
L 393.592983 61.893441 
L 395.224413 72.566505 
L 396.855843 69.655669 
L 398.487273 67.957682 
L 398.487273 67.957682 
" clip-path="url(#p10dea2a71e)" style="fill: none; stroke: #ff7f0e; stroke-width: 1.5; stroke-linecap: square"/>
   </g>
   <g id="line2d_19">
    <path d="M 73.832727 236.140607 
L 75.464157 244.501963 
L 77.095587 232.557272 
L 78.727017 225.390163 
L 80.358447 225.987411 
L 81.989877 224.792915 
L 83.621307 217.62594 
L 85.252736 224.195667 
L 86.884166 213.445204 
L 88.515596 254.655312 
L 90.147026 205.680981 
L 91.778456 211.65346 
L 93.409886 200.902997 
L 95.041316 224.195667 
L 96.672746 222.403923 
L 98.304175 217.028692 
L 99.935605 224.792915 
L 101.567035 198.514006 
L 103.198465 209.264469 
L 104.829895 203.291989 
L 106.461325 188.958039 
L 108.092755 225.987411 
L 109.724185 192.541526 
L 111.355614 211.65346 
L 112.987044 189.555287 
L 114.618474 189.555287 
L 116.249904 220.014931 
L 117.881334 194.33327 
L 119.512764 203.889237 
L 121.144194 194.930518 
L 122.775624 200.305749 
L 124.407053 219.417683 
L 126.038483 194.930518 
L 127.669913 184.180055 
L 129.301343 206.875477 
L 130.932773 198.514006 
L 132.564203 194.33327 
L 134.195633 210.458964 
L 135.827063 198.514006 
L 137.458492 282.128717 
L 139.089922 208.069973 
L 140.721352 184.180055 
L 142.352782 212.250708 
L 143.984212 191.944278 
L 145.615642 216.431444 
L 147.247072 198.514006 
L 148.878502 175.818584 
L 150.509931 178.804824 
L 152.141361 195.527766 
L 153.772791 189.555287 
L 155.404221 195.527766 
L 157.035651 184.180055 
L 158.667081 176.415832 
L 160.298511 181.791063 
L 161.929941 166.859865 
L 163.56137 171.637849 
L 165.1928 184.777303 
L 166.82423 188.958039 
L 168.45566 201.500245 
L 170.08709 188.360791 
L 171.71852 181.193816 
L 173.34995 178.804824 
L 174.98138 235.543378 
L 176.61281 174.02684 
L 178.244239 184.777303 
L 179.875669 191.34703 
L 181.507099 189.555287 
L 183.138529 181.193816 
L 184.769959 174.624088 
L 186.401389 189.555287 
L 188.032819 162.081882 
L 189.664249 175.818584 
L 191.295678 179.99932 
L 192.927108 176.415832 
L 194.558538 195.527766 
L 196.189968 176.415832 
L 197.821398 179.99932 
L 199.452828 179.402072 
L 201.084258 181.791063 
L 202.715688 166.859865 
L 204.347117 173.429592 
L 205.978547 172.832344 
L 207.609977 175.818584 
L 209.241407 185.374551 
L 210.872837 148.345179 
L 212.504267 168.651609 
L 214.135697 184.777303 
L 215.767127 155.512154 
L 217.398556 166.262617 
L 219.029986 166.262617 
L 220.661416 163.276377 
L 222.292846 166.262617 
L 223.924276 198.514006 
L 225.555706 159.095642 
L 227.187136 163.873625 
L 228.818566 150.136923 
L 230.449995 165.068121 
L 232.081425 171.040601 
L 233.712855 172.832344 
L 235.344285 170.443353 
L 236.975715 174.02684 
L 238.607145 139.983708 
L 240.238575 182.985559 
L 241.870005 171.040601 
L 243.501434 152.525915 
L 245.132864 155.512154 
L 246.764294 172.832344 
L 248.395724 156.70665 
L 250.027154 150.734171 
L 251.658584 147.747931 
L 253.290014 177.610328 
L 254.921444 160.290138 
L 256.552873 150.136923 
L 258.184303 157.901146 
L 259.815733 156.70665 
L 261.447163 160.290138 
L 263.078593 145.956187 
L 264.710023 138.191964 
L 266.341453 135.802972 
L 267.972883 162.081882 
L 269.604312 137.594716 
L 271.235742 142.969948 
L 272.867172 152.525915 
L 274.498602 149.539675 
L 276.130032 139.38646 
L 277.761462 145.358939 
L 279.392892 132.219485 
L 281.024322 144.164444 
L 282.655751 149.539675 
L 284.287181 140.580956 
L 285.918611 138.789212 
L 287.550041 166.859865 
L 289.181471 141.178204 
L 290.812901 147.747931 
L 292.444331 151.928667 
L 294.075761 148.345179 
L 295.70719 133.413981 
L 297.33862 135.802972 
L 300.60148 155.512154 
L 302.23291 136.997468 
L 303.86434 148.345179 
L 305.49577 136.40022 
L 307.1272 134.011229 
L 308.75863 142.3727 
L 310.390059 148.345179 
L 312.021489 134.011229 
L 313.652919 142.969948 
L 315.284349 140.580956 
L 316.915779 120.274526 
L 318.547209 147.747931 
L 320.178639 142.3727 
L 321.810069 132.816733 
L 323.441498 131.024989 
L 325.072928 132.816733 
L 326.704358 128.038749 
L 328.335788 130.427741 
L 329.967218 127.441501 
L 331.598648 127.441501 
L 333.230078 135.802972 
L 334.861508 133.413981 
L 336.492937 124.455262 
L 338.124367 132.816733 
L 339.755797 128.635997 
L 341.387227 136.997468 
L 343.018657 124.455262 
L 344.650087 138.191964 
L 346.281517 143.567196 
L 347.912947 145.358939 
L 349.544376 136.997468 
L 351.175806 139.983708 
L 352.807236 141.775452 
L 354.438666 135.205725 
L 356.070096 135.802972 
L 357.701526 147.747931 
L 359.332956 133.413981 
L 360.964386 129.830493 
L 362.595815 134.011229 
L 364.227245 122.663518 
L 365.858675 129.233245 
L 367.490105 139.983708 
L 369.121535 137.594716 
L 370.752965 135.802972 
L 372.384395 140.580956 
L 374.015825 145.956187 
L 375.647254 134.608477 
L 377.278684 131.622237 
L 378.910114 142.3727 
L 380.541544 148.345179 
L 382.172974 139.38646 
L 383.804404 145.358939 
L 385.435834 131.024989 
L 387.067264 151.331419 
L 388.698693 139.38646 
L 390.330123 145.358939 
L 391.961553 150.734171 
L 393.592983 122.06627 
L 395.224413 135.802972 
L 396.855843 123.260766 
L 398.487273 126.844253 
L 398.487273 126.844253 
" clip-path="url(#p10dea2a71e)" style="fill: none; stroke: #2ca02c; stroke-width: 1.5; stroke-linecap: square"/>
   </g>
   <g id="line2d_20">
    <path d="M 73.832727 233.875422 
L 77.095587 233.875422 
L 78.727017 213.256893 
L 80.358447 210.831197 
L 81.989877 211.316336 
L 83.621307 184.876246 
L 85.252736 213.014324 
L 86.884166 185.361385 
L 88.515596 257.889706 
L 90.147026 174.445752 
L 91.778456 178.812005 
L 93.409886 161.346991 
L 95.041316 208.89064 
L 96.672746 181.96541 
L 98.304175 190.212778 
L 99.935605 184.391107 
L 101.567035 160.376713 
L 103.198465 182.45055 
L 104.829895 175.90117 
L 106.461325 149.703649 
L 108.092755 203.068969 
L 109.724185 148.005661 
L 111.355614 165.955814 
L 112.987044 138.788015 
L 114.618474 148.73337 
L 116.249904 197.004728 
L 117.881334 148.005661 
L 119.512764 167.168663 
L 121.144194 161.589561 
L 122.775624 147.520522 
L 124.407053 172.505195 
L 126.038483 154.555042 
L 127.669913 131.753496 
L 129.301343 167.411232 
L 130.932773 154.069902 
L 132.564203 142.669129 
L 134.195633 174.203182 
L 135.827063 154.555042 
L 137.458492 295.488 
L 139.089922 162.802409 
L 140.721352 144.124547 
L 142.352782 160.134143 
L 143.984212 131.510926 
L 145.615642 188.514791 
L 148.878502 117.927027 
L 150.509931 133.451483 
L 152.141361 161.346991 
L 153.772791 143.639408 
L 155.404221 143.154269 
L 157.035651 142.18399 
L 158.667081 108.224241 
L 160.298511 133.936623 
L 161.929941 112.833064 
L 163.56137 120.837862 
L 165.1928 110.407368 
L 166.82423 121.323001 
L 168.45566 176.871448 
L 170.08709 148.490801 
L 171.71852 138.545446 
L 173.34995 100.947152 
L 174.98138 214.954881 
L 176.61281 107.739102 
L 178.244239 143.639408 
L 179.875669 136.362319 
L 181.507099 140.971142 
L 183.138529 123.748698 
L 184.769959 109.679659 
L 186.401389 143.396838 
L 188.032819 116.714178 
L 189.664249 124.718976 
L 191.295678 111.377646 
L 192.927108 118.654735 
L 194.558538 148.248231 
L 196.189968 108.70938 
L 197.821398 121.323001 
L 199.452828 140.000863 
L 201.084258 122.29328 
L 202.715688 128.84266 
L 204.347117 113.803343 
L 205.978547 103.857988 
L 207.609977 98.764025 
L 209.241407 138.302876 
L 210.872837 90.759227 
L 212.504267 106.526254 
L 214.135697 129.08523 
L 215.767127 94.397772 
L 217.398556 97.308608 
L 219.029986 95.85319 
L 220.661416 98.036316 
L 222.292846 86.392974 
L 223.924276 133.208914 
L 225.555706 102.40257 
L 227.187136 102.887709 
L 228.818566 91.729506 
L 230.449995 98.764025 
L 232.081425 120.837862 
L 233.712855 104.100557 
L 235.344285 93.427493 
L 236.975715 103.130279 
L 238.607145 78.630746 
L 240.238575 152.614484 
L 241.870005 125.689255 
L 243.501434 77.903037 
L 245.132864 94.155202 
L 246.764294 120.837862 
L 248.395724 89.788949 
L 250.027154 84.452417 
L 251.658584 88.81867 
L 253.290014 125.931825 
L 254.921444 98.521456 
L 256.552873 98.521456 
L 258.184303 102.887709 
L 259.815733 95.36805 
L 261.447163 101.189722 
L 263.078593 82.02672 
L 264.710023 82.754429 
L 266.341453 69.898239 
L 267.972883 102.16 
L 269.604312 72.566505 
L 271.235742 76.932758 
L 272.867172 87.120683 
L 274.498602 86.635544 
L 276.130032 73.536783 
L 277.761462 81.784151 
L 279.392892 73.051644 
L 281.024322 86.878113 
L 282.655751 91.972076 
L 284.287181 73.779353 
L 285.918611 85.422695 
L 287.550041 112.105355 
L 289.181471 80.571303 
L 290.812901 81.541581 
L 292.444331 89.30381 
L 294.075761 87.605822 
L 295.70719 78.388176 
L 297.33862 80.813872 
L 298.97005 88.333531 
L 300.60148 90.274088 
L 302.23291 74.749631 
L 303.86434 94.882911 
L 305.49577 73.051644 
L 307.1272 69.17053 
L 308.75863 75.96248 
L 310.390059 79.358454 
L 312.021489 67.715112 
L 313.652919 76.690188 
L 315.284349 77.660467 
L 316.915779 68.200251 
L 318.547209 87.848392 
L 320.178639 86.150404 
L 321.810069 77.417897 
L 323.441498 65.531985 
L 325.072928 66.017124 
L 326.704358 71.111087 
L 328.335788 72.566505 
L 329.967218 66.987403 
L 331.598648 67.957682 
L 333.230078 73.779353 
L 334.861508 67.715112 
L 336.492937 65.046846 
L 338.124367 66.502264 
L 339.755797 73.536783 
L 341.387227 70.868517 
L 343.018657 77.903037 
L 344.650087 64.076567 
L 346.281517 76.690188 
L 347.912947 98.278886 
L 349.544376 121.565571 
L 351.175806 90.516658 
L 352.807236 87.120683 
L 354.438666 86.392974 
L 356.070096 81.784151 
L 357.701526 84.937556 
L 359.332956 96.095759 
L 360.964386 77.417897 
L 362.595815 109.437089 
L 364.227245 75.96248 
L 365.858675 77.175328 
L 367.490105 71.353656 
L 369.121535 79.601024 
L 370.752965 81.299012 
L 372.384395 81.299012 
L 374.015825 97.551177 
L 375.647254 130.783217 
L 377.278684 82.996999 
L 378.910114 85.180126 
L 380.541544 102.16 
L 382.172974 108.224241 
L 383.804404 105.070836 
L 385.435834 139.273155 
L 387.067264 99.734304 
L 388.698693 158.436156 
L 390.330123 142.911699 
L 393.592983 124.961546 
L 395.224413 128.84266 
L 396.855843 144.124547 
L 398.487273 115.258761 
L 398.487273 115.258761 
" clip-path="url(#p10dea2a71e)" style="fill: none; stroke: #d62728; stroke-width: 1.5; stroke-linecap: square"/>
   </g>
   <g id="patch_3">
    <path d="M 57.6 307.584 
L 57.6 41.472 
" style="fill: none; stroke: #000000; stroke-width: 0.8; stroke-linejoin: miter; stroke-linecap: square"/>
   </g>
   <g id="patch_4">
    <path d="M 414.72 307.584 
L 414.72 41.472 
" style="fill: none; stroke: #000000; stroke-width: 0.8; stroke-linejoin: miter; stroke-linecap: square"/>
   </g>
   <g id="patch_5">
    <path d="M 57.6 307.584 
L 414.72 307.584 
" style="fill: none; stroke: #000000; stroke-width: 0.8; stroke-linejoin: miter; stroke-linecap: square"/>
   </g>
   <g id="patch_6">
    <path d="M 57.6 41.472 
L 414.72 41.472 
" style="fill: none; stroke: #000000; stroke-width: 0.8; stroke-linejoin: miter; stroke-linecap: square"/>
   </g>
   <g id="text_19">
    <!-- Learning Curves -->
    <g transform="translate(187.37625 35.472) scale(0.12 -0.12)">
     <defs>
      <path id="DejaVuSans-4c" d="M 628 4666 
L 1259 4666 
L 1259 531 
L 3531 531 
L 3531 0 
L 628 0 
L 628 4666 
z
" transform="scale(0.015625)"/>
      <path id="DejaVuSans-65" d="M 3597 1894 
L 3597 1613 
L 953 1613 
Q 991 1019 1311 708 
Q 1631 397 2203 397 
Q 2534 397 2845 478 
Q 3156 559 3463 722 
L 3463 178 
Q 3153 47 2828 -22 
Q 2503 -91 2169 -91 
Q 1331 -91 842 396 
Q 353 884 353 1716 
Q 353 2575 817 3079 
Q 1281 3584 2069 3584 
Q 2775 3584 3186 3129 
Q 3597 2675 3597 1894 
z
M 3022 2063 
Q 3016 2534 2758 2815 
Q 2500 3097 2075 3097 
Q 1594 3097 1305 2825 
Q 1016 2553 972 2059 
L 3022 2063 
z
" transform="scale(0.015625)"/>
      <path id="DejaVuSans-6e" d="M 3513 2113 
L 3513 0 
L 2938 0 
L 2938 2094 
Q 2938 2591 2744 2837 
Q 2550 3084 2163 3084 
Q 1697 3084 1428 2787 
Q 1159 2491 1159 1978 
L 1159 0 
L 581 0 
L 581 3500 
L 1159 3500 
L 1159 2956 
Q 1366 3272 1645 3428 
Q 1925 3584 2291 3584 
Q 2894 3584 3203 3211 
Q 3513 2838 3513 2113 
z
" transform="scale(0.015625)"/>
      <path id="DejaVuSans-69" d="M 603 3500 
L 1178 3500 
L 1178 0 
L 603 0 
L 603 3500 
z
M 603 4863 
L 1178 4863 
L 1178 4134 
L 603 4134 
L 603 4863 
z
" transform="scale(0.015625)"/>
      <path id="DejaVuSans-67" d="M 2906 1791 
Q 2906 2416 2648 2759 
Q 2391 3103 1925 3103 
Q 1463 3103 1205 2759 
Q 947 2416 947 1791 
Q 947 1169 1205 825 
Q 1463 481 1925 481 
Q 2391 481 2648 825 
Q 2906 1169 2906 1791 
z
M 3481 434 
Q 3481 -459 3084 -895 
Q 2688 -1331 1869 -1331 
Q 1566 -1331 1297 -1286 
Q 1028 -1241 775 -1147 
L 775 -588 
Q 1028 -725 1275 -790 
Q 1522 -856 1778 -856 
Q 2344 -856 2625 -561 
Q 2906 -266 2906 331 
L 2906 616 
Q 2728 306 2450 153 
Q 2172 0 1784 0 
Q 1141 0 747 490 
Q 353 981 353 1791 
Q 353 2603 747 3093 
Q 1141 3584 1784 3584 
Q 2172 3584 2450 3431 
Q 2728 3278 2906 2969 
L 2906 3500 
L 3481 3500 
L 3481 434 
z
" transform="scale(0.015625)"/>
      <path id="DejaVuSans-20" transform="scale(0.015625)"/>
      <path id="DejaVuSans-43" d="M 4122 4306 
L 4122 3641 
Q 3803 3938 3442 4084 
Q 3081 4231 2675 4231 
Q 1875 4231 1450 3742 
Q 1025 3253 1025 2328 
Q 1025 1406 1450 917 
Q 1875 428 2675 428 
Q 3081 428 3442 575 
Q 3803 722 4122 1019 
L 4122 359 
Q 3791 134 3420 21 
Q 3050 -91 2638 -91 
Q 1578 -91 968 557 
Q 359 1206 359 2328 
Q 359 3453 968 4101 
Q 1578 4750 2638 4750 
Q 3056 4750 3426 4639 
Q 3797 4528 4122 4306 
z
" transform="scale(0.015625)"/>
      <path id="DejaVuSans-76" d="M 191 3500 
L 800 3500 
L 1894 563 
L 2988 3500 
L 3597 3500 
L 2284 0 
L 1503 0 
L 191 3500 
z
" transform="scale(0.015625)"/>
     </defs>
     <use xlink:href="#DejaVuSans-4c"/>
     <use xlink:href="#DejaVuSans-65" x="53.962891"/>
     <use xlink:href="#DejaVuSans-61" x="115.486328"/>
     <use xlink:href="#DejaVuSans-72" x="176.765625"/>
     <use xlink:href="#DejaVuSans-6e" x="216.128906"/>
     <use xlink:href="#DejaVuSans-69" x="279.507812"/>
     <use xlink:href="#DejaVuSans-6e" x="307.291016"/>
     <use xlink:href="#DejaVuSans-67" x="370.669922"/>
     <use xlink:href="#DejaVuSans-20" x="434.146484"/>
     <use xlink:href="#DejaVuSans-43" x="465.933594"/>
     <use xlink:href="#DejaVuSans-75" x="535.757812"/>
     <use xlink:href="#DejaVuSans-72" x="599.136719"/>
     <use xlink:href="#DejaVuSans-76" x="640.25"/>
     <use xlink:href="#DejaVuSans-65" x="699.429688"/>
     <use xlink:href="#DejaVuSans-73" x="760.953125"/>
    </g>
   </g>
   <g id="legend_1">
    <g id="patch_7">
     <path d="M 239.893438 302.584 
L 407.72 302.584 
Q 409.72 302.584 409.72 300.584 
L 409.72 242.8715 
Q 409.72 240.8715 407.72 240.8715 
L 239.893438 240.8715 
Q 237.893438 240.8715 237.893438 242.8715 
L 237.893438 300.584 
Q 237.893438 302.584 239.893438 302.584 
z
" style="fill: #ffffff; opacity: 0.8; stroke: #cccccc; stroke-linejoin: miter"/>
    </g>
    <g id="line2d_21">
     <path d="M 241.893438 248.969937 
L 251.893438 248.969937 
L 261.893438 248.969937 
" style="fill: none; stroke: #1f77b4; stroke-width: 1.5; stroke-linecap: square"/>
    </g>
    <g id="text_20">
     <!-- Train Accuracy -->
     <g transform="translate(269.893438 252.469937) scale(0.1 -0.1)">
      <defs>
       <path id="DejaVuSans-54" d="M -19 4666 
L 3928 4666 
L 3928 4134 
L 2272 4134 
L 2272 0 
L 1638 0 
L 1638 4134 
L -19 4134 
L -19 4666 
z
" transform="scale(0.015625)"/>
      </defs>
      <use xlink:href="#DejaVuSans-54"/>
      <use xlink:href="#DejaVuSans-72" x="46.333984"/>
      <use xlink:href="#DejaVuSans-61" x="87.447266"/>
      <use xlink:href="#DejaVuSans-69" x="148.726562"/>
      <use xlink:href="#DejaVuSans-6e" x="176.509766"/>
      <use xlink:href="#DejaVuSans-20" x="239.888672"/>
      <use xlink:href="#DejaVuSans-41" x="271.675781"/>
      <use xlink:href="#DejaVuSans-63" x="338.333984"/>
      <use xlink:href="#DejaVuSans-63" x="393.314453"/>
      <use xlink:href="#DejaVuSans-75" x="448.294922"/>
      <use xlink:href="#DejaVuSans-72" x="511.673828"/>
      <use xlink:href="#DejaVuSans-61" x="552.787109"/>
      <use xlink:href="#DejaVuSans-63" x="614.066406"/>
      <use xlink:href="#DejaVuSans-79" x="669.046875"/>
     </g>
    </g>
    <g id="line2d_22">
     <path d="M 241.893438 263.648062 
L 251.893438 263.648062 
L 261.893438 263.648062 
" style="fill: none; stroke: #ff7f0e; stroke-width: 1.5; stroke-linecap: square"/>
    </g>
    <g id="text_21">
     <!-- Validation Accuracy -->
     <g transform="translate(269.893438 267.148062) scale(0.1 -0.1)">
      <defs>
       <path id="DejaVuSans-56" d="M 1831 0 
L 50 4666 
L 709 4666 
L 2188 738 
L 3669 4666 
L 4325 4666 
L 2547 0 
L 1831 0 
z
" transform="scale(0.015625)"/>
       <path id="DejaVuSans-6c" d="M 603 4863 
L 1178 4863 
L 1178 0 
L 603 0 
L 603 4863 
z
" transform="scale(0.015625)"/>
       <path id="DejaVuSans-64" d="M 2906 2969 
L 2906 4863 
L 3481 4863 
L 3481 0 
L 2906 0 
L 2906 525 
Q 2725 213 2448 61 
Q 2172 -91 1784 -91 
Q 1150 -91 751 415 
Q 353 922 353 1747 
Q 353 2572 751 3078 
Q 1150 3584 1784 3584 
Q 2172 3584 2448 3432 
Q 2725 3281 2906 2969 
z
M 947 1747 
Q 947 1113 1208 752 
Q 1469 391 1925 391 
Q 2381 391 2643 752 
Q 2906 1113 2906 1747 
Q 2906 2381 2643 2742 
Q 2381 3103 1925 3103 
Q 1469 3103 1208 2742 
Q 947 2381 947 1747 
z
" transform="scale(0.015625)"/>
       <path id="DejaVuSans-74" d="M 1172 4494 
L 1172 3500 
L 2356 3500 
L 2356 3053 
L 1172 3053 
L 1172 1153 
Q 1172 725 1289 603 
Q 1406 481 1766 481 
L 2356 481 
L 2356 0 
L 1766 0 
Q 1100 0 847 248 
Q 594 497 594 1153 
L 594 3053 
L 172 3053 
L 172 3500 
L 594 3500 
L 594 4494 
L 1172 4494 
z
" transform="scale(0.015625)"/>
      </defs>
      <use xlink:href="#DejaVuSans-56"/>
      <use xlink:href="#DejaVuSans-61" x="60.658203"/>
      <use xlink:href="#DejaVuSans-6c" x="121.9375"/>
      <use xlink:href="#DejaVuSans-69" x="149.720703"/>
      <use xlink:href="#DejaVuSans-64" x="177.503906"/>
      <use xlink:href="#DejaVuSans-61" x="240.980469"/>
      <use xlink:href="#DejaVuSans-74" x="302.259766"/>
      <use xlink:href="#DejaVuSans-69" x="341.46875"/>
      <use xlink:href="#DejaVuSans-6f" x="369.251953"/>
      <use xlink:href="#DejaVuSans-6e" x="430.433594"/>
      <use xlink:href="#DejaVuSans-20" x="493.8125"/>
      <use xlink:href="#DejaVuSans-41" x="525.599609"/>
      <use xlink:href="#DejaVuSans-63" x="592.257812"/>
      <use xlink:href="#DejaVuSans-63" x="647.238281"/>
      <use xlink:href="#DejaVuSans-75" x="702.21875"/>
      <use xlink:href="#DejaVuSans-72" x="765.597656"/>
      <use xlink:href="#DejaVuSans-61" x="806.710938"/>
      <use xlink:href="#DejaVuSans-63" x="867.990234"/>
      <use xlink:href="#DejaVuSans-79" x="922.970703"/>
     </g>
    </g>
    <g id="line2d_23">
     <path d="M 241.893438 278.326187 
L 251.893438 278.326187 
L 261.893438 278.326187 
" style="fill: none; stroke: #2ca02c; stroke-width: 1.5; stroke-linecap: square"/>
    </g>
    <g id="text_22">
     <!-- Robust Validation Accuracy -->
     <g transform="translate(269.893438 281.826187) scale(0.1 -0.1)">
      <defs>
       <path id="DejaVuSans-52" d="M 2841 2188 
Q 3044 2119 3236 1894 
Q 3428 1669 3622 1275 
L 4263 0 
L 3584 0 
L 2988 1197 
Q 2756 1666 2539 1819 
Q 2322 1972 1947 1972 
L 1259 1972 
L 1259 0 
L 628 0 
L 628 4666 
L 2053 4666 
Q 2853 4666 3247 4331 
Q 3641 3997 3641 3322 
Q 3641 2881 3436 2590 
Q 3231 2300 2841 2188 
z
M 1259 4147 
L 1259 2491 
L 2053 2491 
Q 2509 2491 2742 2702 
Q 2975 2913 2975 3322 
Q 2975 3731 2742 3939 
Q 2509 4147 2053 4147 
L 1259 4147 
z
" transform="scale(0.015625)"/>
       <path id="DejaVuSans-62" d="M 3116 1747 
Q 3116 2381 2855 2742 
Q 2594 3103 2138 3103 
Q 1681 3103 1420 2742 
Q 1159 2381 1159 1747 
Q 1159 1113 1420 752 
Q 1681 391 2138 391 
Q 2594 391 2855 752 
Q 3116 1113 3116 1747 
z
M 1159 2969 
Q 1341 3281 1617 3432 
Q 1894 3584 2278 3584 
Q 2916 3584 3314 3078 
Q 3713 2572 3713 1747 
Q 3713 922 3314 415 
Q 2916 -91 2278 -91 
Q 1894 -91 1617 61 
Q 1341 213 1159 525 
L 1159 0 
L 581 0 
L 581 4863 
L 1159 4863 
L 1159 2969 
z
" transform="scale(0.015625)"/>
      </defs>
      <use xlink:href="#DejaVuSans-52"/>
      <use xlink:href="#DejaVuSans-6f" x="64.982422"/>
      <use xlink:href="#DejaVuSans-62" x="126.164062"/>
      <use xlink:href="#DejaVuSans-75" x="189.640625"/>
      <use xlink:href="#DejaVuSans-73" x="253.019531"/>
      <use xlink:href="#DejaVuSans-74" x="305.119141"/>
      <use xlink:href="#DejaVuSans-20" x="344.328125"/>
      <use xlink:href="#DejaVuSans-56" x="376.115234"/>
      <use xlink:href="#DejaVuSans-61" x="436.773438"/>
      <use xlink:href="#DejaVuSans-6c" x="498.052734"/>
      <use xlink:href="#DejaVuSans-69" x="525.835938"/>
      <use xlink:href="#DejaVuSans-64" x="553.619141"/>
      <use xlink:href="#DejaVuSans-61" x="617.095703"/>
      <use xlink:href="#DejaVuSans-74" x="678.375"/>
      <use xlink:href="#DejaVuSans-69" x="717.583984"/>
      <use xlink:href="#DejaVuSans-6f" x="745.367188"/>
      <use xlink:href="#DejaVuSans-6e" x="806.548828"/>
      <use xlink:href="#DejaVuSans-20" x="869.927734"/>
      <use xlink:href="#DejaVuSans-41" x="901.714844"/>
      <use xlink:href="#DejaVuSans-63" x="968.373047"/>
      <use xlink:href="#DejaVuSans-63" x="1023.353516"/>
      <use xlink:href="#DejaVuSans-75" x="1078.333984"/>
      <use xlink:href="#DejaVuSans-72" x="1141.712891"/>
      <use xlink:href="#DejaVuSans-61" x="1182.826172"/>
      <use xlink:href="#DejaVuSans-63" x="1244.105469"/>
      <use xlink:href="#DejaVuSans-79" x="1299.085938"/>
     </g>
    </g>
    <g id="line2d_24">
     <path d="M 241.893438 293.004312 
L 251.893438 293.004312 
L 261.893438 293.004312 
" style="fill: none; stroke: #d62728; stroke-width: 1.5; stroke-linecap: square"/>
    </g>
    <g id="text_23">
     <!-- SWA Validation Accuracy -->
     <g transform="translate(269.893438 296.504312) scale(0.1 -0.1)">
      <defs>
       <path id="DejaVuSans-53" d="M 3425 4513 
L 3425 3897 
Q 3066 4069 2747 4153 
Q 2428 4238 2131 4238 
Q 1616 4238 1336 4038 
Q 1056 3838 1056 3469 
Q 1056 3159 1242 3001 
Q 1428 2844 1947 2747 
L 2328 2669 
Q 3034 2534 3370 2195 
Q 3706 1856 3706 1288 
Q 3706 609 3251 259 
Q 2797 -91 1919 -91 
Q 1588 -91 1214 -16 
Q 841 59 441 206 
L 441 856 
Q 825 641 1194 531 
Q 1563 422 1919 422 
Q 2459 422 2753 634 
Q 3047 847 3047 1241 
Q 3047 1584 2836 1778 
Q 2625 1972 2144 2069 
L 1759 2144 
Q 1053 2284 737 2584 
Q 422 2884 422 3419 
Q 422 4038 858 4394 
Q 1294 4750 2059 4750 
Q 2388 4750 2728 4690 
Q 3069 4631 3425 4513 
z
" transform="scale(0.015625)"/>
       <path id="DejaVuSans-57" d="M 213 4666 
L 850 4666 
L 1831 722 
L 2809 4666 
L 3519 4666 
L 4500 722 
L 5478 4666 
L 6119 4666 
L 4947 0 
L 4153 0 
L 3169 4050 
L 2175 0 
L 1381 0 
L 213 4666 
z
" transform="scale(0.015625)"/>
      </defs>
      <use xlink:href="#DejaVuSans-53"/>
      <use xlink:href="#DejaVuSans-57" x="63.476562"/>
      <use xlink:href="#DejaVuSans-41" x="156.853516"/>
      <use xlink:href="#DejaVuSans-20" x="225.261719"/>
      <use xlink:href="#DejaVuSans-56" x="257.048828"/>
      <use xlink:href="#DejaVuSans-61" x="317.707031"/>
      <use xlink:href="#DejaVuSans-6c" x="378.986328"/>
      <use xlink:href="#DejaVuSans-69" x="406.769531"/>
      <use xlink:href="#DejaVuSans-64" x="434.552734"/>
      <use xlink:href="#DejaVuSans-61" x="498.029297"/>
      <use xlink:href="#DejaVuSans-74" x="559.308594"/>
      <use xlink:href="#DejaVuSans-69" x="598.517578"/>
      <use xlink:href="#DejaVuSans-6f" x="626.300781"/>
      <use xlink:href="#DejaVuSans-6e" x="687.482422"/>
      <use xlink:href="#DejaVuSans-20" x="750.861328"/>
      <use xlink:href="#DejaVuSans-41" x="782.648438"/>
      <use xlink:href="#DejaVuSans-63" x="849.306641"/>
      <use xlink:href="#DejaVuSans-63" x="904.287109"/>
      <use xlink:href="#DejaVuSans-75" x="959.267578"/>
      <use xlink:href="#DejaVuSans-72" x="1022.646484"/>
      <use xlink:href="#DejaVuSans-61" x="1063.759766"/>
      <use xlink:href="#DejaVuSans-63" x="1125.039062"/>
      <use xlink:href="#DejaVuSans-79" x="1180.019531"/>
     </g>
    </g>
   </g>
  </g>
 </g>
 <defs>
  <clipPath id="p10dea2a71e">
   <rect x="57.6" y="41.472" width="357.12" height="266.112"/>
  </clipPath>
 </defs>
</svg>
