<?xml version="1.0" encoding="utf-8" standalone="no"?>
<!DOCTYPE svg PUBLIC "-//W3C//DTD SVG 1.1//EN"
  "http://www.w3.org/Graphics/SVG/1.1/DTD/svg11.dtd">
<svg xmlns:xlink="http://www.w3.org/1999/xlink" width="460.8pt" height="345.6pt" viewBox="0 0 460.8 345.6" xmlns="http://www.w3.org/2000/svg" version="1.1">
 <metadata>
  <rdf:RDF xmlns:dc="http://purl.org/dc/elements/1.1/" xmlns:cc="http://creativecommons.org/ns#" xmlns:rdf="http://www.w3.org/1999/02/22-rdf-syntax-ns#">
   <cc:Work>
    <dc:type rdf:resource="http://purl.org/dc/dcmitype/StillImage"/>
    <dc:date>2025-12-27T22:21:46.391543</dc:date>
    <dc:format>image/svg+xml</dc:format>
    <dc:creator>
     <cc:Agent>
      <dc:title>Matplotlib v3.9.1, https://matplotlib.org/</dc:title>
     </cc:Agent>
    </dc:creator>
   </cc:Work>
  </rdf:RDF>
 </metadata>
 <defs>
  <style type="text/css">*{stroke-linejoin: round; stroke-linecap: butt}</style>
 </defs>
 <g id="figure_1">
  <g id="patch_1">
   <path d="M 0 345.6 
L 460.8 345.6 
L 460.8 0 
L 0 0 
z
" style="fill: #ffffff"/>
  </g>
  <g id="axes_1">
   <g id="patch_2">
    <path d="M 57.6 307.584 
L 414.72 307.584 
L 414.72 41.472 
L 57.6 41.472 
z
" style="fill: #ffffff"/>
   </g>
   <g id="matplotlib.axis_1">
    <g id="xtick_1">
     <g id="line2d_1">
      <defs>
       <path id="mc3b8162a02" d="M 0 0 
L 0 3.5 
" style="stroke: #000000; stroke-width: 0.8"/>
      </defs>
      <g>
       <use xlink:href="#mc3b8162a02" x="73.832727" y="307.584" style="stroke: #000000; stroke-width: 0.8"/>
      </g>
     </g>
     <g id="text_1">
      <!-- 1 -->
      <g transform="translate(70.651477 322.182437) scale(0.1 -0.1)">
       <defs>
        <path id="DejaVuSans-31" d="M 794 531 
L 1825 531 
L 1825 4091 
L 703 3866 
L 703 4441 
L 1819 4666 
L 2450 4666 
L 2450 531 
L 3481 531 
L 3481 0 
L 794 0 
L 794 531 
z
" transform="scale(0.015625)"/>
       </defs>
       <use xlink:href="#DejaVuSans-31"/>
      </g>
     </g>
    </g>
    <g id="xtick_2">
     <g id="line2d_2">
      <g>
       <use xlink:href="#mc3b8162a02" x="109.724185" y="307.584" style="stroke: #000000; stroke-width: 0.8"/>
      </g>
     </g>
     <g id="text_2">
      <!-- 23 -->
      <g transform="translate(103.361685 322.182437) scale(0.1 -0.1)">
       <defs>
        <path id="DejaVuSans-32" d="M 1228 531 
L 3431 531 
L 3431 0 
L 469 0 
L 469 531 
Q 828 903 1448 1529 
Q 2069 2156 2228 2338 
Q 2531 2678 2651 2914 
Q 2772 3150 2772 3378 
Q 2772 3750 2511 3984 
Q 2250 4219 1831 4219 
Q 1534 4219 1204 4116 
Q 875 4013 500 3803 
L 500 4441 
Q 881 4594 1212 4672 
Q 1544 4750 1819 4750 
Q 2544 4750 2975 4387 
Q 3406 4025 3406 3419 
Q 3406 3131 3298 2873 
Q 3191 2616 2906 2266 
Q 2828 2175 2409 1742 
Q 1991 1309 1228 531 
z
" transform="scale(0.015625)"/>
        <path id="DejaVuSans-33" d="M 2597 2516 
Q 3050 2419 3304 2112 
Q 3559 1806 3559 1356 
Q 3559 666 3084 287 
Q 2609 -91 1734 -91 
Q 1441 -91 1130 -33 
Q 819 25 488 141 
L 488 750 
Q 750 597 1062 519 
Q 1375 441 1716 441 
Q 2309 441 2620 675 
Q 2931 909 2931 1356 
Q 2931 1769 2642 2001 
Q 2353 2234 1838 2234 
L 1294 2234 
L 1294 2753 
L 1863 2753 
Q 2328 2753 2575 2939 
Q 2822 3125 2822 3475 
Q 2822 3834 2567 4026 
Q 2313 4219 1838 4219 
Q 1578 4219 1281 4162 
Q 984 4106 628 3988 
L 628 4550 
Q 988 4650 1302 4700 
Q 1616 4750 1894 4750 
Q 2613 4750 3031 4423 
Q 3450 4097 3450 3541 
Q 3450 3153 3228 2886 
Q 3006 2619 2597 2516 
z
" transform="scale(0.015625)"/>
       </defs>
       <use xlink:href="#DejaVuSans-32"/>
       <use xlink:href="#DejaVuSans-33" x="63.623047"/>
      </g>
     </g>
    </g>
    <g id="xtick_3">
     <g id="line2d_3">
      <g>
       <use xlink:href="#mc3b8162a02" x="145.615642" y="307.584" style="stroke: #000000; stroke-width: 0.8"/>
      </g>
     </g>
     <g id="text_3">
      <!-- 45 -->
      <g transform="translate(139.253142 322.182437) scale(0.1 -0.1)">
       <defs>
        <path id="DejaVuSans-34" d="M 2419 4116 
L 825 1625 
L 2419 1625 
L 2419 4116 
z
M 2253 4666 
L 3047 4666 
L 3047 1625 
L 3713 1625 
L 3713 1100 
L 3047 1100 
L 3047 0 
L 2419 0 
L 2419 1100 
L 313 1100 
L 313 1709 
L 2253 4666 
z
" transform="scale(0.015625)"/>
        <path id="DejaVuSans-35" d="M 691 4666 
L 3169 4666 
L 3169 4134 
L 1269 4134 
L 1269 2991 
Q 1406 3038 1543 3061 
Q 1681 3084 1819 3084 
Q 2600 3084 3056 2656 
Q 3513 2228 3513 1497 
Q 3513 744 3044 326 
Q 2575 -91 1722 -91 
Q 1428 -91 1123 -41 
Q 819 9 494 109 
L 494 744 
Q 775 591 1075 516 
Q 1375 441 1709 441 
Q 2250 441 2565 725 
Q 2881 1009 2881 1497 
Q 2881 1984 2565 2268 
Q 2250 2553 1709 2553 
Q 1456 2553 1204 2497 
Q 953 2441 691 2322 
L 691 4666 
z
" transform="scale(0.015625)"/>
       </defs>
       <use xlink:href="#DejaVuSans-34"/>
       <use xlink:href="#DejaVuSans-35" x="63.623047"/>
      </g>
     </g>
    </g>
    <g id="xtick_4">
     <g id="line2d_4">
      <g>
       <use xlink:href="#mc3b8162a02" x="181.507099" y="307.584" style="stroke: #000000; stroke-width: 0.8"/>
      </g>
     </g>
     <g id="text_4">
      <!-- 67 -->
      <g transform="translate(175.144599 322.182437) scale(0.1 -0.1)">
       <defs>
        <path id="DejaVuSans-36" d="M 2113 2584 
Q 1688 2584 1439 2293 
Q 1191 2003 1191 1497 
Q 1191 994 1439 701 
Q 1688 409 2113 409 
Q 2538 409 2786 701 
Q 3034 994 3034 1497 
Q 3034 2003 2786 2293 
Q 2538 2584 2113 2584 
z
M 3366 4563 
L 3366 3988 
Q 3128 4100 2886 4159 
Q 2644 4219 2406 4219 
Q 1781 4219 1451 3797 
Q 1122 3375 1075 2522 
Q 1259 2794 1537 2939 
Q 1816 3084 2150 3084 
Q 2853 3084 3261 2657 
Q 3669 2231 3669 1497 
Q 3669 778 3244 343 
Q 2819 -91 2113 -91 
Q 1303 -91 875 529 
Q 447 1150 447 2328 
Q 447 3434 972 4092 
Q 1497 4750 2381 4750 
Q 2619 4750 2861 4703 
Q 3103 4656 3366 4563 
z
" transform="scale(0.015625)"/>
        <path id="DejaVuSans-37" d="M 525 4666 
L 3525 4666 
L 3525 4397 
L 1831 0 
L 1172 0 
L 2766 4134 
L 525 4134 
L 525 4666 
z
" transform="scale(0.015625)"/>
       </defs>
       <use xlink:href="#DejaVuSans-36"/>
       <use xlink:href="#DejaVuSans-37" x="63.623047"/>
      </g>
     </g>
    </g>
    <g id="xtick_5">
     <g id="line2d_5">
      <g>
       <use xlink:href="#mc3b8162a02" x="217.398556" y="307.584" style="stroke: #000000; stroke-width: 0.8"/>
      </g>
     </g>
     <g id="text_5">
      <!-- 89 -->
      <g transform="translate(211.036056 322.182437) scale(0.1 -0.1)">
       <defs>
        <path id="DejaVuSans-38" d="M 2034 2216 
Q 1584 2216 1326 1975 
Q 1069 1734 1069 1313 
Q 1069 891 1326 650 
Q 1584 409 2034 409 
Q 2484 409 2743 651 
Q 3003 894 3003 1313 
Q 3003 1734 2745 1975 
Q 2488 2216 2034 2216 
z
M 1403 2484 
Q 997 2584 770 2862 
Q 544 3141 544 3541 
Q 544 4100 942 4425 
Q 1341 4750 2034 4750 
Q 2731 4750 3128 4425 
Q 3525 4100 3525 3541 
Q 3525 3141 3298 2862 
Q 3072 2584 2669 2484 
Q 3125 2378 3379 2068 
Q 3634 1759 3634 1313 
Q 3634 634 3220 271 
Q 2806 -91 2034 -91 
Q 1263 -91 848 271 
Q 434 634 434 1313 
Q 434 1759 690 2068 
Q 947 2378 1403 2484 
z
M 1172 3481 
Q 1172 3119 1398 2916 
Q 1625 2713 2034 2713 
Q 2441 2713 2670 2916 
Q 2900 3119 2900 3481 
Q 2900 3844 2670 4047 
Q 2441 4250 2034 4250 
Q 1625 4250 1398 4047 
Q 1172 3844 1172 3481 
z
" transform="scale(0.015625)"/>
        <path id="DejaVuSans-39" d="M 703 97 
L 703 672 
Q 941 559 1184 500 
Q 1428 441 1663 441 
Q 2288 441 2617 861 
Q 2947 1281 2994 2138 
Q 2813 1869 2534 1725 
Q 2256 1581 1919 1581 
Q 1219 1581 811 2004 
Q 403 2428 403 3163 
Q 403 3881 828 4315 
Q 1253 4750 1959 4750 
Q 2769 4750 3195 4129 
Q 3622 3509 3622 2328 
Q 3622 1225 3098 567 
Q 2575 -91 1691 -91 
Q 1453 -91 1209 -44 
Q 966 3 703 97 
z
M 1959 2075 
Q 2384 2075 2632 2365 
Q 2881 2656 2881 3163 
Q 2881 3666 2632 3958 
Q 2384 4250 1959 4250 
Q 1534 4250 1286 3958 
Q 1038 3666 1038 3163 
Q 1038 2656 1286 2365 
Q 1534 2075 1959 2075 
z
" transform="scale(0.015625)"/>
       </defs>
       <use xlink:href="#DejaVuSans-38"/>
       <use xlink:href="#DejaVuSans-39" x="63.623047"/>
      </g>
     </g>
    </g>
    <g id="xtick_6">
     <g id="line2d_6">
      <g>
       <use xlink:href="#mc3b8162a02" x="253.290014" y="307.584" style="stroke: #000000; stroke-width: 0.8"/>
      </g>
     </g>
     <g id="text_6">
      <!-- 111 -->
      <g transform="translate(243.746264 322.182437) scale(0.1 -0.1)">
       <use xlink:href="#DejaVuSans-31"/>
       <use xlink:href="#DejaVuSans-31" x="63.623047"/>
       <use xlink:href="#DejaVuSans-31" x="127.246094"/>
      </g>
     </g>
    </g>
    <g id="xtick_7">
     <g id="line2d_7">
      <g>
       <use xlink:href="#mc3b8162a02" x="289.181471" y="307.584" style="stroke: #000000; stroke-width: 0.8"/>
      </g>
     </g>
     <g id="text_7">
      <!-- 133 -->
      <g transform="translate(279.637721 322.182437) scale(0.1 -0.1)">
       <use xlink:href="#DejaVuSans-31"/>
       <use xlink:href="#DejaVuSans-33" x="63.623047"/>
       <use xlink:href="#DejaVuSans-33" x="127.246094"/>
      </g>
     </g>
    </g>
    <g id="xtick_8">
     <g id="line2d_8">
      <g>
       <use xlink:href="#mc3b8162a02" x="325.072928" y="307.584" style="stroke: #000000; stroke-width: 0.8"/>
      </g>
     </g>
     <g id="text_8">
      <!-- 155 -->
      <g transform="translate(315.529178 322.182437) scale(0.1 -0.1)">
       <use xlink:href="#DejaVuSans-31"/>
       <use xlink:href="#DejaVuSans-35" x="63.623047"/>
       <use xlink:href="#DejaVuSans-35" x="127.246094"/>
      </g>
     </g>
    </g>
    <g id="xtick_9">
     <g id="line2d_9">
      <g>
       <use xlink:href="#mc3b8162a02" x="360.964386" y="307.584" style="stroke: #000000; stroke-width: 0.8"/>
      </g>
     </g>
     <g id="text_9">
      <!-- 177 -->
      <g transform="translate(351.420636 322.182437) scale(0.1 -0.1)">
       <use xlink:href="#DejaVuSans-31"/>
       <use xlink:href="#DejaVuSans-37" x="63.623047"/>
       <use xlink:href="#DejaVuSans-37" x="127.246094"/>
      </g>
     </g>
    </g>
    <g id="xtick_10">
     <g id="line2d_10">
      <g>
       <use xlink:href="#mc3b8162a02" x="398.487273" y="307.584" style="stroke: #000000; stroke-width: 0.8"/>
      </g>
     </g>
     <g id="text_10">
      <!-- 200 -->
      <g transform="translate(388.943523 322.182437) scale(0.1 -0.1)">
       <defs>
        <path id="DejaVuSans-30" d="M 2034 4250 
Q 1547 4250 1301 3770 
Q 1056 3291 1056 2328 
Q 1056 1369 1301 889 
Q 1547 409 2034 409 
Q 2525 409 2770 889 
Q 3016 1369 3016 2328 
Q 3016 3291 2770 3770 
Q 2525 4250 2034 4250 
z
M 2034 4750 
Q 2819 4750 3233 4129 
Q 3647 3509 3647 2328 
Q 3647 1150 3233 529 
Q 2819 -91 2034 -91 
Q 1250 -91 836 529 
Q 422 1150 422 2328 
Q 422 3509 836 4129 
Q 1250 4750 2034 4750 
z
" transform="scale(0.015625)"/>
       </defs>
       <use xlink:href="#DejaVuSans-32"/>
       <use xlink:href="#DejaVuSans-30" x="63.623047"/>
       <use xlink:href="#DejaVuSans-30" x="127.246094"/>
      </g>
     </g>
    </g>
    <g id="text_11">
     <!-- Epochs -->
     <g transform="translate(218.244375 335.860562) scale(0.1 -0.1)">
      <defs>
       <path id="DejaVuSans-45" d="M 628 4666 
L 3578 4666 
L 3578 4134 
L 1259 4134 
L 1259 2753 
L 3481 2753 
L 3481 2222 
L 1259 2222 
L 1259 531 
L 3634 531 
L 3634 0 
L 628 0 
L 628 4666 
z
" transform="scale(0.015625)"/>
       <path id="DejaVuSans-70" d="M 1159 525 
L 1159 -1331 
L 581 -1331 
L 581 3500 
L 1159 3500 
L 1159 2969 
Q 1341 3281 1617 3432 
Q 1894 3584 2278 3584 
Q 2916 3584 3314 3078 
Q 3713 2572 3713 1747 
Q 3713 922 3314 415 
Q 2916 -91 2278 -91 
Q 1894 -91 1617 61 
Q 1341 213 1159 525 
z
M 3116 1747 
Q 3116 2381 2855 2742 
Q 2594 3103 2138 3103 
Q 1681 3103 1420 2742 
Q 1159 2381 1159 1747 
Q 1159 1113 1420 752 
Q 1681 391 2138 391 
Q 2594 391 2855 752 
Q 3116 1113 3116 1747 
z
" transform="scale(0.015625)"/>
       <path id="DejaVuSans-6f" d="M 1959 3097 
Q 1497 3097 1228 2736 
Q 959 2375 959 1747 
Q 959 1119 1226 758 
Q 1494 397 1959 397 
Q 2419 397 2687 759 
Q 2956 1122 2956 1747 
Q 2956 2369 2687 2733 
Q 2419 3097 1959 3097 
z
M 1959 3584 
Q 2709 3584 3137 3096 
Q 3566 2609 3566 1747 
Q 3566 888 3137 398 
Q 2709 -91 1959 -91 
Q 1206 -91 779 398 
Q 353 888 353 1747 
Q 353 2609 779 3096 
Q 1206 3584 1959 3584 
z
" transform="scale(0.015625)"/>
       <path id="DejaVuSans-63" d="M 3122 3366 
L 3122 2828 
Q 2878 2963 2633 3030 
Q 2388 3097 2138 3097 
Q 1578 3097 1268 2742 
Q 959 2388 959 1747 
Q 959 1106 1268 751 
Q 1578 397 2138 397 
Q 2388 397 2633 464 
Q 2878 531 3122 666 
L 3122 134 
Q 2881 22 2623 -34 
Q 2366 -91 2075 -91 
Q 1284 -91 818 406 
Q 353 903 353 1747 
Q 353 2603 823 3093 
Q 1294 3584 2113 3584 
Q 2378 3584 2631 3529 
Q 2884 3475 3122 3366 
z
" transform="scale(0.015625)"/>
       <path id="DejaVuSans-68" d="M 3513 2113 
L 3513 0 
L 2938 0 
L 2938 2094 
Q 2938 2591 2744 2837 
Q 2550 3084 2163 3084 
Q 1697 3084 1428 2787 
Q 1159 2491 1159 1978 
L 1159 0 
L 581 0 
L 581 4863 
L 1159 4863 
L 1159 2956 
Q 1366 3272 1645 3428 
Q 1925 3584 2291 3584 
Q 2894 3584 3203 3211 
Q 3513 2838 3513 2113 
z
" transform="scale(0.015625)"/>
       <path id="DejaVuSans-73" d="M 2834 3397 
L 2834 2853 
Q 2591 2978 2328 3040 
Q 2066 3103 1784 3103 
Q 1356 3103 1142 2972 
Q 928 2841 928 2578 
Q 928 2378 1081 2264 
Q 1234 2150 1697 2047 
L 1894 2003 
Q 2506 1872 2764 1633 
Q 3022 1394 3022 966 
Q 3022 478 2636 193 
Q 2250 -91 1575 -91 
Q 1294 -91 989 -36 
Q 684 19 347 128 
L 347 722 
Q 666 556 975 473 
Q 1284 391 1588 391 
Q 1994 391 2212 530 
Q 2431 669 2431 922 
Q 2431 1156 2273 1281 
Q 2116 1406 1581 1522 
L 1381 1569 
Q 847 1681 609 1914 
Q 372 2147 372 2553 
Q 372 3047 722 3315 
Q 1072 3584 1716 3584 
Q 2034 3584 2315 3537 
Q 2597 3491 2834 3397 
z
" transform="scale(0.015625)"/>
      </defs>
      <use xlink:href="#DejaVuSans-45"/>
      <use xlink:href="#DejaVuSans-70" x="63.183594"/>
      <use xlink:href="#DejaVuSans-6f" x="126.660156"/>
      <use xlink:href="#DejaVuSans-63" x="187.841797"/>
      <use xlink:href="#DejaVuSans-68" x="242.822266"/>
      <use xlink:href="#DejaVuSans-73" x="306.201172"/>
     </g>
    </g>
   </g>
   <g id="matplotlib.axis_2">
    <g id="ytick_1">
     <g id="line2d_11">
      <defs>
       <path id="mb7090a9c5f" d="M 0 0 
L -3.5 0 
" style="stroke: #000000; stroke-width: 0.8"/>
      </defs>
      <g>
       <use xlink:href="#mb7090a9c5f" x="57.6" y="301.918401" style="stroke: #000000; stroke-width: 0.8"/>
      </g>
     </g>
     <g id="text_12">
      <!-- 10 -->
      <g transform="translate(37.875 305.717619) scale(0.1 -0.1)">
       <use xlink:href="#DejaVuSans-31"/>
       <use xlink:href="#DejaVuSans-30" x="63.623047"/>
      </g>
     </g>
    </g>
    <g id="ytick_2">
     <g id="line2d_12">
      <g>
       <use xlink:href="#mb7090a9c5f" x="57.6" y="267.401855" style="stroke: #000000; stroke-width: 0.8"/>
      </g>
     </g>
     <g id="text_13">
      <!-- 20 -->
      <g transform="translate(37.875 271.201074) scale(0.1 -0.1)">
       <use xlink:href="#DejaVuSans-32"/>
       <use xlink:href="#DejaVuSans-30" x="63.623047"/>
      </g>
     </g>
    </g>
    <g id="ytick_3">
     <g id="line2d_13">
      <g>
       <use xlink:href="#mb7090a9c5f" x="57.6" y="232.88531" style="stroke: #000000; stroke-width: 0.8"/>
      </g>
     </g>
     <g id="text_14">
      <!-- 30 -->
      <g transform="translate(37.875 236.684529) scale(0.1 -0.1)">
       <use xlink:href="#DejaVuSans-33"/>
       <use xlink:href="#DejaVuSans-30" x="63.623047"/>
      </g>
     </g>
    </g>
    <g id="ytick_4">
     <g id="line2d_14">
      <g>
       <use xlink:href="#mb7090a9c5f" x="57.6" y="198.368765" style="stroke: #000000; stroke-width: 0.8"/>
      </g>
     </g>
     <g id="text_15">
      <!-- 40 -->
      <g transform="translate(37.875 202.167984) scale(0.1 -0.1)">
       <use xlink:href="#DejaVuSans-34"/>
       <use xlink:href="#DejaVuSans-30" x="63.623047"/>
      </g>
     </g>
    </g>
    <g id="ytick_5">
     <g id="line2d_15">
      <g>
       <use xlink:href="#mb7090a9c5f" x="57.6" y="163.85222" style="stroke: #000000; stroke-width: 0.8"/>
      </g>
     </g>
     <g id="text_16">
      <!-- 50 -->
      <g transform="translate(37.875 167.651438) scale(0.1 -0.1)">
       <use xlink:href="#DejaVuSans-35"/>
       <use xlink:href="#DejaVuSans-30" x="63.623047"/>
      </g>
     </g>
    </g>
    <g id="ytick_6">
     <g id="line2d_16">
      <g>
       <use xlink:href="#mb7090a9c5f" x="57.6" y="129.335674" style="stroke: #000000; stroke-width: 0.8"/>
      </g>
     </g>
     <g id="text_17">
      <!-- 60 -->
      <g transform="translate(37.875 133.134893) scale(0.1 -0.1)">
       <use xlink:href="#DejaVuSans-36"/>
       <use xlink:href="#DejaVuSans-30" x="63.623047"/>
      </g>
     </g>
    </g>
    <g id="ytick_7">
     <g id="line2d_17">
      <g>
       <use xlink:href="#mb7090a9c5f" x="57.6" y="94.819129" style="stroke: #000000; stroke-width: 0.8"/>
      </g>
     </g>
     <g id="text_18">
      <!-- 70 -->
      <g transform="translate(37.875 98.618348) scale(0.1 -0.1)">
       <use xlink:href="#DejaVuSans-37"/>
       <use xlink:href="#DejaVuSans-30" x="63.623047"/>
      </g>
     </g>
    </g>
    <g id="ytick_8">
     <g id="line2d_18">
      <g>
       <use xlink:href="#mb7090a9c5f" x="57.6" y="60.302584" style="stroke: #000000; stroke-width: 0.8"/>
      </g>
     </g>
     <g id="text_19">
      <!-- 80 -->
      <g transform="translate(37.875 64.101803) scale(0.1 -0.1)">
       <use xlink:href="#DejaVuSans-38"/>
       <use xlink:href="#DejaVuSans-30" x="63.623047"/>
      </g>
     </g>
    </g>
    <g id="text_20">
     <!-- Accuracy -->
     <g transform="translate(31.795312 197.356125) rotate(-90) scale(0.1 -0.1)">
      <defs>
       <path id="DejaVuSans-41" d="M 2188 4044 
L 1331 1722 
L 3047 1722 
L 2188 4044 
z
M 1831 4666 
L 2547 4666 
L 4325 0 
L 3669 0 
L 3244 1197 
L 1141 1197 
L 716 0 
L 50 0 
L 1831 4666 
z
" transform="scale(0.015625)"/>
       <path id="DejaVuSans-75" d="M 544 1381 
L 544 3500 
L 1119 3500 
L 1119 1403 
Q 1119 906 1312 657 
Q 1506 409 1894 409 
Q 2359 409 2629 706 
Q 2900 1003 2900 1516 
L 2900 3500 
L 3475 3500 
L 3475 0 
L 2900 0 
L 2900 538 
Q 2691 219 2414 64 
Q 2138 -91 1772 -91 
Q 1169 -91 856 284 
Q 544 659 544 1381 
z
M 1991 3584 
L 1991 3584 
z
" transform="scale(0.015625)"/>
       <path id="DejaVuSans-72" d="M 2631 2963 
Q 2534 3019 2420 3045 
Q 2306 3072 2169 3072 
Q 1681 3072 1420 2755 
Q 1159 2438 1159 1844 
L 1159 0 
L 581 0 
L 581 3500 
L 1159 3500 
L 1159 2956 
Q 1341 3275 1631 3429 
Q 1922 3584 2338 3584 
Q 2397 3584 2469 3576 
Q 2541 3569 2628 3553 
L 2631 2963 
z
" transform="scale(0.015625)"/>
       <path id="DejaVuSans-61" d="M 2194 1759 
Q 1497 1759 1228 1600 
Q 959 1441 959 1056 
Q 959 750 1161 570 
Q 1363 391 1709 391 
Q 2188 391 2477 730 
Q 2766 1069 2766 1631 
L 2766 1759 
L 2194 1759 
z
M 3341 1997 
L 3341 0 
L 2766 0 
L 2766 531 
Q 2569 213 2275 61 
Q 1981 -91 1556 -91 
Q 1019 -91 701 211 
Q 384 513 384 1019 
Q 384 1609 779 1909 
Q 1175 2209 1959 2209 
L 2766 2209 
L 2766 2266 
Q 2766 2663 2505 2880 
Q 2244 3097 1772 3097 
Q 1472 3097 1187 3025 
Q 903 2953 641 2809 
L 641 3341 
Q 956 3463 1253 3523 
Q 1550 3584 1831 3584 
Q 2591 3584 2966 3190 
Q 3341 2797 3341 1997 
z
" transform="scale(0.015625)"/>
       <path id="DejaVuSans-79" d="M 2059 -325 
Q 1816 -950 1584 -1140 
Q 1353 -1331 966 -1331 
L 506 -1331 
L 506 -850 
L 844 -850 
Q 1081 -850 1212 -737 
Q 1344 -625 1503 -206 
L 1606 56 
L 191 3500 
L 800 3500 
L 1894 763 
L 2988 3500 
L 3597 3500 
L 2059 -325 
z
" transform="scale(0.015625)"/>
      </defs>
      <use xlink:href="#DejaVuSans-41"/>
      <use xlink:href="#DejaVuSans-63" x="66.658203"/>
      <use xlink:href="#DejaVuSans-63" x="121.638672"/>
      <use xlink:href="#DejaVuSans-75" x="176.619141"/>
      <use xlink:href="#DejaVuSans-72" x="239.998047"/>
      <use xlink:href="#DejaVuSans-61" x="281.111328"/>
      <use xlink:href="#DejaVuSans-63" x="342.390625"/>
      <use xlink:href="#DejaVuSans-79" x="397.371094"/>
     </g>
    </g>
   </g>
   <g id="line2d_19">
    <path d="M 73.832727 245.582957 
L 75.464157 224.672579 
L 77.095587 227.989397 
L 78.727017 225.75415 
L 80.358447 232.315683 
L 81.989877 222.437331 
L 83.621307 222.509436 
L 85.252736 216.741056 
L 86.884166 214.21739 
L 88.515596 209.963209 
L 90.147026 207.800067 
L 91.778456 204.339038 
L 93.409886 202.969048 
L 95.041316 199.363811 
L 96.672746 196.912249 
L 98.304175 196.695935 
L 99.935605 193.955954 
L 101.567035 194.749106 
L 103.198465 189.34125 
L 104.829895 193.162802 
L 106.461325 189.052831 
L 108.092755 188.403888 
L 109.724185 183.284451 
L 111.355614 183.861289 
L 112.987044 184.79865 
L 114.618474 182.563403 
L 116.249904 179.607108 
L 117.881334 182.130775 
L 119.512764 175.425033 
L 121.144194 177.51607 
L 124.407053 173.622414 
L 126.038483 175.425033 
L 127.669913 171.026643 
L 129.301343 170.666119 
L 130.932773 167.854033 
L 132.564203 166.123519 
L 134.195633 163.888272 
L 135.827063 166.411938 
L 137.458492 161.43671 
L 139.089922 165.402472 
L 140.721352 164.46511 
L 142.352782 161.797234 
L 143.984212 155.884644 
L 145.615642 161.292501 
L 147.247072 156.749902 
L 148.878502 156.822006 
L 150.509931 157.110425 
L 152.141361 156.966216 
L 153.772791 151.197836 
L 155.404221 153.865711 
L 157.035651 150.116264 
L 158.667081 150.332578 
L 160.298511 149.323112 
L 161.929941 145.357351 
L 163.56137 145.429455 
L 165.1928 149.683636 
L 166.82423 139.228447 
L 168.45566 144.852617 
L 170.08709 141.752113 
L 171.71852 144.13157 
L 173.34995 140.670542 
L 174.98138 136.776885 
L 176.61281 136.560571 
L 178.244239 133.460066 
L 179.875669 137.858456 
L 181.507099 135.767418 
L 184.769959 127.331162 
L 186.401389 128.484838 
L 188.032819 125.312229 
L 189.664249 124.735391 
L 191.295678 122.644353 
L 192.927108 125.384334 
L 194.558538 120.62542 
L 196.189968 122.500144 
L 197.821398 120.913839 
L 199.452828 116.948078 
L 201.084258 117.957544 
L 202.715688 117.88544 
L 204.347117 113.34284 
L 205.978547 115.578088 
L 207.609977 109.953917 
L 209.241407 111.468117 
L 210.872837 110.170231 
L 212.504267 105.988155 
L 214.135697 109.160765 
L 215.767127 101.589765 
L 217.398556 104.257641 
L 219.029986 103.103965 
L 220.661416 101.301346 
L 222.292846 97.191376 
L 223.924276 100.436089 
L 225.555706 98.128737 
L 227.187136 96.975061 
L 228.818566 94.235081 
L 230.449995 95.89349 
L 232.081425 94.451395 
L 235.344285 89.476167 
L 236.975715 90.774053 
L 238.607145 88.971434 
L 240.238575 91.999833 
L 241.870005 85.366196 
L 243.501434 88.178281 
L 245.132864 79.309397 
L 246.764294 87.385129 
L 248.395724 82.69832 
L 250.027154 81.112016 
L 251.658584 79.95834 
L 253.290014 87.313024 
L 254.921444 77.290464 
L 256.552873 78.29993 
L 258.184303 80.895701 
L 259.815733 78.516245 
L 261.447163 78.011511 
L 263.078593 74.911007 
L 264.710023 78.516245 
L 266.341453 79.381502 
L 267.972883 73.252598 
L 269.604312 77.362568 
L 271.235742 77.074149 
L 272.867172 75.920473 
L 274.498602 68.13316 
L 276.130032 76.569416 
L 277.761462 75.055216 
L 279.392892 67.700532 
L 281.024322 71.738398 
L 282.655751 70.801036 
L 284.287181 71.16156 
L 285.918611 72.459445 
L 287.550041 67.844741 
L 289.181471 70.945245 
L 290.812901 68.565789 
L 292.444331 71.01735 
L 294.075761 65.609494 
L 295.70719 63.013723 
L 297.33862 61.932151 
L 298.97005 61.499523 
L 300.60148 64.455818 
L 302.23291 65.609494 
L 303.86434 66.907379 
L 305.49577 63.013723 
L 307.1272 65.897913 
L 308.75863 60.273742 
L 310.390059 65.10476 
L 312.021489 61.066894 
L 313.652919 59.192171 
L 315.284349 63.87898 
L 316.915779 60.85058 
L 318.547209 68.349474 
L 320.178639 60.345847 
L 321.810069 54.505362 
L 323.441498 58.110599 
L 325.072928 57.82218 
L 326.704358 58.254809 
L 328.335788 59.985323 
L 329.967218 56.740609 
L 331.598648 65.609494 
L 333.230078 61.499523 
L 334.861508 61.355313 
L 336.492937 64.023189 
L 338.124367 60.273742 
L 339.755797 63.806875 
L 341.387227 59.913218 
L 343.018657 57.029028 
L 344.650087 60.201637 
L 346.281517 65.24897 
L 347.912947 58.687437 
L 349.544376 53.568 
L 351.175806 64.672132 
L 352.807236 63.085827 
L 354.438666 57.750076 
L 356.070096 59.33638 
L 357.701526 65.10476 
L 359.332956 59.913218 
L 360.964386 61.283209 
L 364.227245 58.687437 
L 365.858675 62.869513 
L 367.490105 58.110599 
L 369.121535 59.552694 
L 370.752965 59.624799 
L 372.384395 57.317447 
L 374.015825 62.869513 
L 375.647254 57.533761 
L 377.278684 57.533761 
L 378.910114 58.975856 
L 380.541544 59.33638 
L 382.172974 59.33638 
L 383.804404 58.038495 
L 385.435834 53.928524 
L 387.067264 61.427418 
L 388.698693 57.750076 
L 390.330123 59.624799 
L 391.961553 55.659038 
L 393.592983 54.505362 
L 395.224413 54.289048 
L 396.855843 53.856419 
L 398.487273 56.163771 
L 398.487273 56.163771 
" clip-path="url(#p878394fbcd)" style="fill: none; stroke: #1f77b4; stroke-width: 1.5; stroke-linecap: square"/>
   </g>
   <g id="line2d_20">
    <path d="M 73.832727 224.263383 
L 75.464157 224.263383 
L 77.095587 203.213192 
L 78.727017 224.8401 
L 80.358447 204.366627 
L 81.989877 204.078269 
L 83.621307 246.467008 
L 85.252736 193.985712 
L 86.884166 210.422162 
L 88.515596 182.739719 
L 90.147026 167.456704 
L 91.778456 183.316437 
L 93.409886 218.207849 
L 95.041316 174.954032 
L 96.672746 187.35346 
L 98.304175 158.805941 
L 99.935605 195.427505 
L 101.567035 184.758231 
L 103.198465 191.390483 
L 104.829895 169.475216 
L 106.461325 161.40117 
L 108.092755 204.078269 
L 109.724185 295.488 
L 111.355614 180.14449 
L 112.987044 162.842964 
L 114.618474 257.713001 
L 116.249904 170.340292 
L 117.881334 203.501551 
L 119.512764 275.879603 
L 121.144194 141.792773 
L 122.775624 153.615483 
L 124.407053 144.676361 
L 126.038483 154.192201 
L 127.669913 158.229224 
L 129.301343 137.467392 
L 130.932773 152.173689 
L 132.564203 149.001743 
L 134.195633 134.872163 
L 135.827063 181.586284 
L 137.458492 134.583804 
L 139.089922 159.671017 
L 140.721352 187.930177 
L 142.352782 140.639338 
L 143.984212 129.104987 
L 145.615642 170.91701 
L 147.247072 159.671017 
L 148.878502 183.604796 
L 150.509931 150.443537 
L 152.141361 176.684185 
L 153.772791 141.216056 
L 155.404221 166.303269 
L 157.035651 161.689529 
L 158.667081 173.22388 
L 160.298511 133.430369 
L 163.56137 168.321781 
L 165.1928 148.425025 
L 166.82423 209.557085 
L 168.45566 115.552125 
L 170.08709 158.517582 
L 171.71852 123.914529 
L 173.34995 108.343156 
L 174.98138 123.337812 
L 176.61281 152.173689 
L 178.244239 140.639338 
L 179.875669 165.149834 
L 181.507099 135.737239 
L 183.138529 145.541438 
L 184.769959 140.639338 
L 186.401389 137.755751 
L 188.032819 143.522926 
L 189.664249 150.443537 
L 191.295678 140.35098 
L 192.927108 121.607659 
L 194.558538 147.848308 
L 196.189968 119.300789 
L 197.821398 158.229224 
L 199.452828 131.411858 
L 201.084258 138.620827 
L 202.715688 126.2214 
L 204.347117 122.761094 
L 205.978547 121.896018 
L 207.609977 104.594492 
L 209.241407 140.639338 
L 210.872837 106.324644 
L 212.504267 142.65785 
L 214.135697 118.435713 
L 215.767127 104.88285 
L 217.398556 93.636858 
L 219.029986 105.459568 
L 220.661416 129.393346 
L 222.292846 132.276934 
L 223.924276 97.385522 
L 225.555706 103.441057 
L 227.187136 112.09182 
L 228.818566 91.329988 
L 230.449995 104.594492 
L 232.081425 82.679225 
L 233.712855 108.631514 
L 235.344285 104.594492 
L 236.975715 99.692392 
L 238.607145 77.200408 
L 240.238575 96.808805 
L 241.870005 113.245255 
L 243.501434 109.78495 
L 245.132864 86.427889 
L 246.764294 91.329988 
L 248.395724 110.650026 
L 250.027154 105.459568 
L 251.658584 97.097163 
L 253.290014 80.949072 
L 254.921444 88.158041 
L 256.552873 99.115675 
L 258.184303 93.636858 
L 259.815733 83.83266 
L 261.447163 99.404034 
L 263.078593 88.734759 
L 264.710023 88.4464 
L 266.341453 101.999263 
L 267.972883 81.52579 
L 269.604312 88.734759 
L 271.235742 86.427889 
L 272.867172 90.464912 
L 274.498602 71.144874 
L 276.130032 98.827316 
L 277.761462 75.758614 
L 279.392892 76.912049 
L 281.024322 74.31682 
L 282.655751 89.599835 
L 284.287181 88.158041 
L 285.918611 83.255942 
L 287.550041 84.986095 
L 289.181471 87.292965 
L 290.812901 84.121019 
L 292.444331 82.679225 
L 294.075761 84.697736 
L 295.70719 70.279798 
L 297.33862 76.623691 
L 298.97005 113.245255 
L 300.60148 72.298309 
L 302.23291 77.488767 
L 303.86434 77.488767 
L 305.49577 67.39621 
L 307.1272 76.046973 
L 308.75863 70.279798 
L 310.390059 71.433233 
L 312.021489 94.790293 
L 313.652919 71.433233 
L 315.284349 75.758614 
L 316.915779 71.433233 
L 318.547209 77.200408 
L 320.178639 64.800981 
L 321.810069 66.242775 
L 323.441498 72.00995 
L 325.072928 71.721591 
L 326.704358 69.414721 
L 328.335788 68.261286 
L 329.967218 77.488767 
L 331.598648 78.353843 
L 333.230078 79.795637 
L 334.861508 77.777126 
L 336.492937 86.716248 
L 338.124367 78.065484 
L 339.755797 84.409377 
L 341.387227 76.335332 
L 343.018657 65.666057 
L 344.650087 76.623691 
L 346.281517 68.549645 
L 347.912947 72.298309 
L 349.544376 72.298309 
L 351.175806 70.279798 
L 352.807236 83.544301 
L 354.438666 69.414721 
L 356.070096 79.507278 
L 357.701526 81.237431 
L 359.332956 75.181897 
L 360.964386 84.697736 
L 362.595815 77.777126 
L 364.227245 87.292965 
L 365.858675 75.758614 
L 367.490105 72.298309 
L 369.121535 70.279798 
L 370.752965 89.023118 
L 372.384395 79.507278 
L 374.015825 76.046973 
L 375.647254 73.740103 
L 377.278684 81.814148 
L 378.910114 78.353843 
L 380.541544 85.274454 
L 382.172974 69.70308 
L 383.804404 70.856515 
L 385.435834 78.065484 
L 387.067264 79.507278 
L 388.698693 76.335332 
L 390.330123 78.642202 
L 391.961553 72.875026 
L 393.592983 93.925217 
L 396.855843 71.721591 
L 398.487273 79.795637 
L 398.487273 79.795637 
" clip-path="url(#p878394fbcd)" style="fill: none; stroke: #ff7f0e; stroke-width: 1.5; stroke-linecap: square"/>
   </g>
   <g id="line2d_21">
    <path d="M 73.832727 227.74065 
L 75.464157 238.579548 
L 77.095587 221.634229 
L 78.727017 227.58799 
L 80.358447 218.88634 
L 81.989877 217.359735 
L 83.621307 242.701382 
L 85.252736 213.543221 
L 86.884166 220.412945 
L 88.515596 211.558634 
L 90.147026 205.452213 
L 91.778456 210.642671 
L 93.409886 227.893311 
L 95.041316 200.261755 
L 96.672746 211.405974 
L 98.304175 201.6357 
L 99.935605 218.581019 
L 101.567035 210.490011 
L 103.198465 224.534779 
L 104.829895 198.124508 
L 106.461325 196.292582 
L 108.092755 239.953493 
L 109.724185 269.874956 
L 111.355614 208.047442 
L 112.987044 188.812216 
L 114.618474 247.586519 
L 116.249904 210.032029 
L 117.881334 223.618816 
L 119.512764 266.974406 
L 121.144194 184.995703 
L 122.775624 194.307995 
L 124.407053 188.812216 
L 126.038483 195.376619 
L 127.669913 203.925608 
L 129.301343 186.674969 
L 130.932773 196.750563 
L 132.564203 196.750563 
L 134.195633 183.316437 
L 135.827063 197.971848 
L 137.458492 202.704324 
L 139.089922 184.843042 
L 140.721352 206.062855 
L 142.352782 183.927079 
L 143.984212 188.659555 
L 145.615642 195.987261 
L 147.247072 193.850013 
L 148.878502 206.826158 
L 150.509931 191.712766 
L 152.141361 206.673498 
L 153.772791 187.13295 
L 155.404221 197.819187 
L 157.035651 189.575519 
L 158.667081 197.971848 
L 160.298511 174.920108 
L 163.56137 195.8346 
L 165.1928 190.186161 
L 166.82423 221.176248 
L 168.45566 183.163776 
L 170.08709 190.186161 
L 171.71852 175.072768 
L 173.34995 177.210016 
L 174.98138 168.661026 
L 176.61281 185.148363 
L 178.244239 181.17919 
L 179.875669 181.33185 
L 181.507099 201.6357 
L 183.138529 173.851484 
L 184.769959 190.0335 
L 186.401389 183.011116 
L 188.032819 177.820658 
L 189.664249 181.484511 
L 191.295678 194.613316 
L 192.927108 168.203045 
L 194.558538 200.719737 
L 196.189968 172.019558 
L 197.821398 183.316437 
L 199.452828 170.340292 
L 201.084258 163.012587 
L 202.715688 166.8291 
L 204.347117 178.27864 
L 205.978547 178.889282 
L 207.609977 151.257726 
L 209.241407 188.048913 
L 210.872837 167.745063 
L 212.504267 194.613316 
L 214.135697 172.935521 
L 215.767127 164.386532 
L 217.398556 154.463597 
L 219.029986 160.112037 
L 220.661416 172.782861 
L 222.292846 170.187632 
L 223.924276 165.913137 
L 225.555706 156.448184 
L 227.187136 157.669468 
L 228.818566 149.883781 
L 230.449995 161.028 
L 232.081425 149.120479 
L 233.712855 170.645613 
L 235.344285 168.203045 
L 236.975715 154.921579 
L 238.607145 149.57846 
L 240.238575 155.074239 
L 241.870005 164.691853 
L 243.501434 153.242313 
L 245.132864 158.28011 
L 246.764294 150.494424 
L 248.395724 173.546163 
L 250.027154 170.187632 
L 251.658584 159.348734 
L 253.290014 143.6247 
L 254.921444 150.341763 
L 256.552873 169.72965 
L 258.184303 156.448184 
L 259.815733 145.761947 
L 261.447163 159.806716 
L 263.078593 147.135892 
L 264.710023 151.105066 
L 266.341453 161.791303 
L 267.972883 146.52525 
L 269.604312 151.563047 
L 271.235742 148.204516 
L 272.867172 144.082681 
L 274.498602 139.197544 
L 276.130032 143.77736 
L 277.761462 141.792773 
L 279.392892 136.144334 
L 281.024322 142.556076 
L 282.655751 150.036442 
L 284.287181 152.32635 
L 285.918611 149.120479 
L 287.550041 144.235342 
L 289.181471 147.288552 
L 290.812901 146.52525 
L 292.444331 147.899195 
L 294.075761 140.571489 
L 295.70719 141.487452 
L 297.33862 140.72415 
L 298.97005 153.242313 
L 300.60148 142.098095 
L 302.23291 133.701766 
L 303.86434 138.739563 
L 305.49577 130.037913 
L 307.1272 136.907637 
L 308.75863 136.754976 
L 310.390059 135.533692 
L 312.021489 144.540663 
L 313.652919 143.166718 
L 315.284349 144.540663 
L 316.915779 136.754976 
L 318.547209 141.945434 
L 320.178639 134.92305 
L 321.810069 132.785802 
L 323.441498 139.808187 
L 325.072928 140.266168 
L 326.704358 132.327821 
L 328.335788 133.854426 
L 329.967218 139.808187 
L 331.598648 135.381031 
L 333.230078 144.082681 
L 334.861508 143.472039 
L 336.492937 145.914608 
L 338.124367 137.8236 
L 339.755797 140.571489 
L 341.387227 134.465068 
L 343.018657 131.869839 
L 344.650087 136.602316 
L 346.281517 140.571489 
L 347.912947 143.014058 
L 349.544376 135.839013 
L 351.175806 132.17516 
L 352.807236 142.250755 
L 354.438666 134.159747 
L 357.701526 139.197544 
L 359.332956 137.365618 
L 360.964386 138.128921 
L 362.595815 137.518279 
L 364.227245 146.372589 
L 365.858675 138.739563 
L 367.490105 127.290023 
L 369.121535 136.449655 
L 370.752965 138.586902 
L 372.384395 139.350205 
L 374.015825 139.044884 
L 375.647254 139.350205 
L 377.278684 142.556076 
L 378.910114 132.938463 
L 380.541544 143.930021 
L 382.172974 135.381031 
L 383.804404 130.801215 
L 385.435834 145.914608 
L 387.067264 139.655526 
L 388.698693 133.854426 
L 390.330123 139.655526 
L 391.961553 139.808187 
L 393.592983 141.792773 
L 395.224413 140.571489 
L 396.855843 130.495894 
L 398.487273 140.113508 
L 398.487273 140.113508 
" clip-path="url(#p878394fbcd)" style="fill: none; stroke: #2ca02c; stroke-width: 1.5; stroke-linecap: square"/>
   </g>
   <g id="line2d_22">
    <path d="M 329.967218 65.377698 
L 331.598648 62.494111 
L 333.230078 94.501935 
L 334.861508 76.046973 
L 336.492937 74.893538 
L 338.124367 80.372355 
L 339.755797 72.298309 
L 341.387227 83.544301 
L 343.018657 86.13953 
L 344.650087 75.470255 
L 346.281517 83.544301 
L 347.912947 73.163385 
L 349.544376 100.26911 
L 351.175806 108.919873 
L 352.807236 109.78495 
L 354.438666 129.970064 
L 356.070096 95.65537 
L 357.701526 100.845828 
L 359.332956 119.877507 
L 360.964386 129.104987 
L 362.595815 121.896018 
L 364.227245 149.866819 
L 365.858675 126.509758 
L 367.490105 136.890674 
L 369.121535 120.165865 
L 370.752965 139.774262 
L 372.384395 131.700216 
L 374.015825 120.742583 
L 375.647254 150.731895 
L 377.278684 132.276934 
L 378.910114 122.472736 
L 380.541544 140.062621 
L 382.172974 128.239911 
L 383.804404 191.678841 
L 385.435834 94.501935 
L 388.698693 176.395826 
L 390.330123 152.750407 
L 391.961553 143.234567 
L 393.592983 158.229224 
L 395.224413 134.295445 
L 396.855843 112.668537 
L 398.487273 167.168346 
L 398.487273 167.168346 
" clip-path="url(#p878394fbcd)" style="fill: none; stroke: #d62728; stroke-width: 1.5; stroke-linecap: square"/>
   </g>
   <g id="line2d_23">
    <path d="M 329.967218 130.037913 
L 331.598648 125.610758 
L 333.230078 151.410387 
L 334.861508 137.97626 
L 336.492937 135.381031 
L 338.124367 141.640113 
L 339.755797 132.17516 
L 341.387227 134.159747 
L 343.018657 138.128921 
L 344.650087 133.701766 
L 346.281517 146.52525 
L 347.912947 134.159747 
L 349.544376 153.242313 
L 351.175806 149.120479 
L 352.807236 149.120479 
L 354.438666 169.271668 
L 356.070096 143.319379 
L 357.701526 138.586902 
L 359.332956 154.310937 
L 360.964386 160.264697 
L 362.595815 161.791303 
L 364.227245 173.393503 
L 365.858675 155.684881 
L 367.490105 163.012587 
L 369.121535 157.669468 
L 370.752965 171.714237 
L 372.384395 152.784331 
L 374.015825 157.516808 
L 375.647254 166.371118 
L 377.278684 156.448184 
L 378.910114 154.158276 
L 380.541544 163.165247 
L 382.172974 164.539192 
L 383.804404 189.88084 
L 385.435834 154.463597 
L 387.067264 171.256255 
L 388.698693 185.301024 
L 390.330123 196.292582 
L 391.961553 185.911666 
L 393.592983 177.210016 
L 395.224413 161.638642 
L 396.855843 161.943963 
L 398.487273 185.911666 
L 398.487273 185.911666 
" clip-path="url(#p878394fbcd)" style="fill: none; stroke: #9467bd; stroke-width: 1.5; stroke-linecap: square"/>
   </g>
   <g id="patch_3">
    <path d="M 57.6 307.584 
L 57.6 41.472 
" style="fill: none; stroke: #000000; stroke-width: 0.8; stroke-linejoin: miter; stroke-linecap: square"/>
   </g>
   <g id="patch_4">
    <path d="M 414.72 307.584 
L 414.72 41.472 
" style="fill: none; stroke: #000000; stroke-width: 0.8; stroke-linejoin: miter; stroke-linecap: square"/>
   </g>
   <g id="patch_5">
    <path d="M 57.6 307.584 
L 414.72 307.584 
" style="fill: none; stroke: #000000; stroke-width: 0.8; stroke-linejoin: miter; stroke-linecap: square"/>
   </g>
   <g id="patch_6">
    <path d="M 57.6 41.472 
L 414.72 41.472 
" style="fill: none; stroke: #000000; stroke-width: 0.8; stroke-linejoin: miter; stroke-linecap: square"/>
   </g>
   <g id="text_21">
    <!-- Learning Curves -->
    <g transform="translate(187.37625 35.472) scale(0.12 -0.12)">
     <defs>
      <path id="DejaVuSans-4c" d="M 628 4666 
L 1259 4666 
L 1259 531 
L 3531 531 
L 3531 0 
L 628 0 
L 628 4666 
z
" transform="scale(0.015625)"/>
      <path id="DejaVuSans-65" d="M 3597 1894 
L 3597 1613 
L 953 1613 
Q 991 1019 1311 708 
Q 1631 397 2203 397 
Q 2534 397 2845 478 
Q 3156 559 3463 722 
L 3463 178 
Q 3153 47 2828 -22 
Q 2503 -91 2169 -91 
Q 1331 -91 842 396 
Q 353 884 353 1716 
Q 353 2575 817 3079 
Q 1281 3584 2069 3584 
Q 2775 3584 3186 3129 
Q 3597 2675 3597 1894 
z
M 3022 2063 
Q 3016 2534 2758 2815 
Q 2500 3097 2075 3097 
Q 1594 3097 1305 2825 
Q 1016 2553 972 2059 
L 3022 2063 
z
" transform="scale(0.015625)"/>
      <path id="DejaVuSans-6e" d="M 3513 2113 
L 3513 0 
L 2938 0 
L 2938 2094 
Q 2938 2591 2744 2837 
Q 2550 3084 2163 3084 
Q 1697 3084 1428 2787 
Q 1159 2491 1159 1978 
L 1159 0 
L 581 0 
L 581 3500 
L 1159 3500 
L 1159 2956 
Q 1366 3272 1645 3428 
Q 1925 3584 2291 3584 
Q 2894 3584 3203 3211 
Q 3513 2838 3513 2113 
z
" transform="scale(0.015625)"/>
      <path id="DejaVuSans-69" d="M 603 3500 
L 1178 3500 
L 1178 0 
L 603 0 
L 603 3500 
z
M 603 4863 
L 1178 4863 
L 1178 4134 
L 603 4134 
L 603 4863 
z
" transform="scale(0.015625)"/>
      <path id="DejaVuSans-67" d="M 2906 1791 
Q 2906 2416 2648 2759 
Q 2391 3103 1925 3103 
Q 1463 3103 1205 2759 
Q 947 2416 947 1791 
Q 947 1169 1205 825 
Q 1463 481 1925 481 
Q 2391 481 2648 825 
Q 2906 1169 2906 1791 
z
M 3481 434 
Q 3481 -459 3084 -895 
Q 2688 -1331 1869 -1331 
Q 1566 -1331 1297 -1286 
Q 1028 -1241 775 -1147 
L 775 -588 
Q 1028 -725 1275 -790 
Q 1522 -856 1778 -856 
Q 2344 -856 2625 -561 
Q 2906 -266 2906 331 
L 2906 616 
Q 2728 306 2450 153 
Q 2172 0 1784 0 
Q 1141 0 747 490 
Q 353 981 353 1791 
Q 353 2603 747 3093 
Q 1141 3584 1784 3584 
Q 2172 3584 2450 3431 
Q 2728 3278 2906 2969 
L 2906 3500 
L 3481 3500 
L 3481 434 
z
" transform="scale(0.015625)"/>
      <path id="DejaVuSans-20" transform="scale(0.015625)"/>
      <path id="DejaVuSans-43" d="M 4122 4306 
L 4122 3641 
Q 3803 3938 3442 4084 
Q 3081 4231 2675 4231 
Q 1875 4231 1450 3742 
Q 1025 3253 1025 2328 
Q 1025 1406 1450 917 
Q 1875 428 2675 428 
Q 3081 428 3442 575 
Q 3803 722 4122 1019 
L 4122 359 
Q 3791 134 3420 21 
Q 3050 -91 2638 -91 
Q 1578 -91 968 557 
Q 359 1206 359 2328 
Q 359 3453 968 4101 
Q 1578 4750 2638 4750 
Q 3056 4750 3426 4639 
Q 3797 4528 4122 4306 
z
" transform="scale(0.015625)"/>
      <path id="DejaVuSans-76" d="M 191 3500 
L 800 3500 
L 1894 563 
L 2988 3500 
L 3597 3500 
L 2284 0 
L 1503 0 
L 191 3500 
z
" transform="scale(0.015625)"/>
     </defs>
     <use xlink:href="#DejaVuSans-4c"/>
     <use xlink:href="#DejaVuSans-65" x="53.962891"/>
     <use xlink:href="#DejaVuSans-61" x="115.486328"/>
     <use xlink:href="#DejaVuSans-72" x="176.765625"/>
     <use xlink:href="#DejaVuSans-6e" x="216.128906"/>
     <use xlink:href="#DejaVuSans-69" x="279.507812"/>
     <use xlink:href="#DejaVuSans-6e" x="307.291016"/>
     <use xlink:href="#DejaVuSans-67" x="370.669922"/>
     <use xlink:href="#DejaVuSans-20" x="434.146484"/>
     <use xlink:href="#DejaVuSans-43" x="465.933594"/>
     <use xlink:href="#DejaVuSans-75" x="535.757812"/>
     <use xlink:href="#DejaVuSans-72" x="599.136719"/>
     <use xlink:href="#DejaVuSans-76" x="640.25"/>
     <use xlink:href="#DejaVuSans-65" x="699.429688"/>
     <use xlink:href="#DejaVuSans-73" x="760.953125"/>
    </g>
   </g>
   <g id="legend_1">
    <g id="patch_7">
     <path d="M 214.18875 302.584 
L 407.72 302.584 
Q 409.72 302.584 409.72 300.584 
L 409.72 228.193375 
Q 409.72 226.193375 407.72 226.193375 
L 214.18875 226.193375 
Q 212.18875 226.193375 212.18875 228.193375 
L 212.18875 300.584 
Q 212.18875 302.584 214.18875 302.584 
z
" style="fill: #ffffff; opacity: 0.8; stroke: #cccccc; stroke-linejoin: miter"/>
    </g>
    <g id="line2d_24">
     <path d="M 216.18875 234.291812 
L 226.18875 234.291812 
L 236.18875 234.291812 
" style="fill: none; stroke: #1f77b4; stroke-width: 1.5; stroke-linecap: square"/>
    </g>
    <g id="text_22">
     <!-- Train Accuracy -->
     <g transform="translate(244.18875 237.791812) scale(0.1 -0.1)">
      <defs>
       <path id="DejaVuSans-54" d="M -19 4666 
L 3928 4666 
L 3928 4134 
L 2272 4134 
L 2272 0 
L 1638 0 
L 1638 4134 
L -19 4134 
L -19 4666 
z
" transform="scale(0.015625)"/>
      </defs>
      <use xlink:href="#DejaVuSans-54"/>
      <use xlink:href="#DejaVuSans-72" x="46.333984"/>
      <use xlink:href="#DejaVuSans-61" x="87.447266"/>
      <use xlink:href="#DejaVuSans-69" x="148.726562"/>
      <use xlink:href="#DejaVuSans-6e" x="176.509766"/>
      <use xlink:href="#DejaVuSans-20" x="239.888672"/>
      <use xlink:href="#DejaVuSans-41" x="271.675781"/>
      <use xlink:href="#DejaVuSans-63" x="338.333984"/>
      <use xlink:href="#DejaVuSans-63" x="393.314453"/>
      <use xlink:href="#DejaVuSans-75" x="448.294922"/>
      <use xlink:href="#DejaVuSans-72" x="511.673828"/>
      <use xlink:href="#DejaVuSans-61" x="552.787109"/>
      <use xlink:href="#DejaVuSans-63" x="614.066406"/>
      <use xlink:href="#DejaVuSans-79" x="669.046875"/>
     </g>
    </g>
    <g id="line2d_25">
     <path d="M 216.18875 248.969937 
L 226.18875 248.969937 
L 236.18875 248.969937 
" style="fill: none; stroke: #ff7f0e; stroke-width: 1.5; stroke-linecap: square"/>
    </g>
    <g id="text_23">
     <!-- Validation Accuracy -->
     <g transform="translate(244.18875 252.469937) scale(0.1 -0.1)">
      <defs>
       <path id="DejaVuSans-56" d="M 1831 0 
L 50 4666 
L 709 4666 
L 2188 738 
L 3669 4666 
L 4325 4666 
L 2547 0 
L 1831 0 
z
" transform="scale(0.015625)"/>
       <path id="DejaVuSans-6c" d="M 603 4863 
L 1178 4863 
L 1178 0 
L 603 0 
L 603 4863 
z
" transform="scale(0.015625)"/>
       <path id="DejaVuSans-64" d="M 2906 2969 
L 2906 4863 
L 3481 4863 
L 3481 0 
L 2906 0 
L 2906 525 
Q 2725 213 2448 61 
Q 2172 -91 1784 -91 
Q 1150 -91 751 415 
Q 353 922 353 1747 
Q 353 2572 751 3078 
Q 1150 3584 1784 3584 
Q 2172 3584 2448 3432 
Q 2725 3281 2906 2969 
z
M 947 1747 
Q 947 1113 1208 752 
Q 1469 391 1925 391 
Q 2381 391 2643 752 
Q 2906 1113 2906 1747 
Q 2906 2381 2643 2742 
Q 2381 3103 1925 3103 
Q 1469 3103 1208 2742 
Q 947 2381 947 1747 
z
" transform="scale(0.015625)"/>
       <path id="DejaVuSans-74" d="M 1172 4494 
L 1172 3500 
L 2356 3500 
L 2356 3053 
L 1172 3053 
L 1172 1153 
Q 1172 725 1289 603 
Q 1406 481 1766 481 
L 2356 481 
L 2356 0 
L 1766 0 
Q 1100 0 847 248 
Q 594 497 594 1153 
L 594 3053 
L 172 3053 
L 172 3500 
L 594 3500 
L 594 4494 
L 1172 4494 
z
" transform="scale(0.015625)"/>
      </defs>
      <use xlink:href="#DejaVuSans-56"/>
      <use xlink:href="#DejaVuSans-61" x="60.658203"/>
      <use xlink:href="#DejaVuSans-6c" x="121.9375"/>
      <use xlink:href="#DejaVuSans-69" x="149.720703"/>
      <use xlink:href="#DejaVuSans-64" x="177.503906"/>
      <use xlink:href="#DejaVuSans-61" x="240.980469"/>
      <use xlink:href="#DejaVuSans-74" x="302.259766"/>
      <use xlink:href="#DejaVuSans-69" x="341.46875"/>
      <use xlink:href="#DejaVuSans-6f" x="369.251953"/>
      <use xlink:href="#DejaVuSans-6e" x="430.433594"/>
      <use xlink:href="#DejaVuSans-20" x="493.8125"/>
      <use xlink:href="#DejaVuSans-41" x="525.599609"/>
      <use xlink:href="#DejaVuSans-63" x="592.257812"/>
      <use xlink:href="#DejaVuSans-63" x="647.238281"/>
      <use xlink:href="#DejaVuSans-75" x="702.21875"/>
      <use xlink:href="#DejaVuSans-72" x="765.597656"/>
      <use xlink:href="#DejaVuSans-61" x="806.710938"/>
      <use xlink:href="#DejaVuSans-63" x="867.990234"/>
      <use xlink:href="#DejaVuSans-79" x="922.970703"/>
     </g>
    </g>
    <g id="line2d_26">
     <path d="M 216.18875 263.648062 
L 226.18875 263.648062 
L 236.18875 263.648062 
" style="fill: none; stroke: #2ca02c; stroke-width: 1.5; stroke-linecap: square"/>
    </g>
    <g id="text_24">
     <!-- Robust Validation Accuracy -->
     <g transform="translate(244.18875 267.148062) scale(0.1 -0.1)">
      <defs>
       <path id="DejaVuSans-52" d="M 2841 2188 
Q 3044 2119 3236 1894 
Q 3428 1669 3622 1275 
L 4263 0 
L 3584 0 
L 2988 1197 
Q 2756 1666 2539 1819 
Q 2322 1972 1947 1972 
L 1259 1972 
L 1259 0 
L 628 0 
L 628 4666 
L 2053 4666 
Q 2853 4666 3247 4331 
Q 3641 3997 3641 3322 
Q 3641 2881 3436 2590 
Q 3231 2300 2841 2188 
z
M 1259 4147 
L 1259 2491 
L 2053 2491 
Q 2509 2491 2742 2702 
Q 2975 2913 2975 3322 
Q 2975 3731 2742 3939 
Q 2509 4147 2053 4147 
L 1259 4147 
z
" transform="scale(0.015625)"/>
       <path id="DejaVuSans-62" d="M 3116 1747 
Q 3116 2381 2855 2742 
Q 2594 3103 2138 3103 
Q 1681 3103 1420 2742 
Q 1159 2381 1159 1747 
Q 1159 1113 1420 752 
Q 1681 391 2138 391 
Q 2594 391 2855 752 
Q 3116 1113 3116 1747 
z
M 1159 2969 
Q 1341 3281 1617 3432 
Q 1894 3584 2278 3584 
Q 2916 3584 3314 3078 
Q 3713 2572 3713 1747 
Q 3713 922 3314 415 
Q 2916 -91 2278 -91 
Q 1894 -91 1617 61 
Q 1341 213 1159 525 
L 1159 0 
L 581 0 
L 581 4863 
L 1159 4863 
L 1159 2969 
z
" transform="scale(0.015625)"/>
      </defs>
      <use xlink:href="#DejaVuSans-52"/>
      <use xlink:href="#DejaVuSans-6f" x="64.982422"/>
      <use xlink:href="#DejaVuSans-62" x="126.164062"/>
      <use xlink:href="#DejaVuSans-75" x="189.640625"/>
      <use xlink:href="#DejaVuSans-73" x="253.019531"/>
      <use xlink:href="#DejaVuSans-74" x="305.119141"/>
      <use xlink:href="#DejaVuSans-20" x="344.328125"/>
      <use xlink:href="#DejaVuSans-56" x="376.115234"/>
      <use xlink:href="#DejaVuSans-61" x="436.773438"/>
      <use xlink:href="#DejaVuSans-6c" x="498.052734"/>
      <use xlink:href="#DejaVuSans-69" x="525.835938"/>
      <use xlink:href="#DejaVuSans-64" x="553.619141"/>
      <use xlink:href="#DejaVuSans-61" x="617.095703"/>
      <use xlink:href="#DejaVuSans-74" x="678.375"/>
      <use xlink:href="#DejaVuSans-69" x="717.583984"/>
      <use xlink:href="#DejaVuSans-6f" x="745.367188"/>
      <use xlink:href="#DejaVuSans-6e" x="806.548828"/>
      <use xlink:href="#DejaVuSans-20" x="869.927734"/>
      <use xlink:href="#DejaVuSans-41" x="901.714844"/>
      <use xlink:href="#DejaVuSans-63" x="968.373047"/>
      <use xlink:href="#DejaVuSans-63" x="1023.353516"/>
      <use xlink:href="#DejaVuSans-75" x="1078.333984"/>
      <use xlink:href="#DejaVuSans-72" x="1141.712891"/>
      <use xlink:href="#DejaVuSans-61" x="1182.826172"/>
      <use xlink:href="#DejaVuSans-63" x="1244.105469"/>
      <use xlink:href="#DejaVuSans-79" x="1299.085938"/>
     </g>
    </g>
    <g id="line2d_27">
     <path d="M 216.18875 278.326188 
L 226.18875 278.326188 
L 236.18875 278.326188 
" style="fill: none; stroke: #d62728; stroke-width: 1.5; stroke-linecap: square"/>
    </g>
    <g id="text_25">
     <!-- SWA Validation Accuracy -->
     <g transform="translate(244.18875 281.826188) scale(0.1 -0.1)">
      <defs>
       <path id="DejaVuSans-53" d="M 3425 4513 
L 3425 3897 
Q 3066 4069 2747 4153 
Q 2428 4238 2131 4238 
Q 1616 4238 1336 4038 
Q 1056 3838 1056 3469 
Q 1056 3159 1242 3001 
Q 1428 2844 1947 2747 
L 2328 2669 
Q 3034 2534 3370 2195 
Q 3706 1856 3706 1288 
Q 3706 609 3251 259 
Q 2797 -91 1919 -91 
Q 1588 -91 1214 -16 
Q 841 59 441 206 
L 441 856 
Q 825 641 1194 531 
Q 1563 422 1919 422 
Q 2459 422 2753 634 
Q 3047 847 3047 1241 
Q 3047 1584 2836 1778 
Q 2625 1972 2144 2069 
L 1759 2144 
Q 1053 2284 737 2584 
Q 422 2884 422 3419 
Q 422 4038 858 4394 
Q 1294 4750 2059 4750 
Q 2388 4750 2728 4690 
Q 3069 4631 3425 4513 
z
" transform="scale(0.015625)"/>
       <path id="DejaVuSans-57" d="M 213 4666 
L 850 4666 
L 1831 722 
L 2809 4666 
L 3519 4666 
L 4500 722 
L 5478 4666 
L 6119 4666 
L 4947 0 
L 4153 0 
L 3169 4050 
L 2175 0 
L 1381 0 
L 213 4666 
z
" transform="scale(0.015625)"/>
      </defs>
      <use xlink:href="#DejaVuSans-53"/>
      <use xlink:href="#DejaVuSans-57" x="63.476562"/>
      <use xlink:href="#DejaVuSans-41" x="156.853516"/>
      <use xlink:href="#DejaVuSans-20" x="225.261719"/>
      <use xlink:href="#DejaVuSans-56" x="257.048828"/>
      <use xlink:href="#DejaVuSans-61" x="317.707031"/>
      <use xlink:href="#DejaVuSans-6c" x="378.986328"/>
      <use xlink:href="#DejaVuSans-69" x="406.769531"/>
      <use xlink:href="#DejaVuSans-64" x="434.552734"/>
      <use xlink:href="#DejaVuSans-61" x="498.029297"/>
      <use xlink:href="#DejaVuSans-74" x="559.308594"/>
      <use xlink:href="#DejaVuSans-69" x="598.517578"/>
      <use xlink:href="#DejaVuSans-6f" x="626.300781"/>
      <use xlink:href="#DejaVuSans-6e" x="687.482422"/>
      <use xlink:href="#DejaVuSans-20" x="750.861328"/>
      <use xlink:href="#DejaVuSans-41" x="782.648438"/>
      <use xlink:href="#DejaVuSans-63" x="849.306641"/>
      <use xlink:href="#DejaVuSans-63" x="904.287109"/>
      <use xlink:href="#DejaVuSans-75" x="959.267578"/>
      <use xlink:href="#DejaVuSans-72" x="1022.646484"/>
      <use xlink:href="#DejaVuSans-61" x="1063.759766"/>
      <use xlink:href="#DejaVuSans-63" x="1125.039062"/>
      <use xlink:href="#DejaVuSans-79" x="1180.019531"/>
     </g>
    </g>
    <g id="line2d_28">
     <path d="M 216.18875 293.004312 
L 226.18875 293.004312 
L 236.18875 293.004312 
" style="fill: none; stroke: #9467bd; stroke-width: 1.5; stroke-linecap: square"/>
    </g>
    <g id="text_26">
     <!-- SWA Robust Validation Accuracy -->
     <g transform="translate(244.18875 296.504312) scale(0.1 -0.1)">
      <use xlink:href="#DejaVuSans-53"/>
      <use xlink:href="#DejaVuSans-57" x="63.476562"/>
      <use xlink:href="#DejaVuSans-41" x="156.853516"/>
      <use xlink:href="#DejaVuSans-20" x="225.261719"/>
      <use xlink:href="#DejaVuSans-52" x="257.048828"/>
      <use xlink:href="#DejaVuSans-6f" x="322.03125"/>
      <use xlink:href="#DejaVuSans-62" x="383.212891"/>
      <use xlink:href="#DejaVuSans-75" x="446.689453"/>
      <use xlink:href="#DejaVuSans-73" x="510.068359"/>
      <use xlink:href="#DejaVuSans-74" x="562.167969"/>
      <use xlink:href="#DejaVuSans-20" x="601.376953"/>
      <use xlink:href="#DejaVuSans-56" x="633.164062"/>
      <use xlink:href="#DejaVuSans-61" x="693.822266"/>
      <use xlink:href="#DejaVuSans-6c" x="755.101562"/>
      <use xlink:href="#DejaVuSans-69" x="782.884766"/>
      <use xlink:href="#DejaVuSans-64" x="810.667969"/>
      <use xlink:href="#DejaVuSans-61" x="874.144531"/>
      <use xlink:href="#DejaVuSans-74" x="935.423828"/>
      <use xlink:href="#DejaVuSans-69" x="974.632812"/>
      <use xlink:href="#DejaVuSans-6f" x="1002.416016"/>
      <use xlink:href="#DejaVuSans-6e" x="1063.597656"/>
      <use xlink:href="#DejaVuSans-20" x="1126.976562"/>
      <use xlink:href="#DejaVuSans-41" x="1158.763672"/>
      <use xlink:href="#DejaVuSans-63" x="1225.421875"/>
      <use xlink:href="#DejaVuSans-63" x="1280.402344"/>
      <use xlink:href="#DejaVuSans-75" x="1335.382812"/>
      <use xlink:href="#DejaVuSans-72" x="1398.761719"/>
      <use xlink:href="#DejaVuSans-61" x="1439.875"/>
      <use xlink:href="#DejaVuSans-63" x="1501.154297"/>
      <use xlink:href="#DejaVuSans-79" x="1556.134766"/>
     </g>
    </g>
   </g>
  </g>
 </g>
 <defs>
  <clipPath id="p878394fbcd">
   <rect x="57.6" y="41.472" width="357.12" height="266.112"/>
  </clipPath>
 </defs>
</svg>
